<svg xmlns="http://www.w3.org/2000/svg" xmlns:xlink="http://www.w3.org/1999/xlink" width="560.193" height="678.954" viewBox="0 0 560.193 678.954">
  <defs>
    <linearGradient id="linear-gradient" x1="0.5" x2="0.5" y2="1" gradientUnits="objectBoundingBox">
      <stop offset="0" stop-color="#5ba9ae"/>
      <stop offset="1" stop-color="#5b86ae"/>
    </linearGradient>
  </defs>
  <g id="Group_21479" data-name="Group 21479" opacity="0.03">
    <g id="Group_8" data-name="Group 8" transform="translate(0 0)">
      <path id="Path_20" data-name="Path 20" d="M274.083,128.44c5.731,16.632,10.654,33.51,16.28,50.177,17.828-.352,35.69-.176,53.518-.211-14.452,10.936-29.009,21.731-43.391,32.772q8.492,25.686,16.843,51.372c-14.346-10.619-28.657-21.238-43.074-31.752-14.452,10.689-29.044,21.238-43.391,32.139,6.189-17.16,11.533-34.6,17.335-51.865-14.522-10.971-29.22-21.8-43.813-32.7q26.9.053,53.8.035C263.323,161.7,268.773,145.072,274.083,128.44Z" transform="translate(-95.543 58.836)" fill="none" stroke="#e4e4e4" stroke-linecap="round" stroke-width="2"/>
      <path id="Path_23" data-name="Path 23" d="M291.7,245.56Z" transform="translate(124.153 353.541)" fill="url(#linear-gradient)"/>
      <path id="Union_4" data-name="Union 4" d="M.351,618.652c9.741-7.981,19.3-16.209,28.551-24.754q10.6-.033,21.19,0c16.833.022,33.662.044,50.508-.351A625.168,625.168,0,0,1,.282,678.954C.6,658.843.421,638.763.351,618.652ZM220.294,184.568C140.441,160.27,65.894,119.763.563,67.935.247,45.289.915,22.643,0,0A626.416,626.416,0,0,0,268.89,144.8c4.817,106.37-19.763,213.79-68.5,308.343-19.27-.142-38.5-.07-57.771.035C189.493,371.6,217.06,278.7,220.294,184.568Z" transform="translate(290.708)" fill="url(#linear-gradient)"/>
      <path id="Path_16" data-name="Path 16" d="M174.155,219.617A628.889,628.889,0,0,0,442.763,75.31c-1.02,22.539-.105,45.078-.633,67.583-24.438,19.691-50.6,37.061-77.217,53.623,32.525,11.006,64.734,24.93,91.986,46.169,12.94,10.795,26.126,24.579,27.321,42.3,1.16,10.267-3.692,19.761-8.685,28.341,29.291,12.518,59.53,27.708,78.659,54.15a64.571,64.571,0,0,1,7.982,60.937c-10.021,28.165-32.455,49.228-54.889,67.934-.105-24.93-11.111-50.142-32.491-63.891-39.452-27.849-98.842-16.983-127.254,21.7-16.421,20.676-22.082,47.927-20.007,73.842-28.377-.176-56.753-.035-85.164-.035-48.278-94.693-73.631-201.9-68.215-308.341m177.818,42.512c-5.31,16.632-10.76,33.264-15.894,49.966q-26.9.053-53.8-.035c14.592,10.9,29.29,21.731,43.813,32.7-5.8,17.265-11.147,34.706-17.335,51.865,14.346-10.9,28.939-21.449,43.391-32.139,14.417,10.514,28.728,21.133,43.074,31.752q-8.386-25.686-16.843-51.372c14.381-11.041,28.939-21.836,43.391-32.772-17.827.035-35.69-.141-53.517.211C362.627,295.639,357.7,278.761,351.973,262.129Z" transform="translate(-173.435 -74.853)" fill="url(#linear-gradient)"/>
      <path id="Path_17" data-name="Path 17" d="M276.49,386.107C338.9,313.6,380.361,224.5,401.985,131.67c-7.1,89.7-37.764,176.587-82.175,254.472Q298.133,386.142,276.49,386.107Z" transform="translate(85.879 66.966)" fill="url(#linear-gradient)"/>
      <path id="Path_18" data-name="Path 18" d="M221.46,244.02c23.77.387,47.54.14,71.31.176q14.135,12.658,28.833,24.684c-.352,20.078-.105,40.191-.14,60.3A645.806,645.806,0,0,1,221.46,244.02Z" transform="translate(-52.589 349.667)" fill="url(#linear-gradient)"/>
      <path id="Path_19" data-name="Path 19" d="M29.344-31.758,1.406,79.911H25.636l22-88.181H55.8l22,88.181h24.229L74.094-31.758Zm82.577,0V79.911h23.488V35.82h49.942V12.333H135.409V-8.27h73.512V-31.758Zm106.889,0V-8.27h36.756V79.911h23.488V-8.27H315.81V-31.758Zm118.344,0L309.217,79.911h24.229l22-88.181h8.159l22,88.181h24.229L381.905-31.758Z" transform="translate(65.302 496.124)" fill="#121c5f"/>
    </g>
  </g>
</svg>
