<svg xmlns="http://www.w3.org/2000/svg" xmlns:xlink="http://www.w3.org/1999/xlink" width="58.543" height="70.954" viewBox="0 0 58.543 70.954">
  <defs>
    <linearGradient id="linear-gradient" x1="0.5" x2="0.5" y2="1" gradientUnits="objectBoundingBox">
      <stop offset="0" stop-color="#5ba9ae"/>
      <stop offset="1" stop-color="#5b86ae"/>
    </linearGradient>
  </defs>
  <g id="Group_10" data-name="Group 10" transform="translate(0 0)">
    <g id="Group_8" data-name="Group 8" transform="translate(0 0)">
      <path id="Path_20" data-name="Path 20" d="M211.673,128.44c.6,1.738,1.113,3.5,1.7,5.244,1.863-.037,3.73-.018,5.593-.022-1.51,1.143-3.032,2.271-4.535,3.425q.887,2.684,1.76,5.369c-1.5-1.11-2.995-2.219-4.5-3.318-1.51,1.117-3.035,2.219-4.535,3.359.647-1.793,1.205-3.616,1.812-5.42-1.518-1.146-3.054-2.278-4.579-3.417q2.811.006,5.622,0C210.549,131.916,211.118,130.178,211.673,128.44Z" transform="translate(-193.015 -108.869)" fill="none" stroke="#e4e4e4" stroke-linecap="round" stroke-width="2"/>
      <path id="Path_23" data-name="Path 23" d="M291.7,245.56Z" transform="translate(-248.242 -182.951)" fill="url(#linear-gradient)"/>
      <path id="Union_4" data-name="Union 4" d="M.037,64.652c1.018-.834,2.017-1.694,2.984-2.587q1.107,0,2.214,0c1.759,0,3.518,0,5.278-.037A65.333,65.333,0,0,1,.029,70.954C.063,68.852.044,66.754.037,64.652ZM23.022,19.288A69.871,69.871,0,0,1,.059,7.1C.026,4.733.1,2.366,0,0A65.463,65.463,0,0,0,28.1,15.132a64.448,64.448,0,0,1-7.158,32.223c-2.014-.015-4.024-.007-6.037,0A60.869,60.869,0,0,0,23.022,19.288Z" transform="translate(30.38)" fill="url(#linear-gradient)"/>
      <path id="Path_16" data-name="Path 16" d="M173.51,90.391A65.722,65.722,0,0,0,201.581,75.31c-.107,2.355-.011,4.711-.066,7.063a80.8,80.8,0,0,1-8.07,5.6,32.283,32.283,0,0,1,9.613,4.825c1.352,1.128,2.73,2.569,2.855,4.421a4.924,4.924,0,0,1-.908,2.962c3.061,1.308,6.221,2.9,8.22,5.659a6.748,6.748,0,0,1,.834,6.368c-1.047,2.943-3.392,5.145-5.736,7.1a7.918,7.918,0,0,0-3.4-6.677,9.929,9.929,0,0,0-13.3,2.267,10.983,10.983,0,0,0-2.091,7.717c-2.965-.018-5.931,0-8.9,0a64.283,64.283,0,0,1-7.129-32.223m18.583,4.443c-.555,1.738-1.124,3.476-1.661,5.222q-2.811.006-5.622,0c1.525,1.139,3.061,2.271,4.579,3.417-.606,1.8-1.165,3.627-1.812,5.42,1.5-1.139,3.024-2.242,4.535-3.359,1.507,1.1,3,2.208,4.5,3.318q-.876-2.684-1.76-5.369c1.5-1.154,3.024-2.282,4.535-3.425-1.863,0-3.73-.015-5.593.022C193.207,98.335,192.692,96.572,192.093,94.833Z" transform="translate(-173.435 -75.262)" fill="url(#linear-gradient)"/>
      <path id="Path_17" data-name="Path 17" d="M276.49,158.26A62.417,62.417,0,0,0,289.6,131.67a64.42,64.42,0,0,1-8.588,26.593Q278.752,158.263,276.49,158.26Z" transform="translate(-238.621 -110.912)" fill="url(#linear-gradient)"/>
      <path id="Path_18" data-name="Path 18" d="M221.46,244.02c2.484.04,4.968.015,7.452.018q1.477,1.323,3.013,2.58c-.037,2.1-.011,4.2-.015,6.3A67.489,67.489,0,0,1,221.46,244.02Z" transform="translate(-203.812 -181.977)" fill="url(#linear-gradient)"/>
      <path id="Path_19" data-name="Path 19" d="M4.326-31.758l-2.92,11.67H3.938l2.3-9.215H7.09l2.3,9.215h2.532L9-31.758Zm8.63,0v11.67H15.41V-24.7h5.219V-27.15H15.41V-29.3h7.682v-2.455Zm11.17,0V-29.3h3.841v9.215h2.455V-29.3h3.841v-2.455Zm12.368,0-2.92,11.67h2.532l2.3-9.215h.853l2.3,9.215H44.09l-2.92-11.67Z" transform="translate(5.565 80.286)" fill="#121c5f"/>
    </g>
  </g>
</svg>
