<svg xmlns="http://www.w3.org/2000/svg" xmlns:xlink="http://www.w3.org/1999/xlink" width="45" height="45" viewBox="0 0 45 45">
  <defs>
    <linearGradient id="linear-gradient" x1="0.5" x2="0.5" y2="1" gradientUnits="objectBoundingBox">
      <stop offset="0" stop-color="#5ba9ae"/>
      <stop offset="1" stop-color="#5b86ae"/>
    </linearGradient>
  </defs>
  <g id="Group_21189" data-name="Group 21189" transform="translate(-1081.448 -97)">
    <circle id="Ellipse_123" data-name="Ellipse 123" cx="22.5" cy="22.5" r="22.5" transform="translate(1081.448 97)" fill="url(#linear-gradient)"/>
    <g id="Group_10" data-name="Group 10" transform="translate(1094.634 107.605)">
      <g id="Group_8" data-name="Group 8" transform="translate(0 0)">
        <path id="Path_20" data-name="Path 20" d="M206.782,128.44c.2.571.366,1.15.559,1.722.612-.012,1.225-.006,1.837-.007-.5.375-1,.746-1.49,1.125q.292.882.578,1.764c-.492-.365-.984-.729-1.479-1.09-.5.367-1,.729-1.49,1.1.212-.589.4-1.188.6-1.78-.5-.377-1-.748-1.5-1.123q.923,0,1.847,0C206.413,129.582,206.6,129.011,206.782,128.44Z" transform="translate(-200.653 -122.011)" fill="none"/>
        <path id="Path_23" data-name="Path 23" d="M291.7,245.56Z" transform="translate(-277.425 -224.994)" fill="#fff"/>
        <path id="Union_4" data-name="Union 4" d="M.012,21.237c.334-.274.663-.556.98-.85H1.72c.578,0,1.156,0,1.734-.012A21.461,21.461,0,0,1,.01,23.307C.021,22.617.014,21.928.012,21.237Zm7.55-14.9a22.952,22.952,0,0,1-7.543-4C.008,1.555.031.777,0,0A21.5,21.5,0,0,0,9.231,4.971,21.17,21.17,0,0,1,6.879,15.556c-.661,0-1.322,0-1.983,0A20,20,0,0,0,7.562,6.336Z" transform="translate(9.979)" fill="#fff"/>
        <path id="Path_16" data-name="Path 16" d="M173.46,80.264a21.589,21.589,0,0,0,9.221-4.954c-.035.774,0,1.547-.022,2.32a26.54,26.54,0,0,1-2.651,1.841,10.6,10.6,0,0,1,3.158,1.585,2.217,2.217,0,0,1,.938,1.452,1.618,1.618,0,0,1-.3.973,6.167,6.167,0,0,1,2.7,1.859,2.217,2.217,0,0,1,.274,2.092,5.7,5.7,0,0,1-1.884,2.332,2.6,2.6,0,0,0-1.115-2.193,3.262,3.262,0,0,0-4.368.745,3.608,3.608,0,0,0-.687,2.535c-.974-.006-1.948,0-2.924,0a21.116,21.116,0,0,1-2.342-10.585m6.1,1.459c-.182.571-.369,1.142-.546,1.715q-.923,0-1.847,0c.5.374,1.005.746,1.5,1.123-.2.593-.383,1.191-.6,1.78.492-.374.993-.736,1.49-1.1.495.361.986.725,1.479,1.09q-.288-.882-.578-1.764c.494-.379.993-.75,1.49-1.125-.612,0-1.225,0-1.837.007C179.93,82.873,179.761,82.294,179.564,81.723Z" transform="translate(-173.435 -75.294)" fill="#fff"/>
        <path id="Path_17" data-name="Path 17" d="M276.49,140.4a20.5,20.5,0,0,0,4.308-8.734,21.161,21.161,0,0,1-2.821,8.736Z" transform="translate(-264.051 -124.851)" fill="#fff"/>
        <path id="Path_18" data-name="Path 18" d="M221.46,244.02c.816.013,1.632,0,2.448.006q.485.435.99.847c-.012.689,0,1.38,0,2.07A22.17,22.17,0,0,1,221.46,244.02Z" transform="translate(-215.663 -223.64)" fill="#fff"/>
        <path id="Path_19" data-name="Path 19" d="M2.365-31.758l-.959,3.833h.832l.755-3.027h.28l.755,3.027h.832L3.9-31.758Zm2.835,0v3.833h.806v-1.514H7.721v-.806H6.006v-.707H8.53v-.806Zm3.669,0v.806h1.262v3.027h.806v-3.027H12.2v-.806Zm4.063,0-.959,3.833H12.8l.755-3.027h.28l.755,3.027h.832l-.959-3.833Z" transform="translate(0.884 47.699)" fill="#fff"/>
      </g>
    </g>
  </g>
</svg>
