<svg xmlns="http://www.w3.org/2000/svg" xmlns:xlink="http://www.w3.org/1999/xlink" width="310.228" height="129.41" viewBox="0 0 310.228 129.41">
  <defs>
    <linearGradient id="linear-gradient" x1="0.5" x2="0.5" y2="1" gradientUnits="objectBoundingBox">
      <stop offset="0" stop-color="#03d481"/>
      <stop offset="1" stop-color="#0294c1"/>
    </linearGradient>
  </defs>
  <g id="Group_18081" data-name="Group 18081" transform="translate(-1654.905 -28.169)">
    <g id="Group_10" data-name="Group 10" transform="translate(1858.36 28.169)">
      <g id="Group_8" data-name="Group 8" transform="translate(0 0)">
        <path id="Path_20" data-name="Path 20" d="M217.673,128.44c1.092,3.17,2.031,6.387,3.1,9.564,3.4-.067,6.8-.034,10.2-.04-2.755,2.084-5.529,4.142-8.27,6.246q1.619,4.9,3.21,9.792c-2.734-2.024-5.462-4.048-8.21-6.052-2.755,2.037-5.536,4.048-8.27,6.126,1.18-3.271,2.2-6.595,3.3-9.886-2.768-2.091-5.569-4.155-8.351-6.233q5.127.01,10.254.007C215.623,134.78,216.661,131.61,217.673,128.44Z" transform="translate(-183.644 -92.745)" fill="none" stroke="#fff" stroke-linecap="round" stroke-width="2"/>
        <path id="Path_23" data-name="Path 23" d="M291.7,245.56Z" transform="translate(-212.438 -131.37)" fill="url(#linear-gradient)"/>
        <path id="Union_4" data-name="Union 4" d="M.067,117.916c1.857-1.521,3.679-3.09,5.442-4.718q2.019-.006,4.039,0c3.208,0,6.416.008,9.627-.067A119.158,119.158,0,0,1,.054,129.41C.114,125.577.08,121.749.067,117.916ZM41.988,35.179A127.435,127.435,0,0,1,.107,12.949C.047,8.632.174,4.316,0,0A119.4,119.4,0,0,0,51.251,27.6,117.543,117.543,0,0,1,38.195,86.37c-3.673-.027-7.338-.013-11.011.007A111.017,111.017,0,0,0,41.988,35.179Z" transform="translate(55.409)" fill="url(#linear-gradient)"/>
        <path id="Path_16" data-name="Path 16" d="M173.572,102.815a119.867,119.867,0,0,0,51.2-27.505c-.194,4.3-.02,8.592-.121,12.881a147.377,147.377,0,0,1-14.718,10.221c6.2,2.1,12.338,4.752,17.533,8.8,2.466,2.058,4.98,4.685,5.207,8.063.221,1.957-.7,3.767-1.655,5.4,5.583,2.386,11.347,5.281,14.993,10.321a12.307,12.307,0,0,1,1.521,11.615c-1.91,5.368-6.186,9.383-10.462,12.948-.02-4.752-2.118-9.557-6.193-12.178-7.52-5.308-18.839-3.237-24.255,4.135a20.032,20.032,0,0,0-3.813,14.074c-5.409-.034-10.817-.007-16.232-.007a117.244,117.244,0,0,1-13-58.77m33.892,8.1c-1.012,3.17-2.051,6.34-3.029,9.524q-5.127.01-10.254-.007c2.781,2.078,5.583,4.142,8.351,6.233-1.106,3.291-2.125,6.615-3.3,9.886,2.734-2.078,5.516-4.088,8.27-6.126,2.748,2,5.476,4.028,8.21,6.052q-1.6-4.9-3.21-9.792c2.741-2.1,5.516-4.162,8.27-6.246-3.4.007-6.8-.027-10.2.04C209.5,117.305,208.557,114.088,207.465,110.918Z" transform="translate(-173.435 -75.223)" fill="url(#linear-gradient)"/>
        <path id="Path_17" data-name="Path 17" d="M276.49,180.166c11.9-13.82,19.8-30.8,23.92-48.5-1.354,17.1-7.2,33.658-15.663,48.5Q280.615,180.173,276.49,180.166Z" transform="translate(-207.422 -93.81)" fill="url(#linear-gradient)"/>
        <path id="Path_18" data-name="Path 18" d="M221.46,244.02c4.531.074,9.061.027,13.592.033q2.694,2.413,5.5,4.7c-.067,3.827-.02,7.66-.027,11.494A123.092,123.092,0,0,1,221.46,244.02Z" transform="translate(-189.273 -130.862)" fill="url(#linear-gradient)"/>
        <path id="Path_19" data-name="Path 19" d="M6.731-31.758,1.406-10.474H6.024l4.194-16.808h1.555l4.194,16.808h4.618L15.261-31.758Zm15.739,0v21.284h4.477v-8.4h9.519v-4.477H26.947v-3.927H40.959v-4.477Zm20.373,0v4.477H49.85v16.808h4.477V-27.281h7.006v-4.477Zm22.557,0L60.076-10.474h4.618l4.194-16.808h1.555l4.194,16.808h4.618L73.93-31.758Z" transform="translate(11.308 120.267)" fill="#fff"/>
      </g>
    </g>
    <g id="Group_17964" data-name="Group 17964" transform="translate(1654.905 28.169)">
      <path id="Path_872" data-name="Path 872" d="M-87.4-16.144a1.053,1.053,0,0,0,1.065-1.065A1.07,1.07,0,0,0-87.4-18.274a1.087,1.087,0,0,0-1.065,1.065A1.07,1.07,0,0,0-87.4-16.144Zm3.792,0a1.048,1.048,0,0,0,1.039-1.065,1.065,1.065,0,0,0-1.039-1.065,1.07,1.07,0,0,0-1.065,1.065A1.053,1.053,0,0,0-83.606-16.144Zm5.637,14.131a2.387,2.387,0,0,1-2.468-2.52V-7.806h-.026l.026-.364v-5.3h-5.351A4.929,4.929,0,0,0-90.853-8.4V-5.65A5.007,5.007,0,0,0-85.944-.585a5.5,5.5,0,0,0,4.39-2.026,3.9,3.9,0,0,0,3.585,2.13h.545V-2.014ZM-82-4.092a4.71,4.71,0,0,1-3.948,1.974A3.49,3.49,0,0,1-89.321-5.65V-8.4a3.411,3.411,0,0,1,3.533-3.533H-82Zm12.131,2.078a2.044,2.044,0,0,1-2.156-2.208v-8.546h-1.533v8.546a2.024,2.024,0,0,1-2.13,2.208h-1.922l-.675.26V-.741l.675.26h1.922A3.37,3.37,0,0,0-72.8-1.936,3.369,3.369,0,0,0-70.073-.481h1.74V-2.014Zm-5.013,3.9a1.07,1.07,0,0,0-1.065,1.065,1.053,1.053,0,0,0,1.065,1.065,1.048,1.048,0,0,0,1.039-1.065A1.065,1.065,0,0,0-74.878,1.883Zm3.74,0A1.087,1.087,0,0,0-72.2,2.948a1.07,1.07,0,0,0,1.065,1.065A1.048,1.048,0,0,0-70.1,2.948,1.065,1.065,0,0,0-71.138,1.883ZM-65.5-18.56V-3.338a1.276,1.276,0,0,1-1.3,1.325h-1.818l-.649.26V-.741l.649.26h2.208a2.391,2.391,0,0,0,2.442-2.442V-18.56Zm5.221,0V-2.923A2.407,2.407,0,0,0-57.838-.481h2.182V-2.014h-1.792a1.276,1.276,0,0,1-1.3-1.325V-18.56ZM-39.4-2.014a2.407,2.407,0,0,1-2.494-2.52V-8.4a4.929,4.929,0,0,0-5.065-5.065h-.26A4.929,4.929,0,0,0-52.279-8.4v3.87a2.407,2.407,0,0,1-2.494,2.52h-1.065l-.675.234V-.741l.675.26h1.065a3.655,3.655,0,0,0,3.4-2.052A6.093,6.093,0,0,0-46.8-.585a4.639,4.639,0,0,0,3.922-2.234A3.564,3.564,0,0,0-39.4-.481h.883V-2.014Zm-7.4-.1a4.744,4.744,0,0,1-3.948-1.974V-8.4a3.4,3.4,0,0,1,3.533-3.533h.26A3.411,3.411,0,0,1-43.422-8.4V-5.65A3.473,3.473,0,0,1-46.8-2.117ZM-35.681-18.56V-3.338a1.276,1.276,0,0,1-1.3,1.325H-38.8l-.649.26V-.741l.649.26h2.208a2.391,2.391,0,0,0,2.442-2.442V-18.56ZM-28.8-.481V-18.56H-30.33V-.481Zm8.91-12.988h-.26A4.944,4.944,0,0,0-25.213-8.4v2.831A5.015,5.015,0,0,0-20.355-.507h4V.428c0,2.753-1.792,3.585-6.754,3.065V4.948c5.585.753,8.286-.623,8.286-4.234V-8.4A4.944,4.944,0,0,0-19.888-13.469ZM-16.355-8.4V-2.04H-20.3A3.473,3.473,0,0,1-23.68-5.572V-8.4a3.4,3.4,0,0,1,3.533-3.533h.26A3.411,3.411,0,0,1-16.355-8.4Zm13.066-7.741a1.053,1.053,0,0,0,1.065-1.065,1.07,1.07,0,0,0-1.065-1.065,1.087,1.087,0,0,0-1.065,1.065A1.07,1.07,0,0,0-3.289-16.144Zm3.792,0a1.048,1.048,0,0,0,1.039-1.065A1.065,1.065,0,0,0,.5-18.274,1.07,1.07,0,0,0-.562-17.209,1.053,1.053,0,0,0,.5-16.144ZM6.14-2.014a2.387,2.387,0,0,1-2.468-2.52V-7.806H3.646l.026-.364v-5.3H-1.679A4.929,4.929,0,0,0-6.744-8.4V-5.65A5.007,5.007,0,0,0-1.835-.585a5.5,5.5,0,0,0,4.39-2.026A3.9,3.9,0,0,0,6.14-.481h.545V-2.014ZM2.114-4.092A4.71,4.71,0,0,1-1.835-2.117,3.49,3.49,0,0,1-5.212-5.65V-8.4a3.411,3.411,0,0,1,3.533-3.533H2.114ZM13.8-2.014A2.045,2.045,0,0,1,11.647-4.17a3.48,3.48,0,0,0,.026-.52v-8.078H10.114v8.546a2.024,2.024,0,0,1-2.13,2.208H6.5l-.675.26V-.741l.675.26H7.984a3.336,3.336,0,0,0,2.883-1.455A3.37,3.37,0,0,0,13.595-.481H15V-2.014Zm-2.961,4.1A1.07,1.07,0,0,0,9.776,3.156a1.052,1.052,0,1,0,2.1,0A1.065,1.065,0,0,0,10.841,2.091ZM31.856-13.365v8.884a2.483,2.483,0,0,1-2.468,2.468c-1.844,0-2.805-.779-2.805-2v-6.858H25.05v6.858c0,1.169-1.065,2.052-2.727,2.026-1.714-.052-2.52-.805-2.52-2.026v-6.858H18.27v6.858a1.969,1.969,0,0,1-2,2H14.686l-.675.234V-.741l.675.26h1.481a3.5,3.5,0,0,0,2.857-1.455,4.009,4.009,0,0,0,3.3,1.455A4.237,4.237,0,0,0,25.8-1.962,4.134,4.134,0,0,0,29.388-.481a4,4,0,0,0,4-4v-8.884Zm5.533-5.2V-2.923A2.407,2.407,0,0,0,39.83-.481h2.182V-2.014H40.22a1.276,1.276,0,0,1-1.3-1.325V-18.56ZM57.364-2.014V-2.04C56.4-2.2,56.117-2.2,54.325-6.715c-2.52-6.1-6.832-7.663-10.936-6v1.4c3.844-1.533,6.987-.39,9.273,4.78.909,2.078,1.585,4.13,2.156,4.52H41.934l-.675.26V-.741l.675.26H58.688V-2.014ZM75-2.014a2.407,2.407,0,0,1-2.494-2.52V-8.4a4.929,4.929,0,0,0-5.065-5.065h-.26A4.929,4.929,0,0,0,62.117-8.4v3.87a2.407,2.407,0,0,1-2.494,2.52H58.559l-.675.234V-.741l.675.26h1.065a3.655,3.655,0,0,0,3.4-2.052A6.093,6.093,0,0,0,67.6-.585,4.639,4.639,0,0,0,71.52-2.819,3.564,3.564,0,0,0,75-.481h.883V-2.014Zm-7.4-.1A4.744,4.744,0,0,1,63.65-4.092V-8.4a3.4,3.4,0,0,1,3.533-3.533h.26A3.411,3.411,0,0,1,70.975-8.4V-5.65A3.473,3.473,0,0,1,67.6-2.117ZM78.716-18.56V-3.338a1.276,1.276,0,0,1-1.3,1.325H75.6l-.649.26V-.741l.649.26h2.208a2.391,2.391,0,0,0,2.442-2.442V-18.56ZM85.6-.481V-18.56H84.067V-.481ZM-90.736,15.533V31.17a2.407,2.407,0,0,0,2.442,2.442h2.182V32.079h-1.792a1.276,1.276,0,0,1-1.3-1.325V15.533ZM-78.58,32.079a2.044,2.044,0,0,1-2.156-2.208V21.326h-1.533v8.546a2.024,2.024,0,0,1-2.13,2.208h-1.922l-.675.26v1.013l.675.26H-84.4a3.37,3.37,0,0,0,2.883-1.455,3.369,3.369,0,0,0,2.727,1.455h1.74V32.079Zm-5.013,3.9a1.07,1.07,0,0,0-1.065,1.065,1.053,1.053,0,0,0,1.065,1.065,1.048,1.048,0,0,0,1.039-1.065A1.065,1.065,0,0,0-83.593,35.976Zm3.741,0a1.087,1.087,0,0,0-1.065,1.065,1.07,1.07,0,0,0,1.065,1.065,1.048,1.048,0,0,0,1.039-1.065A1.065,1.065,0,0,0-79.853,35.976Zm14.91-8.6c-2.494-6.1-6.832-7.663-10.936-6v1.4c3.87-1.533,6.987-.39,9.273,4.78.909,2.078,1.61,4.13,2.182,4.52h-12.91l-.675.26v1.013l.675.26H-61.9V32.053C-62.839,31.9-63.15,31.9-64.943,27.378Zm-5.481,8.65a1.087,1.087,0,0,0-1.065,1.065,1.087,1.087,0,0,0,1.065,1.065,1.065,1.065,0,0,0,1.039-1.065A1.065,1.065,0,0,0-70.423,36.028Zm23.638-3.948h-1.662v-6.39a4.944,4.944,0,0,0-5.065-5.065h-.26a4.944,4.944,0,0,0-5.065,5.065v2.831a5.015,5.015,0,0,0,4.857,5.065h4v.935c0,2.753-1.792,3.585-6.754,3.065v1.455c5.585.753,8.286-.623,8.286-4.234V33.612h1.662Zm-7.143-.026a3.473,3.473,0,0,1-3.377-3.533V25.689a3.4,3.4,0,0,1,3.533-3.533h.26a3.411,3.411,0,0,1,3.533,3.533v6.364Zm10.1-16.52V30.755a1.276,1.276,0,0,1-1.3,1.325h-1.818l-.649.26v1.013l.649.26h2.208a2.391,2.391,0,0,0,2.442-2.442V15.533Zm16.832,16.546h-1.662v-6.39a4.944,4.944,0,0,0-5.065-5.065h-.26a4.944,4.944,0,0,0-5.065,5.065v2.831a5.015,5.015,0,0,0,4.857,5.065h4v.935c0,2.753-1.792,3.585-6.754,3.065v1.455c5.585.753,8.286-.623,8.286-4.234V33.612h1.662Zm-7.143-.026a3.473,3.473,0,0,1-3.377-3.533V25.689a3.4,3.4,0,0,1,3.533-3.533h.26a3.411,3.411,0,0,1,3.533,3.533v6.364Zm10.962-13.066a1.048,1.048,0,0,0,1.039-1.065,1.042,1.042,0,0,0-1.039-1.039,1.065,1.065,0,0,0-1.065,1.039A1.07,1.07,0,0,0-23.174,18.988Zm3.065,13.092a2.045,2.045,0,0,1-2.156-2.156,3.481,3.481,0,0,0,.026-.52V21.326H-23.8v8.546a2.024,2.024,0,0,1-2.13,2.208h-1.247l-.675.26v1.013l.675.26h1.247a3.336,3.336,0,0,0,2.883-1.455,3.37,3.37,0,0,0,2.727,1.455h1.169V32.079Zm15.17,0V28.91a5.14,5.14,0,0,0-5.273-5.3h-5.611l4.052-8.078H-13.3l-4.728,9.351.156.26h7.663A3.608,3.608,0,0,1-6.471,28.91v3.169H-19.537l-.675.234v1.039l.675.26H-1.952V32.079ZM.568,18.988a1.065,1.065,0,1,0,0-2.13,1.065,1.065,0,1,0,0,2.13Zm3.792,0A1.065,1.065,0,1,0,3.3,17.923,1.065,1.065,0,0,0,4.36,18.988ZM5.374,32.079a2.045,2.045,0,0,1-2.156-2.156,3.481,3.481,0,0,0,.026-.52V21.326H1.685v8.546a2.024,2.024,0,0,1-2.13,2.208h-1.87l-.675.26v1.013l.675.26h1.87a3.336,3.336,0,0,0,2.883-1.455,3.369,3.369,0,0,0,2.727,1.455h2.1V32.079Zm4.805-16.546V30.755a1.276,1.276,0,0,1-1.3,1.325H7.062l-.649.26v1.013l.649.26H9.27a2.391,2.391,0,0,0,2.442-2.442V15.533Zm6.884,18.079V15.533H15.53V33.612ZM32.44,20.468a1.052,1.052,0,0,0,0-2.1,1.052,1.052,0,1,0,0,2.1Zm3.766,0a1.052,1.052,0,0,0,0-2.1,1.052,1.052,0,1,0,0,2.1ZM25.141,24v4.572a4.916,4.916,0,0,0,5.039,5.039H40.752A3.162,3.162,0,0,0,44,30.391V20.364H42.467v9.507a2.044,2.044,0,0,1-2.156,2.208H30.18a3.369,3.369,0,0,1-3.507-3.507V24ZM47.48,15.533V31.17a2.407,2.407,0,0,0,2.442,2.442H52.1V32.079H50.311a1.276,1.276,0,0,1-1.3-1.325V15.533Zm4.1,18.079h3.143a2.407,2.407,0,0,0,2.442-2.442V21.3H55.61v9.455a1.256,1.256,0,0,1-1.273,1.325H51.584Zm3.351,4.831a1.065,1.065,0,1,0,0-2.13,1.065,1.065,0,0,0,0,2.13Zm5.715-22.91V31.17a2.407,2.407,0,0,0,2.442,2.442h2.182V32.079H63.481a1.276,1.276,0,0,1-1.3-1.325V15.533ZM77.482,27.378c-2.494-6.1-6.832-7.663-10.936-6v1.4c3.87-1.533,6.987-.39,9.273,4.78.909,2.078,1.61,4.13,2.182,4.52H65.092l-.675.26v1.013l.675.26h15.43V32.053C79.586,31.9,79.274,31.9,77.482,27.378ZM72,36.028a1.065,1.065,0,0,0,0,2.13,1.065,1.065,0,0,0,0-2.13ZM85.69,15.533H84.158V33.612H85.69ZM84.885,39.56a1.76,1.76,0,0,1-.961-1.636c0-.909.338-1.273,1.091-1.273.7,0,1.117.364,1.3,1.195h.857c-.208-1.533-1.039-2.13-2.182-2.13a1.907,1.907,0,0,0-2,2.13,2.187,2.187,0,0,0,.7,1.714H82.7v.961h4.572V39.56Z" transform="translate(93.73 88.888)" fill="rgba(255,255,255,0.45)"/>
      <path id="Path_871" data-name="Path 871" d="M-148.772-7.416V-24.844h-9.083a9.993,9.993,0,0,0-10.19,10.19V-3.128A7.31,7.31,0,0,1-175.7,4.526h-.277a7.285,7.285,0,0,1-7.654-7.654v-8.9h-6.178v8.9a13.465,13.465,0,0,0,13.832,13.786h.277A13.492,13.492,0,0,0-161.866-3.128V-14.655a3.836,3.836,0,0,1,4.011-4.057h2.9V-1.238h11.619V-7.416Zm4.749,0v6.178h10.42V-7.416Zm9.5,0v6.178h10.42V-7.416Zm9.5,0v6.178h10.42V-7.416Zm9.5,0v6.178h10.42V-7.416Zm16.322-18.95a3.68,3.68,0,0,0,3.642-3.642,3.671,3.671,0,0,0-3.642-3.6,3.671,3.671,0,0,0-3.642,3.6A3.68,3.68,0,0,0-99.207-26.366Zm9.867,0a3.671,3.671,0,0,0,3.6-3.642,3.662,3.662,0,0,0-3.6-3.6,3.671,3.671,0,0,0-3.642,3.6A3.68,3.68,0,0,0-89.34-26.366ZM-88.1-7.416c-2.766,0-3.458-1.706-3.458-3.735v-1.06c.046-.507.046-.968.046-1.429v-9.452h-6.224l.046,6.178v5.763c0,2.029-.6,3.735-3.412,3.735h-4.7L-108.474-6.4v4.2l2.674.968h4.611A8.492,8.492,0,0,0-94.6-3.866a8.006,8.006,0,0,0,5.671,2.628h7.239V-7.416Zm5.533,0v6.178h10.42V-7.416Zm9.5,0v6.178h10.42V-7.416Zm9.5,0v6.178h10.42V-7.416Zm9.5,0v6.178h10.42V-7.416Zm23.376-21.025a3.621,3.621,0,0,0,3.642-3.642,3.671,3.671,0,0,0-3.642-3.6,3.721,3.721,0,0,0-3.642,3.689A3.694,3.694,0,0,0-30.692-28.441Zm.184,3.5h-.507A10.325,10.325,0,0,0-41.481-14.424V-11.8a7.761,7.761,0,0,0,1.429,4.38h-4.1l-2.674.968v4.2l2.674,1.014H-29.77a9.751,9.751,0,0,0,9.729-9.682v-3.5A10.325,10.325,0,0,0-30.508-24.937Zm4.288,13.371a4.132,4.132,0,0,1-4.15,4.15h-.922A4.286,4.286,0,0,1-35.3-11.8v-2.628a4.127,4.127,0,0,1,4.288-4.334h.507a4.127,4.127,0,0,1,4.288,4.334ZM-11.1-40.336a3.126,3.126,0,0,1-1.66-2.536,1.418,1.418,0,0,1,1.568-1.522,1.868,1.868,0,0,1,1.8,1.844H-6.3c-.184-3.366-2.075-5.21-4.98-5.21a4.286,4.286,0,0,0-4.657,4.472,4.364,4.364,0,0,0,1.107,2.951h-1.66v3.412H-6.025v-3.412Zm-3.227,39.1h6.178v-32.09h-6.178Z" transform="translate(189.807 47.759)" fill="#fff"/>
    </g>
  </g>
</svg>
