<svg xmlns="http://www.w3.org/2000/svg" xmlns:xlink="http://www.w3.org/1999/xlink" width="170.094" height="70.954" viewBox="0 0 170.094 70.954">
  <defs>
    <linearGradient id="linear-gradient" x1="0.5" x2="0.5" y2="1" gradientUnits="objectBoundingBox">
      <stop offset="0" stop-color="#03d481"/>
      <stop offset="1" stop-color="#0294c1"/>
    </linearGradient>
  </defs>
  <g id="Group_17966" data-name="Group 17966" transform="translate(-1654.905 -28.169)">
    <g id="Group_10" data-name="Group 10" transform="translate(1766.457 28.169)">
      <g id="Group_8" data-name="Group 8" transform="translate(0 0)">
        <path id="Path_20" data-name="Path 20" d="M211.673,128.44c.6,1.738,1.113,3.5,1.7,5.244,1.863-.037,3.73-.018,5.593-.022-1.51,1.143-3.032,2.271-4.535,3.425q.887,2.684,1.76,5.369c-1.5-1.11-2.995-2.219-4.5-3.318-1.51,1.117-3.035,2.219-4.535,3.359.647-1.793,1.205-3.616,1.812-5.42-1.518-1.146-3.054-2.278-4.579-3.417q2.811.006,5.622,0C210.549,131.916,211.118,130.178,211.673,128.44Z" transform="translate(-193.015 -108.869)" fill="none" stroke="#e4e4e4" stroke-linecap="round" stroke-width="2"/>
        <path id="Path_23" data-name="Path 23" d="M291.7,245.56Z" transform="translate(-248.242 -182.951)" fill="url(#linear-gradient)"/>
        <path id="Union_4" data-name="Union 4" d="M.037,64.652c1.018-.834,2.017-1.694,2.984-2.587q1.107,0,2.214,0c1.759,0,3.518,0,5.278-.037A65.333,65.333,0,0,1,.029,70.954C.063,68.852.044,66.754.037,64.652ZM23.022,19.288A69.871,69.871,0,0,1,.059,7.1C.026,4.733.1,2.366,0,0A65.463,65.463,0,0,0,28.1,15.132a64.448,64.448,0,0,1-7.158,32.223c-2.014-.015-4.024-.007-6.037,0A60.869,60.869,0,0,0,23.022,19.288Z" transform="translate(30.38)" fill="url(#linear-gradient)"/>
        <path id="Path_16" data-name="Path 16" d="M173.51,90.391A65.722,65.722,0,0,0,201.581,75.31c-.107,2.355-.011,4.711-.066,7.063a80.8,80.8,0,0,1-8.07,5.6,32.283,32.283,0,0,1,9.613,4.825c1.352,1.128,2.73,2.569,2.855,4.421a4.924,4.924,0,0,1-.908,2.962c3.061,1.308,6.221,2.9,8.22,5.659a6.748,6.748,0,0,1,.834,6.368c-1.047,2.943-3.392,5.145-5.736,7.1a7.918,7.918,0,0,0-3.4-6.677,9.929,9.929,0,0,0-13.3,2.267,10.983,10.983,0,0,0-2.091,7.717c-2.965-.018-5.931,0-8.9,0a64.283,64.283,0,0,1-7.129-32.223m18.583,4.443c-.555,1.738-1.124,3.476-1.661,5.222q-2.811.006-5.622,0c1.525,1.139,3.061,2.271,4.579,3.417-.606,1.8-1.165,3.627-1.812,5.42,1.5-1.139,3.024-2.242,4.535-3.359,1.507,1.1,3,2.208,4.5,3.318q-.876-2.684-1.76-5.369c1.5-1.154,3.024-2.282,4.535-3.425-1.863,0-3.73-.015-5.593.022C193.207,98.335,192.692,96.572,192.093,94.833Z" transform="translate(-173.435 -75.262)" fill="url(#linear-gradient)"/>
        <path id="Path_17" data-name="Path 17" d="M276.49,158.26A62.417,62.417,0,0,0,289.6,131.67a64.42,64.42,0,0,1-8.588,26.593Q278.752,158.263,276.49,158.26Z" transform="translate(-238.621 -110.912)" fill="url(#linear-gradient)"/>
        <path id="Path_18" data-name="Path 18" d="M221.46,244.02c2.484.04,4.968.015,7.452.018q1.477,1.323,3.013,2.58c-.037,2.1-.011,4.2-.015,6.3A67.489,67.489,0,0,1,221.46,244.02Z" transform="translate(-203.812 -181.977)" fill="url(#linear-gradient)"/>
        <path id="Path_19" data-name="Path 19" d="M4.326-31.758l-2.92,11.67H3.938l2.3-9.215H7.09l2.3,9.215h2.532L9-31.758Zm8.63,0v11.67H15.41V-24.7h5.219V-27.15H15.41V-29.3h7.682v-2.455Zm11.17,0V-29.3h3.841v9.215h2.455V-29.3h3.841v-2.455Zm12.368,0-2.92,11.67h2.532l2.3-9.215h.853l2.3,9.215H44.09l-2.92-11.67Z" transform="translate(5.565 80.286)" fill="#121c5f"/>
      </g>
    </g>
    <g id="Group_17964" data-name="Group 17964" transform="translate(1654.905 28.169)">
      <path id="Path_872" data-name="Path 872" d="M-88.959-17.235a.578.578,0,0,0,.584-.584.587.587,0,0,0-.584-.584.6.6,0,0,0-.584.584A.587.587,0,0,0-88.959-17.235Zm2.079,0a.575.575,0,0,0,.57-.584.584.584,0,0,0-.57-.584.587.587,0,0,0-.584.584A.578.578,0,0,0-86.88-17.235Zm3.091,7.748a1.309,1.309,0,0,1-1.353-1.381v-1.795h-.014l.014-.2v-2.905h-2.934a2.7,2.7,0,0,0-2.777,2.777v1.51A2.745,2.745,0,0,0-88.162-8.7a3.014,3.014,0,0,0,2.407-1.111,2.141,2.141,0,0,0,1.965,1.168h.3v-.84ZM-86-10.627a2.582,2.582,0,0,1-2.165,1.082,1.913,1.913,0,0,1-1.851-1.937v-1.51a1.87,1.87,0,0,1,1.937-1.937H-86Zm6.651,1.139A1.121,1.121,0,0,1-80.528-10.7v-4.686h-.84V-10.7a1.11,1.11,0,0,1-1.168,1.211H-83.59l-.37.142v.555l.37.142h1.054a1.848,1.848,0,0,0,1.581-.8,1.847,1.847,0,0,0,1.5.8h.954v-.84Zm-2.749,2.136a.587.587,0,0,0-.584.584.578.578,0,0,0,.584.584.575.575,0,0,0,.57-.584A.584.584,0,0,0-82.094-7.351Zm2.051,0a.6.6,0,0,0-.584.584.587.587,0,0,0,.584.584.575.575,0,0,0,.57-.584A.584.584,0,0,0-80.044-7.351Zm3.091-11.209v8.346a.7.7,0,0,1-.712.726h-1l-.356.142v.555l.356.142h1.211a1.311,1.311,0,0,0,1.339-1.339V-18.56Zm2.863,0v8.574a1.319,1.319,0,0,0,1.339,1.339h1.2v-.84h-.983a.7.7,0,0,1-.712-.726V-18.56ZM-62.64-9.488a1.32,1.32,0,0,1-1.367-1.381v-2.122a2.7,2.7,0,0,0-2.777-2.777h-.142A2.7,2.7,0,0,0-69.7-12.991v2.122a1.32,1.32,0,0,1-1.367,1.381h-.584l-.37.128v.57l.37.142h.584a2,2,0,0,0,1.866-1.125A3.341,3.341,0,0,0-66.7-8.7a2.544,2.544,0,0,0,2.151-1.225A1.954,1.954,0,0,0-62.64-8.647h.484v-.84ZM-66.7-9.545a2.6,2.6,0,0,1-2.165-1.082v-2.364a1.862,1.862,0,0,1,1.937-1.937h.142a1.87,1.87,0,0,1,1.937,1.937v1.51A1.9,1.9,0,0,1-66.7-9.545Zm6.1-9.015v8.346a.7.7,0,0,1-.712.726h-1l-.356.142v.555l.356.142H-61.1a1.311,1.311,0,0,0,1.339-1.339V-18.56Zm3.774,9.913V-18.56h-.84v9.913Zm4.885-7.121h-.142a2.711,2.711,0,0,0-2.777,2.777v1.552A2.749,2.749,0,0,0-52.2-8.662h2.193v.513c0,1.51-.983,1.965-3.7,1.681v.8c3.062.413,4.543-.342,4.543-2.321v-5A2.711,2.711,0,0,0-51.944-15.769Zm1.937,2.777V-9.5h-2.165a1.9,1.9,0,0,1-1.851-1.937v-1.552a1.862,1.862,0,0,1,1.937-1.937h.142A1.87,1.87,0,0,1-50.007-12.991Zm7.164-4.244a.578.578,0,0,0,.584-.584.587.587,0,0,0-.584-.584.6.6,0,0,0-.584.584A.587.587,0,0,0-42.843-17.235Zm2.079,0a.575.575,0,0,0,.57-.584.584.584,0,0,0-.57-.584.587.587,0,0,0-.584.584A.578.578,0,0,0-40.764-17.235Zm3.091,7.748a1.309,1.309,0,0,1-1.353-1.381v-1.795h-.014l.014-.2v-2.905H-41.96a2.7,2.7,0,0,0-2.777,2.777v1.51A2.745,2.745,0,0,0-42.046-8.7a3.014,3.014,0,0,0,2.407-1.111,2.141,2.141,0,0,0,1.965,1.168h.3v-.84Zm-2.208-1.139a2.582,2.582,0,0,1-2.165,1.082A1.913,1.913,0,0,1-43.9-11.482v-1.51a1.87,1.87,0,0,1,1.937-1.937h2.079Zm6.409,1.139a1.121,1.121,0,0,1-1.182-1.182,1.908,1.908,0,0,0,.014-.285v-4.429h-.855V-10.7a1.11,1.11,0,0,1-1.168,1.211h-.812l-.37.142v.555l.37.142h.812a1.829,1.829,0,0,0,1.581-.8,1.847,1.847,0,0,0,1.5.8h.769v-.84ZM-35.1-7.238a.587.587,0,0,0-.584.584.578.578,0,0,0,.584.584.575.575,0,0,0,.57-.584A.584.584,0,0,0-35.1-7.238Zm11.522-8.474v4.871a1.362,1.362,0,0,1-1.353,1.353c-1.011,0-1.538-.427-1.538-1.1v-3.76h-.84v3.76c0,.641-.584,1.125-1.5,1.111-.94-.028-1.381-.442-1.381-1.111v-3.76h-.84v3.76a1.079,1.079,0,0,1-1.1,1.1h-.869l-.37.128v.57l.37.142h.812a1.92,1.92,0,0,0,1.567-.8,2.2,2.2,0,0,0,1.809.8,2.323,2.323,0,0,0,1.908-.812,2.267,2.267,0,0,0,1.965.812,2.194,2.194,0,0,0,2.193-2.193v-4.871Zm3.034-2.848v8.574A1.319,1.319,0,0,0-19.2-8.647H-18v-.84h-.983a.7.7,0,0,1-.712-.726V-18.56ZM-9.588-9.488V-9.5c-.527-.085-.684-.085-1.666-2.564-1.381-3.347-3.746-4.2-6-3.29v.769c2.108-.84,3.831-.214,5.084,2.621a10.227,10.227,0,0,0,1.182,2.478h-7.064l-.37.142v.555l.37.142h9.186v-.84Zm9.67,0a1.32,1.32,0,0,1-1.367-1.381v-2.122a2.7,2.7,0,0,0-2.777-2.777H-4.2a2.7,2.7,0,0,0-2.777,2.777v2.122A1.32,1.32,0,0,1-8.349-9.488h-.584l-.37.128v.57l.37.142h.584A2,2,0,0,0-6.483-9.773,3.341,3.341,0,0,0-3.976-8.7,2.544,2.544,0,0,0-1.826-9.929,1.954,1.954,0,0,0,.083-8.647H.567v-.84Zm-4.059-.057a2.6,2.6,0,0,1-2.165-1.082v-2.364A1.862,1.862,0,0,1-4.2-14.928h.142a1.87,1.87,0,0,1,1.937,1.937v1.51A1.9,1.9,0,0,1-3.976-9.545Zm6.1-9.015v8.346a.7.7,0,0,1-.712.726h-1l-.356.142v.555l.356.142H1.621A1.311,1.311,0,0,0,2.96-9.986V-18.56ZM5.893-8.647V-18.56h-.84v9.913ZM-90.789.133V8.707a1.319,1.319,0,0,0,1.339,1.339h1.2V9.2h-.983a.7.7,0,0,1-.712-.726V.133ZM-84.124,9.2a1.121,1.121,0,0,1-1.182-1.211V3.309h-.84V7.994A1.11,1.11,0,0,1-87.314,9.2h-1.054l-.37.142V9.9l.37.142h1.054a1.848,1.848,0,0,0,1.581-.8,1.847,1.847,0,0,0,1.5.8h.954V9.2Zm-2.749,2.136a.587.587,0,0,0-.584.584.578.578,0,0,0,.584.584.575.575,0,0,0,.57-.584A.584.584,0,0,0-86.873,11.341Zm2.051,0a.6.6,0,0,0-.584.584.587.587,0,0,0,.584.584.575.575,0,0,0,.57-.584A.584.584,0,0,0-84.822,11.341Zm8.175-4.714c-1.367-3.347-3.746-4.2-6-3.29v.769c2.122-.84,3.831-.214,5.084,2.621a10.093,10.093,0,0,0,1.2,2.478H-83.44l-.37.142V9.9l.37.142h8.46V9.191C-75.493,9.105-75.664,9.105-76.647,6.627Zm-3.005,4.743a.6.6,0,0,0-.584.584.6.6,0,0,0,.584.584.584.584,0,0,0,.57-.584A.584.584,0,0,0-79.652,11.37ZM-66.692,9.2H-67.6V5.7A2.711,2.711,0,0,0-70.38,2.924h-.142A2.711,2.711,0,0,0-73.3,5.7V7.254a2.749,2.749,0,0,0,2.663,2.777h2.193v.513c0,1.51-.983,1.965-3.7,1.681v.8c3.062.413,4.543-.342,4.543-2.321v-.655h.911Zm-3.917-.014A1.9,1.9,0,0,1-72.46,7.254V5.7a1.862,1.862,0,0,1,1.937-1.937h.142A1.87,1.87,0,0,1-68.443,5.7V9.191Zm5.54-9.058V8.479a.7.7,0,0,1-.712.726h-1l-.356.142V9.9l.356.142h1.211a1.311,1.311,0,0,0,1.339-1.339V.133ZM-55.839,9.2h-.911V5.7a2.711,2.711,0,0,0-2.777-2.777h-.142A2.711,2.711,0,0,0-62.447,5.7V7.254a2.749,2.749,0,0,0,2.663,2.777h2.193v.513c0,1.51-.983,1.965-3.7,1.681v.8c3.062.413,4.543-.342,4.543-2.321v-.655h.911Zm-3.917-.014a1.9,1.9,0,0,1-1.851-1.937V5.7A1.862,1.862,0,0,1-59.67,3.765h.142A1.87,1.87,0,0,1-57.591,5.7V9.191Zm6.01-7.164a.575.575,0,0,0,.57-.584.571.571,0,0,0-.57-.57.584.584,0,0,0-.584.57A.587.587,0,0,0-53.745,2.027ZM-52.065,9.2a1.121,1.121,0,0,1-1.182-1.182,1.908,1.908,0,0,0,.014-.285V3.309h-.855V7.994A1.11,1.11,0,0,1-55.255,9.2h-.684l-.37.142V9.9l.37.142h.684a1.829,1.829,0,0,0,1.581-.8,1.847,1.847,0,0,0,1.5.8h.641V9.2Zm8.317,0V7.467a2.818,2.818,0,0,0-2.891-2.905h-3.076L-47.493.133h-.84L-50.926,5.26l.085.142h4.2a1.978,1.978,0,0,1,2.051,2.065V9.2h-7.164l-.37.128V9.9l.37.142h9.642V9.2Zm3.019-7.178a.587.587,0,0,0,.584-.584.587.587,0,0,0-.584-.584.6.6,0,0,0-.584.584A.6.6,0,0,0-40.728,2.027Zm2.079,0a.584.584,0,0,0,.57-.584.584.584,0,0,0-.57-.584.587.587,0,0,0-.584.584A.587.587,0,0,0-38.649,2.027Zm.555,7.178a1.121,1.121,0,0,1-1.182-1.182,1.908,1.908,0,0,0,.014-.285V3.309h-.855V7.994A1.11,1.11,0,0,1-41.284,9.2h-1.025l-.37.142V9.9l.37.142h1.025a1.829,1.829,0,0,0,1.581-.8,1.847,1.847,0,0,0,1.5.8h1.154V9.2ZM-35.459.133V8.479a.7.7,0,0,1-.712.726h-1l-.356.142V9.9l.356.142h1.211a1.311,1.311,0,0,0,1.339-1.339V.133Zm3.774,9.913V.133h-.84v9.913Zm8.431-7.207a.575.575,0,0,0,.57-.584.571.571,0,0,0-.57-.57.584.584,0,0,0-.584.57A.587.587,0,0,0-23.253,2.839Zm2.065,0a.575.575,0,0,0,.57-.584.571.571,0,0,0-.57-.57.584.584,0,0,0-.584.57A.587.587,0,0,0-21.188,2.839Zm-6.067,1.937V7.282a2.7,2.7,0,0,0,2.763,2.763h5.8a1.734,1.734,0,0,0,1.78-1.766v-5.5h-.84V7.994A1.121,1.121,0,0,1-18.938,9.2h-5.554a1.847,1.847,0,0,1-1.923-1.923V4.776ZM-15.007.133V8.707a1.319,1.319,0,0,0,1.339,1.339h1.2V9.2h-.983a.7.7,0,0,1-.712-.726V.133Zm2.25,9.913h1.723A1.319,1.319,0,0,0-9.695,8.707V3.295h-.855V8.479a.689.689,0,0,1-.7.726h-1.51Zm1.837,2.649a.587.587,0,0,0,.584-.584.587.587,0,0,0-.584-.584.6.6,0,0,0-.584.584A.6.6,0,0,0-10.919,12.694ZM-7.786.133V8.707a1.319,1.319,0,0,0,1.339,1.339h1.2V9.2h-.983a.7.7,0,0,1-.712-.726V.133ZM1.443,6.627c-1.367-3.347-3.746-4.2-6-3.29v.769c2.122-.84,3.831-.214,5.084,2.621A10.093,10.093,0,0,0,1.728,9.2H-5.351l-.37.142V9.9l.37.142h8.46V9.191C2.6,9.105,2.425,9.105,1.443,6.627ZM-1.562,11.37a.6.6,0,0,0-.584.584.6.6,0,0,0,.584.584.584.584,0,0,0,.57-.584A.584.584,0,0,0-1.562,11.37ZM5.943.133H5.1v9.913h.84ZM5.5,13.307a.965.965,0,0,1-.527-.9c0-.5.185-.7.6-.7.385,0,.612.2.712.655h.47c-.114-.84-.57-1.168-1.2-1.168a1.046,1.046,0,0,0-1.1,1.168,1.2,1.2,0,0,0,.385.94H4.305v.527H6.812v-.527Z" transform="translate(92.431 57.12)" fill="#7f8fa4"/>
      <path id="Path_871" data-name="Path 871" d="M-167.308-25.64V-35.2h-4.98a5.479,5.479,0,0,0-5.587,5.587v6.32a4.008,4.008,0,0,1-4.2,4.2h-.152a3.994,3.994,0,0,1-4.2-4.2v-4.879h-3.387v4.879a7.383,7.383,0,0,0,7.584,7.559h.152a7.4,7.4,0,0,0,7.584-7.559v-6.32a2.1,2.1,0,0,1,2.2-2.225h1.593v9.581h6.371V-25.64Zm2.6,0v3.387h5.713V-25.64Zm5.208,0v3.387h5.713V-25.64Zm5.208,0v3.387h5.713V-25.64Zm5.208,0v3.387h5.713V-25.64Zm8.949-10.39a2.018,2.018,0,0,0,2-2,2.013,2.013,0,0,0-2-1.972,2.013,2.013,0,0,0-2,1.972A2.018,2.018,0,0,0-140.132-36.03Zm5.41,0a2.013,2.013,0,0,0,1.972-2A2.008,2.008,0,0,0-134.722-40a2.013,2.013,0,0,0-2,1.972A2.018,2.018,0,0,0-134.722-36.03Zm.683,10.39c-1.517,0-1.9-.935-1.9-2.048v-.581c.025-.278.025-.531.025-.784v-5.182h-3.413l.025,3.387v3.16c0,1.112-.329,2.048-1.871,2.048h-2.579l-1.466.556v2.3l1.466.531h2.528a4.656,4.656,0,0,0,3.615-1.441,4.389,4.389,0,0,0,3.109,1.441h3.969V-25.64Zm3.034,0v3.387h5.713V-25.64Zm5.208,0v3.387h5.713V-25.64Zm5.208,0v3.387h5.713V-25.64Zm5.208,0v3.387h5.713V-25.64Zm12.817-11.528a1.985,1.985,0,0,0,2-2,2.013,2.013,0,0,0-2-1.972,2.04,2.04,0,0,0-2,2.022A2.025,2.025,0,0,0-102.566-37.167Zm.1,1.921h-.278a5.661,5.661,0,0,0-5.739,5.764v1.441a4.255,4.255,0,0,0,.784,2.4h-2.25l-1.466.531v2.3l1.466.556h7.887a5.346,5.346,0,0,0,5.334-5.309v-1.921A5.661,5.661,0,0,0-102.465-35.246Zm2.351,7.331a2.266,2.266,0,0,1-2.275,2.275h-.506a2.35,2.35,0,0,1-2.2-2.4v-1.441a2.263,2.263,0,0,1,2.351-2.376h.278a2.263,2.263,0,0,1,2.351,2.376Zm8.292-15.775a1.714,1.714,0,0,1-.91-1.39.777.777,0,0,1,.86-.834,1.024,1.024,0,0,1,.986,1.011h1.694c-.1-1.845-1.138-2.857-2.73-2.857a2.35,2.35,0,0,0-2.553,2.452,2.393,2.393,0,0,0,.607,1.618h-.91v1.871h5.739v-1.871Zm-1.77,21.437H-90.2V-39.847h-3.387Z" transform="translate(189.807 47.759)" fill="#121c5f"/>
    </g>
  </g>
</svg>
