<svg xmlns="http://www.w3.org/2000/svg" width="135.911" height="30.65" viewBox="0 0 135.911 30.65">
  <g id="Group_22136" data-name="Group 22136" transform="translate(-679.089 -568)">
    <g id="Group_35" data-name="Group 35" transform="translate(679.089 568)">
      <path id="Path_3778" data-name="Path 3778" d="M13.775,0C6.163.053,0,6.859,0,15.237c0,8.411,6.211,15.236,13.864,15.236a13.147,13.147,0,0,0,9.328-3.97h0A14.805,14.805,0,0,0,24.6,24.871h-2.84a14.8,14.8,0,0,1-1.034-1.57h4.9a15.745,15.745,0,0,0,.808-1.63H19.92a15.719,15.719,0,0,1-.58-1.6h7.673a16.548,16.548,0,0,0,.714-4.833,16.8,16.8,0,0,0-.319-3.264H18.933q.159-.813.395-1.6H27a16.186,16.186,0,0,0-.6-1.631H19.919a15.205,15.205,0,0,1,.795-1.6h4.9a15.167,15.167,0,0,0-1.076-1.63H21.8a13.407,13.407,0,0,1,1.39-1.538A13.143,13.143,0,0,0,13.865,0Z" transform="translate(0 0)" fill="#931b1d"/>
      <path id="Path_3779" data-name="Path 3779" d="M40.573,15.242c0,8.414-6.2,15.237-13.861,15.239S12.849,23.664,12.847,15.248v-.006C12.844,6.825,19.05,0,26.706,0S40.571,6.818,40.573,15.234C40.573,15.234,40.573,15.237,40.573,15.242Z" transform="translate(5.75 0)" fill="#f16622"/>
      <path id="Path_3780" data-name="Path 3780" d="M40.573,15.348c0,8.414-6.2,15.238-13.861,15.24S12.849,23.77,12.847,15.355v-.008c0-8.415,6.2-15.239,13.86-15.241S40.571,6.924,40.573,15.34C40.573,15.34,40.573,15.345,40.573,15.348Z" transform="translate(5.75 0.063)" fill="#f7981d"/>
      <path id="Path_3781" data-name="Path 3781" d="M13.775.109C6.163.163,0,6.968,0,15.346c0,8.411,6.211,15.237,13.864,15.237a13.15,13.15,0,0,0,9.328-3.971v0h0A14.561,14.561,0,0,0,24.6,24.98h-2.84a14.675,14.675,0,0,1-1.034-1.568h4.9a15.866,15.866,0,0,0,.808-1.632H19.92a15.833,15.833,0,0,1-.58-1.6h7.673a16.557,16.557,0,0,0,.714-4.833,16.793,16.793,0,0,0-.319-3.263H18.933c.106-.541.238-1.077.395-1.6H27a16.2,16.2,0,0,0-.6-1.632H19.919a15.345,15.345,0,0,1,.795-1.6h4.9a15.449,15.449,0,0,0-1.076-1.631H21.8a13.585,13.585,0,0,1,1.39-1.538A13.144,13.144,0,0,0,13.865.109Z" transform="translate(0 0.064)" fill="#cb2026"/>
      <path id="Path_3782" data-name="Path 3782" d="M13.726,14.793l.185-1.379c-.1,0-.25.047-.381.047-.514,0-.571-.3-.537-.522l.415-2.814h.781L14.378,8.6h-.736l.15-.948H12.315c-.032.035-.872,5.335-.872,5.979,0,.955.487,1.381,1.176,1.375A3.58,3.58,0,0,0,13.726,14.793Z" transform="translate(5.122 4.496)" fill="#fff"/>
      <path id="Path_3783" data-name="Path 3783" d="M13.344,11.88c0,2.293,1.376,2.838,2.549,2.838a3.451,3.451,0,0,0,1.559-.267l.261-1.565a4.245,4.245,0,0,1-1.568.4c-1.585,0-1.307-1.3-1.307-1.3h3a12.822,12.822,0,0,0,.193-1.48,2.1,2.1,0,0,0-2.1-2.371C14.442,8.136,13.344,9.893,13.344,11.88Zm2.589-2.292c.833,0,.679,1.029.679,1.112H14.973C14.973,10.594,15.127,9.588,15.933,9.588Z" transform="translate(5.973 4.781)" fill="#fff"/>
      <path id="Path_3784" data-name="Path 3784" d="M22.809,15.042l.264-1.77a3.315,3.315,0,0,1-1.221.4c-1.047,0-1.467-.881-1.467-1.823,0-1.916.9-2.97,1.9-2.97a2.478,2.478,0,0,1,1.356.465l.241-1.718a4.9,4.9,0,0,0-1.662-.4c-1.7,0-3.363,1.623-3.363,4.677,0,2.022.9,3.359,2.657,3.359A6.235,6.235,0,0,0,22.809,15.042Z" transform="translate(8.443 4.247)" fill="#fff"/>
      <path id="Path_3785" data-name="Path 3785" d="M8.261,8.152a4.714,4.714,0,0,0-1.788.357l-.214,1.4a4.306,4.306,0,0,1,1.609-.285c.55,0,.951.067.951.559a1.135,1.135,0,0,1-.049.408s-.433-.04-.634-.04a2.327,2.327,0,0,0-2.617,2.405c0,1.422.879,1.749,1.425,1.749a1.872,1.872,0,0,0,1.514-.746l-.049.621h1.3l.58-4.469A1.8,1.8,0,0,0,8.261,8.152Zm.317,3.637c.028.273-.156,1.553-1.045,1.553a.569.569,0,0,1-.578-.613c0-.444.22-.977,1.3-.977A.884.884,0,0,1,8.577,11.788Z" transform="translate(2.47 4.79)" fill="#fff"/>
      <path id="Path_3786" data-name="Path 3786" d="M10.28,14.664A1.942,1.942,0,0,0,12.512,12.6c0-2.015-1.759-1.618-1.759-2.427,0-.4.287-.53.811-.53.208,0,1.009.074,1.009.074l.187-1.433A6.316,6.316,0,0,0,11.4,8.158a1.959,1.959,0,0,0-2.2,2.117c0,1.859,1.848,1.671,1.848,2.454,0,.522-.517.565-.915.565a4.422,4.422,0,0,1-1.31-.248l-.2,1.417A4.242,4.242,0,0,0,10.28,14.664Z" transform="translate(3.86 4.794)" fill="#fff"/>
      <path id="Path_3787" data-name="Path 3787" d="M31.34,7.343l-.318,2.171A1.931,1.931,0,0,0,29.6,8.672c-1.353,0-2.48,1.792-2.48,3.851,0,1.329.6,2.631,1.83,2.631a1.8,1.8,0,0,0,1.374-.678l-.064.578h1.436L32.821,7.34Zm-.685,4.235c0,.856-.387,2-1.186,2-.532,0-.78-.49-.78-1.259,0-1.257.513-2.089,1.161-2.089C30.382,10.23,30.655,10.633,30.655,11.578Z" transform="translate(12.138 4.313)" fill="#fff"/>
      <path id="Path_3788" data-name="Path 3788" d="M2.331,15.062l.9-5.825.131,5.825H4.379l1.9-5.825-.841,5.825H6.946L8.111,7.339H5.774L4.318,12.077,4.243,7.339H2.089L.908,15.062Z" transform="translate(0.407 4.312)" fill="#fff"/>
      <path id="Path_3789" data-name="Path 3789" d="M18.071,14.568c.43-2.685.509-4.865,1.535-4.468a6.718,6.718,0,0,1,.548-1.881,1.4,1.4,0,0,0-.285-.021c-.66,0-1.15.992-1.15.992l.13-.911H17.475l-.92,6.288Z" transform="translate(7.41 4.817)" fill="#fff"/>
      <path id="Path_3790" data-name="Path 3790" d="M24.789,8.152A4.71,4.71,0,0,0,23,8.508l-.213,1.4A4.3,4.3,0,0,1,24.4,9.621c.549,0,.952.067.952.559a1.124,1.124,0,0,1-.05.408s-.433-.04-.635-.04a2.326,2.326,0,0,0-2.616,2.405c0,1.422.88,1.749,1.425,1.749a1.869,1.869,0,0,0,1.514-.746l-.048.621h1.3l.58-4.469A1.794,1.794,0,0,0,24.789,8.152Zm.317,3.637c.028.273-.155,1.553-1.045,1.553a.568.568,0,0,1-.576-.613c0-.444.219-.977,1.3-.977A.886.886,0,0,1,25.106,11.788Z" transform="translate(9.868 4.79)" fill="#fff"/>
      <path id="Path_3791" data-name="Path 3791" d="M26.63,14.568c.43-2.685.51-4.865,1.535-4.468a6.675,6.675,0,0,1,.549-1.881A1.424,1.424,0,0,0,28.43,8.2c-.662,0-1.15.992-1.15.992l.131-.911H26.035l-.92,6.288H26.63Z" transform="translate(11.241 4.817)" fill="#fff"/>
    </g>
    <text id="Master_Card" data-name="Master Card" transform="translate(815 589)" fill="#121c5f" font-size="22" font-family="Somar-Medium, Somar" font-weight="500"><tspan x="-76.135" y="0">Master Card</tspan></text>
  </g>
</svg>
