<svg id="Group_35" data-name="Group 35" xmlns="http://www.w3.org/2000/svg" width="34.368" height="20.735" viewBox="0 0 34.368 20.735">
  <path id="Path_3778" data-name="Path 3778" d="M10.22,0a10.308,10.308,0,1,0,6.986,17.929h0a10.343,10.343,0,0,0,1.045-1.1H16.145a9.982,9.982,0,0,1-.767-1.062h3.634a10.3,10.3,0,0,0,.6-1.1H14.779a10.041,10.041,0,0,1-.43-1.083h5.693a10.285,10.285,0,0,0,.529-3.269A10.4,10.4,0,0,0,20.334,8.1H14.046a10.5,10.5,0,0,1,.293-1.082h5.7a10.347,10.347,0,0,0-.443-1.1H14.778a9.95,9.95,0,0,1,.59-1.083H19a10.232,10.232,0,0,0-.8-1.1H16.177a9.426,9.426,0,0,1,1.031-1.041A10.23,10.23,0,0,0,10.286,0Z" transform="translate(0 0)" fill="#931b1d"/>
  <path id="Path_3779" data-name="Path 3779" d="M33.417,10.311a10.285,10.285,0,1,1-20.571,0v0a10.285,10.285,0,1,1,20.571-.006S33.417,10.308,33.417,10.311Z" transform="translate(0.951 0)" fill="#f16622"/>
  <path id="Path_3780" data-name="Path 3780" d="M33.417,10.417a10.285,10.285,0,1,1-20.571.005v-.005a10.285,10.285,0,1,1,20.571-.005S33.417,10.415,33.417,10.417Z" transform="translate(0.951 0.008)" fill="#f7981d"/>
  <path id="Path_3781" data-name="Path 3781" d="M10.22.109a10.308,10.308,0,1,0,6.986,17.93h0a10.173,10.173,0,0,0,1.045-1.1H16.145a9.9,9.9,0,0,1-.767-1.061h3.634a10.38,10.38,0,0,0,.6-1.1H14.779a10.114,10.114,0,0,1-.43-1.082h5.693a10.291,10.291,0,0,0,.529-3.27,10.394,10.394,0,0,0-.237-2.208H14.046a10.5,10.5,0,0,1,.293-1.082h5.7a10.357,10.357,0,0,0-.443-1.1H14.778a10.041,10.041,0,0,1,.59-1.082H19a10.422,10.422,0,0,0-.8-1.1H16.177A9.551,9.551,0,0,1,17.208,2.8,10.231,10.231,0,0,0,10.286.109Z" transform="translate(0 0.008)" fill="#cb2026"/>
  <path id="Path_3782" data-name="Path 3782" d="M13.137,12.483l.138-.933c-.075,0-.185.032-.282.032-.381,0-.423-.2-.4-.353l.308-1.9h.579l.14-1.032h-.546l.111-.641h-1.1c-.024.024-.647,3.609-.647,4.045a.814.814,0,0,0,.873.93A2.88,2.88,0,0,0,13.137,12.483Z" transform="translate(0.847 0.566)" fill="#fff"/>
  <path id="Path_3783" data-name="Path 3783" d="M13.344,10.668a1.721,1.721,0,0,0,1.891,1.92,2.771,2.771,0,0,0,1.157-.181l.193-1.059a3.386,3.386,0,0,1-1.163.272c-1.176,0-.97-.879-.97-.879h2.226a7.953,7.953,0,0,0,.143-1,1.47,1.47,0,0,0-1.562-1.6C14.159,8.136,13.344,9.324,13.344,10.668Zm1.921-1.55c.618,0,.5.7.5.752H14.553C14.552,9.8,14.667,9.118,15.265,9.118Z" transform="translate(0.987 0.602)" fill="#fff"/>
  <path id="Path_3784" data-name="Path 3784" d="M21.791,12.514l.2-1.2a2.621,2.621,0,0,1-.906.272,1.086,1.086,0,0,1-1.088-1.233c0-1.3.668-2.009,1.413-2.009a1.946,1.946,0,0,1,1.006.314L22.59,7.5a3.916,3.916,0,0,0-1.233-.27c-1.264,0-2.495,1.1-2.495,3.164,0,1.368.665,2.273,1.972,2.273A5.03,5.03,0,0,0,21.791,12.514Z" transform="translate(1.396 0.535)" fill="#fff"/>
  <path id="Path_3785" data-name="Path 3785" d="M7.553,8.152a3.783,3.783,0,0,0-1.327.241l-.159.946a3.462,3.462,0,0,1,1.193-.193c.408,0,.706.046.706.378A.706.706,0,0,1,7.93,9.8s-.321-.027-.47-.027c-.947,0-1.942.405-1.942,1.627a1.04,1.04,0,0,0,1.057,1.183,1.422,1.422,0,0,0,1.123-.5l-.036.42h.964l.43-3.023A1.3,1.3,0,0,0,7.553,8.152Zm.235,2.46c.021.185-.116,1.051-.775,1.051a.4.4,0,0,1-.429-.415c0-.3.163-.661.966-.661A.715.715,0,0,1,7.788,10.612Z" transform="translate(0.408 0.603)" fill="#fff"/>
  <path id="Path_3786" data-name="Path 3786" d="M9.852,12.559c.246,0,1.656.063,1.656-1.395,0-1.363-1.305-1.094-1.305-1.642,0-.272.213-.359.6-.359.154,0,.748.05.748.05l.139-.97a5.121,5.121,0,0,0-1.01-.086c-.811,0-1.633.323-1.633,1.432,0,1.258,1.371,1.13,1.371,1.66,0,.353-.383.382-.679.382a3.557,3.557,0,0,1-.972-.168l-.146.959A3.424,3.424,0,0,0,9.852,12.559Z" transform="translate(0.638 0.604)" fill="#fff"/>
  <path id="Path_3787" data-name="Path 3787" d="M30.25,7.342l-.236,1.469a1.447,1.447,0,0,0-1.057-.57c-1,0-1.84,1.212-1.84,2.605,0,.9.446,1.78,1.358,1.78a1.366,1.366,0,0,0,1.019-.458l-.048.391h1.065l.837-5.219Zm-.508,2.865c0,.579-.287,1.353-.88,1.353-.394,0-.578-.332-.578-.852,0-.85.381-1.413.861-1.413C29.54,9.3,29.742,9.567,29.742,10.207Z" transform="translate(2.007 0.543)" fill="#fff"/>
  <path id="Path_3788" data-name="Path 3788" d="M1.964,12.563l.668-3.94.1,3.94h.755l1.407-3.94-.624,3.94H5.388l.864-5.225H4.518l-1.08,3.205L3.382,7.339h-1.6L.908,12.563Z" transform="translate(0.067 0.543)" fill="#fff"/>
  <path id="Path_3789" data-name="Path 3789" d="M17.679,12.507c.319-1.816.378-3.291,1.139-3.022a4.254,4.254,0,0,1,.406-1.272,1.14,1.14,0,0,0-.211-.014c-.489,0-.853.671-.853.671l.1-.616h-1.02l-.682,4.254Z" transform="translate(1.225 0.607)" fill="#fff"/>
  <path id="Path_3790" data-name="Path 3790" d="M24.081,8.152a3.779,3.779,0,0,0-1.326.241l-.158.946a3.454,3.454,0,0,1,1.193-.193c.407,0,.706.046.706.378a.7.7,0,0,1-.037.276s-.321-.027-.471-.027c-.947,0-1.941.405-1.941,1.627A1.041,1.041,0,0,0,23.1,12.583a1.42,1.42,0,0,0,1.123-.5l-.036.42h.965l.43-3.023A1.3,1.3,0,0,0,24.081,8.152Zm.235,2.46c.021.185-.115,1.051-.776,1.051a.4.4,0,0,1-.428-.415c0-.3.163-.661.964-.661A.716.716,0,0,1,24.317,10.612Z" transform="translate(1.631 0.603)" fill="#fff"/>
  <path id="Path_3791" data-name="Path 3791" d="M26.239,12.507c.319-1.816.378-3.291,1.139-3.022a4.227,4.227,0,0,1,.407-1.272,1.155,1.155,0,0,0-.212-.014c-.491,0-.853.671-.853.671l.1-.616H25.8l-.683,4.254h1.124Z" transform="translate(1.858 0.607)" fill="#fff"/>
</svg>
