<svg xmlns="http://www.w3.org/2000/svg" width="117.863" height="28" viewBox="0 0 117.863 28">
  <g id="Group_22137" data-name="Group 22137" transform="translate(-1011.137 -570)">
    <g id="Group_34" data-name="Group 34" transform="translate(1011.137 576.178)">
      <path id="Path_3773" data-name="Path 3773" d="M13.611,15.339,15.951.183H19.74L17.4,15.339Z" transform="translate(2.995 0.062)" fill="#183270"/>
      <path id="Path_3774" data-name="Path 3774" d="M29.823.636A9.072,9.072,0,0,0,26.427,0c-3.745,0-6.383,2.056-6.405,5C20,7.179,21.9,8.394,23.343,9.119c1.475.741,1.971,1.217,1.964,1.88-.009,1.016-1.178,1.48-2.268,1.48a7.4,7.4,0,0,1-3.567-.8l-.488-.241-.532,3.393a11.115,11.115,0,0,0,4.222.809c3.983,0,6.569-2.032,6.6-5.178.015-1.724-1-3.036-3.182-4.118-1.325-.7-2.136-1.168-2.127-1.879,0-.63.687-1.3,2.17-1.3a6.491,6.491,0,0,1,2.837.58l.339.175Z" transform="translate(4.06)" fill="#183270"/>
      <path id="Path_3775" data-name="Path 3775" d="M34.434.183a1.871,1.871,0,0,0-1.963,1.291L26.856,15.34h4.012l.78-2.323h4.793l.445,2.323h3.566L37.332.183h-2.9Zm-1.722,9.8c.313-.873,1.509-4.236,1.509-4.236-.022.04.311-.877.5-1.446l.256,1.306.877,4.376H32.712Z" transform="translate(5.91 0.062)" fill="#183270"/>
      <path id="Path_3776" data-name="Path 3776" d="M8.953,10.572,8.619,8.494A11.536,11.536,0,0,0,3.376,2.139l3.348,13.2h4.013L16.755.183H12.743Z" transform="translate(0.743 0.062)" fill="#183270"/>
      <path id="Path_3777" data-name="Path 3777" d="M0,.183V.427A13.256,13.256,0,0,1,9.362,8.494L7.988,1.476A1.64,1.64,0,0,0,6.242.183Z" transform="translate(0 0.062)" fill="#f7981d"/>
    </g>
    <text id="Visa_Card" data-name="Visa Card" transform="translate(1129 590)" fill="#121c5f" font-size="23" font-family="Somar-Medium, Somar" font-weight="500"><tspan x="-62.545" y="0">Visa Card</tspan></text>
  </g>
</svg>
