<svg xmlns="http://www.w3.org/2000/svg" xmlns:xlink="http://www.w3.org/1999/xlink" width="61.447" height="58.206" viewBox="0 0 61.447 58.206">
  <defs>
    <linearGradient id="linear-gradient" x1="0.5" x2="0.5" y2="1" gradientUnits="objectBoundingBox">
      <stop offset="0" stop-color="#03d481"/>
      <stop offset="1" stop-color="#0294c1"/>
    </linearGradient>
  </defs>
  <g id="_01" data-name="01" transform="translate(0 0)">
    <path id="Path_16742" data-name="Path 16742" d="M442.637,1213.882H394.806a5.123,5.123,0,0,1-5.127-5.121v-11.731a5.129,5.129,0,0,1,5.128-5.12h47.831a5.13,5.13,0,0,1,5.128,5.121v11.731A5.124,5.124,0,0,1,442.637,1213.882Zm-36.4,7.311h0a4.546,4.546,0,0,1-4.555-4.541v-4.23a4.554,4.554,0,0,1,4.555-4.551h0a4.555,4.555,0,0,1,4.555,4.552v4.229a4.546,4.546,0,0,1-4.557,4.541Zm24.98,0h0a4.546,4.546,0,0,1-4.557-4.541v-4.23a4.556,4.556,0,0,1,4.556-4.551h0a4.556,4.556,0,0,1,4.556,4.552v4.229a4.547,4.547,0,0,1-4.556,4.541Z" transform="translate(-387.996 -1180.989)" fill="url(#linear-gradient)"/>
    <path id="Path_16743" data-name="Path 16743" d="M442.648,1190.271h-6.6a1.639,1.639,0,0,0,.416-1.1,1.661,1.661,0,0,0-1.667-1.66h-4.343a6.709,6.709,0,0,0-6.692-6.521H413.684a6.708,6.708,0,0,0-6.692,6.521h-4.344a1.662,1.662,0,0,0-1.667,1.66,1.636,1.636,0,0,0,.417,1.1h-6.6a6.8,6.8,0,0,0-6.8,6.8v11.761a6.813,6.813,0,0,0,3.906,6.151v15.642a8.58,8.58,0,0,0,8.575,8.571H436.96a8.58,8.58,0,0,0,8.575-8.571v-15.641a6.814,6.814,0,0,0,3.907-6.151v-11.761a6.807,6.807,0,0,0-6.795-6.8Zm-28.964-5.941h10.077a3.366,3.366,0,0,1,3.361,3.36v2.58h-16.8v-2.58a3.366,3.366,0,0,1,3.363-3.36Zm14.643,31.3H434.1v1.1a2.891,2.891,0,1,1-5.782,0v-1.1Zm-24.99,0h5.781v1.1a2.89,2.89,0,1,1-5.781,0Zm25-3.34a2.889,2.889,0,0,1,5.766,0h-5.771Zm-24.991,0a2.889,2.889,0,0,1,5.766,0Zm33.62,23.573H400.48a5.246,5.246,0,0,1-5.241-5.24v-14.992H400v1.1a6.225,6.225,0,0,0,12.449,0v-1.1h12.54v1.1a6.225,6.225,0,1,0,12.451,0v-1.1h4.765v14.992a5.246,5.246,0,0,1-5.243,5.24Zm9.148-27.033a3.464,3.464,0,0,1-3.463,3.46h-5.211a6.224,6.224,0,0,0-12.44,0H412.447a6.223,6.223,0,0,0-12.439,0H394.8a3.464,3.464,0,0,1-3.462-3.46v-11.761a3.464,3.464,0,0,1,3.462-3.46h47.852a3.464,3.464,0,0,1,3.463,3.46Z" transform="translate(-387.996 -1180.99)" fill="#121c5f"/>
  </g>
</svg>
