<svg xmlns="http://www.w3.org/2000/svg" xmlns:xlink="http://www.w3.org/1999/xlink" width="42.005" height="58.006" viewBox="0 0 42.005 58.006">
  <defs>
    <linearGradient id="linear-gradient" x1="0.5" x2="0.5" y2="1" gradientUnits="objectBoundingBox">
      <stop offset="0" stop-color="#03d481"/>
      <stop offset="1" stop-color="#0294c1"/>
    </linearGradient>
  </defs>
  <g id="_02" data-name="02" transform="translate(0)">
    <path id="Path_16744" data-name="Path 16744" d="M810.425,1193.331l1.972-5.671a2.316,2.316,0,0,0-2.2-3.07H796.5a2.316,2.316,0,0,0-2.2,3.07l1.971,5.671a2.318,2.318,0,0,0,2.2,1.56h9.753a2.317,2.317,0,0,0,2.2-1.56ZM829.9,1219l-20.02-16.272c-.307-.25,0,0,.177.98l2.909,14.672,7.76,9.761a1.54,1.54,0,0,0,1.419.55l6.121-.87a1.55,1.55,0,0,0,1.315-1.31l.874-6.1a1.536,1.536,0,0,0-.555-1.41Z" transform="translate(-789.987 -1183)" fill="url(#linear-gradient)"/>
    <path id="Path_16745" data-name="Path 16745" d="M794.6,1193.941a3.978,3.978,0,0,0,3.762,2.67h9.748a3.979,3.979,0,0,0,3.762-2.67l1.97-5.671a3.974,3.974,0,0,0-3.762-5.271H796.393a3.974,3.974,0,0,0-3.762,5.271Zm1.246-7.361a.668.668,0,0,1,.545-.28h13.69a.669.669,0,0,1,.631.89l-1.97,5.671a.668.668,0,0,1-.632.45h-9.748a.668.668,0,0,1-.632-.45l-1.971-5.671a.663.663,0,0,1,.088-.61Zm34.977,31.2-20.009-16.272c-.047-.04-.106-.08-.178-.14a3.99,3.99,0,0,0-2.815-1.16h-9.168a3.981,3.981,0,0,0-3.919,3.27l-.657,3.65a1.656,1.656,0,1,0,3.261.58l.657-3.651a.667.667,0,0,1,.658-.54h9.169a.652.652,0,0,1,.389.12,3.607,3.607,0,0,1,.1.42v.03l1.809,9.131,3.021,16.782a.659.659,0,0,1-.257.65l-9.254,6.921a.665.665,0,0,1-.8,0l-6.776-5.061,9.323-6.251a1.652,1.652,0,0,0-1.847-2.74l-10.183,6.821a.662.662,0,0,1-.028-.34l1.075-5.971,10.983-7.361a1.645,1.645,0,0,0,.451-2.29,1.673,1.673,0,0,0-2.3-.45l-8.322,5.581.7-3.911a1.657,1.657,0,0,0-3.26-.59l-2.594,14.412a3.934,3.934,0,0,0,1.531,3.87l9.254,6.921a4.006,4.006,0,0,0,4.777,0l9.254-6.911a3.956,3.956,0,0,0,1.53-3.88l-.894-4.97,3.793,4.77c0,.01.009.01.014.02a3.193,3.193,0,0,0,2.483,1.18,3.49,3.49,0,0,0,.454-.04l6.117-.87a3.212,3.212,0,0,0,2.719-2.71l.874-6.091a3.2,3.2,0,0,0-1.135-2.93Zm-3,8.481-5.975.85-7.455-9.381-1.017-5.131-1-5.551,16.3,13.251Z" transform="translate(-789.988 -1183)" fill="#121c5f"/>
  </g>
</svg>
