<svg xmlns="http://www.w3.org/2000/svg" xmlns:xlink="http://www.w3.org/1999/xlink" width="65.137" height="58.016" viewBox="0 0 65.137 58.016">
  <defs>
    <linearGradient id="linear-gradient" x1="0.5" x2="0.5" y2="1" gradientUnits="objectBoundingBox">
      <stop offset="0" stop-color="#03d481"/>
      <stop offset="1" stop-color="#0294c1"/>
    </linearGradient>
  </defs>
  <g id="_03" data-name="03" transform="translate(0)">
    <path id="Path_16746" data-name="Path 16746" d="M1188.57,1221.553v3.1a6.163,6.163,0,0,0,6.161,6.161h49.255a6.155,6.155,0,0,0,6.151-6.161v-3.1Zm17.692-6.811a3.485,3.485,0,0,0,3.49-3.48V1204.5a3.485,3.485,0,0,0-6.971,0v6.761a3.484,3.484,0,0,0,3.481,3.481Zm13.091,0a3.485,3.485,0,0,0,3.49-3.48v-11.831a3.485,3.485,0,0,0-6.971,0v11.831a3.483,3.483,0,0,0,3.48,3.481Zm13.091,0a3.485,3.485,0,0,0,3.49-3.48v-16.9a3.485,3.485,0,1,0-6.971,0v16.9a3.484,3.484,0,0,0,3.48,3.481Z" transform="translate(-1186.79 -1182.979)" fill="url(#linear-gradient)"/>
    <path id="Path_16747" data-name="Path 16747" d="M1244.006,1182.98h-49.3a7.933,7.933,0,0,0-7.921,7.921v33.724a7.926,7.926,0,0,0,7.921,7.921h17.112v4.94h-5.951a1.755,1.755,0,0,0,0,3.51h26.963a1.755,1.755,0,0,0,0-3.51h-5.951v-4.94h17.122a7.933,7.933,0,0,0,7.921-7.921V1190.9a7.939,7.939,0,0,0-7.921-7.921Zm-20.632,54.506h-8.041v-4.94h8.041Zm20.632-8.451h-49.3a4.418,4.418,0,0,1-4.411-4.411v-1.29h42.065a1.755,1.755,0,1,0,0-3.51H1190.3V1190.9a4.417,4.417,0,0,1,4.411-4.41h49.3a4.417,4.417,0,0,1,4.411,4.41v28.923h-7.411a1.755,1.755,0,1,0,0,3.51h7.411v1.29A4.417,4.417,0,0,1,1244.006,1229.035Zm-37.754-29.813a5.245,5.245,0,0,0-5.241,5.24v6.761a5.246,5.246,0,0,0,10.491,0v-6.761A5.255,5.255,0,0,0,1206.252,1199.222Zm1.74,12a1.735,1.735,0,0,1-3.47,0v-6.761a1.735,1.735,0,1,1,3.47,0Zm11.361-17.072a5.246,5.246,0,0,0-5.241,5.241v11.831a5.246,5.246,0,0,0,10.491,0v-11.831a5.254,5.254,0,0,0-5.25-5.24Zm1.74,17.072a1.735,1.735,0,0,1-3.47,0v-11.831a1.735,1.735,0,1,1,3.47,0Zm11.361-22.152a5.246,5.246,0,0,0-5.241,5.241v16.912a5.246,5.246,0,0,0,10.491,0v-16.912a5.254,5.254,0,0,0-5.25-5.241Zm1.74,22.152a1.735,1.735,0,0,1-3.47,0v-16.912a1.735,1.735,0,1,1,3.47,0Z" transform="translate(-1186.79 -1182.98)" fill="#121c5f"/>
  </g>
</svg>
