<svg xmlns="http://www.w3.org/2000/svg" width="18.149" height="18.204" viewBox="0 0 18.149 18.204">
  <g id="Activity" transform="translate(0 0)">
    <path id="Stroke_1" data-name="Stroke 1" d="M-.091,4.956a.657.657,0,0,1-.4-.137.659.659,0,0,1-.12-.925L2.019.475a.659.659,0,0,1,.93-.117L5.428,2.3,7.6-.494a.659.659,0,0,1,.925-.117A.659.659,0,0,1,8.64.313L6.065,3.637a.659.659,0,0,1-.929.115L2.658,1.807.432,4.7A.658.658,0,0,1-.091,4.956Z" transform="translate(4.679 7.358)" fill="#121c5f"/>
    <path id="Stroke_2" data-name="Stroke 2" d="M1.6-.75A2.35,2.35,0,1,1-.75,1.6,2.352,2.352,0,0,1,1.6-.75Zm0,3.38A1.031,1.031,0,1,0,.569,1.6,1.032,1.032,0,0,0,1.6,2.63Z" transform="translate(14.2 0.75)" fill="#121c5f"/>
    <path id="Stroke_4" data-name="Stroke 4" d="M8.043,16.836c-3.353,0-5.457-.608-6.821-1.972S-.75,11.4-.75,8.043s.608-5.456,1.973-6.821S4.69-.75,8.043-.75a18.938,18.938,0,0,1,2.718.171A.659.659,0,1,1,10.571.727,17.652,17.652,0,0,0,8.043.569C2.315.569.569,2.315.569,8.043s1.746,7.474,7.474,7.474c2.975,0,4.791-.489,5.888-1.586s1.586-2.913,1.586-5.888a17.548,17.548,0,0,0-.163-2.571.659.659,0,0,1,1.3-.194,18.834,18.834,0,0,1,.178,2.765c0,3.353-.608,5.457-1.972,6.821S11.4,16.836,8.043,16.836Z" transform="translate(0.75 1.368)" fill="#121c5f"/>
  </g>
</svg>
