<svg xmlns="http://www.w3.org/2000/svg" width="50.992" height="23.727" viewBox="0 0 50.992 23.727">
  <g id="back_copy" data-name="back copy" transform="translate(0.341 0.386)">
    <path id="Path" d="M49.65,2.091H.95A1,1,0,0,1,0,1.045,1,1,0,0,1,.95,0h48.7a1,1,0,0,1,.95,1.045A1,1,0,0,1,49.65,2.091Z" transform="translate(0.051 10.455)" fill="#121c5f"/>
    <path id="Path-2" data-name="Path" d="M12.082,23a.478.478,0,0,1-.328-.129L.135,11.81a.428.428,0,0,1,0-.625L11.755.129a.48.48,0,0,1,.655,0,.427.427,0,0,1,0,.624L1.119,11.5,12.41,22.247a.427.427,0,0,1,0,.624A.475.475,0,0,1,12.082,23Z" fill="#121c5f" stroke="#121c5f" stroke-miterlimit="10" stroke-width="0.682"/>
  </g>
</svg>
