<svg xmlns="http://www.w3.org/2000/svg" width="50.992" height="23.727" viewBox="0 0 50.992 23.727">
  <g id="back_copy_2" data-name="back copy 2" transform="translate(0 0.386)">
    <path id="Path" d="M-32.05,2.091h48.7a1,1,0,0,0,.95-1.045A1,1,0,0,0,16.65,0h-48.7A1,1,0,0,0-33,1.045,1,1,0,0,0-32.05,2.091Z" transform="translate(33 10.455)" fill="#121c5f"/>
    <path id="Path-2" data-name="Path" d="M-7.718,23a.478.478,0,0,0,.328-.129L4.228,11.81a.428.428,0,0,0,0-.625L-7.391.129a.48.48,0,0,0-.655,0,.427.427,0,0,0,0,.624L3.245,11.5-8.046,22.247a.427.427,0,0,0,0,.624A.475.475,0,0,0-7.718,23Z" transform="translate(46.288)" fill="#121c5f" stroke="#121c5f" stroke-miterlimit="10" stroke-width="0.682"/>
  </g>
</svg>
