<svg xmlns="http://www.w3.org/2000/svg" width="18.219" height="17.762" viewBox="0 0 18.219 17.762">
  <g id="Folder" transform="translate(-0.001)">
    <path id="Stroke_1" data-name="Stroke 1" d="M8.345,1.045H-.091A.659.659,0,0,1-.75.386.659.659,0,0,1-.091-.274H8.345a.659.659,0,1,1,0,1.319Z" transform="translate(4.976 10.891)" fill="#121c5f"/>
    <path id="Stroke_2" data-name="Stroke 2" d="M5.233-.75A6.492,6.492,0,0,1,8.393,0a3.232,3.232,0,0,1,1.4,1.509A2.145,2.145,0,0,0,10.7,2.534a2.593,2.593,0,0,0,1.235.213c.14,0,.283,0,.433-.006s.313-.006.473-.006a3.714,3.714,0,0,1,2.971,1.072C17.47,5.6,17.47,8.276,17.469,9.877V9.9c0,3.061-.838,4.979-2.637,6.035-1.532.9-3.533,1.075-6.472,1.075-2.458,0-4.8-.08-6.47-1.051C.089,14.913-.75,12.988-.75,9.9V4.568A5.677,5.677,0,0,1,.175,1.342,4.372,4.372,0,0,1,2.962-.5,11.227,11.227,0,0,1,5.233-.75Zm6.7,4.816a3.717,3.717,0,0,1-1.887-.385,3.417,3.417,0,0,1-1.416-1.55,1.95,1.95,0,0,0-.864-.971A5.209,5.209,0,0,0,5.233.569,9.934,9.934,0,0,0,3.227.8,3.553,3.553,0,0,0,.569,4.568V9.9c0,2.6.612,4.12,1.984,4.919s3.537.872,5.807.872c5.3,0,7.791-.571,7.791-5.791V9.877c0-1.5,0-3.765-1.306-5.174a2.468,2.468,0,0,0-2-.65c-.148,0-.3,0-.448.006S12.088,4.066,11.934,4.066Z" transform="translate(0.751 0.75)" fill="#121c5f"/>
  </g>
</svg>
