<svg xmlns="http://www.w3.org/2000/svg" width="15.978" height="21.355" viewBox="0 0 15.978 21.355">
  <g id="Group_17970" data-name="Group 17970" transform="translate(-294.675 -52.17)">
    <g id="Iconly_Curved_Notification" data-name="Iconly/Curved/Notification" transform="translate(295.452 54.125)">
      <g id="Notification" transform="translate(0 0)">
        <path id="Stroke_1" data-name="Stroke 1" d="M7.212,0C2.88,0,1,3.923,1,6.516c0,1.938.281,1.368-.792,3.732C-1.1,13.618,4.164,15,7.212,15s8.316-1.377,7.007-4.746c-1.073-2.364-.792-1.794-.792-3.732C13.427,3.923,11.544,0,7.212,0Z" transform="translate(0 0)" fill="rgba(0,0,0,0)" stroke="#1b315a" stroke-linecap="round" stroke-linejoin="round" stroke-width="1.5"/>
        <path id="Stroke_3" data-name="Stroke 3" d="M4.514,0A2.923,2.923,0,0,1,0,0" transform="translate(4.955 17.584)" fill="rgba(0,0,0,0)" stroke="#1b315a" stroke-linecap="round" stroke-linejoin="round" stroke-width="1.5"/>
      </g>
    </g>
    <g id="Ellipse_119" data-name="Ellipse 119" transform="translate(304.272 52.17)" fill="#ff0707" stroke="#fff" stroke-width="1">
      <circle cx="2.931" cy="2.931" r="2.931" stroke="none"/>
      <circle cx="2.931" cy="2.931" r="2.431" fill="none"/>
    </g>
  </g>
</svg>
