<svg xmlns="http://www.w3.org/2000/svg" width="18.29" height="20" viewBox="0 0 18.29 20">
  <g id="Paper" transform="translate(0.75 0.75)">
    <path id="Stroke_1" data-name="Stroke 1" d="M5.4,1.25H0A.75.75,0,0,1,0-.25H5.4a.75.75,0,0,1,0,1.5Z" transform="translate(5.255 12.2)" fill="#121c5f"/>
    <path id="Stroke_2" data-name="Stroke 2" d="M3.356,1.25H0A.75.75,0,0,1,0-.25H3.356a.75.75,0,0,1,0,1.5Z" transform="translate(5.255 8.189)" fill="#121c5f"/>
    <path id="Stroke_3" data-name="Stroke 3" d="M8.39-.75a19,19,0,0,1,2.552.157.75.75,0,0,1,.415.2l5.67,5.4a.75.75,0,0,1,.221.41A21.631,21.631,0,0,1,17.54,9.25c0,3.8-.627,6.184-2.032,7.732-1.425,1.569-3.62,2.268-7.118,2.268s-5.686-.7-7.109-2.268C-.124,15.434-.75,13.049-.75,9.25s.626-6.179,2.031-7.728C2.706-.049,4.9-.75,8.39-.75ZM10.5.863A18.156,18.156,0,0,0,8.39.75c-3.032,0-4.882.549-6,1.78C1.256,3.782.75,5.855.75,9.25s.506,5.472,1.642,6.724c1.115,1.229,2.965,1.776,6,1.776s4.891-.548,6.007-1.777c1.136-1.251,1.643-3.324,1.643-6.723a20.963,20.963,0,0,0-.227-3.328Z" transform="translate(0)" fill="#121c5f"/>
    <path id="Stroke_5" data-name="Stroke 5" d="M6.315,6.774H3.364A4.118,4.118,0,0,1-.75,2.661V0A.75.75,0,0,1,0-.75.75.75,0,0,1,.75,0V2.661A2.616,2.616,0,0,0,3.364,5.274H6.315a.75.75,0,0,1,0,1.5Z" transform="translate(10.284 0.083)" fill="#121c5f"/>
  </g>
</svg>
