<svg xmlns="http://www.w3.org/2000/svg" width="13.356" height="18.256" viewBox="0 0 13.356 18.256">
  <g id="Profile" transform="translate(0 0)">
    <path id="Stroke_1" data-name="Stroke 1" d="M5.928,6.988a14.083,14.083,0,0,1-4.442-.542C-.362,5.809-.75,4.655-.75,3.8A4.067,4.067,0,0,1,1.333.545,8.448,8.448,0,0,1,5.928-.75,8.484,8.484,0,0,1,10.514.534a4.051,4.051,0,0,1,2.092,3.248c0,.855-.386,2.01-2.227,2.654A13.916,13.916,0,0,1,5.928,6.988Zm0-6.419A7.219,7.219,0,0,0,2.057,1.648,2.808,2.808,0,0,0,.569,3.8c0,1.24,1.8,1.869,5.359,1.869s5.359-.635,5.359-1.887A2.793,2.793,0,0,0,9.795,1.64,7.255,7.255,0,0,0,5.928.569Z" transform="translate(0.75 11.268)" fill="#121c5f"/>
    <path id="Stroke_3" data-name="Stroke 3" d="M3.767,8.284H3.74A4.5,4.5,0,0,1-.75,3.765,4.517,4.517,0,1,1,3.767,8.284Zm0-7.715a3.2,3.2,0,0,0-3.2,3.2,3.184,3.184,0,0,0,3.173,3.2h.025a3.2,3.2,0,0,0,0-6.4Z" transform="translate(2.904 0.75)" fill="#121c5f"/>
  </g>
</svg>
