<svg xmlns="http://www.w3.org/2000/svg" xmlns:xlink="http://www.w3.org/1999/xlink" width="179.83" height="179.234" viewBox="0 0 179.83 179.234">
  <defs>
    <linearGradient id="linear-gradient" x1="0.5" x2="0.5" y2="1" gradientUnits="objectBoundingBox">
      <stop offset="0" stop-color="#03d481"/>
      <stop offset="1" stop-color="#0294c1"/>
    </linearGradient>
  </defs>
  <g id="Site_Stats-amico" data-name="Site Stats-amico" transform="translate(0 0.001)">
    <g id="freepik--Floor--inject-10" transform="translate(0 75.408)">
      <ellipse id="freepik--floor--inject-10-2" data-name="freepik--floor--inject-10" cx="89.915" cy="51.913" rx="89.915" ry="51.913" fill="#f0f0f0"/>
    </g>
    <g id="freepik--Shadows--inject-10" transform="translate(6.263 84.411)">
      <path id="freepik--Shadow--inject-10" d="M223.14,377.021a4.92,4.92,0,0,0-.718-2.524h0c-.1-.163-.2-.318-.307-.47L222.1,374a4.977,4.977,0,0,0-.334-.412l-.035-.035a4.412,4.412,0,0,0-.361-.353l-.035-.027a3.522,3.522,0,0,0-.388-.3l-.233-.128-.1-.047-.12-.054a1.7,1.7,0,0,0-.171-.054h-.047a1.319,1.319,0,0,0-.2-.039h0a1.269,1.269,0,0,0-.742.117h0c-2.054,1.029-13.891,8.563-19.339,11.957l-2.7,1.639a.614.614,0,0,0-.2.186.136.136,0,0,1-.019.031.815.815,0,0,0-.062.116.5.5,0,0,0-.027.082.832.832,0,0,0-.031.1v.07l-.447.245-.388.217a15.557,15.557,0,0,0-3.076-2.283,30.7,30.7,0,0,0-27.867,0c-3.883,2.233-6,5.25-6,8.493s2.128,6.256,6,8.493a30.736,30.736,0,0,0,27.867,0c3.883-2.237,6-5.25,6-8.493a7.81,7.81,0,0,0-1.266-4.2l.357-.19a.8.8,0,0,0,.777.074h0c1.848-1.017,19.867-8.7,23.552-10.675h0A1.826,1.826,0,0,0,223.14,377.021ZM191.3,399.055a27.356,27.356,0,0,1-24.457,0c-2.769-1.6-4.295-3.569-4.295-5.542s1.526-3.945,4.295-5.542a27.323,27.323,0,0,1,24.457,0c2.769,1.6,4.295,3.565,4.295,5.542s-1.538,3.942-4.314,5.542Z" transform="translate(-110.717 -320.427)" fill="#e0e0e0"/>
      <path id="freepik--shadow--inject-10-2" data-name="freepik--shadow--inject-10" d="M149.578,249.311,131.3,238.737a3.716,3.716,0,0,0-3.363,0l-92.847,53.59a1.025,1.025,0,0,0,0,1.942l18.279,10.574a3.716,3.716,0,0,0,3.363,0l34.791-20.089,5.351,3.107a11.336,11.336,0,0,0,10.256,0l15.941-9.138c2.835-1.635,2.835-4.272,0-5.922l-5.347-3.107,31.843-18.461C150.5,250.717,150.5,249.855,149.578,249.311Z" transform="translate(-34.398 -238.334)" fill="#e0e0e0"/>
      <ellipse id="freepik--shadow--inject-10-3" data-name="freepik--shadow--inject-10" cx="17.922" cy="10.349" rx="17.922" ry="10.349" transform="translate(127.914 40.338)" fill="#e0e0e0"/>
    </g>
    <g id="freepik--Plant--inject-10" transform="translate(159.716 106.606)">
      <g id="freepik--Plants--inject-10">
        <path id="Path_19308" data-name="Path 19308" d="M436.082,312.3c0-2.427-.482-6.9,1.553-11.091,1.491-3.041,4.151-5.992,6.629-5.7,2.3.272,2.513,3.817.307,6.244s-5.01,5.786-5.623,11.149l-1.588,3.984Z" transform="translate(-433.516 -295.487)" fill="url(#linear-gradient)"/>
        <g id="Group_21897" data-name="Group 21897" transform="translate(2.516)" opacity="0.2">
          <path id="Path_19309" data-name="Path 19309" d="M436.082,312.3c0-2.427-.482-6.9,1.553-11.091,1.491-3.041,4.151-5.992,6.629-5.7,2.3.272,2.513,3.817.307,6.244s-5.01,5.786-5.623,11.149l-1.588,3.984Z" transform="translate(-436.032 -295.487)"/>
        </g>
        <path id="Path_19310" data-name="Path 19310" d="M437.946,316.34a.175.175,0,0,0,.14-.175c-.28-6.9,1.965-12.625,6.489-16.559a.168.168,0,1,0-.221-.252c-4.606,4-6.889,9.821-6.6,16.827a.171.171,0,0,0,.175.163Z" transform="translate(-434.554 -297.827)" fill="#fff"/>
        <path id="Path_19311" data-name="Path 19311" d="M431.669,341.544a8.566,8.566,0,0,0,4.272,1.188c2.6.062,3.557-1.3,3.557-1.3s-1.324-2.248-2.854-2.718a14.345,14.345,0,0,1,4.66,1.215s1.553-.183,1.856-2.637c0,0-1.111-1.3-4.3-1.658a10.271,10.271,0,0,1,4.61-.388c.214.054.668-3.107.742-4.575s-.493-1.355-1.635-1.5-4.916.171-5.526.87-.68,2.819-.68,2.819a4.134,4.134,0,0,1-.8-2.155,3.985,3.985,0,0,0-2.33.388c-1.165.6-1.553,1.076-1.615,1.981a8.919,8.919,0,0,0,.229,3.316,7,7,0,0,1-1.021-3.243,16.055,16.055,0,0,0-1.107,2.268C429.219,336.729,429.82,339.925,431.669,341.544Z" transform="translate(-429.554 -316.065)" fill="url(#linear-gradient)"/>
        <path id="Path_19312" data-name="Path 19312" d="M434.8,342.884a.163.163,0,0,0,.116-.109c1.476-4.532,8.431-10.485,11.087-11.394a.168.168,0,1,0-.109-.318c-2.718.913-9.794,6.99-11.3,11.607a.171.171,0,0,0,.109.214A.167.167,0,0,0,434.8,342.884Z" transform="translate(-432.634 -317.242)" fill="#fff"/>
      </g>
    </g>
    <g id="freepik--Device--inject-10" transform="translate(18.096 -0.001)">
      <g id="freepik--device--inject-10-2" data-name="freepik--device--inject-10">
        <g id="freepik--Monitor--inject-10">
          <path id="Path_19313" data-name="Path 19313" d="M186.4,299.818l13.739-7.945a3.6,3.6,0,0,0,2.12-2.959V287l-12.928-7.336a3.037,3.037,0,0,1-1.367-2.369V260.34L164,274.207v16.935a3.017,3.017,0,0,0,1.371,2.369l10.772,6.307A11.457,11.457,0,0,0,186.4,299.818Z" transform="translate(-125.504 -167.382)" fill="#37474f"/>
          <path id="Path_19314" data-name="Path 19314" d="M169.7,311.83v1.9l-4.4-2.532a3.025,3.025,0,0,1-1.367-2.369V291.9l4.571-2.637c.093,1.165.2,2.361.291,3.53l-3.2,1.852v13.234a3,3,0,0,0,1.367,2.369Z" transform="translate(-125.468 -185.072)" fill="#263238"/>
          <path id="Path_19315" data-name="Path 19315" d="M168.21,294.522a3.025,3.025,0,0,0,1.367,2.369l9.141,5.316a11.336,11.336,0,0,0,10.256,0l13.743-7.941c2.831-1.635,2.831-4.272,0-5.918l-9.145-5.324a3.017,3.017,0,0,1-1.371-2.369V267.42L168.21,281.287Z" transform="translate(-128.08 -171.713)" fill="#455a64"/>
          <path id="Path_19316" data-name="Path 19316" d="M196.356,284.635h0l-2.784-1.608a3.018,3.018,0,0,1-1.371-2.369V267.42L168.21,281.287v13.234a3.025,3.025,0,0,0,1.367,2.369l2.738,1.577Z" transform="translate(-128.08 -171.713)" opacity="0.15"/>
          <path id="Path_19317" data-name="Path 19317" d="M229.836,329v1.911a3.614,3.614,0,0,1-2.124,2.963l-13.739,7.938a10.278,10.278,0,0,1-4.893,1.215v-1.9a10.279,10.279,0,0,0,4.893-1.215l13.739-7.945A3.654,3.654,0,0,0,229.836,329Z" transform="translate(-153.078 -209.379)" fill="#37474f"/>
          <path id="Path_19318" data-name="Path 19318" d="M66.474,162.045a3.678,3.678,0,0,0,3.312-.062l92.812-53.59a3.771,3.771,0,0,0,1.709-2.959v-81.2a3.662,3.662,0,0,0-1.6-2.9,3.666,3.666,0,0,0-3.313.058L66.579,74.98A3.779,3.779,0,0,0,64.87,77.94v81.2A3.67,3.67,0,0,0,66.474,162.045Z" transform="translate(-64.87 -20.965)" fill="#455a64"/>
          <path id="Path_19319" data-name="Path 19319" d="M74.869,165.2l92.812-53.571a3.778,3.778,0,0,0,1.709-2.959V27.446c0-1.091-.777-1.534-1.709-.986L74.888,80.05a3.779,3.779,0,0,0-1.709,2.959v81.2C73.16,165.3,73.925,165.744,74.869,165.2Z" transform="translate(-69.952 -24.182)" fill="#37474f"/>
          <path id="Path_19320" data-name="Path 19320" d="M81.39,161.759V92.333A2.264,2.264,0,0,1,82.4,90.558L170.167,39.9c.563-.326,1.025-.062,1.025.59v69.43a2.252,2.252,0,0,1-1.025,1.775L82.4,162.353C81.848,162.68,81.39,162.416,81.39,161.759Z" transform="translate(-74.975 -32.461)" fill="url(#linear-gradient)"/>
          <path id="Path_19321" data-name="Path 19321" d="M81.39,161.759V92.333A2.264,2.264,0,0,1,82.4,90.558L170.167,39.9c.563-.326,1.025-.062,1.025.59v69.43a2.252,2.252,0,0,1-1.025,1.775L82.4,162.353C81.848,162.68,81.39,162.416,81.39,161.759Z" transform="translate(-74.975 -32.461)" fill="#fff" opacity="0.7"/>
          <path id="Path_19322" data-name="Path 19322" d="M194.84,299.477a1.01,1.01,0,0,1-.513-.132,1.312,1.312,0,0,1-.567-1.208,3.7,3.7,0,0,1,1.7-2.944h0a1.165,1.165,0,0,1,1.9,1.091,3.7,3.7,0,0,1-1.7,2.947A1.651,1.651,0,0,1,194.84,299.477Zm1.433-4.136a1.274,1.274,0,0,0-.617.194h0a3.336,3.336,0,0,0-1.507,2.61.777.777,0,0,0,1.313.757,3.332,3.332,0,0,0,1.507-2.61.951.951,0,0,0-.388-.87.633.633,0,0,0-.307-.082Z" transform="translate(-143.705 -188.535)" fill="url(#linear-gradient)"/>
        </g>
      </g>
    </g>
    <g id="freepik--Window--inject-10" transform="translate(37.023 14.114)">
      <g id="freepik--window--inject-10-2" data-name="freepik--window--inject-10">
        <path id="Path_19323" data-name="Path 19323" d="M209.529,73.76,119.16,125.89v66.588a1.165,1.165,0,0,0,1.728,1l1.612-.928,85.344-49.21a3.724,3.724,0,0,0,1.685-2.92Z" transform="translate(-117.004 -67.373)" fill="#f0f0f0"/>
        <path id="Path_19324" data-name="Path 19324" d="M209.141,74.432v65.99A3.355,3.355,0,0,1,207.65,143l-85.344,49.21-1.612.928a.749.749,0,0,1-.388.1.777.777,0,0,1-.532-.217.749.749,0,0,1-.233-.551V126.1l89.593-51.649m.388-.672L119.16,125.89v66.588a1.165,1.165,0,0,0,1.165,1.165,1.122,1.122,0,0,0,.575-.155l1.612-.928,85.333-49.218a3.724,3.724,0,0,0,1.685-2.92V73.76Z" transform="translate(-117.004 -67.373)" fill="#e0e0e0"/>
        <path id="Path_19325" data-name="Path 19325" d="M204,70.58,113.62,122.687l2.151,1.243,90.369-52.115Z" transform="translate(-113.616 -65.428)" fill="#455a64" opacity="0.8"/>
        <path id="Path_19326" data-name="Path 19326" d="M116.37,273.648a1.165,1.165,0,0,1-.606-1.017V206.043l-2.151-1.243v66.223a1.723,1.723,0,0,0,0,.245,1.786,1.786,0,0,0,.878,1.3l1.775,1.029.089.047Z" transform="translate(-113.609 -147.526)" fill="#ebebeb"/>
        <path id="Path_19327" data-name="Path 19327" d="M113.62,114.6V110.11a1.868,1.868,0,0,1,.839-1.46l88.7-51.136a1.852,1.852,0,0,1,1.678,0l.462.268a1.856,1.856,0,0,1,.843,1.456v4.5l-90.369,52.1Z" transform="translate(-113.616 -57.313)" fill="url(#linear-gradient)"/>
        <path id="Path_19328" data-name="Path 19328" d="M113.62,114.6V110.11a1.868,1.868,0,0,1,.839-1.46l88.7-51.136a1.852,1.852,0,0,1,1.678,0l.462.268a1.856,1.856,0,0,1,.843,1.456v4.5l-90.369,52.1Z" transform="translate(-113.616 -57.313)" opacity="0.3"/>
        <path id="Path_19329" data-name="Path 19329" d="M119.16,113.419a1.864,1.864,0,0,1,.839-1.46L208.69,60.815c.462-.272.839-.054.839.482v4.509L119.16,117.9Z" transform="translate(-117.004 -59.384)" fill="url(#linear-gradient)"/>
        <path id="Path_19330" data-name="Path 19330" d="M119.16,113.419a1.864,1.864,0,0,1,.839-1.46L208.69,60.815c.462-.272.839-.054.839.482v4.509L119.16,117.9Z" transform="translate(-117.004 -59.384)" opacity="0.4"/>
        <path id="Path_19331" data-name="Path 19331" d="M116.022,192.369a1.736,1.736,0,0,0-.245.831v4.481l-2.147-1.239v-4.485a1.72,1.72,0,0,1,.245-.827Z" transform="translate(-113.622 -139.164)" fill="url(#linear-gradient)"/>
        <path id="Path_19332" data-name="Path 19332" d="M116.022,192.369a1.736,1.736,0,0,0-.245.831v4.481l-2.147-1.239v-4.485a1.72,1.72,0,0,1,.245-.827Z" transform="translate(-113.622 -139.164)" opacity="0.5"/>
        <path id="Path_19333" data-name="Path 19333" d="M341.71,71.007c0,.5.353.707.777.454a1.739,1.739,0,0,0,.777-1.367c0-.5-.353-.707-.777-.454a1.743,1.743,0,0,0-.777,1.367Z" transform="translate(-253.13 -64.787)" fill="#fafafa"/>
        <path id="Path_19334" data-name="Path 19334" d="M333.59,75.677c0,.5.353.707.777.454a1.744,1.744,0,0,0,.777-1.367c0-.5-.353-.707-.777-.454a1.744,1.744,0,0,0-.777,1.367Z" transform="translate(-248.164 -67.643)" fill="#fafafa"/>
        <path id="Path_19335" data-name="Path 19335" d="M325.46,80.387c0,.5.353.707.777.454a1.744,1.744,0,0,0,.777-1.367c0-.5-.353-.707-.777-.454A1.74,1.74,0,0,0,325.46,80.387Z" transform="translate(-243.191 -70.524)" fill="#fafafa"/>
        <path id="Path_19336" data-name="Path 19336" d="M119.16,187.05v66.588a1.165,1.165,0,0,0,1.728,1l1.612-.928,19.747-11.39V173.75Z" transform="translate(-117.004 -128.533)" fill="#fafafa"/>
        <path id="Path_19337" data-name="Path 19337" d="M182.67,118.621v64.662l63.811-36.841V81.78Z" transform="translate(-155.851 -72.279)" fill="#fafafa"/>
        <path id="Path_19338" data-name="Path 19338" d="M141.023,193.766l-14.729,8.512a1.087,1.087,0,0,0-.493.854v1.534c0,.315.221.439.493.283l14.729-8.512a1.087,1.087,0,0,0,.493-.854v-1.53C141.516,193.739,141.295,193.611,141.023,193.766Z" transform="translate(-121.066 -140.736)" fill="url(#linear-gradient)"/>
        <path id="Path_19339" data-name="Path 19339" d="M141.023,193.766l-14.729,8.512a1.087,1.087,0,0,0-.493.854v1.534c0,.315.221.439.493.283l14.729-8.512a1.087,1.087,0,0,0,.493-.854v-1.53C141.516,193.739,141.295,193.611,141.023,193.766Z" transform="translate(-121.066 -140.736)" fill="#fafafa" opacity="0.8"/>
        <path id="Path_19340" data-name="Path 19340" d="M170.551,192.415,170.12,192a1.942,1.942,0,0,0,.136-.691.816.816,0,0,0-.322-.746.5.5,0,0,0-.528.023,1.728,1.728,0,0,0-.683,1.41.816.816,0,0,0,.326.746.431.431,0,0,0,.229.062.594.594,0,0,0,.3-.085,1.216,1.216,0,0,0,.388-.388l.357.342a.151.151,0,0,0,.117.05.175.175,0,0,0,.124-.054.167.167,0,0,0-.012-.249Zm-1.146,0a.186.186,0,0,1-.186.023c-.074-.043-.155-.186-.155-.45a1.406,1.406,0,0,1,.513-1.115.229.229,0,0,1,.12-.039.128.128,0,0,1,.066,0c.07.043.151.183.151.45a1.425,1.425,0,0,1-.509,1.134Z" transform="translate(-147.317 -138.776)" fill="#455a64"/>
        <path id="Path_19341" data-name="Path 19341" d="M126.155,232.7l-.33.19s-.035,0-.035-.027v-.893a.089.089,0,0,1,.035-.07l.33-.19s.035,0,.035.027v.893A.089.089,0,0,1,126.155,232.7Z" transform="translate(-121.06 -163.986)" fill="#455a64"/>
        <path id="Path_19342" data-name="Path 19342" d="M127.425,231.979l-.33.19c-.019,0-.035,0-.035-.027v-.893a.082.082,0,0,1,.035-.066l.33-.183c.019,0,.035,0,.035.023v.9A.085.085,0,0,1,127.425,231.979Z" transform="translate(-121.836 -163.551)" fill="#455a64"/>
        <path id="Path_19343" data-name="Path 19343" d="M128.705,231.226l-.33.194c-.019,0-.035,0-.035-.027v-.9a.085.085,0,0,1,.035-.066l.33-.19c.019,0,.035,0,.035.027v.893a.074.074,0,0,1-.035.066Z" transform="translate(-122.619 -163.086)" fill="#455a64"/>
        <path id="Path_19344" data-name="Path 19344" d="M126.155,235.67l-.33.19s-.035,0-.035-.027v-.893a.089.089,0,0,1,.035-.07l.33-.19s.035,0,.035.027v.893a.089.089,0,0,1-.035.07Z" transform="translate(-121.06 -165.802)" fill="#455a64"/>
        <path id="Path_19345" data-name="Path 19345" d="M127.425,234.967l-.33.19c-.019,0-.035,0-.035-.027v-.893a.082.082,0,0,1,.035-.066l.33-.171c.019,0,.035,0,.035.023v.9A.085.085,0,0,1,127.425,234.967Z" transform="translate(-121.836 -165.386)" fill="#455a64"/>
        <path id="Path_19346" data-name="Path 19346" d="M128.705,234.2l-.33.194c-.019,0-.035,0-.035-.027v-.9a.085.085,0,0,1,.035-.066l.33-.19c.019,0,.035,0,.035.027v.893A.074.074,0,0,1,128.705,234.2Z" transform="translate(-122.619 -164.903)" fill="#455a64"/>
        <path id="Path_19347" data-name="Path 19347" d="M126.248,243.4l-.388-.245v-.074l.388-.718a.025.025,0,0,1,.05,0v.967C126.3,243.371,126.268,243.409,126.248,243.4Z" transform="translate(-121.102 -170.485)" fill="#455a64"/>
        <path id="Path_19348" data-name="Path 19348" d="M126.292,243.177l.536-.307v.252l-.536.311c-.043.027-.082,0-.082-.082A.229.229,0,0,1,126.292,243.177Z" transform="translate(-121.317 -170.812)" fill="#455a64"/>
        <path id="Path_19349" data-name="Path 19349" d="M128.06,242.555l.183-.1v.252l-.183.1Z" transform="translate(-122.448 -170.555)" fill="#455a64"/>
        <path id="Path_19350" data-name="Path 19350" d="M129.182,241.874v.936a.206.206,0,0,1-.085.175c-.043.027-.082,0-.082-.078V242.1l-.225.128v-.252l.307-.179C129.143,241.785,129.182,241.82,129.182,241.874Z" transform="translate(-122.895 -170.154)" fill="#455a64"/>
        <path id="Path_19351" data-name="Path 19351" d="M126.363,250.331a1.763,1.763,0,0,0-.563,1.514c.066.485.353.466.388.691,0,.027.019.035.035.027l.361-.206a.1.1,0,0,0,.039-.066,4.255,4.255,0,0,0,.408-1.386C127.035,250.35,126.728,250.078,126.363,250.331Z" transform="translate(-121.058 -175.317)" fill="#455a64"/>
        <path id="Path_19352" data-name="Path 19352" d="M127.212,256.509l-.349.2c-.023,0-.043,0-.043-.035v-.318a.109.109,0,0,1,.043-.085l.349-.2c.023,0,.043,0,.043.035v.326A.1.1,0,0,1,127.212,256.509Z" transform="translate(-121.69 -178.886)" fill="#455a64"/>
        <path id="Path_19353" data-name="Path 19353" d="M126.45,230.739a2.12,2.12,0,0,0-.633,1.344,1.421,1.421,0,0,0,.089.73l-.117.614c0,.05,0,.074.047.043l.353-.388a.548.548,0,0,0,.513-.148,2.12,2.12,0,0,0,.633-1.344C127.425,230.739,126.974,230.315,126.45,230.739Zm.124,2c-.322.186-.586-.066-.586-.567a1.553,1.553,0,0,1,.586-1.243c.326-.186.59.066.59.567a1.553,1.553,0,0,1-.59,1.25Z" transform="translate(-121.06 -163.29)" fill="#455a64"/>
        <path id="Path_19354" data-name="Path 19354" d="M126.45,261.1a2.109,2.109,0,0,0-.633,1.34,1.429,1.429,0,0,0,.089.734l-.117.61c0,.051,0,.078.047.047l.353-.388a.548.548,0,0,0,.513-.148,2.132,2.132,0,0,0,.633-1.344C127.425,261.1,126.974,260.672,126.45,261.1Zm.124,2c-.322.186-.586-.066-.586-.567a1.553,1.553,0,0,1,.586-1.243c.326-.186.59.066.59.567a1.553,1.553,0,0,1-.59,1.243Z" transform="translate(-121.06 -181.861)" fill="#455a64"/>
        <path id="Path_19355" data-name="Path 19355" d="M127.791,271.969a.815.815,0,0,1-.311.656c-.171.1-.311-.035-.311-.3a.827.827,0,0,1,.311-.656C127.651,271.573,127.791,271.7,127.791,271.969Z" transform="translate(-121.904 -188.408)" fill="#455a64"/>
        <path id="Path_19356" data-name="Path 19356" d="M129.485,272.384a.548.548,0,0,1-.206.439c-.116.066-.21-.023-.21-.2a.544.544,0,0,1,.21-.439C129.392,272.12,129.485,272.209,129.485,272.384Z" transform="translate(-123.066 -188.73)" fill="#455a64"/>
        <path id="Path_19357" data-name="Path 19357" d="M127.742,275.486l-.742.419v-.94a.641.641,0,0,1,.268-.509l.2-.116c.144-.082.264,0,.264.2Z" transform="translate(-121.8 -190.042)" fill="#455a64"/>
        <path id="Path_19358" data-name="Path 19358" d="M129.372,274.107l-.2.116v1.068l.388-.221v-.831C129.551,274.107,129.469,274.053,129.372,274.107Z" transform="translate(-123.127 -189.906)" fill="#455a64"/>
        <path id="Path_19359" data-name="Path 19359" d="M125.8,274.515c0,.175.093.264.206.2a.544.544,0,0,0,.206-.435c0-.179-.093-.268-.206-.2A.555.555,0,0,0,125.8,274.515Z" transform="translate(-121.066 -189.886)" fill="#455a64"/>
        <path id="Path_19360" data-name="Path 19360" d="M125.95,275.937l.2-.117v1.072l-.388.217v-.831A.423.423,0,0,1,125.95,275.937Z" transform="translate(-121.041 -190.966)" fill="#455a64"/>
        <path id="Path_19361" data-name="Path 19361" d="M134.339,220.9l8.629-4.994c.233-.136.419-.039.419.214a.9.9,0,0,1-.419.7l-8.629,4.994c-.233.132-.419.039-.419-.214A.9.9,0,0,1,134.339,220.9Z" transform="translate(-126.032 -154.279)" fill="#e0e0e0"/>
        <path id="Path_19362" data-name="Path 19362" d="M134.339,231.374l8.625-4.978c.233-.132.419-.039.419.214a.9.9,0,0,1-.419.7l-8.625,4.978c-.233.132-.419.039-.419-.214A.9.9,0,0,1,134.339,231.374Z" transform="translate(-126.032 -160.698)" fill="#e0e0e0"/>
        <path id="Path_19363" data-name="Path 19363" d="M134.339,241.862l8.629-4.959c.233-.136.419-.039.419.21a.9.9,0,0,1-.419.7l-8.629,4.959c-.233.136-.419.039-.419-.214A.893.893,0,0,1,134.339,241.862Z" transform="translate(-126.032 -167.124)" fill="#e0e0e0"/>
        <path id="Path_19364" data-name="Path 19364" d="M134.339,252.281l8.625-4.978c.233-.136.419-.039.419.214a.893.893,0,0,1-.419.7l-8.625,4.982c-.233.132-.419.039-.419-.214A.9.9,0,0,1,134.339,252.281Z" transform="translate(-126.032 -173.486)" fill="#e0e0e0"/>
        <path id="Path_19365" data-name="Path 19365" d="M134.339,262.734l8.625-4.978c.233-.132.419-.039.419.214a.9.9,0,0,1-.419.7l-8.625,4.971c-.233.132-.419.039-.419-.214A.9.9,0,0,1,134.339,262.734Z" transform="translate(-126.032 -179.88)" fill="#e0e0e0"/>
        <path id="Path_19366" data-name="Path 19366" d="M138.409,271.271l8.625-4.978c.233-.136.419-.039.419.21a.9.9,0,0,1-.419.7l-8.625,4.978c-.233.136-.419.039-.419-.21A.9.9,0,0,1,138.409,271.271Z" transform="translate(-128.522 -185.101)" fill="#455a64"/>
        <path id="Path_19367" data-name="Path 19367" d="M138.409,278.331l8.625-4.978c.233-.136.419-.039.419.214a.893.893,0,0,1-.419.7l-8.625,4.978c-.233.136-.419.039-.419-.21A.9.9,0,0,1,138.409,278.331Z" transform="translate(-128.522 -189.419)" fill="#e0e0e0"/>
        <path id="Path_19368" data-name="Path 19368" d="M138.409,285.391l8.625-4.978c.233-.136.419-.039.419.214a.893.893,0,0,1-.419.7l-8.625,4.982c-.233.132-.419.039-.419-.214A.9.9,0,0,1,138.409,285.391Z" transform="translate(-128.522 -193.738)" fill="#e0e0e0"/>
        <path id="Path_19369" data-name="Path 19369" d="M142.729,289.881l8.625-4.978c.233-.136.419-.039.419.21a.9.9,0,0,1-.419.7l-8.625,4.978c-.229.136-.419.039-.419-.21a.9.9,0,0,1,.419-.7Z" transform="translate(-131.164 -196.484)" fill="#e0e0e0"/>
        <path id="Path_19370" data-name="Path 19370" d="M138.072,301.071l.7-1.235c.027-.047.027-.109,0-.124l-.7-.427c-.031-.019-.082.043-.082.109v1.662C137.994,301.113,138.04,301.133,138.072,301.071Z" transform="translate(-128.522 -205.316)" fill="#455a64"/>
        <path id="Path_19371" data-name="Path 19371" d="M142.729,296.9l8.625-4.99c.233-.132.419-.039.419.214a.9.9,0,0,1-.419.7l-8.625,4.99c-.229.136-.419.039-.419-.214a.913.913,0,0,1,.419-.7Z" transform="translate(-131.164 -200.769)" fill="#e0e0e0"/>
        <path id="Path_19372" data-name="Path 19372" d="M138.072,308.1l.7-1.235c.027-.047.027-.109,0-.128l-.7-.427c-.031-.019-.082.047-.082.113v1.662C137.994,308.155,138.04,308.163,138.072,308.1Z" transform="translate(-128.522 -209.616)" fill="#455a64"/>
        <path id="Path_19373" data-name="Path 19373" d="M142.729,303.952l8.625-4.978c.233-.136.419-.039.419.214a.9.9,0,0,1-.419.7l-8.625,4.978c-.229.132-.419.039-.419-.214A.913.913,0,0,1,142.729,303.952Z" transform="translate(-131.164 -205.09)" fill="#e0e0e0"/>
        <path id="Path_19374" data-name="Path 19374" d="M138.072,315.175l.7-1.239c.027-.047.027-.109,0-.124l-.7-.427c-.031-.019-.082.047-.082.113v1.662C137.994,315.214,138.04,315.221,138.072,315.175Z" transform="translate(-128.522 -213.941)" fill="#455a64"/>
        <path id="Path_19375" data-name="Path 19375" d="M142.729,310.991l8.625-4.978c.233-.136.419-.039.419.21a.9.9,0,0,1-.419.7l-8.625,4.978c-.229.136-.419.039-.419-.21a.9.9,0,0,1,.419-.7Z" transform="translate(-131.164 -209.396)" fill="#e0e0e0"/>
        <path id="Path_19376" data-name="Path 19376" d="M138.072,322.179l.7-1.235c.027-.047.027-.109,0-.124l-.7-.427c-.031-.023-.082.043-.082.109v1.678C137.994,322.229,138.04,322.241,138.072,322.179Z" transform="translate(-128.522 -218.227)" fill="#455a64"/>
        <path id="Path_19377" data-name="Path 19377" d="M142.729,318.064l8.625-4.978c.233-.132.419-.039.419.214a.9.9,0,0,1-.419.7l-8.625,4.978c-.229.132-.419.039-.419-.214a.913.913,0,0,1,.419-.7Z" transform="translate(-131.164 -213.724)" fill="#e0e0e0"/>
        <path id="Path_19378" data-name="Path 19378" d="M138.072,329.175l.7-1.235c.027-.047.027-.109,0-.128l-.7-.427c-.031-.019-.082.047-.082.113v1.678C137.994,329.241,138.04,329.249,138.072,329.175Z" transform="translate(-128.522 -222.504)" fill="#455a64"/>
        <path id="Path_19379" data-name="Path 19379" d="M142.729,325.061l8.625-4.978c.233-.136.419-.039.419.214a.893.893,0,0,1-.419.7l-8.625,4.982c-.229.132-.419.039-.419-.214A.913.913,0,0,1,142.729,325.061Z" transform="translate(-131.164 -218.003)" fill="#e0e0e0"/>
        <path id="Path_19380" data-name="Path 19380" d="M138.072,336.255l.7-1.239c.027-.047.027-.109,0-.124l-.7-.427c-.031-.019-.082.047-.082.113v1.647C137.994,336.305,138.04,336.313,138.072,336.255Z" transform="translate(-128.522 -226.835)" fill="#455a64"/>
        <path id="Path_19381" data-name="Path 19381" d="M142.729,332.061l8.625-4.978c.233-.136.419-.039.419.21a.9.9,0,0,1-.419.7l-8.625,4.978c-.229.136-.419.039-.419-.214a.9.9,0,0,1,.419-.7Z" transform="translate(-131.164 -222.284)" fill="#e0e0e0"/>
        <path id="Path_19382" data-name="Path 19382" d="M138.072,343.289l.7-1.235c.027-.047.027-.109,0-.124l-.7-.427c-.031-.023-.082.043-.082.109v1.662C137.994,343.339,138.04,343.351,138.072,343.289Z" transform="translate(-128.522 -231.139)" fill="#455a64"/>
        <path id="Path_19383" data-name="Path 19383" d="M142.729,339.134l8.625-4.978c.233-.132.419-.039.419.214a.9.9,0,0,1-.419.7l-8.625,4.978c-.229.132-.419.039-.419-.214A.913.913,0,0,1,142.729,339.134Z" transform="translate(-131.164 -226.611)" fill="#e0e0e0"/>
        <path id="Path_19384" data-name="Path 19384" d="M138.065,350.343l.7-1.223c.027-.047.027-.109,0-.128l-.7-.427c-.031-.019-.082.047-.082.113v1.662C137.988,350.394,138.034,350.4,138.065,350.343Z" transform="translate(-128.516 -235.459)" fill="#455a64"/>
        <path id="Path_19385" data-name="Path 19385" d="M187.153,160.7,215.5,144.333a.928.928,0,0,0,.419-.726V136.38c0-.268-.19-.388-.419-.241L187.153,152.5a.924.924,0,0,0-.423.726v7.231C186.73,160.725,186.92,160.834,187.153,160.7Z" transform="translate(-158.335 -105.489)" fill="#f0f0f0"/>
        <path id="Path_19386" data-name="Path 19386" d="M194.068,184.65l.186-.777-.256.148h0v-.163a.066.066,0,0,1,0-.027s0,0,0-.023l.412-.237h0a.043.043,0,0,1,0,.023v.124a.633.633,0,0,1,0,.074l-.186.777a.245.245,0,0,1,0,.027.043.043,0,0,1,0,.019l-.124.07h0a.031.031,0,0,1-.031-.035Z" transform="translate(-162.779 -134.54)" fill="#455a64"/>
        <path id="Path_19387" data-name="Path 19387" d="M195.628,182.945a.179.179,0,0,1,.113-.035.117.117,0,0,1,.078.031.19.19,0,0,1,.043.089.633.633,0,0,1,0,.128v.237a1.035,1.035,0,0,1,0,.148.641.641,0,0,1-.043.14.827.827,0,0,1-.078.124.532.532,0,0,1-.113.093.233.233,0,0,1-.113.035.132.132,0,0,1-.074-.035.163.163,0,0,1-.047-.089.633.633,0,0,1,0-.128v-.233a.9.9,0,0,1,0-.148.478.478,0,0,1,.047-.144.627.627,0,0,1,.074-.12A.423.423,0,0,1,195.628,182.945Zm.093.536v-.225a.3.3,0,0,0,0-.058.117.117,0,0,0,0-.039.031.031,0,0,0-.027,0h-.043a.2.2,0,0,0-.043.039.183.183,0,0,0-.027.047.324.324,0,0,0,0,.058s0,.043,0,.066v.28a.089.089,0,0,0,0,.039.039.039,0,0,0,.027,0,.066.066,0,0,0,.043,0,.14.14,0,0,0,.043-.039.113.113,0,0,0,.027-.047.163.163,0,0,0,0-.058.342.342,0,0,0-.019-.066Z" transform="translate(-163.633 -134.136)" fill="#455a64"/>
        <path id="Path_19388" data-name="Path 19388" d="M197.093,182.049v.1a.587.587,0,0,1,0,.082.271.271,0,0,1-.023.074.352.352,0,0,1-.043.062.248.248,0,0,1-.058.05.144.144,0,0,1-.058,0,.054.054,0,0,1-.043,0,.066.066,0,0,1-.023-.043.186.186,0,0,1,0-.07v-.1a.268.268,0,0,1,0-.078.233.233,0,0,1,.023-.074.241.241,0,0,1,.043-.066.171.171,0,0,1,.058-.047.1.1,0,0,1,.058,0,.058.058,0,0,1,.043,0l.023.047a.288.288,0,0,1,0,.062Zm.214-.28v-.027a.039.039,0,0,1,.019,0l.07-.043h0l-.427,1.111v.023a.046.046,0,0,1-.019.019l-.07.039h0Zm-.388.474a.127.127,0,0,0,0,.047h.027a.074.074,0,0,0,.027-.031.237.237,0,0,0,0-.058v-.085a.113.113,0,0,0,0-.047h-.027a.062.062,0,0,0-.027.035.178.178,0,0,0,0,.054.342.342,0,0,0,0,.085Zm.571.039v.1a.591.591,0,0,1,0,.082.539.539,0,0,1-.023.074.354.354,0,0,1-.043.062.25.25,0,0,1-.058.05.144.144,0,0,1-.058,0,.07.07,0,0,1-.043,0,.089.089,0,0,1-.023-.047.186.186,0,0,1,0-.07v-.1a.3.3,0,0,1,0-.082.234.234,0,0,1,.023-.074.241.241,0,0,1,.027-.078.171.171,0,0,1,.058-.047.144.144,0,0,1,.058,0,.058.058,0,0,1,.043,0,.132.132,0,0,1,.023.047Zm-.171.194a.113.113,0,0,0,0,.047h.027c.027,0,.019,0,.027-.031a.237.237,0,0,0,0-.058v-.085a.113.113,0,0,0,0-.047h-.027a.062.062,0,0,0-.027.035.178.178,0,0,0,0,.054.342.342,0,0,0,0,.085Z" transform="translate(-164.519 -133.396)" fill="#455a64"/>
        <path id="Path_19389" data-name="Path 19389" d="M192.665,179.929l-.283-.439a5.608,5.608,0,0,0-.672,1.814l.458-.039A4.241,4.241,0,0,1,192.665,179.929Z" transform="translate(-161.381 -132.044)" fill="#455a64"/>
        <path id="Path_19390" data-name="Path 19390" d="M194.527,177.212v-.742a3.169,3.169,0,0,0-1.087,1.165l.283.439A2.372,2.372,0,0,1,194.527,177.212Z" transform="translate(-162.439 -130.197)" fill="#455a64"/>
        <path id="Path_19391" data-name="Path 19391" d="M191.955,184.751a3.821,3.821,0,0,1,.066-.691l-.458.039a4.77,4.77,0,0,0-.093.932,3.366,3.366,0,0,0,.093.827l.458-.5A2.64,2.64,0,0,1,191.955,184.751Z" transform="translate(-161.233 -134.84)" fill="#455a64"/>
        <path id="Path_19392" data-name="Path 19392" d="M195.228,177.12a1.553,1.553,0,0,0-.672-1.037,1.091,1.091,0,0,0-1.087.085v.742a.808.808,0,0,1,.8-.058,1.138,1.138,0,0,1,.5.777,2.642,2.642,0,0,1,.066.61,3.788,3.788,0,0,1-.066.691,4.339,4.339,0,0,1-.5,1.336,2.439,2.439,0,0,1-.8.87.8.8,0,0,1-.8.058,1.126,1.126,0,0,1-.5-.777l-.458.5a1.519,1.519,0,0,0,.672,1.037,1.08,1.08,0,0,0,1.087-.085,3.235,3.235,0,0,0,1.087-1.165,5.677,5.677,0,0,0,.672-1.81,5.09,5.09,0,0,0,.089-.936,3.577,3.577,0,0,0-.089-.835Z" transform="translate(-161.381 -129.895)" fill="url(#linear-gradient)"/>
        <path id="Path_19393" data-name="Path 19393" d="M207.463,165.741l8.621-4.978c.233-.136.423-.039.423.21a.9.9,0,0,1-.423.7l-8.621,4.971c-.233.136-.423.039-.423-.21A.9.9,0,0,1,207.463,165.741Z" transform="translate(-170.757 -120.552)" fill="#455a64"/>
        <path id="Path_19394" data-name="Path 19394" d="M207.463,164.734l14.931-8.621c.233-.136.419-.039.419.214a.893.893,0,0,1-.419.7l-14.931,8.621c-.233.136-.423.039-.423-.214A.9.9,0,0,1,207.463,164.734Z" transform="translate(-170.757 -117.708)" fill="#e0e0e0"/>
        <path id="Path_19395" data-name="Path 19395" d="M266.339,114.962,294.688,98.6a.932.932,0,0,0,.419-.73V90.64c0-.268-.186-.388-.419-.241L266.339,106.76a.932.932,0,0,0-.419.73v7.227C265.928,114.985,266.114,115.094,266.339,114.962Z" transform="translate(-206.772 -77.512)" fill="#f0f0f0"/>
        <path id="Path_19396" data-name="Path 19396" d="M273.74,138.108a.512.512,0,0,1,.023-.151.524.524,0,0,1,.054-.136.6.6,0,0,1,.082-.113.55.55,0,0,1,.093-.078.388.388,0,0,1,.093-.031.14.14,0,0,1,.082.019.175.175,0,0,1,.058.07.389.389,0,0,1,.019.128.451.451,0,0,1,0,.074.445.445,0,0,1,0,.07.421.421,0,0,1-.019.066l-.023.062-.163.443a.056.056,0,0,0,0,.023.046.046,0,0,1-.019.019l-.136.078h0a.023.023,0,0,1,0-.019h0l.113-.3a.194.194,0,0,1-.082,0,.1.1,0,0,1-.066-.027.159.159,0,0,1-.047-.07A.33.33,0,0,1,273.74,138.108Zm.346-.2a.143.143,0,0,0,0-.047.039.039,0,0,0-.019-.023h-.031a.062.062,0,0,0-.035,0l-.035.027-.027.043a.2.2,0,0,0-.023.05.233.233,0,0,0,0,.05.144.144,0,0,0,0,.047.025.025,0,0,0,.023.023h.027a.062.062,0,0,0,.035,0,.124.124,0,0,0,.035-.031.15.15,0,0,0,.031-.039.193.193,0,0,0,.019-.05A.229.229,0,0,0,274.086,137.91Z" transform="translate(-211.556 -106.421)" fill="#455a64"/>
        <path id="Path_19397" data-name="Path 19397" d="M275.5,136.775a.171.171,0,0,1,.109-.035.109.109,0,0,1,.078.031.241.241,0,0,1,.047.089.446.446,0,0,1,0,.128v.237a.652.652,0,0,1,0,.148.98.98,0,0,1-.047.14.6.6,0,0,1-.078.124.51.51,0,0,1-.109.093.248.248,0,0,1-.113.035.132.132,0,0,1-.078-.035.213.213,0,0,1-.047-.089.6.6,0,0,1,0-.124v-.237a.9.9,0,0,1,0-.148.893.893,0,0,1,.047-.144.493.493,0,0,1,.078-.12A.388.388,0,0,1,275.5,136.775Zm.089.536a2.166,2.166,0,0,0,0-.225.235.235,0,0,0,0-.054.109.109,0,0,0,0-.043.039.039,0,0,0-.027,0h-.043a.14.14,0,0,0-.043.039.325.325,0,0,0-.031.047v.124a2.092,2.092,0,0,0,0,.221v.058a.192.192,0,0,0,0,.039.035.035,0,0,0,.031,0h.043l.043-.035a.21.21,0,0,0,.027-.05.32.32,0,0,0,0-.058A.335.335,0,0,0,275.591,137.311Z" transform="translate(-212.486 -105.896)" fill="#455a64"/>
        <path id="Path_19398" data-name="Path 19398" d="M277.01,135.889a.44.44,0,0,1,0,.1.577.577,0,0,1,0,.082.57.57,0,0,1-.027.074.334.334,0,0,1-.039.062.252.252,0,0,1-.062.051.116.116,0,0,1-.058.019.058.058,0,0,1-.039,0,.136.136,0,0,1-.027-.047.35.35,0,0,1,0-.07.19.19,0,0,1,0-.047.27.27,0,0,1,0-.054.524.524,0,0,1,0-.078.413.413,0,0,1,.027-.074.229.229,0,0,1,.039-.066.308.308,0,0,1,.058-.047.144.144,0,0,1,.062,0,.05.05,0,0,1,.039,0,.136.136,0,0,1,.027.047A.349.349,0,0,1,277.01,135.889Zm.217-.28v-.027h.019l.07-.043h0l-.423,1.111a.132.132,0,0,1,0,.023v.019l-.07.039h0Zm-.388.474v.047c0,.008,0,0,.023,0a.039.039,0,0,0,.027-.031v-.144a.2.2,0,0,0,0-.047h-.027a.058.058,0,0,0-.023.035.163.163,0,0,0,0,.054Zm.571.039a.44.44,0,0,1,0,.1.586.586,0,0,1,0,.082.567.567,0,0,1-.027.074.222.222,0,0,1-.043.062.143.143,0,0,1-.058.051.117.117,0,0,1-.058,0,.047.047,0,0,1-.039,0,.136.136,0,0,1-.027-.047.346.346,0,0,1,0-.066.33.33,0,0,1,0-.1.573.573,0,0,1,0-.082.42.42,0,0,1,.027-.074.171.171,0,0,1,.039-.062.224.224,0,0,1,.058-.05.144.144,0,0,1,.058,0,.054.054,0,0,1,.043,0,.136.136,0,0,1,.027.047.34.34,0,0,1,0,.05Zm-.171.194v.047c0,.008,0,0,.023,0a.039.039,0,0,0,.027-.031.21.21,0,0,0,0-.058.315.315,0,0,0,0-.085.113.113,0,0,0,0-.047h-.027a.058.058,0,0,0-.023.035.163.163,0,0,0,0,.054Z" transform="translate(-213.4 -105.162)" fill="#455a64"/>
        <path id="Path_19399" data-name="Path 19399" d="M274.387,131.092v-.742a3.168,3.168,0,0,0-1.087,1.165l.283.439a2.373,2.373,0,0,1,.8-.862Z" transform="translate(-211.286 -101.987)" fill="#455a64"/>
        <path id="Path_19400" data-name="Path 19400" d="M274.923,131a1.53,1.53,0,0,0-.672-1.037,1.08,1.08,0,0,0-1.087.085v.742a.8.8,0,0,1,.8-.058,1.138,1.138,0,0,1,.5.777,2.642,2.642,0,0,1,.066.61,3.821,3.821,0,0,1-.066.691,4.241,4.241,0,0,1-.5,1.336,2.438,2.438,0,0,1-.8.87.8.8,0,0,1-.8.058,1.126,1.126,0,0,1-.5-.777,2.64,2.64,0,0,1-.066-.61,3.785,3.785,0,0,1,.066-.691,4.24,4.24,0,0,1,.485-1.336l-.284-.439a5.62,5.62,0,0,0-.672,1.81,5.13,5.13,0,0,0-.093.936,3.565,3.565,0,0,0,.093.827,1.518,1.518,0,0,0,.672,1.037,1.08,1.08,0,0,0,1.087-.085,3.2,3.2,0,0,0,1.087-1.165h0a5.711,5.711,0,0,0,.672-1.81,5.156,5.156,0,0,0,.089-.936A3.574,3.574,0,0,0,274.923,131Z" transform="translate(-210.063 -101.682)" fill="url(#linear-gradient)"/>
        <path id="Path_19401" data-name="Path 19401" d="M287.339,119.618l8.625-4.982c.229-.132.419-.039.419.214a.9.9,0,0,1-.419.7l-8.625,4.978c-.233.136-.419.039-.419-.214A.893.893,0,0,1,287.339,119.618Z" transform="translate(-219.617 -92.339)" fill="#455a64"/>
        <path id="Path_19402" data-name="Path 19402" d="M287.339,118.61l14.931-8.617c.233-.136.423-.039.423.214a.9.9,0,0,1-.423.7l-14.931,8.621c-.233.132-.419.039-.419-.214A.9.9,0,0,1,287.339,118.61Z" transform="translate(-219.617 -89.498)" fill="#e0e0e0"/>
        <path id="Path_19403" data-name="Path 19403" d="M194.589,198.988l6.05-3.5c.233-.136.419-.039.419.21a.9.9,0,0,1-.419.7l-6.05,3.5c-.233.136-.419.039-.419-.214a.893.893,0,0,1,.419-.7Z" transform="translate(-162.885 -141.795)" fill="#455a64"/>
        <path id="Path_19404" data-name="Path 19404" d="M246.464,125.914h0m-.179.1v46.212a.54.54,0,0,1-.225.388l-58.941,34.018V160.426a.559.559,0,0,1,.229-.388l.734-.423a1.317,1.317,0,0,0,.617-1.064v-2.664a.54.54,0,0,1,.225-.388l8.462-4.885V153.1a.633.633,0,0,0,.621.687.776.776,0,0,0,.388-.109l47.9-27.653M197.565,150.5h0M246.44,125.53a.388.388,0,0,0-.186.058l-48.06,27.747a.388.388,0,0,1-.186.058c-.14,0-.233-.113-.233-.3v-2.676c0-.19-.1-.3-.233-.3a.388.388,0,0,0-.186.058l-8.625,4.978a.932.932,0,0,0-.419.73v2.672a.924.924,0,0,1-.423.726l-.734.427a.924.924,0,0,0-.423.726v46.387c0,.19.1.3.233.3a.389.389,0,0,0,.19-.058l59.1-34.123a.924.924,0,0,0,.419-.726v-46.39c0-.19-.093-.3-.233-.3Z" transform="translate(-158.335 -99.039)" fill="#e0e0e0"/>
        <path id="Path_19405" data-name="Path 19405" d="M195.846,211.237a.415.415,0,0,1-.206-.05.493.493,0,0,1-.221-.443v-1.759a1.126,1.126,0,0,1,.52-.9l4.687-2.718a.485.485,0,0,1,.489-.031.493.493,0,0,1,.221.443v1.759a1.126,1.126,0,0,1-.52.9l-4.683,2.718a.59.59,0,0,1-.287.082Zm.287-2.812a.722.722,0,0,0-.326.559v1.759a.148.148,0,0,0,.027.1.152.152,0,0,0,.1-.031l4.687-2.7a.746.746,0,0,0,.322-.563V205.8a.147.147,0,0,0-.027-.1.151.151,0,0,0-.1.031Z" transform="translate(-163.648 -147.823)" fill="#e0e0e0"/>
        <path id="Path_19406" data-name="Path 19406" d="M197.56,212.377l3.056-1.771c.155-.089.28-.027.28.14a.594.594,0,0,1-.28.466l-3.056,1.775c-.155.089-.28.023-.28-.144a.6.6,0,0,1,.28-.466Z" transform="translate(-164.788 -151.052)" fill="#e0e0e0"/>
        <path id="Path_19407" data-name="Path 19407" d="M207.668,209.347l.252.361a.046.046,0,0,0,.039-.023l.252-.652v-.047l-.5.291A.062.062,0,0,0,207.668,209.347Z" transform="translate(-171.141 -150.084)" fill="#455a64"/>
        <path id="Path_19408" data-name="Path 19408" d="M194.248,264.474c.225-.128.388-.023.388.233a.889.889,0,0,1-.388.7c-.225.128-.388.023-.388-.233A.889.889,0,0,1,194.248,264.474Z" transform="translate(-162.696 -183.993)" fill="url(#linear-gradient)"/>
        <path id="Path_19409" data-name="Path 19409" d="M202.388,255.094c.225-.128.408-.023.408.233a.893.893,0,0,1-.408.7c-.221.128-.388.023-.388-.233A.9.9,0,0,1,202.388,255.094Z" transform="translate(-167.675 -178.255)" fill="url(#linear-gradient)"/>
        <path id="Path_19410" data-name="Path 19410" d="M210.468,250.4c.221-.128.388-.023.388.233a.9.9,0,0,1-.388.7c-.225.128-.408.023-.408-.233A.893.893,0,0,1,210.468,250.4Z" transform="translate(-172.605 -175.386)" fill="url(#linear-gradient)"/>
        <path id="Path_19411" data-name="Path 19411" d="M218.618,247.774c.225-.128.388-.023.388.233a.889.889,0,0,1-.388.7c-.225.128-.388.023-.388-.233a.889.889,0,0,1,.388-.7Z" transform="translate(-177.602 -173.778)" fill="url(#linear-gradient)"/>
        <path id="Path_19412" data-name="Path 19412" d="M226.748,239.324c.225-.128.388-.023.388.237a.889.889,0,0,1-.388.7c-.221.132-.388.027-.388-.233a.909.909,0,0,1,.388-.7Z" transform="translate(-182.575 -168.609)" fill="url(#linear-gradient)"/>
        <path id="Path_19413" data-name="Path 19413" d="M234.868,236.334c.225-.128.388-.023.388.233a.889.889,0,0,1-.388.7c-.225.128-.388.023-.388-.233A.889.889,0,0,1,234.868,236.334Z" transform="translate(-187.542 -166.78)" fill="url(#linear-gradient)"/>
        <path id="Path_19414" data-name="Path 19414" d="M242.988,226.91c.225-.132.408-.027.408.233a.9.9,0,0,1-.408.7c-.221.128-.388.023-.388-.237A.9.9,0,0,1,242.988,226.91Z" transform="translate(-192.508 -161.015)" fill="url(#linear-gradient)"/>
        <path id="Path_19415" data-name="Path 19415" d="M251.118,224.6c.221-.128.388-.023.388.237a.9.9,0,0,1-.388.7c-.225.132-.388.027-.388-.233A.9.9,0,0,1,251.118,224.6Z" transform="translate(-197.481 -159.606)" fill="url(#linear-gradient)"/>
        <path id="Path_19416" data-name="Path 19416" d="M259.238,198.8c.225-.128.388-.023.388.237a.9.9,0,0,1-.388.7c-.225.128-.388.023-.388-.237a.9.9,0,0,1,.388-.7Z" transform="translate(-202.448 -143.825)" fill="url(#linear-gradient)"/>
        <path id="Path_19417" data-name="Path 19417" d="M267.358,212.91c.221-.132.388-.027.388.233a.909.909,0,0,1-.388.7c-.225.128-.408.023-.408-.237a.889.889,0,0,1,.408-.7Z" transform="translate(-207.402 -152.451)" fill="url(#linear-gradient)"/>
        <path id="Path_19418" data-name="Path 19418" d="M275.488,212.91c.225-.132.388-.027.388.233a.9.9,0,0,1-.388.7c-.225.128-.388.023-.388-.237A.886.886,0,0,1,275.488,212.91Z" transform="translate(-212.387 -152.451)" fill="url(#linear-gradient)"/>
        <path id="Path_19419" data-name="Path 19419" d="M283.608,212.91c.225-.132.388-.027.388.233a.9.9,0,0,1-.388.7c-.221.128-.388.023-.388-.237A.9.9,0,0,1,283.608,212.91Z" transform="translate(-217.354 -152.451)" fill="url(#linear-gradient)"/>
        <path id="Path_19420" data-name="Path 19420" d="M291.708,198.81c.221-.132.388-.027.388.233a.909.909,0,0,1-.388.7c-.225.128-.408.023-.408-.237A.889.889,0,0,1,291.708,198.81Z" transform="translate(-222.296 -143.827)" fill="url(#linear-gradient)"/>
        <path id="Path_19421" data-name="Path 19421" d="M299.858,196.114c.225-.128.388-.023.388.233a.889.889,0,0,1-.388.7c-.225.128-.388.023-.388-.233a.889.889,0,0,1,.388-.7Z" transform="translate(-227.294 -142.179)" fill="url(#linear-gradient)"/>
        <path id="Path_19422" data-name="Path 19422" d="M308.008,184.734c.225-.128.408-.023.408.237a.889.889,0,0,1-.408.7c-.221.132-.388.027-.388-.233A.909.909,0,0,1,308.008,184.734Z" transform="translate(-232.279 -135.219)" fill="url(#linear-gradient)"/>
        <ellipse id="Ellipse_179" data-name="Ellipse 179" cx="0.575" cy="0.33" rx="0.575" ry="0.33" transform="translate(78.305 50.324) rotate(-60)" fill="url(#linear-gradient)"/>
        <ellipse id="Ellipse_180" data-name="Ellipse 180" cx="0.575" cy="0.33" rx="0.575" ry="0.33" transform="translate(81.462 50.323) rotate(-60)" fill="url(#linear-gradient)"/>
        <path id="Path_19423" data-name="Path 19423" d="M332.358,180.044c.221-.128.388-.023.388.237a.9.9,0,0,1-.388.7c-.225.132-.408.027-.408-.233A.9.9,0,0,1,332.358,180.044Z" transform="translate(-247.161 -132.35)" fill="url(#linear-gradient)"/>
        <path id="Path_19424" data-name="Path 19424" d="M194.692,214.073a.1.1,0,0,1-.066-.023.1.1,0,0,1,0-.14l3.184-3.658.027-.023,3.13-1.806,3.149-1.021,3.138-3.266.039-.023,3.13-1.165,3.138-3.623a.163.163,0,0,1,.047-.031l3.107-.9,3.13-9.953a.1.1,0,0,1,.082-.07.1.1,0,0,1,.1.05l3.126,5.413h6.213l3.111-5.394a.093.093,0,0,1,.054-.047l3.126-1.037,3.134-4.392a.1.1,0,0,1,.082-.039h6.283l3.13-1.81a.1.1,0,1,1,.1.167l-3.153,1.825a.109.109,0,0,1-.05,0h-6.26l-3.126,4.377a.085.085,0,0,1-.047.035l-3.107,1.037L229.5,194a.1.1,0,0,1-.085.047H223.1a.1.1,0,0,1-.082-.047l-3.045-5.274-3.087,9.817a.113.113,0,0,1-.066.066l-3.13.9-3.134,3.623-.039.027-3.138,1.165-3.138,3.266a.082.082,0,0,1-.039.023l-3.157,1.021-3.107,1.794-3.188,3.623A.1.1,0,0,1,194.692,214.073Z" transform="translate(-163.147 -133.033)" fill="url(#linear-gradient)"/>
        <path id="Path_19425" data-name="Path 19425" d="M194.556,221.63a.194.194,0,0,1-.167-.1.2.2,0,0,1,.07-.268L248.092,190.3a.194.194,0,0,1,.194.334l-53.633,30.95A.182.182,0,0,1,194.556,221.63Z" transform="translate(-163.003 -138.648)" fill="#e0e0e0"/>
        <path id="Path_19426" data-name="Path 19426" d="M194.248,259.784c.225-.128.388-.023.388.233a.889.889,0,0,1-.388.7c-.225.128-.388.023-.388-.233A.889.889,0,0,1,194.248,259.784Z" transform="translate(-162.696 -181.124)" fill="url(#linear-gradient)"/>
        <path id="Path_19427" data-name="Path 19427" d="M202.388,245.714c.225-.128.408-.023.408.233a.893.893,0,0,1-.408.7c-.221.128-.388.023-.388-.233A.9.9,0,0,1,202.388,245.714Z" transform="translate(-167.675 -172.518)" fill="url(#linear-gradient)"/>
        <ellipse id="Ellipse_181" data-name="Ellipse 181" cx="0.575" cy="0.33" rx="0.575" ry="0.33" transform="translate(37.293 73.318) rotate(-60)" fill="url(#linear-gradient)"/>
        <path id="Path_19428" data-name="Path 19428" d="M218.618,226.91c.225-.132.388-.027.388.233a.893.893,0,0,1-.388.7c-.225.128-.388.023-.388-.237A.885.885,0,0,1,218.618,226.91Z" transform="translate(-177.602 -161.015)" fill="url(#linear-gradient)"/>
        <path id="Path_19429" data-name="Path 19429" d="M226.748,231.644c.225-.128.388-.023.388.233a.893.893,0,0,1-.388.7c-.221.128-.388.023-.388-.233A.9.9,0,0,1,226.748,231.644Z" transform="translate(-182.575 -163.912)" fill="url(#linear-gradient)"/>
        <path id="Path_19430" data-name="Path 19430" d="M234.868,229.294c.225-.128.388-.023.388.237a.886.886,0,0,1-.388.7c-.225.132-.388.027-.388-.233a.9.9,0,0,1,.388-.7Z" transform="translate(-187.542 -162.474)" fill="url(#linear-gradient)"/>
        <path id="Path_19431" data-name="Path 19431" d="M242.988,222.26c.225-.132.408-.027.408.233a.9.9,0,0,1-.408.7c-.221.128-.388.023-.388-.233a.9.9,0,0,1,.388-.7Z" transform="translate(-192.508 -158.17)" fill="url(#linear-gradient)"/>
        <path id="Path_19432" data-name="Path 19432" d="M251.118,212.91c.221-.132.388-.027.388.233a.909.909,0,0,1-.388.7c-.225.128-.388.023-.388-.237a.889.889,0,0,1,.388-.7Z" transform="translate(-197.481 -152.451)" fill="url(#linear-gradient)"/>
        <path id="Path_19433" data-name="Path 19433" d="M259.238,210.534c.225-.128.388-.023.388.233a.893.893,0,0,1-.388.7c-.225.128-.388.023-.388-.233A.889.889,0,0,1,259.238,210.534Z" transform="translate(-202.448 -150.999)" fill="url(#linear-gradient)"/>
        <path id="Path_19434" data-name="Path 19434" d="M267.388,203.5c.225-.132.388-.027.388.233a.9.9,0,0,1-.388.7c-.221.128-.388.023-.388-.237a.9.9,0,0,1,.388-.7Z" transform="translate(-207.433 -146.696)" fill="url(#linear-gradient)"/>
        <path id="Path_19435" data-name="Path 19435" d="M275.488,203.5c.225-.132.388-.027.388.233a.9.9,0,0,1-.388.7c-.225.128-.388.023-.388-.237A.885.885,0,0,1,275.488,203.5Z" transform="translate(-212.387 -146.696)" fill="url(#linear-gradient)"/>
        <path id="Path_19436" data-name="Path 19436" d="M283.608,184.734c.225-.128.388-.023.388.237a.889.889,0,0,1-.388.7c-.221.132-.388.027-.388-.233A.909.909,0,0,1,283.608,184.734Z" transform="translate(-217.354 -135.219)" fill="url(#linear-gradient)"/>
        <path id="Path_19437" data-name="Path 19437" d="M291.708,194.053c.221-.128.388-.027.388.233a.9.9,0,0,1-.388.7c-.225.128-.408.023-.408-.233A.893.893,0,0,1,291.708,194.053Z" transform="translate(-222.296 -140.918)" fill="url(#linear-gradient)"/>
        <path id="Path_19438" data-name="Path 19438" d="M299.858,184.734c.225-.128.388-.023.388.237a.889.889,0,0,1-.388.7c-.225.132-.388.027-.388-.233a.9.9,0,0,1,.388-.7Z" transform="translate(-227.294 -135.219)" fill="url(#linear-gradient)"/>
        <path id="Path_19439" data-name="Path 19439" d="M307.958,180.044c.221-.128.388-.023.388.237a.9.9,0,0,1-.388.7c-.225.132-.408.027-.408-.233A.9.9,0,0,1,307.958,180.044Z" transform="translate(-232.236 -132.35)" fill="url(#linear-gradient)"/>
        <path id="Path_19440" data-name="Path 19440" d="M316.108,180.044c.225-.128.388-.023.388.237a.885.885,0,0,1-.388.7c-.225.132-.388.027-.388-.233A.9.9,0,0,1,316.108,180.044Z" transform="translate(-237.233 -132.35)" fill="url(#linear-gradient)"/>
        <path id="Path_19441" data-name="Path 19441" d="M324.228,175.354c.225-.128.408-.023.408.237a.889.889,0,0,1-.408.7c-.221.132-.388.027-.388-.233A.909.909,0,0,1,324.228,175.354Z" transform="translate(-242.2 -129.481)" fill="url(#linear-gradient)"/>
        <path id="Path_19442" data-name="Path 19442" d="M332.358,175.354c.221-.128.388-.023.388.237a.9.9,0,0,1-.388.7c-.225.132-.408.027-.408-.233a.9.9,0,0,1,.408-.7Z" transform="translate(-247.161 -129.481)" fill="url(#linear-gradient)"/>
        <path id="Path_19443" data-name="Path 19443" d="M194.705,209.42a.086.086,0,0,1-.05,0,.1.1,0,0,1-.035-.132l3.177-5.476a.089.089,0,0,1,.066-.047l3.083-.66,3.134-6.563a.1.1,0,0,1,.062-.05.093.093,0,0,1,.078,0l3.107,1.8,3.107-.9,3.134-2.718,3.149-3.635a.078.078,0,0,1,.047-.031l3.134-.9,3.138-2.718a.1.1,0,0,1,.066-.023h3.107l3.114-7.227a.109.109,0,0,1,.078-.058.093.093,0,0,1,.085.035l3.083,3.557,3.08-3.557a.078.078,0,0,1,.027-.023l3.165-1.825a.074.074,0,0,1,.047,0h3.13l3.107-1.8a.105.105,0,0,1,.047,0h3.18a.1.1,0,0,1,0,.194h-3.13l-3.107,1.8h-3.177l-3.13,1.806-3.142,3.631a.1.1,0,0,1-.148,0l-3.056-3.526-3.107,7.145a.1.1,0,0,1-.089.058h-3.107L220,190.263h-.039l-3.126.9-3.142,3.623-3.161,2.742-.035.019-3.153.913a.086.086,0,0,1-.074,0L204.2,196.69,201.1,203.2a.082.082,0,0,1-.066.05l-3.107.66-3.157,5.437A.093.093,0,0,1,194.705,209.42Z" transform="translate(-163.152 -130.193)" fill="url(#linear-gradient)"/>
        <g id="Group_21898" data-name="Group 21898" transform="translate(31.164 45.818)" opacity="0.3">
          <path id="Path_19444" data-name="Path 19444" d="M194.248,259.784c.225-.128.388-.023.388.233a.889.889,0,0,1-.388.7c-.225.128-.388.023-.388-.233A.889.889,0,0,1,194.248,259.784Z" transform="translate(-193.86 -226.942)"/>
          <path id="Path_19445" data-name="Path 19445" d="M202.388,245.714c.225-.128.408-.023.408.233a.893.893,0,0,1-.408.7c-.221.128-.388.023-.388-.233A.9.9,0,0,1,202.388,245.714Z" transform="translate(-198.839 -218.336)"/>
          <ellipse id="Ellipse_182" data-name="Ellipse 182" cx="0.575" cy="0.33" rx="0.575" ry="0.33" transform="translate(6.129 27.5) rotate(-60)"/>
          <path id="Path_19446" data-name="Path 19446" d="M218.618,226.91c.225-.132.388-.027.388.233a.893.893,0,0,1-.388.7c-.225.128-.388.023-.388-.237A.885.885,0,0,1,218.618,226.91Z" transform="translate(-208.766 -206.833)"/>
          <path id="Path_19447" data-name="Path 19447" d="M226.748,231.644c.225-.128.388-.023.388.233a.893.893,0,0,1-.388.7c-.221.128-.388.023-.388-.233A.9.9,0,0,1,226.748,231.644Z" transform="translate(-213.739 -209.73)"/>
          <path id="Path_19448" data-name="Path 19448" d="M234.868,229.294c.225-.128.388-.023.388.237a.886.886,0,0,1-.388.7c-.225.132-.388.027-.388-.233a.9.9,0,0,1,.388-.7Z" transform="translate(-218.706 -208.293)"/>
          <path id="Path_19449" data-name="Path 19449" d="M242.988,222.26c.225-.132.408-.027.408.233a.9.9,0,0,1-.408.7c-.221.128-.388.023-.388-.233a.9.9,0,0,1,.388-.7Z" transform="translate(-223.673 -203.989)"/>
          <path id="Path_19450" data-name="Path 19450" d="M251.118,212.91c.221-.132.388-.027.388.233a.909.909,0,0,1-.388.7c-.225.128-.388.023-.388-.237a.889.889,0,0,1,.388-.7Z" transform="translate(-228.645 -198.27)"/>
          <path id="Path_19451" data-name="Path 19451" d="M259.238,210.534c.225-.128.388-.023.388.233a.893.893,0,0,1-.388.7c-.225.128-.388.023-.388-.233A.889.889,0,0,1,259.238,210.534Z" transform="translate(-233.612 -196.818)"/>
          <path id="Path_19452" data-name="Path 19452" d="M267.388,203.5c.225-.132.388-.027.388.233a.9.9,0,0,1-.388.7c-.221.128-.388.023-.388-.237a.9.9,0,0,1,.388-.7Z" transform="translate(-238.597 -192.514)"/>
          <path id="Path_19453" data-name="Path 19453" d="M275.488,203.5c.225-.132.388-.027.388.233a.9.9,0,0,1-.388.7c-.225.128-.388.023-.388-.237A.885.885,0,0,1,275.488,203.5Z" transform="translate(-243.552 -192.514)"/>
          <path id="Path_19454" data-name="Path 19454" d="M283.608,184.734c.225-.128.388-.023.388.237a.889.889,0,0,1-.388.7c-.221.132-.388.027-.388-.233A.909.909,0,0,1,283.608,184.734Z" transform="translate(-248.518 -181.037)"/>
          <path id="Path_19455" data-name="Path 19455" d="M291.708,194.053c.221-.128.388-.027.388.233a.9.9,0,0,1-.388.7c-.225.128-.408.023-.408-.233A.893.893,0,0,1,291.708,194.053Z" transform="translate(-253.461 -186.736)"/>
          <path id="Path_19456" data-name="Path 19456" d="M299.858,184.734c.225-.128.388-.023.388.237a.889.889,0,0,1-.388.7c-.225.132-.388.027-.388-.233a.9.9,0,0,1,.388-.7Z" transform="translate(-258.458 -181.037)"/>
          <path id="Path_19457" data-name="Path 19457" d="M307.958,180.044c.221-.128.388-.023.388.237a.9.9,0,0,1-.388.7c-.225.132-.408.027-.408-.233A.9.9,0,0,1,307.958,180.044Z" transform="translate(-263.4 -178.168)"/>
          <path id="Path_19458" data-name="Path 19458" d="M316.108,180.044c.225-.128.388-.023.388.237a.885.885,0,0,1-.388.7c-.225.132-.388.027-.388-.233A.9.9,0,0,1,316.108,180.044Z" transform="translate(-268.398 -178.168)"/>
          <path id="Path_19459" data-name="Path 19459" d="M324.228,175.354c.225-.128.408-.023.408.237a.889.889,0,0,1-.408.7c-.221.132-.388.027-.388-.233A.909.909,0,0,1,324.228,175.354Z" transform="translate(-273.364 -175.299)"/>
          <path id="Path_19460" data-name="Path 19460" d="M332.358,175.354c.221-.128.388-.023.388.237a.9.9,0,0,1-.388.7c-.225.132-.408.027-.408-.233a.9.9,0,0,1,.408-.7Z" transform="translate(-278.325 -175.299)"/>
          <path id="Path_19461" data-name="Path 19461" d="M194.705,209.42a.086.086,0,0,1-.05,0,.1.1,0,0,1-.035-.132l3.177-5.476a.089.089,0,0,1,.066-.047l3.083-.66,3.134-6.563a.1.1,0,0,1,.062-.05.093.093,0,0,1,.078,0l3.107,1.8,3.107-.9,3.134-2.718,3.149-3.635a.078.078,0,0,1,.047-.031l3.134-.9,3.138-2.718a.1.1,0,0,1,.066-.023h3.107l3.114-7.227a.109.109,0,0,1,.078-.058.093.093,0,0,1,.085.035l3.083,3.557,3.08-3.557a.078.078,0,0,1,.027-.023l3.165-1.825a.074.074,0,0,1,.047,0h3.13l3.107-1.8a.105.105,0,0,1,.047,0h3.18a.1.1,0,0,1,0,.194h-3.13l-3.107,1.8h-3.177l-3.13,1.806-3.142,3.631a.1.1,0,0,1-.148,0l-3.056-3.526-3.107,7.145a.1.1,0,0,1-.089.058h-3.107L220,190.263h-.039l-3.126.9-3.142,3.623-3.161,2.742-.035.019-3.153.913a.086.086,0,0,1-.074,0L204.2,196.69,201.1,203.2a.082.082,0,0,1-.066.05l-3.107.66-3.157,5.437A.093.093,0,0,1,194.705,209.42Z" transform="translate(-194.317 -176.011)"/>
        </g>
        <path id="Path_19462" data-name="Path 19462" d="M198.682,222.211l3.064-1.775c.155-.089.28-.027.28.144a.594.594,0,0,1-.28.462l-3.056,1.775c-.151.089-.28.027-.28-.144A.606.606,0,0,1,198.682,222.211Z" transform="translate(-165.479 -157.065)" fill="#e0e0e0"/>
        <path id="Path_19463" data-name="Path 19463" d="M194.218,226.91c.225-.132.388-.027.388.233a.889.889,0,0,1-.388.7c-.225.128-.408.023-.408-.233a.893.893,0,0,1,.408-.7Z" transform="translate(-162.665 -161.015)" fill="url(#linear-gradient)"/>
        <path id="Path_19464" data-name="Path 19464" d="M194.218,226.91c.225-.132.388-.027.388.233a.889.889,0,0,1-.388.7c-.225.128-.408.023-.408-.233a.893.893,0,0,1,.408-.7Z" transform="translate(-162.665 -161.015)" opacity="0.3"/>
        <path id="Path_19465" data-name="Path 19465" d="M198.67,226.887l3.056-1.771c.155-.089.28-.027.28.14a.594.594,0,0,1-.28.466L198.67,227.5c-.151.089-.28.023-.28-.144A.61.61,0,0,1,198.67,226.887Z" transform="translate(-165.467 -159.927)" fill="#e0e0e0"/>
        <path id="Path_19466" data-name="Path 19466" d="M194.218,231.643c.225-.128.388-.027.388.233a.889.889,0,0,1-.388.7c-.225.128-.408.023-.408-.233A.893.893,0,0,1,194.218,231.643Z" transform="translate(-162.665 -163.911)" fill="url(#linear-gradient)"/>
        <path id="Path_19467" data-name="Path 19467" d="M194.709,279.574a.1.1,0,0,1-.066-.027.1.1,0,0,1,0-.14l1.6-1.647,1.553-.2,1.588-2.05,1.588.217,1.553-1.394,1.577-.944,1.6-2.225,1.6.5,1.534-1.371a.1.1,0,0,1,.136,0,.089.089,0,0,1,0,.136l-1.615,1.445-1.553-.493-1.553,2.155-1.577.944-1.6,1.445-1.553-.214-1.553,2.023-1.654.194-1.553,1.6A.1.1,0,0,1,194.709,279.574Z" transform="translate(-163.157 -187.57)" fill="url(#linear-gradient)"/>
        <path id="Path_19468" data-name="Path 19468" d="M195.65,278.944a.175.175,0,0,1,.039-.035.231.231,0,0,1,.043-.031.431.431,0,0,1,.237-.07.276.276,0,0,1,.19.07.458.458,0,0,1,.124.2.959.959,0,0,1,.047.315,1.441,1.441,0,0,1-.047.361,1.658,1.658,0,0,1-.124.346,1.258,1.258,0,0,1-.19.291.884.884,0,0,1-.237.2.477.477,0,0,1-.241.074.3.3,0,0,1-.186-.074.462.462,0,0,1-.128-.2,1.06,1.06,0,0,1-.043-.315,1.135,1.135,0,0,1,0-.2,1.5,1.5,0,0,1,.039-.19.593.593,0,0,1,.054-.179c.019-.058.039-.116.058-.171l.419-1.2a.413.413,0,0,0,.027-.058.093.093,0,0,1,.047-.054l.132-.074a.019.019,0,0,1,.031,0v.1Zm-.3,1.01a.671.671,0,0,0,.027.186.3.3,0,0,0,.078.128.179.179,0,0,0,.117.05.307.307,0,0,0,.159-.047.742.742,0,0,0,.159-.136.937.937,0,0,0,.117-.186.955.955,0,0,0,.1-.435.68.68,0,0,0-.023-.186.3.3,0,0,0-.078-.128.178.178,0,0,0-.116-.05.334.334,0,0,0-.159.047.656.656,0,0,0-.159.136.862.862,0,0,0-.117.19,1,1,0,0,0-.078.214A1.075,1.075,0,0,0,195.351,279.954Z" transform="translate(-163.472 -192.269)" fill="#455a64"/>
        <path id="Path_19469" data-name="Path 19469" d="M198.875,277.927a.714.714,0,0,0,.031.1.136.136,0,0,0,.062.062.164.164,0,0,0,.109,0,.559.559,0,0,0,.179-.074.67.67,0,0,0,.136-.1.705.705,0,0,0,.113-.148.781.781,0,0,0,.1-.4.443.443,0,0,0-.027-.179.147.147,0,0,0-.074-.085.183.183,0,0,0-.113,0,.536.536,0,0,0-.14.062l-.19.109a.035.035,0,0,1-.047,0,.077.077,0,0,1,0-.054v-.128a.2.2,0,0,1,0-.066l.023-.062.416-.932-.664.388a.027.027,0,0,1-.043,0,.11.11,0,0,1-.019-.054v-.128a.136.136,0,0,1,.019-.078.1.1,0,0,1,.043-.054l.909-.524h.043a.07.07,0,0,1,0,.058v.109a.24.24,0,0,1,0,.07.3.3,0,0,1-.031.074l-.408.917a.451.451,0,0,1,.214-.066.222.222,0,0,1,.163.05.327.327,0,0,1,.1.167.812.812,0,0,1,.039.276,1.336,1.336,0,0,1-.047.353,1.4,1.4,0,0,1-.124.315,1.33,1.33,0,0,1-.182.256.931.931,0,0,1-.221.179.66.66,0,0,1-.268.1.272.272,0,0,1-.183-.039.3.3,0,0,1-.109-.14.6.6,0,0,1-.039-.21.124.124,0,0,1,0-.062.1.1,0,0,1,.035-.043l.1-.062h.043A.089.089,0,0,1,198.875,277.927Z" transform="translate(-165.626 -190.813)" fill="#455a64"/>
        <path id="Path_19470" data-name="Path 19470" d="M202.446,275.87a.283.283,0,0,0,.031.1.12.12,0,0,0,.062.062.164.164,0,0,0,.109,0,.559.559,0,0,0,.179-.074.669.669,0,0,0,.136-.1.641.641,0,0,0,.113-.151.862.862,0,0,0,.078-.183.778.778,0,0,0,.027-.217.443.443,0,0,0-.027-.179.163.163,0,0,0-.074-.085.183.183,0,0,0-.113,0,.671.671,0,0,0-.14.058l-.194.113a.035.035,0,0,1-.043,0,.078.078,0,0,1,0-.054v-.128a.129.129,0,0,1,0-.066.541.541,0,0,1,.023-.062l.416-.932-.664.388a.035.035,0,0,1-.047,0,.078.078,0,0,1,0-.054v-.128a.175.175,0,0,1,0-.078.093.093,0,0,1,.047-.054l.909-.528a.035.035,0,0,1,.043,0,.082.082,0,0,1,.019.058v.128a.261.261,0,0,1,0,.07c0,.023-.019.047-.031.074l-.408.916a.513.513,0,0,1,.21-.07.249.249,0,0,1,.167.054.388.388,0,0,1,.1.163.933.933,0,0,1,.039.28,1.359,1.359,0,0,1-.047.353,1.483,1.483,0,0,1-.124.311,1.13,1.13,0,0,1-.183.256.951.951,0,0,1-.221.183.679.679,0,0,1-.268.1.314.314,0,0,1-.186-.039.357.357,0,0,1-.109-.14.594.594,0,0,1-.035-.21.124.124,0,0,1,0-.062.089.089,0,0,1,.035-.047l.1-.058a.031.031,0,0,1,.043,0A.089.089,0,0,1,202.446,275.87Z" transform="translate(-167.821 -189.548)" fill="#455a64"/>
        <path id="Path_19471" data-name="Path 19471" d="M195.15,284.95l13.634-7.9c.151-.089.28-.023.28.144a.61.61,0,0,1-.28.466l-13.634,7.891c-.151.089-.28.027-.28-.144A.606.606,0,0,1,195.15,284.95Z" transform="translate(-163.314 -191.692)" fill="#e0e0e0"/>
        <path id="Path_19472" data-name="Path 19472" d="M195.15,271.147l3.056-1.771c.155-.089.28-.027.28.14a.6.6,0,0,1-.28.466l-3.056,1.771c-.151.089-.28.027-.28-.14A.61.61,0,0,1,195.15,271.147Z" transform="translate(-163.314 -186.999)" fill="#e0e0e0"/>
        <path id="Path_19473" data-name="Path 19473" d="M194.71,305.6a.089.089,0,0,1-.066-.031.093.093,0,0,1,0-.136l1.6-1.647,1.584-.2,1.592-1.394,1.553-.419,1.6-3.188,1.6.777,1.553-1.367h.027l1.534-.291,1.553-2.683a.1.1,0,1,1,.167.1l-1.6,2.761-1.6.3-1.608,1.414-1.553-.777-1.553,3.107-1.6.435-1.584,1.394-1.573.2-1.553,1.6a.1.1,0,0,1-.093.047Z" transform="translate(-163.157 -202.675)" fill="url(#linear-gradient)"/>
        <g id="Group_21899" data-name="Group 21899" transform="translate(31.457 92.288)" opacity="0.3">
          <path id="Path_19474" data-name="Path 19474" d="M194.71,305.6a.089.089,0,0,1-.066-.031.093.093,0,0,1,0-.136l1.6-1.647,1.584-.2,1.592-1.394,1.553-.419,1.6-3.188,1.6.777,1.553-1.367h.027l1.534-.291,1.553-2.683a.1.1,0,1,1,.167.1l-1.6,2.761-1.6.3-1.608,1.414-1.553-.777-1.553,3.107-1.6.435-1.584,1.394-1.573.2-1.553,1.6a.1.1,0,0,1-.093.047Z" transform="translate(-194.614 -294.963)"/>
        </g>
        <path id="Path_19475" data-name="Path 19475" d="M195.794,308.7a.2.2,0,0,1,0,.082.1.1,0,0,1-.047.05l-.093.054a.031.031,0,0,1-.043,0,.082.082,0,0,1,0-.058v-1.942l-.388.652q-.023.043-.047.047a.031.031,0,0,1-.043,0l-.054-.078a.078.078,0,0,1,0-.062.14.14,0,0,1,.023-.078l.493-.87a.156.156,0,0,1,.039-.047l.035-.023.093-.054a.035.035,0,0,1,.047,0,.07.07,0,0,1,0,.054Z" transform="translate(-163.438 -209.651)" fill="#455a64"/>
        <path id="Path_19476" data-name="Path 19476" d="M198.424,305.876a1.46,1.46,0,0,0,.1-.252,1.021,1.021,0,0,0,.035-.28.412.412,0,0,0-.074-.276c-.047-.054-.12-.054-.225,0a.443.443,0,0,0-.136.116.777.777,0,0,0-.1.151,1.371,1.371,0,0,0-.058.179,1.547,1.547,0,0,0-.035.186.233.233,0,0,1-.023.074.14.14,0,0,1-.039.043l-.1.058h-.035a.062.062,0,0,1,0-.047,1.365,1.365,0,0,1,.039-.291,1.592,1.592,0,0,1,.1-.307,1.741,1.741,0,0,1,.171-.28.8.8,0,0,1,.229-.2.439.439,0,0,1,.225-.07.241.241,0,0,1,.159.07.408.408,0,0,1,.1.186,1.166,1.166,0,0,1,.031.276,1.813,1.813,0,0,1,0,.214,1.767,1.767,0,0,1-.035.2c-.019.066-.043.132-.07.2s-.062.14-.1.217l-.516,1.037.707-.408a.031.031,0,0,1,.043,0v.183a.136.136,0,0,1,0,.078.089.089,0,0,1-.043.054l-.994.575a.035.035,0,0,1-.043,0,.078.078,0,0,1-.019-.054v-.128a.223.223,0,0,1,0-.074.7.7,0,0,1,.039-.093Z" transform="translate(-165.058 -208.619)" fill="#455a64"/>
        <path id="Path_19477" data-name="Path 19477" d="M202.377,303.293v.6a2.329,2.329,0,0,1-.035.408,2.091,2.091,0,0,1-.109.388,1.234,1.234,0,0,1-.183.311.9.9,0,0,1-.26.225.458.458,0,0,1-.264.078.264.264,0,0,1-.179-.1.586.586,0,0,1-.109-.249,1.982,1.982,0,0,1-.039-.365v-.614a2.9,2.9,0,0,1,.039-.412,1.659,1.659,0,0,1,.109-.388,1.437,1.437,0,0,1,.179-.311.928.928,0,0,1,.264-.229.439.439,0,0,1,.26-.074.256.256,0,0,1,.182.1.645.645,0,0,1,.109.249A1.69,1.69,0,0,1,202.377,303.293Zm-.959,1.165a.73.73,0,0,0,.1.439c.062.074.155.074.276,0a.649.649,0,0,0,.272-.318,1.464,1.464,0,0,0,.1-.555v-.6a.734.734,0,0,0-.1-.443c-.062-.074-.151-.074-.272,0a.656.656,0,0,0-.276.318,1.483,1.483,0,0,0-.1.555v.6Z" transform="translate(-167.185 -207.322)" fill="#455a64"/>
        <path id="Path_19478" data-name="Path 19478" d="M195.15,313.065l13.634-7.9c.151-.089.28-.027.28.144a.606.606,0,0,1-.28.462l-13.634,7.9c-.151.089-.28.023-.28-.144A.61.61,0,0,1,195.15,313.065Z" transform="translate(-163.314 -208.891)" fill="#e0e0e0"/>
        <path id="Path_19479" data-name="Path 19479" d="M195.15,299.252l3.056-1.775c.155-.089.28-.023.28.144a.6.6,0,0,1-.28.466l-3.056,1.771c-.151.089-.28.027-.28-.14a.606.606,0,0,1,.28-.466Z" transform="translate(-163.314 -204.189)" fill="#e0e0e0"/>
        <path id="Path_19480" data-name="Path 19480" d="M243.437,251.341a.1.1,0,0,1-.074-.039.093.093,0,0,1,0-.136l1.577-1.258,1.588-1.814,1.612-.237,1.553-.346,1.6-1.88,1.553.276,1.553-2.489,1.6.023,1.553-1.379a.1.1,0,0,1,.14.136l-1.6,1.433-1.553-.027-1.581,2.509-1.588-.28-1.553,1.845-1.612.365-1.553.225-1.553,1.771-1.592,1.3A.1.1,0,0,1,243.437,251.341Z" transform="translate(-192.957 -170.3)" fill="url(#linear-gradient)"/>
        <path id="Path_19481" data-name="Path 19481" d="M244.392,250.732l.039-.035.043-.031a.443.443,0,0,1,.225-.054.28.28,0,0,1,.19.07.5.5,0,0,1,.124.2,1.079,1.079,0,0,1,.043.315,1.637,1.637,0,0,1-.043.361,1.916,1.916,0,0,1-.124.346,1.4,1.4,0,0,1-.19.291.9.9,0,0,1-.241.2.466.466,0,0,1-.237.074.307.307,0,0,1-.19-.074.458.458,0,0,1-.109-.229.943.943,0,0,1-.047-.315,1.7,1.7,0,0,1,0-.2.789.789,0,0,1,.039-.19l.054-.182c.019-.058.043-.113.062-.167l.419-1.2.023-.058a.128.128,0,0,1,.047-.054l.132-.074h.035a.066.066,0,0,1,0,.047.074.074,0,0,1,0,.031.031.031,0,0,1,0,.019Zm-.3,1.01a.555.555,0,0,0,.027.186.3.3,0,0,0,.074.128.179.179,0,0,0,.12.05.3.3,0,0,0,.155-.047.657.657,0,0,0,.159-.136,1.053,1.053,0,0,0,.12-.19,1.164,1.164,0,0,0,.074-.214,1.04,1.04,0,0,0,.027-.217.672.672,0,0,0-.027-.186.338.338,0,0,0-.074-.128.2.2,0,0,0-.12-.05.35.35,0,0,0-.159.047.641.641,0,0,0-.155.136.748.748,0,0,0-.12.19.989.989,0,0,0-.074.214A.853.853,0,0,0,244.1,251.742Z" transform="translate(-193.287 -175.008)" fill="#455a64"/>
        <path id="Path_19482" data-name="Path 19482" d="M248.235,248.962a1.49,1.49,0,0,0,.1-.256,1.2,1.2,0,0,0,.035-.28.419.419,0,0,0-.074-.272c-.047-.058-.124-.054-.225,0a.575.575,0,0,0-.14.113.866.866,0,0,0-.093.155.839.839,0,0,0-.058.175,1.061,1.061,0,0,1-.039.186.182.182,0,0,1-.023.074.1.1,0,0,1-.035.043l-.1.062a.031.031,0,0,1-.039,0,.066.066,0,0,1,0-.047,1.13,1.13,0,0,1,.039-.287,1.506,1.506,0,0,1,.1-.307,1.286,1.286,0,0,1,.171-.28.82.82,0,0,1,.229-.206.427.427,0,0,1,.221-.066.225.225,0,0,1,.163.07.388.388,0,0,1,.1.183,1.021,1.021,0,0,1,.035.28,1.8,1.8,0,0,1,0,.21,1.19,1.19,0,0,1-.039.2,1.526,1.526,0,0,1-.066.2c-.031.07-.062.14-.1.217l-.516,1.037.707-.408a.035.035,0,0,1,.043,0,.082.082,0,0,1,.019.058v.128a.206.206,0,0,1-.019.078.155.155,0,0,1-.043.054l-.994.571h-.047a.082.082,0,0,1,0-.058v-.128a.226.226,0,0,1,0-.074.518.518,0,0,1,.039-.089Z" transform="translate(-195.529 -173.809)" fill="#455a64"/>
        <path id="Path_19483" data-name="Path 19483" d="M251.81,245.457a.031.031,0,0,1,.043,0,.066.066,0,0,1,.019.058v.148a.477.477,0,0,1,0,.07.806.806,0,0,1,0,.085l-.513,2.33a.568.568,0,0,1-.027.074.093.093,0,0,1-.043.05l-.1.062a.031.031,0,0,1-.039,0,.066.066,0,0,1,0-.05h0a.119.119,0,0,1,0-.031l.513-2.33-.777.439a.035.035,0,0,1-.043,0,.081.081,0,0,1-.019-.058v-.128a.206.206,0,0,1,.019-.078.128.128,0,0,1,.043-.054Z" transform="translate(-197.536 -172.389)" fill="#455a64"/>
        <path id="Path_19484" data-name="Path 19484" d="M243.9,256.75l13.631-7.9c.155-.089.28-.023.28.144a.6.6,0,0,1-.28.466l-13.631,7.9c-.155.089-.28.023-.28-.144A.594.594,0,0,1,243.9,256.75Z" transform="translate(-193.132 -174.443)" fill="#e0e0e0"/>
        <path id="Path_19485" data-name="Path 19485" d="M243.9,242.937l3.052-1.771c.155-.089.283-.027.283.14a.606.606,0,0,1-.283.466l-3.052,1.771c-.155.089-.28.027-.28-.14A.6.6,0,0,1,243.9,242.937Z" transform="translate(-193.132 -169.744)" fill="#e0e0e0"/>
        <path id="Path_19486" data-name="Path 19486" d="M243.451,279.517a.12.12,0,0,1-.05,0,.1.1,0,0,1-.031-.136l1.612-2.641,1.623.3,1.526-.419,1.577-1.922,1.553-.388,1.592-2.843,1.631.474,1.53-.291,1.553-1.382a.1.1,0,1,1,.128.144l-1.6,1.421h-.023l-1.608.3-1.5-.439-1.553,2.78-1.588.388-1.577,1.922h-.027l-1.6.439H246.6l-1.511-.28-1.553,2.528A.1.1,0,0,1,243.451,279.517Z" transform="translate(-192.971 -187.549)" fill="url(#linear-gradient)"/>
        <g id="Group_21900" data-name="Group 21900" transform="translate(50.385 82.684)" opacity="0.3">
          <path id="Path_19487" data-name="Path 19487" d="M243.451,279.517a.12.12,0,0,1-.05,0,.1.1,0,0,1-.031-.136l1.612-2.641,1.623.3,1.526-.419,1.577-1.922,1.553-.388,1.592-2.843,1.631.474,1.53-.291,1.553-1.382a.1.1,0,1,1,.128.144l-1.6,1.421h-.023l-1.608.3-1.5-.439-1.553,2.78-1.588.388-1.577,1.922h-.027l-1.6.439H246.6l-1.511-.28-1.553,2.528A.1.1,0,0,1,243.451,279.517Z" transform="translate(-243.357 -270.233)"/>
        </g>
        <path id="Path_19488" data-name="Path 19488" d="M244.494,279.646l-.031.023h-.031a.477.477,0,0,1-.214.07.287.287,0,0,1-.186-.058.388.388,0,0,1-.113-.171.881.881,0,0,1-.051-.33,1.441,1.441,0,0,1,.047-.361,1.836,1.836,0,0,1,.124-.338,1.461,1.461,0,0,1,.186-.28.847.847,0,0,1,.221-.194.509.509,0,0,1,.241-.078.276.276,0,0,1,.183.074.447.447,0,0,1,.116.2,1.044,1.044,0,0,1,.039.311,1.135,1.135,0,0,1,0,.19,1.007,1.007,0,0,1-.047.2,1.68,1.68,0,0,1-.062.2c-.023.066-.039.124-.058.175l-.419,1.2-.027.058a.093.093,0,0,1-.047.054l-.132.078a.023.023,0,0,1-.031,0,.085.085,0,0,1,0-.051v-.027a.148.148,0,0,0,0-.023Zm.3-1.006a.563.563,0,0,0-.027-.19.245.245,0,0,0-.07-.1.151.151,0,0,0-.113-.043.33.33,0,0,0-.148.043.629.629,0,0,0-.148.124.776.776,0,0,0-.113.175.924.924,0,0,0-.1.427.7.7,0,0,0,.023.194.275.275,0,0,0,.074.12.171.171,0,0,0,.113.043.257.257,0,0,0,.148-.043.629.629,0,0,0,.148-.124,1.029,1.029,0,0,0,.113-.175.926.926,0,0,0,.074-.206A.873.873,0,0,0,244.793,278.641Z" transform="translate(-193.284 -192.257)" fill="#455a64"/>
        <path id="Path_19489" data-name="Path 19489" d="M247.48,277.934a.412.412,0,0,0,.035.1.144.144,0,0,0,.062.066.191.191,0,0,0,.109,0,.56.56,0,0,0,.179-.074.671.671,0,0,0,.136-.1.867.867,0,0,0,.113-.148.99.99,0,0,0,.078-.186.776.776,0,0,0,.027-.217.443.443,0,0,0-.027-.179.163.163,0,0,0-.074-.085.217.217,0,0,0-.113,0,.535.535,0,0,0-.14.062l-.194.109a.031.031,0,0,1-.043,0,.07.07,0,0,1,0-.054v-.128a.2.2,0,0,1,0-.066l.027-.062.416-.932-.668.388a.031.031,0,0,1-.043,0,.089.089,0,0,1-.019-.058v-.128a.19.19,0,0,1,.019-.078.128.128,0,0,1,.043-.054l.913-.524a.031.031,0,0,1,.043,0,.078.078,0,0,1,.019.054v.128a.221.221,0,0,1,0,.07.6.6,0,0,1-.031.074l-.408.916a.451.451,0,0,1,.21-.066.229.229,0,0,1,.163.051.357.357,0,0,1,.109.167.924.924,0,0,1,.039.276,1.317,1.317,0,0,1-.047.353,1.61,1.61,0,0,1-.124.315,1.334,1.334,0,0,1-.183.256.931.931,0,0,1-.221.179.679.679,0,0,1-.268.1.291.291,0,0,1-.186-.039.357.357,0,0,1-.109-.14.585.585,0,0,1-.035-.206.2.2,0,0,1,0-.066.1.1,0,0,1,.039-.043l.1-.062h.039a.047.047,0,0,1,.012.039Z" transform="translate(-195.373 -190.812)" fill="#455a64"/>
        <path id="Path_19490" data-name="Path 19490" d="M243.9,284.846l13.631-7.91c.155-.089.28-.027.28.144a.594.594,0,0,1-.28.462l-13.631,7.9c-.155.089-.28.023-.28-.144a.6.6,0,0,1,.28-.454Z" transform="translate(-193.132 -191.624)" fill="#e0e0e0"/>
        <path id="Path_19491" data-name="Path 19491" d="M243.9,271.052l3.052-1.775c.155-.089.283-.023.283.144a.606.606,0,0,1-.283.466l-3.052,1.771c-.155.089-.28.027-.28-.14a.594.594,0,0,1,.28-.466Z" transform="translate(-193.132 -186.94)" fill="#e0e0e0"/>
        <path id="Path_19492" data-name="Path 19492" d="M296.385,219.876a1.779,1.779,0,0,1,1.782-.148l-1.8,4.846Z" transform="translate(-225.398 -156.551)" fill="url(#linear-gradient)"/>
        <path id="Path_19493" data-name="Path 19493" d="M291.78,222.322a5.343,5.343,0,0,1,1.8-1.942v4.714Z" transform="translate(-222.59 -157.055)" fill="url(#linear-gradient)"/>
        <path id="Path_19494" data-name="Path 19494" d="M288.91,228.378a9.471,9.471,0,0,1,1.115-3l1.8,2.773Z" transform="translate(-220.835 -160.114)" fill="url(#linear-gradient)"/>
        <path id="Path_19495" data-name="Path 19495" d="M290.025,222.322a9.472,9.472,0,0,0-1.115,3l2.912-.225V220.38A5.343,5.343,0,0,0,290.025,222.322Z" transform="translate(-220.835 -157.055)" opacity="0.3"/>
        <path id="Path_19496" data-name="Path 19496" d="M298.168,220a2.516,2.516,0,0,1,1.115,1.709l-2.913,3.138Z" transform="translate(-225.398 -156.823)" fill="url(#linear-gradient)"/>
        <path id="Path_19497" data-name="Path 19497" d="M288.671,235.639a5.873,5.873,0,0,1-.151-1.371,8.329,8.329,0,0,1,.151-1.553l2.913-.225Z" transform="translate(-220.596 -164.463)" fill="url(#linear-gradient)"/>
        <path id="Path_19498" data-name="Path 19498" d="M299.323,231.94a9.472,9.472,0,0,1-1.115,3l-1.8-2.773Z" transform="translate(-225.422 -164.126)" fill="url(#linear-gradient)"/>
        <path id="Path_19499" data-name="Path 19499" d="M293.578,237.234a1.778,1.778,0,0,1-1.8.132l1.8-4.846Z" transform="translate(-222.59 -164.481)" fill="url(#linear-gradient)"/>
        <path id="Path_19500" data-name="Path 19500" d="M288.91,235.658l2.913-3.138-1.8,4.846A2.516,2.516,0,0,1,288.91,235.658Z" transform="translate(-220.835 -164.481)" fill="url(#linear-gradient)"/>
        <path id="Path_19501" data-name="Path 19501" d="M299.323,224.44a5.887,5.887,0,0,1,.148,1.371,8.323,8.323,0,0,1-.148,1.553l-2.913.225Z" transform="translate(-225.422 -159.539)" fill="url(#linear-gradient)"/>
        <path id="Path_19502" data-name="Path 19502" d="M298.168,235.293a5.343,5.343,0,0,1-1.8,1.942V232.52Z" transform="translate(-225.398 -164.481)" fill="url(#linear-gradient)"/>
        <path id="Path_19503" data-name="Path 19503" d="M292.04,248l3.052-1.771c.155-.089.28-.027.28.14a.6.6,0,0,1-.28.466L292.04,248.6c-.155.089-.28.027-.28-.14a.6.6,0,0,1,.28-.466Z" transform="translate(-222.578 -172.839)" fill="#455a64"/>
        <path id="Path_19504" data-name="Path 19504" d="M290.3,252.483l4.4-2.547c.155-.089.28-.027.28.144a.594.594,0,0,1-.28.462l-4.4,2.555c-.155.089-.28.027-.28-.14A.594.594,0,0,1,290.3,252.483Z" transform="translate(-221.514 -175.109)" fill="#e0e0e0"/>
        <path id="Path_19505" data-name="Path 19505" d="M290.3,257.172l4.4-2.555c.155-.089.28-.023.28.144a.594.594,0,0,1-.28.462l-4.4,2.555c-.155.089-.28.027-.28-.14A.594.594,0,0,1,290.3,257.172Z" transform="translate(-221.514 -177.973)" fill="#e0e0e0"/>
        <path id="Path_19506" data-name="Path 19506" d="M290.3,261.912l4.4-2.555c.155-.089.28-.023.28.144a.6.6,0,0,1-.28.466l-4.4,2.551c-.155.089-.28.027-.28-.14a.6.6,0,0,1,.28-.466Z" transform="translate(-221.514 -180.872)" fill="#e0e0e0"/>
        <path id="Path_19507" data-name="Path 19507" d="M324.84,203.4a1.778,1.778,0,0,1,1.8-.132l-1.8,4.831Z" transform="translate(-242.812 -146.478)" fill="url(#linear-gradient)"/>
        <path id="Path_19508" data-name="Path 19508" d="M320.21,205.842a5.379,5.379,0,0,1,1.8-1.942v4.7Z" transform="translate(-239.98 -146.975)" fill="url(#linear-gradient)"/>
        <path id="Path_19509" data-name="Path 19509" d="M317.35,211.9a9.468,9.468,0,0,1,1.111-3l1.8,2.773Z" transform="translate(-238.23 -150.033)" fill="url(#linear-gradient)"/>
        <path id="Path_19510" data-name="Path 19510" d="M326.638,203.56a2.516,2.516,0,0,1,1.115,1.709l-2.913,3.138Z" transform="translate(-242.812 -146.767)" fill="url(#linear-gradient)"/>
        <path id="Path_19511" data-name="Path 19511" d="M317.111,219.159a5.875,5.875,0,0,1-.151-1.371,8.361,8.361,0,0,1,.151-1.553l2.909-.225Z" transform="translate(-237.992 -154.382)" fill="url(#linear-gradient)"/>
        <path id="Path_19512" data-name="Path 19512" d="M327.753,215.46a9.437,9.437,0,0,1-1.115,3l-1.8-2.788Z" transform="translate(-242.812 -154.046)" fill="url(#linear-gradient)"/>
        <path id="Path_19513" data-name="Path 19513" d="M322.008,220.73a1.786,1.786,0,0,1-1.8.136l1.8-4.866Z" transform="translate(-239.98 -154.376)" fill="url(#linear-gradient)"/>
        <path id="Path_19514" data-name="Path 19514" d="M317.35,219.178l2.909-3.138-1.8,4.85A2.532,2.532,0,0,1,317.35,219.178Z" transform="translate(-238.23 -154.401)" fill="url(#linear-gradient)"/>
        <path id="Path_19515" data-name="Path 19515" d="M318.222,205.842a9.468,9.468,0,0,0-1.111,3,8.361,8.361,0,0,0-.151,1.553,5.875,5.875,0,0,0,.151,1.371,2.532,2.532,0,0,0,1.111,1.713l1.8-4.877v-4.7A5.378,5.378,0,0,0,318.222,205.842Z" transform="translate(-237.991 -146.975)" opacity="0.3"/>
        <path id="Path_19516" data-name="Path 19516" d="M327.753,208a5.877,5.877,0,0,1,.151,1.371,8.33,8.33,0,0,1-.151,1.553l-2.913.225Z" transform="translate(-242.812 -149.483)" fill="url(#linear-gradient)"/>
        <path id="Path_19517" data-name="Path 19517" d="M326.638,218.788a5.313,5.313,0,0,1-1.8,1.942V216Z" transform="translate(-242.812 -154.376)" fill="url(#linear-gradient)"/>
        <path id="Path_19518" data-name="Path 19518" d="M320.47,231.577l3.056-1.771c.155-.089.28-.027.28.14a.594.594,0,0,1-.28.466l-3.056,1.775c-.155.089-.28.023-.28-.144A.6.6,0,0,1,320.47,231.577Z" transform="translate(-239.967 -162.796)" fill="#455a64"/>
        <path id="Path_19519" data-name="Path 19519" d="M318.733,236.052l4.4-2.555c.155-.089.28-.023.28.144a.6.6,0,0,1-.28.466l-4.4,2.551c-.155.089-.284.027-.284-.14A.606.606,0,0,1,318.733,236.052Z" transform="translate(-238.903 -165.054)" fill="#e0e0e0"/>
        <path id="Path_19520" data-name="Path 19520" d="M318.733,240.757l4.4-2.551c.155-.089.28-.027.28.14a.6.6,0,0,1-.28.466l-4.4,2.551c-.155.093-.284.027-.284-.14A.606.606,0,0,1,318.733,240.757Z" transform="translate(-238.903 -167.934)" fill="#e0e0e0"/>
        <path id="Path_19521" data-name="Path 19521" d="M318.733,245.475l4.4-2.54c.155-.089.28-.027.28.14a.6.6,0,0,1-.28.466l-4.4,2.555c-.155.089-.284.023-.284-.144a.606.606,0,0,1,.283-.478Z" transform="translate(-238.903 -170.827)" fill="#e0e0e0"/>
      </g>
    </g>
    <g id="freepik--magnifying-glass--inject-10" transform="translate(55.748 129.75)">
      <g id="freepik--Glass--inject-10">
        <path id="Path_19522" data-name="Path 19522" d="M283.327,359.59a5.184,5.184,0,0,0-2.21-4.147,1.667,1.667,0,0,0-1.639-.225h0c-2.6,1.3-20.854,13.013-22.022,13.592h0a.827.827,0,0,0-.388.753,2.609,2.609,0,0,0,1.111,2.085.819.819,0,0,0,.835.109h0c1.848-1.017,19.871-8.7,23.552-10.671h0A1.612,1.612,0,0,0,283.327,359.59Z" transform="translate(-220.082 -355.088)" fill="url(#linear-gradient)"/>
        <path id="Path_19523" data-name="Path 19523" d="M282.647,357.065a4.659,4.659,0,0,0-1.491-1.623,1.665,1.665,0,0,0-1.631-.229l-.054.027c-2.373,1.215-15.961,9.883-20.531,12.7h-.031l-.186.116-.054.035-.1.062-.124.074h0c-.482.3-.812.485-.936.548h0a.559.559,0,0,0-.1.085.9.9,0,0,0-.264.668,1.938,1.938,0,0,0,0,.26q0,.052,0,.1a.328.328,0,0,0,.031.159l.035.128a.444.444,0,0,0,.05.148.956.956,0,0,0,.039.113h0Z" transform="translate(-220.12 -355.087)" opacity="0.1"/>
        <path id="Path_19524" data-name="Path 19524" d="M258.2,393.188a2.59,2.59,0,0,1-1.107-2.078c.023-.75.559-1.037,1.2-.641a2.614,2.614,0,0,1,1.1,2.078C259.385,393.285,258.834,393.584,258.2,393.188Z" transform="translate(-220.096 -376.62)" fill="url(#linear-gradient)"/>
        <path id="Path_19525" data-name="Path 19525" d="M245.888,394.371a2,2,0,0,0,.85,1.6.648.648,0,0,0,.637.085h0l4.419-2.349h0a.637.637,0,0,0,.28-.575,2,2,0,0,0-.85-1.6.637.637,0,0,0-.637-.082h0l-4.415,2.349h0A.641.641,0,0,0,245.888,394.371Z" transform="translate(-213.244 -377.298)" fill="#37474f"/>
        <path id="Path_19526" data-name="Path 19526" d="M246.175,393.792a.641.641,0,0,0-.287.579,1.72,1.72,0,0,0,.132.68l5.7-3.029a1.724,1.724,0,0,0-.489-.489.637.637,0,0,0-.637-.082l-4.415,2.349Z" transform="translate(-213.243 -377.298)" fill="#263238"/>
        <path id="Path_19527" data-name="Path 19527" d="M200.139,391.726c0-2.831-1.872-5.658-5.611-7.817-7.479-4.318-19.607-4.318-27.086,0-3.74,2.159-5.611,4.986-5.611,7.817h0v5.215c0,2.827,1.872,5.658,5.611,7.817,7.479,4.318,19.607,4.318,27.086,0,3.74-2.159,5.611-4.99,5.611-7.817Zm-31.77-6.213a28.113,28.113,0,0,1,25.234,0c3.021,1.744,4.683,3.949,4.683,6.213s-1.662,4.474-4.683,6.213a28.114,28.114,0,0,1-25.234,0c-3.021-1.744-4.687-3.953-4.687-6.213s1.666-4.47,4.687-6.213Z" transform="translate(-161.829 -370.735)" fill="url(#linear-gradient)"/>
        <path id="Path_19528" data-name="Path 19528" d="M167.44,399.547c7.479,4.318,19.607,4.318,27.086,0s7.479-11.32,0-15.638-19.607-4.318-27.086,0S159.953,395.229,167.44,399.547Zm-3.759-7.821c0-2.264,1.662-4.47,4.683-6.213a28.122,28.122,0,0,1,25.238,0c3.017,1.744,4.683,3.949,4.683,6.213s-1.666,4.474-4.683,6.213a28.122,28.122,0,0,1-25.238,0C165.347,396.2,163.681,394,163.681,391.726Z" transform="translate(-161.827 -370.735)" fill="#fff" opacity="0.3"/>
        <path id="Path_19529" data-name="Path 19529" d="M166.6,394.644a5.18,5.18,0,0,0,.746,2.61,10.559,10.559,0,0,1,3.942-3.612,28.105,28.105,0,0,1,25.23,0,10.47,10.47,0,0,1,3.942,3.612,5.18,5.18,0,0,0,.746-2.61c0-2.264-1.662-4.47-4.687-6.213a28.105,28.105,0,0,0-25.23,0C168.262,390.174,166.6,392.38,166.6,394.644Z" transform="translate(-164.747 -373.653)" fill="url(#linear-gradient)"/>
        <path id="Path_19530" data-name="Path 19530" d="M166.6,394.644a5.18,5.18,0,0,0,.746,2.61,10.559,10.559,0,0,1,3.942-3.612,28.105,28.105,0,0,1,25.23,0,10.47,10.47,0,0,1,3.942,3.612,5.18,5.18,0,0,0,.746-2.61c0-2.264-1.662-4.47-4.687-6.213a28.105,28.105,0,0,0-25.23,0C168.262,390.174,166.6,392.38,166.6,394.644Z" transform="translate(-164.747 -373.653)" opacity="0.1"/>
        <path id="Path_19531" data-name="Path 19531" d="M171.528,394.5a28.122,28.122,0,0,1,25.238,0c2.489,1.441,4.054,3.2,4.528,5.048-.474,1.841-2.039,3.6-4.528,5.048a28.122,28.122,0,0,1-25.238,0c-2.493-1.441-4.058-3.2-4.528-5.048C167.47,397.7,169.035,395.941,171.528,394.5Z" transform="translate(-164.991 -377.366)" fill="#fff" opacity="0.4"/>
        <path id="Path_19532" data-name="Path 19532" d="M176.47,417.2v5.208a25.02,25.02,0,0,1-9.029-2.928c-3.74-2.159-5.611-4.99-5.611-7.821v-5.211a6.6,6.6,0,0,1,.229-1.709h0c-.909,3.367.885,6.932,5.378,9.53A25.242,25.242,0,0,0,176.47,417.2Z" transform="translate(-161.829 -385.458)" opacity="0.1"/>
      </g>
    </g>
    <g id="freepik--Character--inject-10" transform="translate(127.401 49.938)">
      <g id="freepik--character--inject-10-2" data-name="freepik--character--inject-10">
        <path id="Path_19533" data-name="Path 19533" d="M424.367,348.269c.229.093.276.528.291,1.394,0,.656.124,1.806-.645,2.016a2.407,2.407,0,0,1-2.373-.559c-.6-.777-1-1.472-1.852-2.435a6.584,6.584,0,0,1-1.829-2.761c-.252-1.041,0-1.483.7-1.771.979-.388,2.47.994,3.227,1.223C422.538,345.574,424.13,348.175,424.367,348.269Z" transform="translate(-390.089 -268.544)" fill="#263238"/>
        <path id="Path_19534" data-name="Path 19534" d="M430.005,352.066l-.023,1.06a2.594,2.594,0,0,1-2.687,0c-.047-.1-.245-1.526-.245-1.526Z" transform="translate(-395.708 -273.142)" fill="#ffa8a7"/>
        <path id="Path_19535" data-name="Path 19535" d="M393.285,370.128s.284.932.431,1.744a4.667,4.667,0,0,1,.043,2.2c-.237.478-1.122.777-2.481.73a7.986,7.986,0,0,0-3.223,1.045,8.6,8.6,0,0,1-4.035.548,3.83,3.83,0,0,1-2.629-1.406c-.182-.5.085-1.021,2.967-2.175.027,0,4-1.2,5.413-2.7Z" transform="translate(-367.752 -284.47)" fill="#263238"/>
        <path id="Path_19536" data-name="Path 19536" d="M406.558,367.143s-.023.777-.031,1.239-.551,1.111-1.942,1.029c-.967-.054-1.639-.33-1.581-1.126l.027-1.165Z" transform="translate(-380.998 -282.635)" fill="#ffa8a7"/>
        <path id="Path_19537" data-name="Path 19537" d="M411.65,270.1a28.8,28.8,0,0,0-1.13-5.565s.485-4.769.777-9.3a56.943,56.943,0,0,0-.369-14.462s-14.986-1.348-15.394,4.3.171,20.065.3,22.555.509,4.695.932,8.734,1.627,13.4,1.627,13.4a3.74,3.74,0,0,0,3.514,0s1.363-11.285,1.313-14.151a24.575,24.575,0,0,0-.948-6.283s.388-4.66.777-8.707.68-5.992.777-7.767l.342-.159s.19,6.99.322,9.491.47,4.881,1.083,9.51c.536,4.023,2.182,12.567,2.182,12.567a2.371,2.371,0,0,0,2.881-.062S412.058,273.585,411.65,270.1Z" transform="translate(-376.344 -205.27)" fill="#37474f"/>
        <path id="Path_19538" data-name="Path 19538" d="M417.07,266.72a32.614,32.614,0,0,0,5.825-3.46,12.662,12.662,0,0,1-4.194,3.526s-1.029,8.675-1.021,8.5l-.287-8.571Z" transform="translate(-389.604 -219.107)" fill="#263238"/>
        <path id="Path_19539" data-name="Path 19539" d="M410.16,187.4l.582,5.173,4.885-.245-.54-6.039Z" transform="translate(-385.377 -172.027)" fill="#ffa8a7"/>
        <path id="Path_19540" data-name="Path 19540" d="M428.168,194.228c1.817-.085,2.742.19,3.561,1.759s1.134,6.256,1.421,8.675.353,4.12-.641,4.369a44.323,44.323,0,0,1-4.87.357Z" transform="translate(-396.069 -176.874)" fill="#37474f"/>
        <path id="Path_19541" data-name="Path 19541" d="M411.494,196.874a3.742,3.742,0,0,0-3.949-2.68l-1.208.206c-.214.87-2.6,1.414-4.877.878-.687.183-2.947.606-3.522.8-1.635.544-2.33,2.155-2.567,7.495,0,0,.132,12.1.066,14.5a19.693,19.693,0,0,0,10.644,1.293c4.909-.955,5.542-2.967,5.542-2.967l-.73-5.534S412.092,200.152,411.494,196.874Z" transform="translate(-376.331 -176.841)" fill="#455a64"/>
        <path id="Path_19542" data-name="Path 19542" d="M408.558,192.159l.039.326a7.234,7.234,0,0,0,3,0c1.588-.353,1.911-.8,1.911-.8l-.035-.388s.388-.144.6.462a7.125,7.125,0,0,1,.233.742s.183,1.115-1.685,1.681a5.782,5.782,0,0,1-4.66-.509l-.73.155s.633-1.46.823-1.755a.485.485,0,0,1,.458-.256Z" transform="translate(-383.585 -175.081)" fill="#37474f"/>
        <path id="Path_19543" data-name="Path 19543" d="M356.979,179.25l-9.689,5.06,4.815,13.161,9.04-5.064Z" transform="translate(-346.922 -167.721)" fill="#455a64"/>
        <path id="Path_19544" data-name="Path 19544" d="M358.292,182.57l-8.132,4.245,4.264,11.316,7.584-4.248Z" transform="translate(-348.677 -169.752)" fill="#f5f5f5"/>
        <path id="Path_19545" data-name="Path 19545" d="M359.9,184.95s-.07-.183-.159-.388-.777-.089-1.511.3l-1.429.742c-.75.388-1.285.878-1.2,1.1l.155.388Z" transform="translate(-352.002 -170.909)" opacity="0.15"/>
        <path id="Path_19546" data-name="Path 19546" d="M358.446,181.37c-.051-.14-.346-.116-.656.05l-.559.3s-.346-.87-1.635-.268-.994,1.612-.994,1.612l-.594.326c-.33.183-.563.443-.524.582l.074.256,4.99-2.6Z" transform="translate(-350.707 -168.941)" fill="url(#linear-gradient)"/>
        <path id="Path_19547" data-name="Path 19547" d="M359.507,182.783c-.466.229-.649.342-.517.683s.3.672.3.672L357.08,185.3s-.183-.5-.264-.687-.245-.284-.594-.1l-.132-.14,3.495-1.775Z" transform="translate(-352.304 -169.77)" fill="url(#linear-gradient)"/>
        <path id="Path_19548" data-name="Path 19548" d="M359.507,182.783c-.466.229-.649.342-.517.683s.3.672.3.672L357.08,185.3s-.183-.5-.264-.687-.245-.284-.594-.1l-.132-.14,3.495-1.775Z" transform="translate(-352.304 -169.77)" opacity="0.3"/>
        <path id="Path_19549" data-name="Path 19549" d="M360.141,184.985l-.155-.388c-.089-.225-.777-.093-1.511.3l-1.433.738c-.746.388-1.282.878-1.2,1.1l.159.388Z" transform="translate(-352.15 -170.924)" fill="url(#linear-gradient)"/>
        <path id="Path_19550" data-name="Path 19550" d="M384.4,199.09c-2.237.194-3.188.6-4.866,3.627-1.825,3.289-5.328,9.235-5.771,9.988a3.986,3.986,0,0,0-.2,3.592c.5.9,2.078,1.3,3.883-.718,2.132-2.408,6.1-8.287,6.1-8.287S386.885,202.849,384.4,199.09Z" transform="translate(-362.782 -179.857)" fill="#ffa8a7"/>
        <path id="Path_19551" data-name="Path 19551" d="M358.038,218.821c-1.716-.206-5.72-5.639-6.858-7.413a12.656,12.656,0,0,0-3.472-3.662c-1.814-1.34-1.553-3.4-.757-5.289.272-.652,1.2-.229,1.2-.229l.326.9.567,1.553c.388.357.606.474.629.369.05-.2-.28-1.037-.272-1.907,0-1.045.742-.357.959,0a12.624,12.624,0,0,1,.777,1.728c.365.936.217,1.883.66,2.52s6.419,6.365,6.419,6.365Z" transform="translate(-346.342 -181.693)" fill="#ffa8a7"/>
        <path id="Path_19552" data-name="Path 19552" d="M378.568,198.776a4.79,4.79,0,0,0-4.244,1.825c-1.262,1.639-6.31,10.547-6.31,10.547l-2.831-2.54A4.936,4.936,0,0,0,363,211.676a30.866,30.866,0,0,0,2.563,3.5c1.2,1.313,2.536,2.225,3.631,1.821s2.214-1.27,4.571-4.555,4.932-7.157,4.932-7.157S380.324,201.5,378.568,198.776Z" transform="translate(-356.531 -179.663)" fill="#37474f"/>
        <path id="Path_19553" data-name="Path 19553" d="M399.572,172.84s-1.219,1.848-1.08,2.031,1.037.346,1.037.346Z" transform="translate(-378.234 -163.8)" fill="#f28f8f"/>
        <path id="Path_19554" data-name="Path 19554" d="M400.466,171.313a1.456,1.456,0,1,1,1.456-1.452,1.456,1.456,0,0,1-1.456,1.452Zm0-2.586a1.134,1.134,0,1,0,1.13,1.134A1.134,1.134,0,0,0,400.466,168.726Z" transform="translate(-378.557 -161.085)" fill="#263238"/>
        <path id="Path_19555" data-name="Path 19555" d="M404.508,159.267c-2.47.52-3.184,1.608-3.417,5.526-.241,4.1.179,5.386.715,5.938.365.388,2.384.443,3.4.159,1.278-.35,4.159-1.371,5.507-3.433,1.588-2.423,2-5.712.307-7.06C408.636,158.5,405.517,159.054,404.508,159.267Z" transform="translate(-379.787 -155.35)" fill="#ffa8a7"/>
        <path id="Path_19556" data-name="Path 19556" d="M406.074,188.693l-.116-.753a4.854,4.854,0,0,1-2.528.571A6.173,6.173,0,0,0,406.074,188.693Z" transform="translate(-381.261 -173.037)" fill="#f28f8f"/>
        <path id="Path_19557" data-name="Path 19557" d="M399.37,171.37l4.388.571-.175.307-4.213-.548Z" transform="translate(-378.777 -162.901)" fill="#263238"/>
        <path id="Path_19558" data-name="Path 19558" d="M398.644,155.064a1.429,1.429,0,0,0,.559-.035.878.878,0,0,0,.3,1.029,1.25,1.25,0,0,0,1.107.148,1.064,1.064,0,0,0-.12.777,1.235,1.235,0,0,0,1.278.924c.027.575.035,1.134.645,1.394,0,0,.388-1.514,1.67-1.324s1.456,1.829.649,2.827-1.553.617-1.553.614c.074.035.1.52.124.61a4.631,4.631,0,0,0,.33.831,3.949,3.949,0,0,0,1.165,1.351,2.843,2.843,0,0,0,2.33.645,2.5,2.5,0,0,0,1.689-1.355,1.422,1.422,0,0,1,.272-.493,1.635,1.635,0,0,1,.629-.272,1.848,1.848,0,0,0,1.049-2.61,1.7,1.7,0,0,0,.648-2.959,2.039,2.039,0,0,0,.874-2.206,2.07,2.07,0,0,0-1.46-1.4c-.5-.144-.307-.221-.462-.711a1.821,1.821,0,0,0-.575-.858,1.841,1.841,0,0,0-1.7-.315,1.724,1.724,0,0,0-1.235-1.324,1.654,1.654,0,0,0-.87-.035c-.206.05-.625.241-.7.439-.26-.256-.346-.594-.66-.823a1.876,1.876,0,0,0-2.757.586,2.3,2.3,0,0,0-1.724-.722,1.883,1.883,0,0,0-1.573.959,1.6,1.6,0,0,0,.214,1.794,1.86,1.86,0,0,0-.955.823,1.165,1.165,0,0,0,.136,1.289.994.994,0,0,0,.482.361A1.549,1.549,0,0,0,398.644,155.064Z" transform="translate(-377.752 -149.562)" fill="#263238"/>
        <path id="Path_19559" data-name="Path 19559" d="M408.461,174.126l.043-1.716a.858.858,0,1,0-.043,1.716Z" transform="translate(-383.826 -163.537)" fill="#263238"/>
      </g>
    </g>
  </g>
</svg>
