<svg xmlns="http://www.w3.org/2000/svg" xmlns:xlink="http://www.w3.org/1999/xlink" width="665.644" height="553.929" viewBox="0 0 665.644 553.929">
  <defs>
    <linearGradient id="linear-gradient" x1="0.5" x2="0.5" y2="1" gradientUnits="objectBoundingBox">
      <stop offset="0" stop-color="#03d481"/>
      <stop offset="1" stop-color="#0294c1"/>
    </linearGradient>
  </defs>
  <g id="Team_goals-rafiki_1_" data-name="Team goals-rafiki (1)" transform="translate(-87.861 -125.045)">
    <g id="freepik--background-complete--inject-2" transform="translate(0 55)">
      <rect id="Rectangle_3708" data-name="Rectangle 3708" width="55.47" height="0.419" transform="translate(698.035 575.287)" fill="#ebebeb"/>
      <rect id="Rectangle_3709" data-name="Rectangle 3709" width="14.554" height="0.419" transform="translate(540.182 579.842)" fill="#ebebeb"/>
      <rect id="Rectangle_3710" data-name="Rectangle 3710" width="32.14" height="0.419" transform="translate(664.22 559.744)" fill="#ebebeb"/>
      <rect id="Rectangle_3711" data-name="Rectangle 3711" width="72.336" height="0.419" transform="translate(87.861 562.558)" fill="#ebebeb"/>
      <rect id="Rectangle_3712" data-name="Rectangle 3712" width="10.602" height="0.419" transform="translate(175.12 562.558)" fill="#ebebeb"/>
      <rect id="Rectangle_3713" data-name="Rectangle 3713" width="156.898" height="0.419" transform="translate(220.19 569.626)" fill="#ebebeb"/>
      <rect id="Rectangle_3714" data-name="Rectangle 3714" width="11.272" height="308.436" transform="translate(238.998 240.321)" fill="#f5f5f5"/>
      <rect id="Rectangle_3715" data-name="Rectangle 3715" width="11.272" height="269.279" transform="translate(283.565 279.479)" fill="#f5f5f5"/>
      <rect id="Rectangle_3716" data-name="Rectangle 3716" width="11.272" height="230.121" transform="translate(327.714 318.636)" fill="#f5f5f5"/>
      <rect id="Rectangle_3717" data-name="Rectangle 3717" width="11.272" height="256.232" transform="translate(371.879 292.525)" fill="#f5f5f5"/>
      <rect id="Rectangle_3718" data-name="Rectangle 3718" width="11.272" height="269.279" transform="translate(416.044 279.479)" fill="#f5f5f5"/>
      <rect id="Rectangle_3719" data-name="Rectangle 3719" width="11.272" height="295.389" transform="translate(460.193 253.368)" fill="#f5f5f5"/>
      <rect id="Rectangle_3720" data-name="Rectangle 3720" width="11.272" height="282.326" transform="translate(504.358 266.432)" fill="#f5f5f5"/>
      <rect id="Rectangle_3721" data-name="Rectangle 3721" width="11.272" height="295.389" transform="translate(548.523 253.368)" fill="#f5f5f5"/>
      <rect id="Rectangle_3722" data-name="Rectangle 3722" width="11.272" height="321.483" transform="translate(592.671 227.257)" fill="#f5f5f5"/>
      <rect id="Rectangle_3723" data-name="Rectangle 3723" width="11.272" height="347.594" transform="translate(636.837 201.164)" fill="#f5f5f5"/>
      <rect id="Rectangle_3724" data-name="Rectangle 3724" width="11.272" height="373.704" transform="translate(680.985 175.053)" fill="#f5f5f5"/>
      <path id="Path_17227" data-name="Path 17227" d="M238,296.464a2.546,2.546,0,0,1-1.675-.72l-94.36-92a2.517,2.517,0,1,1,3.517-3.6l92.836,90.524L369.072,195.2a2.529,2.529,0,0,1,3.35.368l42.809,48.47,177.2-101.528a2.517,2.517,0,0,1,2.5,4.371L415.951,249.451a2.529,2.529,0,0,1-3.132-.519L370.178,200.7,239.541,295.978a2.513,2.513,0,0,1-1.541.486Z" transform="translate(95.291 3.833)" fill="#f0f0f0"/>
      <path id="Path_17228" data-name="Path 17228" d="M263.608,556.267,181.257,231.5l4.12-16.229h-4.288V122.52H170.036v92.752h-4.288l4.12,16.229L87.5,556.267H98.906l71.13-280.5V557.975h11.054V275.767l71.13,280.5Z" transform="translate(59.047 -9.436)" fill="#e0e0e0"/>
      <circle id="Ellipse_161" data-name="Ellipse 161" cx="63.761" cy="63.761" r="63.761" transform="translate(157.902 251.602) rotate(-76.72)" fill="#e6e6e6"/>
      <circle id="Ellipse_162" data-name="Ellipse 162" cx="54.432" cy="54.432" r="54.432" transform="translate(180.178 149.78)" fill="#f5f5f5"/>
      <circle id="Ellipse_163" data-name="Ellipse 163" cx="42.608" cy="42.608" r="42.608" transform="translate(192.002 161.604)" fill="#e6e6e6"/>
      <circle id="Ellipse_164" data-name="Ellipse 164" cx="34.92" cy="34.92" r="34.92" transform="translate(188.992 185.307) rotate(-22.5)" fill="#f5f5f5"/>
      <circle id="Ellipse_165" data-name="Ellipse 165" cx="24.235" cy="24.235" r="24.235" transform="translate(205.451 222.212) rotate(-76.72)" fill="#e6e6e6"/>
      <circle id="Ellipse_166" data-name="Ellipse 166" cx="17.401" cy="17.401" r="17.401" transform="translate(211.882 194.788) rotate(-22.5)" fill="#f5f5f5"/>
      <path id="Path_17229" data-name="Path 17229" d="M151.16,180.115a7.888,7.888,0,1,1-2.3-5.589A7.905,7.905,0,0,1,151.16,180.115Z" transform="translate(91.338 24.097)" fill="#e6e6e6"/>
      <path id="Path_17230" data-name="Path 17230" d="M95.357,145.53l1.725,11.523L85.09,161.089l11.992,6.3,11.958-4.2-2.094-11.355Z" transform="translate(57.421 6.092)" fill="#e6e6e6"/>
      <path id="Path_17231" data-name="Path 17231" d="M175.312,196.992a1.792,1.792,0,0,1-.77-.184l-85.8-43.981a1.675,1.675,0,0,1,1.524-2.981l85.8,43.914a1.721,1.721,0,0,1-.754,3.232Z" transform="translate(59.298 8.895)" fill="#e0e0e0"/>
      <path id="Path_17232" data-name="Path 17232" d="M210.58,159.357a14.722,14.722,0,0,1,19.009-14.136,31.252,31.252,0,0,1,30.951-35.808,30.935,30.935,0,0,1,5.745.536,27.333,27.333,0,0,1,50.68,13.817h.469a25.189,25.189,0,1,1,0,50.379H224.917A14.755,14.755,0,0,1,210.58,159.357Z" transform="translate(142.105 -26.777)" fill="#f0f0f0"/>
      <path id="Path_17233" data-name="Path 17233" d="M367.47,141.453a7.118,7.118,0,0,1,7.118-7.118,7.537,7.537,0,0,1,2.043.3,15.69,15.69,0,0,1-.167-2.177,15.073,15.073,0,0,1,17.854-14.822,13.181,13.181,0,0,1,24.419,6.7h.218a12.142,12.142,0,1,1,0,24.285H374.387A7.1,7.1,0,0,1,367.47,141.453Z" transform="translate(247.979 -16.98)" fill="#f0f0f0"/>
      <path id="Path_17234" data-name="Path 17234" d="M94.721,142.743a4.773,4.773,0,0,1,4.79-4.773,4.705,4.705,0,0,1,1.373.2,10.719,10.719,0,0,1-.117-1.474,10.013,10.013,0,0,1,11.925-9.865A8.843,8.843,0,0,1,129.1,131.3h.151a8.173,8.173,0,0,1,0,16.33H99.377a4.773,4.773,0,0,1-4.656-4.89Z" transform="translate(63.919 -9.41)" fill="#f0f0f0"/>
    </g>
    <g id="freepik--Shadow--inject-2" transform="translate(93.975 641.056)">
      <ellipse id="freepik--path--inject-2" cx="324.732" cy="18.959" rx="324.732" ry="18.959" fill="#f5f5f5"/>
    </g>
    <g id="freepik--character-1--inject-2" transform="translate(100.049 219.642)">
      <path id="Path_17235" data-name="Path 17235" d="M138.38,231.137l11.489-6.565s4.422-6.817,5.745-7.135,15.894,0,15.894,0-2.194,9.446-2.428,11.305-14.136,0-14.136,0l-11.255,6.7Z" transform="translate(-6.666 -110.121)" fill="#ebb376"/>
      <path id="Path_17236" data-name="Path 17236" d="M81.018,408.965l-12.025-2.4a.938.938,0,0,0-.921.737l-3.232,12.025a1.675,1.675,0,0,0,1.223,1.893h.352c4.254,0,7.352-.335,12.678-.335,3.35,0,13.2.352,17.736.352s5.142-4.489,3.35-4.891c-8.374-1.826-14.6-4.338-17.267-6.7a2.646,2.646,0,0,0-1.893-.687Z" transform="translate(-56.309 17.607)" fill="#263238"/>
      <path id="Path_17237" data-name="Path 17237" d="M168.893,407.76H155.763a.921.921,0,0,0-.921.737l-2.144,9.714a1.675,1.675,0,0,0,1.239,1.876h.352c4.254-.084,7.336-.335,12.678-.335,3.35,0,13.2.335,17.736.335s5.125-4.472,3.266-4.891c-8.374-1.809-14.6-4.338-17.267-6.7a2.5,2.5,0,0,0-1.809-.737Z" transform="translate(2.983 18.41)" fill="#263238"/>
      <path id="Path_17238" data-name="Path 17238" d="M103.331,281.352l55.6-14.1c12.611,27.534,58.887,140.585,70.108,234.643l-18.825,4.773S176.89,367.957,148.937,327.46c0,0-1.491,61.567-4.522,70.527-2.5,7.369-59.724,105.966-59.724,105.966L66.1,501.86s46.728-100.624,49.474-113.168c1.943-8.542-6.565-71.281-6.565-71.281-1.491-5.594-3.735-28.757-3.735-28.757S103.6,282.508,103.331,281.352Z" transform="translate(-55.443 -76.41)" fill="url(#linear-gradient)"/>
      <path id="Path_17239" data-name="Path 17239" d="M116.974,311.352a154.514,154.514,0,0,1,12.31,22.476c-3.852-21.672-15.794-42.658-15.794-42.658Z" transform="translate(-23.462 -60.268)" opacity="0.2"/>
      <path id="Path_17240" data-name="Path 17240" d="M103.331,281.352l55.6-14.1c12.611,27.534,58.887,140.585,70.108,234.643l-18.825,4.773S176.89,367.957,148.937,327.46c0,0-1.491,61.567-4.522,70.527-2.5,7.369-59.724,105.966-59.724,105.966L66.1,501.86s46.728-100.624,49.474-113.168c1.943-8.542-6.565-71.281-6.565-71.281-1.491-5.594-3.735-28.757-3.735-28.757S103.6,282.508,103.331,281.352Z" transform="translate(-55.443 -76.41)" opacity="0.3"/>
      <path id="Path_17241" data-name="Path 17241" d="M172.551,229.079S147.194,246.2,140.511,247.1c-2.663.368-8.156-.536-13.834-1.675-8.609-1.842-17.586-4.422-17.586-4.422l-1.122-8.491-1.189-9.078c2.01-.67,28.238,10.049,32.157,11.724s29.259-13.4,29.259-13.4Z" transform="translate(-27.991 -107.108)" fill="#263238"/>
      <path id="Path_17242" data-name="Path 17242" d="M106.478,273.33l1.641,6.431-17.954,4.79-1.675-6.666Z" transform="translate(-40.333 -72.307)"/>
      <path id="Path_17243" data-name="Path 17243" d="M126.748,269.04l1.558,6.1-26.245,7-1.641-6.415Z" transform="translate(-32.282 -75.202)"/>
      <path id="Path_17244" data-name="Path 17244" d="M127.228,273.375l-8.357,2.228-1.541-6.08L125,267.58Z" transform="translate(-20.871 -76.187)"/>
      <rect id="Rectangle_3725" data-name="Rectangle 3725" width="10.685" height="7.704" transform="translate(90.547 201.533) rotate(165.77)" fill="#fff"/>
      <path id="Path_17245" data-name="Path 17245" d="M155.776,297.836,99.8,312.039c-2.73-7.386-5.51-14.822-8.223-22.074-1.993-5.309-3.953-10.518-5.862-15.559q-.72-1.943-1.457-3.819l-1.675-4.455L79,256.7l-3.082-8.056-1.457-3.819-2.763-7.2,58.77-14.906C149.847,256.535,155.776,297.836,155.776,297.836Z" transform="translate(-51.664 -106.46)" fill="#263238"/>
      <path id="Path_17246" data-name="Path 17246" d="M87.3,240.916c6.046,2.9,17.2-2.211,17.2-2.211s3.7-4.087,1.491-5.9c-4.489.586-4.2-.888-5.828-3.182a13.214,13.214,0,0,1-1.876-4.756,26.9,26.9,0,0,1-.452-2.83L80.2,215.71C84.2,222.175,90.416,234.418,87.3,240.916Z" transform="translate(-45.927 -111.191)" fill="#ebb376"/>
      <path id="Path_17247" data-name="Path 17247" d="M83.4,219.16c3.182,8.458,10.987,8.709,14.6,8.14a13.215,13.215,0,0,1-1.876-4.757Z" transform="translate(-43.768 -108.862)" opacity="0.2"/>
      <path id="Path_17248" data-name="Path 17248" d="M102.438,200s4.606,13.9-2.043,20.684-11.154-19.8-11.154-19.8Z" transform="translate(-39.827 -121.792)" fill="#263238"/>
      <path id="Path_17249" data-name="Path 17249" d="M86.244,236.38a13.147,13.147,0,0,0,15.727,2.479,14.672,14.672,0,0,0,7.1-8.156c.167-.469.318-.971.452-1.474,2.244-9.362.837-24.821-9.362-28.975A14.253,14.253,0,0,0,80.516,214.49C81.119,224.924,80.985,231.054,86.244,236.38Z" transform="translate(-45.741 -122.347)" fill="#ebb376"/>
      <path id="Path_17250" data-name="Path 17250" d="M89.93,210.711c0,.837.435,1.524,1,1.524s.988-.687,1-1.524-.452-1.541-1-1.541S89.93,209.857,89.93,210.711Z" transform="translate(-39.361 -115.604)" fill="#263238"/>
      <path id="Path_17251" data-name="Path 17251" d="M95.65,210.7c0,.854.452,1.541,1,1.541s.988-.7,1-1.541-.469-1.524-1-1.524S95.65,209.9,95.65,210.7Z" transform="translate(-35.501 -115.597)" fill="#263238"/>
      <path id="Path_17252" data-name="Path 17252" d="M93.843,210.34a29.864,29.864,0,0,0,4.036,7.252,4.874,4.874,0,0,1-4.07.754Z" transform="translate(-36.743 -114.814)" fill="#d58745"/>
      <path id="Path_17253" data-name="Path 17253" d="M99.643,208.483a.569.569,0,0,1-.519,0,3.986,3.986,0,0,0-3.534-.67.493.493,0,0,1-.352-.921h0a4.891,4.891,0,0,1,4.455.787.486.486,0,0,1,.134.687h0a.871.871,0,0,1-.184.117Z" transform="translate(-35.994 -117.295)" fill="#263238"/>
      <path id="Path_17254" data-name="Path 17254" d="M88.966,208.665a.636.636,0,0,1-.268-.1.5.5,0,0,1,0-.7h0a4.924,4.924,0,0,1,4.4-1.172.5.5,0,0,1,.335.6h0a.519.519,0,0,1-.62.352h0a3.936,3.936,0,0,0-3.45.971.5.5,0,0,1-.4.05Z" transform="translate(-40.29 -117.36)" fill="#263238"/>
      <path id="Path_17255" data-name="Path 17255" d="M90.11,200.6l1,1.926c-3.35,1.29-2.512,5.242-1.675,7,1.675,3.785-.251,9.865-3.082,12.394,0,0-.184-1.675-1.574-1.206s-.586,9.145,2.362,13.164c0,0-4.338-3.567-7.118-12.578-2.562-8.374-3.165-15.358-1.574-18.708Z" transform="translate(-47.698 -121.387)" fill="#263238"/>
      <path id="Path_17256" data-name="Path 17256" d="M78.021,216.113a9.9,9.9,0,0,0,5.678,5.024c3.35,1.105,5.024-1.792,4.355-5.024-.7-2.83-3.232-6.934-6.7-6.616a4.422,4.422,0,0,0-3.333,6.616Z" transform="translate(-47.802 -115.395)" fill="#ebb376"/>
      <path id="Path_17257" data-name="Path 17257" d="M86.426,232.885c4.924,3.45,14.521,4.572,19.227-1.675s3.2-16.279,3.2-16.279a15.626,15.626,0,0,1-3.015,6.13c-2.663-3.216-7.185-1.39-7.185-1.39a6.515,6.515,0,0,0-3.852-2.412c-2.194-.218-8.374.151-8.374.151-1.976-1.256-2.06-6.85-2.06-6.85l-1.206,1S81.485,229.419,86.426,232.885Z" transform="translate(-44.114 -114.666)" fill="#263238"/>
      <path id="Path_17258" data-name="Path 17258" d="M103.187,209.055s11.724-5.694,10.334-11.389-4.807.8-4.807.8,1.574-4.321-1.507-5.025-2.11,2.06-3.785,3.718-17.921-.754-23.163,2.5-1.239,14.487-1.239,14.487a22.543,22.543,0,0,1,24.168-5.091Z" transform="translate(-47.711 -126.291)" fill="#263238"/>
      <path id="Path_17259" data-name="Path 17259" d="M86.426,232.885c4.924,3.45,14.521,4.572,19.227-1.675s3.2-16.279,3.2-16.279a15.626,15.626,0,0,1-3.015,6.13c-2.663-3.216-7.185-1.39-7.185-1.39a6.515,6.515,0,0,0-3.852-2.412c-2.194-.218-8.374.151-8.374.151-1.976-1.256-2.06-6.85-2.06-6.85l-1.206,1S81.485,229.419,86.426,232.885Z" transform="translate(-44.114 -114.666)" fill="#fff" opacity="0.2"/>
      <path id="Path_17260" data-name="Path 17260" d="M95.846,219.6a30.814,30.814,0,0,0-2.428,3.8l-.754-.285c-3.35-1.223-4.556-2.9-4.824-4.4a4.757,4.757,0,0,1,.184-2.177,4.873,4.873,0,0,1,.519-1.156,17.049,17.049,0,0,0,6.163,3.768C95.394,219.45,95.846,219.6,95.846,219.6Z" transform="translate(-40.806 -111.413)" fill="#263238"/>
      <path id="Path_17261" data-name="Path 17261" d="M94.613,219.158l-.754,1.105c-3.182-1.156-5.276-2.395-5.929-3.718a4.873,4.873,0,0,1,.519-1.156A17.05,17.05,0,0,0,94.613,219.158Z" transform="translate(-40.711 -111.407)" fill="#fff"/>
      <path id="Path_17262" data-name="Path 17262" d="M92.644,221.775c-3.35-1.223-4.556-2.9-4.824-4.4a11.975,11.975,0,0,1,3.5,2.11,4.3,4.3,0,0,1,1.323,2.295Z" transform="translate(-40.785 -110.07)" fill="#de5753"/>
      <path id="Path_17263" data-name="Path 17263" d="M101.26,229.45l-.988,8.676,18.088,38.538-1.792,5.108-5.912-2.73-12.9-39.308-9.48-6.415,6.9-3.785Z" transform="translate(-40.475 -101.918)" fill="url(#linear-gradient)"/>
      <path id="Path_17264" data-name="Path 17264" d="M86.731,227.185l11.975,4.941.486-8.106,8.826,2.177.754,12.343-8.491-3.467-3.551,7.905L81.64,232.9Z" transform="translate(-44.956 -105.583)" fill="#263238"/>
      <path id="Path_17265" data-name="Path 17265" d="M86.731,227.185l11.975,4.941.486-8.106,8.826,2.177.754,12.343-8.491-3.467-3.551,7.905L81.64,232.9Z" transform="translate(-44.956 -105.583)" fill="#fff" opacity="0.2"/>
      <path id="Path_17266" data-name="Path 17266" d="M81.463,257.377l-3.584-9.429L74.8,239.892l-1.457-3.819c1.675-.821,5.946-.335,7.135,1.675C84.829,245.352,81.463,257.377,81.463,257.377Z" transform="translate(-50.557 -97.705)" opacity="0.2"/>
      <path id="Path_17267" data-name="Path 17267" d="M99.169,257.148a22.393,22.393,0,0,1-11.975,15.325c-1.993-5.309-3.953-10.518-5.862-15.559q-.72-1.943-1.457-3.819L78.2,248.64,97.595,251.1Z" transform="translate(-47.277 -88.968)" opacity="0.2"/>
      <path id="Path_17268" data-name="Path 17268" d="M126.2,241.053c-8.609-1.842-17.586-4.422-17.586-4.422l-1.122-8.491S123.317,229.832,126.2,241.053Z" transform="translate(-27.511 -102.802)" opacity="0.2"/>
      <path id="Path_17269" data-name="Path 17269" d="M72.736,489.435a2.512,2.512,0,0,1-1.675-4.455c27.953-22.945,27.417-58.9,26.9-93.69-.4-26.228-.77-51.015,11.573-67.864,17.318-23.682,86.974-61.248,98.513-62.32,8.257-.821,260.1-70.812,392.128-107.708a2.513,2.513,0,0,1,1.357,4.84C585.9,162.609,218.865,265.159,208.514,266.114c-9.932.921-78.884,38.337-94.929,60.294-11.339,15.492-10.987,39.459-10.6,64.816.5,34.3,1.089,73.19-28.74,97.659A2.478,2.478,0,0,1,72.736,489.435Z" transform="translate(-52.716 -153.304)" fill="#263238"/>
      <path id="Path_17270" data-name="Path 17270" d="M601.647,158.208l-34.434,9.647C472.5,194.284,217.174,265.33,208.632,266.117c-9.932.921-78.884,38.337-94.929,60.294-11.339,15.492-10.987,39.459-10.6,64.816.5,34.3,1.089,73.19-28.74,97.659a2.478,2.478,0,0,1-1.675.569A2.512,2.512,0,0,1,71.011,485c27.953-22.945,27.417-58.9,26.9-93.69-.4-26.228-.77-51.015,11.573-67.864C126.8,299.764,196.456,262.2,208,261.126c7.771-.77,230.892-62.706,367.256-100.758l24.871-6.951a2.513,2.513,0,1,1,1.357,4.84Z" transform="translate(-52.75 -153.29)" fill="#fff" opacity="0.4"/>
      <path id="Path_17271" data-name="Path 17271" d="M401.344,158.215l-34.434,9.647a44.892,44.892,0,0,1,8.207-7.5l24.871-6.951a2.513,2.513,0,1,1,1.357,4.84Z" transform="translate(147.552 -153.297)" opacity="0.2"/>
      <path id="Path_17272" data-name="Path 17272" d="M81.91,252.911l13.164-1.156s6.884-4.355,8.207-4.07,14.437,6.7,14.437,6.7-5.946,7.654-6.934,9.245-12.829-5.912-12.829-5.912l-13.047,1.39Z" transform="translate(-44.774 -89.622)" fill="#ebb376"/>
      <path id="Path_17273" data-name="Path 17273" d="M79.756,231.62c-5.979,4.271-21.555,39.09-19.9,44.467s50.128-5.225,50.128-5.225l-2.144-9.061H81.766l6.2-9.781s3.819-3.718,1.474-12.36C87.745,233.429,79.756,231.62,79.756,231.62Z" transform="translate(-59.737 -100.454)" fill="#263238"/>
    </g>
    <g id="freepik--character-3--inject-2" transform="translate(553.417 268.742)">
      <path id="Path_17274" data-name="Path 17274" d="M383.292,240.2,373.36,235.5s-5.024-9.614-6.5-11.154-8.592,4.438-8.592,5.477,5.158,10.752,6.5,11.339a20.684,20.684,0,0,0,6.013,0l9.446,4.572Z" transform="translate(-311.646 -154.635)" fill="#9f5b53"/>
      <path id="Path_17275" data-name="Path 17275" d="M389.581,208.613l1.993-7.118s3.149-9.279,2.814-11.422a55.26,55.26,0,0,0-2.378-7.453s-8.709,10.6-8.709,11.925,3.45,6.13,3.45,6.13l-1.675,7.939Z" transform="translate(-294.756 -182.62)" fill="#9f5b53"/>
      <path id="Path_17276" data-name="Path 17276" d="M400.064,252.656s-7.5-9.329-9.714-18,4.472-36.846,4.472-36.846l-7.051-1.876s-8.374,28.824-8.659,39.342,15.358,41.385,15.358,41.385Z" transform="translate(-297.585 -173.638)" fill="url(#linear-gradient)"/>
      <path id="Path_17277" data-name="Path 17277" d="M393.29,248.2l-1.072,4.572s-5.393-10.635-9.8-21.555a27.433,27.433,0,0,1,9.9,13.248,23.586,23.586,0,0,1,.971,3.735Z" transform="translate(-295.349 -149.823)" opacity="0.2"/>
      <path id="Path_17278" data-name="Path 17278" d="M442.839,250.219a40.461,40.461,0,0,1-.7,5.795c-.77,4.187-2.077,9.128-3.567,14.571-.8,2.864-1.675,5.929-2.445,9.161-3.735,14.521-5.761,20.3-8.525,38.839L374.59,306.008a254.2,254.2,0,0,1,13.047-46.477c1.541-4,3.35-8.006,5.175-11.958a121.6,121.6,0,0,1,10.3-17.753s8.575,7.838,35.506,12.544C441.885,242.867,443.007,245.714,442.839,250.219Z" transform="translate(-300.633 -150.768)" fill="url(#linear-gradient)"/>
      <path id="Path_17279" data-name="Path 17279" d="M430.9,238.571c0,1.675,6.348,9.647,5.962,11.724-.72.486-1.574,1.022-2.546,1.675-17.937,10.434-41.469,5.142-51.92,1.909,1.541-4,5.024-11.355,6.833-15.308l12.578,2.8S422.378,236.679,430.9,238.571Z" transform="translate(-295.363 -145.166)" opacity="0.2"/>
      <path id="Path_17280" data-name="Path 17280" d="M400.528,231.747c1.926-.737,17.736,3.2,16.564,3.534s-7.068,18.423-15.325,17.066S393.662,234.36,400.528,231.747Z" transform="translate(-286.543 -149.53)" fill="url(#linear-gradient)"/>
      <path id="Path_17281" data-name="Path 17281" d="M362.1,417.878l-9.948,2.161-5.812-22.878L356.305,395Z" transform="translate(-319.697 -39.3)" fill="#9f5b53"/>
      <path id="Path_17282" data-name="Path 17282" d="M355.967,407.471h12.377a.871.871,0,0,1,.854.7l2.01,9.061a1.491,1.491,0,0,1-1.156,1.792h-.335c-4,0-6.917-.318-11.942-.318-3.1,0-12.444.318-16.748.318s-4.823-4.221-3.082-4.606c7.855-1.675,13.767-4.087,16.279-6.331a2.4,2.4,0,0,1,1.742-.62Z" transform="translate(-325.991 -30.886)" fill="#263238"/>
      <path id="Path_17283" data-name="Path 17283" d="M347.318,409.588a3.1,3.1,0,0,1-1.96-.519,1.407,1.407,0,0,1-.5-1.29.72.72,0,0,1,.4-.687c1.139-.586,4.422,1.44,4.79,1.675a.218.218,0,0,1,.117.234.234.234,0,0,1-.184.2,12.023,12.023,0,0,1-2.663.385Zm-1.524-2.11a.469.469,0,0,0-.3,0,.368.368,0,0,0-.167.285.988.988,0,0,0,.335.854,4.907,4.907,0,0,0,3.618.184,9.7,9.7,0,0,0-3.484-1.323Z" transform="translate(-320.708 -31.211)" fill="url(#linear-gradient)"/>
      <path id="Path_17284" data-name="Path 17284" d="M349.084,410.146h-.117c-1.038-.569-3.082-2.814-2.881-3.886a.8.8,0,0,1,.787-.636,1.273,1.273,0,0,1,1.022.318c1.172.955,1.424,3.886,1.44,4.02a.235.235,0,0,1-.117.218.134.134,0,0,1-.134-.034Zm-2.043-4.137h-.117c-.318,0-.335.184-.352.251-.134.67,1.172,2.362,2.211,3.149a5.644,5.644,0,0,0-1.156-3.149.8.8,0,0,0-.586-.251Z" transform="translate(-319.878 -32.138)" fill="url(#linear-gradient)"/>
      <path id="Path_17285" data-name="Path 17285" d="M457.833,288.2s-8.592,40.966-28.69,51.92a21.368,21.368,0,0,1-7.453,2.529s-20.383,8.374-38,16.3c-10.719,4.84-20.416,9.563-23.883,12.21-9.178,6.984,13.3,116.015,13.3,116.015l-15.274.167s-32.14-96.537-26.8-121.877,63.024-64.129,63.024-64.129l8.877-24.419Z" transform="translate(-330.432 -118.99)" fill="#263238"/>
      <path id="Path_17286" data-name="Path 17286" d="M407.685,320.956a21.371,21.371,0,0,1-7.453,2.529s-20.383,8.374-38,16.3c11.339-20.852,31.554-34.4,31.554-34.4Z" transform="translate(-308.974 -99.778)" opacity="0.2"/>
      <path id="Path_17287" data-name="Path 17287" d="M438.56,417.878l-9.948,2.161L422.8,397.161,432.765,395Z" transform="translate(-268.1 -39.3)" fill="#9f5b53"/>
      <path id="Path_17288" data-name="Path 17288" d="M432.427,407.471H444.8a.871.871,0,0,1,.854.7l2.01,9.061a1.491,1.491,0,0,1-1.156,1.792h-.335c-4,0-6.917-.318-11.942-.318-3.1,0-12.444.318-16.748.318s-4.824-4.221-3.082-4.606c7.855-1.675,13.767-4.087,16.279-6.331a2.4,2.4,0,0,1,1.742-.62Z" transform="translate(-274.394 -30.886)" fill="#263238"/>
      <path id="Path_17289" data-name="Path 17289" d="M423.778,409.588a3.1,3.1,0,0,1-1.96-.519,1.407,1.407,0,0,1-.5-1.29.72.72,0,0,1,.4-.687c1.139-.586,4.422,1.44,4.79,1.675a.218.218,0,0,1,.117.234.234.234,0,0,1-.184.2,12.023,12.023,0,0,1-2.663.385Zm-1.524-2.11a.469.469,0,0,0-.3,0,.368.368,0,0,0-.167.285.988.988,0,0,0,.335.854,4.907,4.907,0,0,0,3.618.184,9.7,9.7,0,0,0-3.484-1.323Z" transform="translate(-269.111 -31.211)" fill="url(#linear-gradient)"/>
      <path id="Path_17290" data-name="Path 17290" d="M425.544,410.146h-.117c-1.038-.569-3.082-2.814-2.881-3.886a.8.8,0,0,1,.787-.636,1.273,1.273,0,0,1,1.022.318c1.172.955,1.424,3.886,1.44,4.02a.235.235,0,0,1-.117.218.134.134,0,0,1-.134-.034ZM423.5,406.01h-.184c-.318,0-.335.184-.352.251-.134.67,1.172,2.362,2.211,3.149a5.644,5.644,0,0,0-1.206-3.182.8.8,0,0,0-.469-.218Z" transform="translate(-268.281 -32.138)" fill="url(#linear-gradient)"/>
      <path id="Path_17291" data-name="Path 17291" d="M417.675,247.316c-2.5,1.675-14,1.038-14,1.038l-5.343,5.845-.519-9.664s-3.6-1.491-2.613-2.529a9.429,9.429,0,0,0,6.934-2.328c2.328-2.278,2.78-5.946,2.747-9.58v-.134h0l9.831-5.025,6.8-3.5C418.312,228.34,413.74,241.287,417.675,247.316Z" transform="translate(-286.841 -156.423)" fill="#9f5b53"/>
      <path id="Path_17292" data-name="Path 17292" d="M415.124,225.838c-3.249,8.223-11.724,11.891-15.894,12.427,2.328-2.278,2.78-5.946,2.747-9.58a.471.471,0,0,0,0-.151l9.831-5.024C411.825,224.85,415.593,224.582,415.124,225.838Z" transform="translate(-284.005 -155.026)" opacity="0.2"/>
      <path id="Path_17293" data-name="Path 17293" d="M420.563,241.808s6.381,3.35,8.508-.653-.9-4.237,2.227-5.678,7.587-2.445,6.565-5.477-4.187-3.35-.67-6.7,4.288-8.073-.971-8.994-3.249-5.025-3.517-6.7-3.216-2.847-6.415-2.177-4.539-4.07-6.515-5.544-4.706.335-5.426,2.328-2.613-.653-5.426-.988-2.161,2.629-3.031,5.393-2.6.971-4.606,3.249S399.091,227.689,420.563,241.808Z" transform="translate(-283.197 -171.331)" fill="#263238"/>
      <path id="Path_17294" data-name="Path 17294" d="M427.027,227.628c-4.807,7.537-7.537,12.511-12.93,14.956a16.031,16.031,0,0,1-2.244.837c-10.484,3.082-19.127-7.018-16.363-17.016a34.534,34.534,0,0,1,2.01-5.259c3.752-7.855,10.97-15.894,19.6-14.839A13.784,13.784,0,0,1,429.221,221.6a13.969,13.969,0,0,1-2.194,6.029Z" transform="translate(-286.881 -166.698)" fill="#9f5b53"/>
      <path id="Path_17295" data-name="Path 17295" d="M406.092,216.746c-.352.754-1.105,1.089-1.574.837s-.519-1.072-.134-1.775,1.122-1.089,1.574-.837S406.494,216.06,406.092,216.746Z" transform="translate(-280.701 -160.841)" fill="#263238"/>
      <path id="Path_17296" data-name="Path 17296" d="M401.239,214.081a1.273,1.273,0,0,1-1.574.821c-.452-.268-.519-1.055-.117-1.775s1.105-1.089,1.574-.821S401.624,213.394,401.239,214.081Z" transform="translate(-283.971 -162.647)" fill="#263238"/>
      <path id="Path_17297" data-name="Path 17297" d="M404.64,214.4a29.715,29.715,0,0,1-6.85,4.221,4.723,4.723,0,0,0,3.082,2.563Z" transform="translate(-284.977 -161.174)" fill="#892b29"/>
      <path id="Path_17298" data-name="Path 17298" d="M409.849,216.017a.5.5,0,0,1-.469-.184,3.819,3.819,0,0,0-3.048-1.675.486.486,0,1,1,0-.955h0a4.723,4.723,0,0,1,3.869,2.06.469.469,0,0,1-.084.67h0a.586.586,0,0,1-.268.084Z" transform="translate(-279.601 -161.987)" fill="#263238"/>
      <path id="Path_17299" data-name="Path 17299" d="M400.9,221.753h0a7.352,7.352,0,0,0,6.7-1.122.268.268,0,0,0,0-.352.251.251,0,0,0-.352,0h0a7.084,7.084,0,0,1-6.264,1,.218.218,0,0,0-.3.151h0a.218.218,0,0,0,.151.3Z" transform="translate(-283.041 -157.255)" fill="#263238"/>
      <path id="Path_17300" data-name="Path 17300" d="M400.008,209.406a.537.537,0,0,1,0-.285.486.486,0,0,1,.636-.234h0a4.79,4.79,0,0,1,2.747,3.467.486.486,0,0,1-.419.536h0a.486.486,0,0,1-.536-.419h0a3.869,3.869,0,0,0-2.211-2.7A.536.536,0,0,1,400.008,209.406Z" transform="translate(-283.494 -164.923)" fill="#263238"/>
      <path id="Path_17301" data-name="Path 17301" d="M404.12,209.207c2.445.3,3.651,3.35,3.651,3.35a54.728,54.728,0,0,1,8.542,3.986,5.761,5.761,0,0,1,1.976,5.745c-.084.8-2.06,1.541-2.06,1.541s-3.618,8.542-4.606,10.9l.5,7.888a41.72,41.72,0,0,0,15.358-17.3c5.711-11.891-18.122-22.359-18.122-22.359Z" transform="translate(-280.706 -168.894)" fill="#263238"/>
      <path id="Path_17302" data-name="Path 17302" d="M417.169,229.385a9.614,9.614,0,0,1-7.286.8c-3.232-.971-3.048-4.288-.653-6.415,2.144-1.842,6.448-3.668,8.944-1.524a4.271,4.271,0,0,1-1,7.135Z" transform="translate(-278.463 -156.53)" fill="#9f5b53"/>
      <path id="Path_17303" data-name="Path 17303" d="M420.291,235.244l-13.315,3.835-5.745,7.788,1.558-9.53s-1.424-2.194.938-5.627l-8.106,1.675-4.891,8.173,9.513-2.228.653,9.5,5.544-6.532,4.539,7.168,13.5-8.558Z" transform="translate(-289.742 -149.493)" fill="url(#linear-gradient)"/>
      <path id="Path_17304" data-name="Path 17304" d="M420.291,235.244l-13.315,3.835-5.745,7.788,1.558-9.53s-1.424-2.194.938-5.627l-8.106,1.675-4.891,8.173,9.513-2.228.653,9.5,5.544-6.532,4.539,7.168,13.5-8.558Z" transform="translate(-289.742 -149.493)" opacity="0.2"/>
      <path id="Path_17305" data-name="Path 17305" d="M375.847,272l-2.077,8.274,54.8,11.238.821-9.195Z" transform="translate(-301.187 -122.304)"/>
      <path id="Path_17306" data-name="Path 17306" d="M395.982,275.619c-.435-.62-12.628-3.249-13.784-2.378,0,0-2.362,8.156-1.96,9.011s12.26,2.512,13.4,2.747S396.417,276.306,395.982,275.619Zm-3.35,8.374c-.9-.184-10.652-1.541-10.987-2.244s1.675-7.4,1.675-7.4c.955-.72,10.97,1.44,11.322,1.943s-1.105,7.8-2.01,7.621Z" transform="translate(-296.853 -121.585)" fill="#fff"/>
      <path id="Path_17307" data-name="Path 17307" d="M389.311,276.459l-2.429-.5a.9.9,0,0,0-1.038.637h0a.9.9,0,0,0,.7,1.139l2.429.469a.9.9,0,0,0,.352-1.775Z" transform="translate(-293.062 -119.645)" fill="#fff"/>
      <path id="Path_17308" data-name="Path 17308" d="M424.218,283.65s1.055,61.969-.687,80.057,43.412,117.087,43.412,117.087H452.321s-44.3-72.487-54.449-94.8-17.653-75.535-17.653-75.535Z" transform="translate(-296.834 -114.442)" fill="#263238"/>
      <path id="Path_17309" data-name="Path 17309" d="M447.147,244.623c-2.261-5.125-36.98,2.462-40.112,1.574s-35.724-14.538-35.724-14.538l-2.831,7.269s29.226,16.748,35.624,19.395,31.972,1.373,38.521-1.457a9.011,9.011,0,0,0,4.522-12.243Z" transform="translate(-304.756 -149.526)" fill="url(#linear-gradient)"/>
    </g>
    <g id="freepik--Arrow--inject-2" transform="translate(161.42 163.747)">
      <path id="Path_17310" data-name="Path 17310" d="M624.621,186.923,614.1,119.93,558.7,159.1l18.423,7.8c-17.787,40.765-75.484,160.2-174.768,248.26C275.587,527.633,98.155,582.97,96.38,583.506l9.814,32.039c7.537-2.311,186.04-57.916,318.452-175.371C530.161,346.585,589.483,223.15,608.107,179.939Z" transform="translate(-96.38 -119.93)" fill="url(#linear-gradient)"/>
      <path id="Path_17311" data-name="Path 17311" d="M614.572,175.2,614.1,119.93,558.7,159.1l18.423,7.8c-17.787,40.765-75.484,160.2-174.768,248.26C275.587,527.633,98.155,582.97,96.38,583.506L99.5,603.821c7.537-2.311,186.04-52.891,318.452-170.347,105.514-93.589,161.487-218.7,180.111-261.91Z" transform="translate(-96.38 -119.93)" fill="#fff" opacity="0.4"/>
      <path id="Path_17312" data-name="Path 17312" d="M414.032,167.85a2.463,2.463,0,0,1-.77-.117l-32.173-10.4a2.512,2.512,0,1,1,1.541-4.773L414.8,162.943a2.512,2.512,0,0,1-.77,4.907Z" transform="translate(94.479 -98.027)" fill="#263238"/>
      <path id="Path_17313" data-name="Path 17313" d="M414.032,167.85a2.463,2.463,0,0,1-.77-.117l-32.173-10.4a2.512,2.512,0,1,1,1.541-4.773L414.8,162.943a2.512,2.512,0,0,1-.77,4.907Z" transform="translate(94.479 -98.027)" fill="#fff" opacity="0.4"/>
    </g>
    <g id="freepik--character-2--inject-2" transform="translate(259.807 232.481)">
      <path id="Path_17314" data-name="Path 17314" d="M170.942,475.587a2.512,2.512,0,0,1-2.512-2.512c0-79.956,23.23-90.441,27.584-91.73l73.86-51.668.168-.1L553.791,161.322a2.512,2.512,0,1,1,2.563,4.321l-283.616,168.2-74.212,51.92a2.664,2.664,0,0,1-1.055.435c-.184,0-24.017,5.862-24.017,86.924a2.512,2.512,0,0,1-2.512,2.462Z" transform="translate(-146.146 -160.97)" fill="#263238"/>
      <path id="Path_17315" data-name="Path 17315" d="M170.942,475.587a2.512,2.512,0,0,1-2.512-2.512c0-79.956,23.23-90.441,27.584-91.73l73.86-51.668.168-.1L553.791,161.322a2.512,2.512,0,1,1,2.563,4.321l-283.616,168.2-74.212,51.92a2.664,2.664,0,0,1-1.055.435c-.184,0-24.017,5.862-24.017,86.924a2.512,2.512,0,0,1-2.512,2.462Z" transform="translate(-146.146 -160.97)" fill="#fff" opacity="0.4"/>
      <path id="Path_17316" data-name="Path 17316" d="M195.218,306.5s-12.913,8.374-22.727,10.9a14.1,14.1,0,0,1-7.52.419c-7.3-2.311-2.964-16.447,1.39-25.374.7-1.457,1.407-2.763,2.06-3.869l12.762,7.888s-7.738,11.037-6.85,11.724,12.812-5.962,13.4-6.18S195.218,306.5,195.218,306.5Z" transform="translate(-151.128 -74.855)" fill="url(#linear-gradient)"/>
      <path id="Path_17317" data-name="Path 17317" d="M193.077,306.5s-12.913,8.374-22.727,10.9a156.328,156.328,0,0,1-6.13-24.955c.7-1.457,1.407-2.763,2.06-3.869l12.762,7.888s-7.738,11.037-6.85,11.724,12.812-5.962,13.4-6.18S193.077,306.5,193.077,306.5Z" transform="translate(-148.987 -74.855)" opacity="0.2"/>
      <path id="Path_17318" data-name="Path 17318" d="M219,275.868l7.57-6.7a25.126,25.126,0,0,1,2.479-5.46c.821-.687,14.6-1.759,14.6-1.759s.268,7.286-.821,9.178-12.343,2.713-12.343,2.713l-6.029,5.812Z" transform="translate(-112.02 -92.826)" fill="#eec1bb"/>
      <path id="Path_17319" data-name="Path 17319" d="M275.25,394.392c-2.161,31.085-7.939,75.2-7.939,75.2l-7.436,1.675s-6.867-36.93-5.778-71.2a163.982,163.982,0,0,1,2.11-22.292s-25.759-9.9-43.646-18.758c-8.542-4.221-15.291-8.223-16.581-10.8-3.986-7.955,14.136-26.647,14.136-26.647.569.452,11.506,7.419,24.235,15.676,16.9,10.953,36.947,24.185,40.2,27.484C276.49,366.623,276.322,378.883,275.25,394.392Z" transform="translate(-127.941 -52.592)" fill="#eec1bb"/>
      <path id="Path_17320" data-name="Path 17320" d="M268.339,388.089a125.864,125.864,0,0,1-21.153,5.644,163.99,163.99,0,0,1,2.11-22.292s-25.759-9.9-43.646-18.758l21.773-21.773c16.9,10.953,36.947,24.185,40.2,27.484C269.578,360.32,269.411,372.58,268.339,388.089Z" transform="translate(-121.029 -46.289)" opacity="0.2"/>
      <path id="Path_17321" data-name="Path 17321" d="M208.46,318.47s71.465,41.084,81.179,50.362,65.787,95.984,65.787,95.984l-4.723,4.505s-46.56-39.961-65.134-77.947l-77.042-37.231Z" transform="translate(-119.133 -54.684)" fill="#eec1bb"/>
      <path id="Path_17322" data-name="Path 17322" d="M180.1,287.888a1.99,1.99,0,0,0,.368.2,15.074,15.074,0,0,0,5.694,1.859c5.828.519,9.58-.787,11.724-3.7h0c2.981-4.321,2.914-11.221,1.273-19.344a31.068,31.068,0,0,0-3.132-9.312v-.134l-.2-.335a11.255,11.255,0,0,0-9.161-5.661,22.4,22.4,0,0,0-4.907.134C165.843,253.655,166.7,280.486,180.1,287.888Z" transform="translate(-145.133 -99.955)" fill="#eec1bb"/>
      <path id="Path_17323" data-name="Path 17323" d="M176.26,274.2a14.638,14.638,0,0,0,5.678,1.675c5.812.519,9.547-.988,11.724-3.919a16.2,16.2,0,0,1-10.233.586A8.374,8.374,0,0,0,176.26,274.2Z" transform="translate(-140.862 -86.071)" opacity="0.2"/>
      <path id="Path_17324" data-name="Path 17324" d="M176.045,288.388c-1.39,4.489,4.355,6.867,4.355,6.867,10.049-3.35,12.31-8.257,12.31-8.257-7.7-5.024-4.321-16.648-4.321-16.648l-1.675.67-11.724,1.239s2.663,6.415,2.964,7.855h0C179.428,287.668,176.045,288.388,176.045,288.388Z" transform="translate(-141.719 -87.157)" fill="#ebb376"/>
      <path id="Path_17325" data-name="Path 17325" d="M199.627,258.912s2.445,11.071-7.486,17.351c0,0-2.931,12.276-9.614,13.4-9.111,1.507-18.976-10.367-17.669-24.067C166.566,247.875,192.391,242.834,199.627,258.912Z" transform="translate(-148.636 -101.428)" fill="#263238"/>
      <path id="Path_17326" data-name="Path 17326" d="M186.659,264.546c-.251-1.675-2.06-4.489-4.723-3.7s-3.35,7.939,3.785,8.525C186.81,269.571,187.245,268.231,186.659,264.546Z" transform="translate(-138.298 -93.663)" fill="#ebb376"/>
      <path id="Path_17327" data-name="Path 17327" d="M297.59,404.89l-7.7,5.929a.9.9,0,0,0-.251,1.089l3.919,8.374a1.491,1.491,0,0,0,1.993.7,1.679,1.679,0,0,0,.285-.167c3.115-2.5,3.216-2.881,7.185-5.929,2.428-1.876,10.049-7.3,13.4-9.9s1.239-6.264-.368-5.51c-7.235,3.35-13.4,5.142-16.748,4.891a2.462,2.462,0,0,0-1.708.519Z" transform="translate(-64.412 -0.084)" fill="#263238"/>
      <path id="Path_17328" data-name="Path 17328" d="M295.486,404.409a.235.235,0,0,1-.318-.3c.151-.4,1.524-4,2.763-4.221a.72.72,0,0,1,.737.285,1.424,1.424,0,0,1,.385,1.323,3.048,3.048,0,0,1-1.223,1.675A11.564,11.564,0,0,1,295.486,404.409Zm.352-.687a4.874,4.874,0,0,0,2.747-2.345.972.972,0,0,0-.268-.888c-.134-.134-.251-.168-.3-.117a.636.636,0,0,0-.285.134,9.882,9.882,0,0,0-1.893,3.216Z" transform="translate(-60.633 0.247)" fill="url(#linear-gradient)"/>
      <path id="Path_17329" data-name="Path 17329" d="M295.98,404.726a.268.268,0,0,1-.218-.1c0-.117-1.675-2.579-1.323-4.053a1.373,1.373,0,0,1,.62-.871.8.8,0,0,1,1.005,0c.821.72.569,3.718.084,4.807l-.084.084Zm-1.122-4.12a5.761,5.761,0,0,0,.988,3.249,5.526,5.526,0,0,0-.167-3.819.309.309,0,0,0-.419,0h-.1a.921.921,0,0,0-.3.569Z" transform="translate(-61.144 0.014)" fill="url(#linear-gradient)"/>
      <path id="Path_17330" data-name="Path 17330" d="M244.12,407l-9.731.184a.9.9,0,0,0-.837.72l-1.826,9.061a1.491,1.491,0,0,0,1.189,1.675,1.143,1.143,0,0,0,.335,0c3.969-.151,4.288-.4,9.3-.5,3.082,0,12.377.084,16.631,0s4.723-4.3,2.981-4.656c-7.855-1.541-13.767-3.785-16.313-5.979A2.429,2.429,0,0,0,244.12,407Z" transform="translate(-103.443 5.054)" fill="#263238"/>
      <path id="Path_17331" data-name="Path 17331" d="M239.717,408.562a.218.218,0,0,1-.184-.2.2.2,0,0,1,.1-.234c.352-.235,3.584-2.311,4.723-1.759a.737.737,0,0,1,.435.67,1.44,1.44,0,0,1-.486,1.29,2.965,2.965,0,0,1-1.943.553A11.721,11.721,0,0,1,239.717,408.562Zm.687-.352a4.874,4.874,0,0,0,3.6-.251.971.971,0,0,0,.3-.871c0-.184-.1-.268-.151-.268a.72.72,0,0,0-.318,0,9.9,9.9,0,0,0-3.433,1.39Z" transform="translate(-98.169 4.569)" fill="url(#linear-gradient)"/>
      <path id="Path_17332" data-name="Path 17332" d="M239.648,409.517a.218.218,0,0,1-.117-.218c0-.134.184-3.048,1.34-4.036a1.273,1.273,0,0,1,1.022-.318.787.787,0,0,1,.787.62c.218,1.055-1.675,3.35-2.8,3.919h-.117A.167.167,0,0,1,239.648,409.517Zm1.541-3.969a5.8,5.8,0,0,0-1.139,3.2c1.038-.8,2.294-2.529,2.144-3.182,0,0,0-.234-.352-.234h-.117A.8.8,0,0,0,241.189,405.547Z" transform="translate(-98.166 3.664)" fill="url(#linear-gradient)"/>
      <path id="Path_17333" data-name="Path 17333" d="M235.491,337.658l-35.456,14.889C185.38,316.12,165.45,298.6,165.45,298.6c14.2-17.033,40.43-24.871,40.43-24.871a46.611,46.611,0,0,1,9.9,11.121,99.664,99.664,0,0,1,7.7,14.387,202.65,202.65,0,0,1,12.008,38.42Z" transform="translate(-148.157 -84.876)" fill="url(#linear-gradient)"/>
      <path id="Path_17334" data-name="Path 17334" d="M205.78,268.132s11.138-11.355.469-18.842S185,251.8,185,251.8s-25.34,6.381-19.78,23.213,9.111,18.222,1.156,26.965-16.062,21.639-7.754,29.762,36.947-.586,45.539-13.047S197.1,279.823,205.78,268.132Z" transform="translate(-155.125 -103.245)" fill="#263238"/>
      <path id="Path_17335" data-name="Path 17335" d="M221.251,305.38,182.73,318.594s8.525,41.954,14.7,48.972,47.5,39.509,53.343,36.947S295.4,367.566,295.4,367.566l-65.6-44.986Z" transform="translate(-136.496 -63.518)" fill="#263238"/>
      <path id="Path_17336" data-name="Path 17336" d="M203.021,312.816l8.19-2.713-2.027-4.053-7.754,2.73Z" transform="translate(-123.877 -63.066)"/>
      <path id="Path_17337" data-name="Path 17337" d="M191.141,312.49l-8.391,2.948,1.122,3.584,8.207-2.73Z" transform="translate(-136.483 -58.72)"/>
      <path id="Path_17338" data-name="Path 17338" d="M189.815,318.736l20.148-6.682L208.456,308l-19.746,6.951Z" transform="translate(-132.461 -61.75)"/>
      <path id="Path_17339" data-name="Path 17339" d="M205.438,294.8c-8.475-.988-13.248-13.734-13.248-13.734a46.369,46.369,0,0,1,5.544-.653,99.663,99.663,0,0,1,7.7,14.387Z" transform="translate(-130.112 -80.368)" opacity="0.2"/>
      <path id="Path_17340" data-name="Path 17340" d="M189.794,277.671c9.212-1.373,29.812,6.1,31.6,6.013s21.773-15.794,21.773-15.794l5.192,4.572s-20.935,21.589-25.24,21.773-26.8-1.44-26.8-1.44-5.51-1.96-6.565-6.934A17.352,17.352,0,0,1,189.794,277.671Z" transform="translate(-132.071 -88.817)" fill="url(#linear-gradient)"/>
    </g>
  </g>
</svg>
