<svg id="checked" xmlns="http://www.w3.org/2000/svg" xmlns:xlink="http://www.w3.org/1999/xlink" width="127.036" height="127.036" viewBox="0 0 127.036 127.036">
  <defs>
    <linearGradient id="linear-gradient" x1="0.5" x2="0.5" y2="1" gradientUnits="objectBoundingBox">
      <stop offset="0" stop-color="#5ba9ae"/>
      <stop offset="1" stop-color="#5b86ae"/>
    </linearGradient>
  </defs>
  <g id="_32ba7cff" data-name="#32ba7cff">
    <path id="Path_16783" data-name="Path 16783" d="M62.858,0h1.516a63.533,63.533,0,0,1,62.61,61.409,5.883,5.883,0,0,1-.943-.6c-6.568-6.094-13.175-12.143-19.753-18.227-.305-.241-.578-.64-1.02-.536a7.712,7.712,0,0,0-1.9-2.995q-2.609-2.609-5.215-5.215a7.606,7.606,0,0,0-9.426-1.417,20.789,20.789,0,0,0-3.258,2.923C75.008,45.733,64.6,56.181,54.1,66.532l-.179-.087c-4.8-4.8-9.555-9.662-14.373-14.45a7.532,7.532,0,0,0-10.141-.02c-1.98,1.91-3.9,3.886-5.856,5.826a7.555,7.555,0,0,0,.156,10.788Q35.327,80.294,46.936,92c1.231,1.186,2.332,2.588,3.918,3.317.248.883,1.05,1.409,1.645,2.049q13.737,13.752,27.479,27.506a65.242,65.242,0,0,1-15.8,2.161h-1.3A63.56,63.56,0,0,1,0,64.17v-1.3A63.541,63.541,0,0,1,62.858,0Z" fill="url(#linear-gradient)"/>
  </g>
  <g id="_ffffffff" data-name="#ffffffff" transform="translate(21.355 31.381)">
    <path id="Path_16784" data-name="Path 16784" d="M153.442,127.517a7.606,7.606,0,0,1,9.426,1.417q2.605,2.609,5.215,5.215a7.712,7.712,0,0,1,1.9,2.995,7.5,7.5,0,0,1-.925,6.714,27.64,27.64,0,0,1-2.637,2.806l-34.578,34.419c-.772.722-1.442,1.538-2.146,2.32q-2.538,2.542-5.081,5.076a7.639,7.639,0,0,1-9.046,1.935c-1.585-.729-2.687-2.131-3.918-3.317q-11.612-11.7-23.229-23.412a7.555,7.555,0,0,1-.156-10.788c1.953-1.94,3.876-3.915,5.856-5.826a7.532,7.532,0,0,1,10.141.02c4.818,4.789,9.57,9.647,14.373,14.45l.179.087c10.5-10.351,20.909-20.8,31.372-31.188A20.789,20.789,0,0,1,153.442,127.517Z" transform="translate(-86.068 -126.476)" fill="#fff"/>
  </g>
  <g id="_0aa06eff" data-name="#0aa06eff" transform="translate(50.854 42.031)">
    <path id="Path_16785" data-name="Path 16785" d="M259.374,169.419c.442-.1.715.3,1.02.536,6.578,6.084,13.185,12.133,19.753,18.227a5.885,5.885,0,0,0,.943.6c.012.057.04.171.052.228v3.811a63.533,63.533,0,0,1-47.058,59.426q-13.7-13.793-27.479-27.506c-.6-.64-1.4-1.166-1.645-2.049a7.639,7.639,0,0,0,9.046-1.935q2.538-2.538,5.081-5.076c.7-.782,1.375-1.6,2.146-2.32l34.578-34.419a27.644,27.644,0,0,0,2.637-2.806A7.5,7.5,0,0,0,259.374,169.419Z" transform="translate(-204.96 -169.402)" fill="#19ac55"/>
  </g>
</svg>
