<svg id="Live_collaboration-rafiki" data-name="Live collaboration-rafiki" xmlns="http://www.w3.org/2000/svg" xmlns:xlink="http://www.w3.org/1999/xlink" width="848.14" height="631.966" viewBox="0 0 848.14 631.966">
  <defs>
    <linearGradient id="linear-gradient" x1="0.5" x2="0.5" y2="1" gradientUnits="objectBoundingBox">
      <stop offset="0" stop-color="#03d481"/>
      <stop offset="1" stop-color="#0294c1"/>
    </linearGradient>
  </defs>
  <g id="freepik--background-complete--inject-14" transform="translate(0 0)">
    <rect id="Rectangle_3841" data-name="Rectangle 3841" width="848.14" height="0.424" transform="translate(0 555.362)" fill="#ebebeb"/>
    <rect id="Rectangle_3842" data-name="Rectangle 3842" width="27.242" height="0.424" transform="translate(88.987 571.51)" fill="#ebebeb"/>
    <rect id="Rectangle_3843" data-name="Rectangle 3843" width="90.802" height="0.424" transform="translate(290.301 566.913)" fill="#ebebeb"/>
    <rect id="Rectangle_3844" data-name="Rectangle 3844" width="61.49" height="0.424" transform="translate(117.925 587.269)" fill="#ebebeb"/>
    <rect id="Rectangle_3845" data-name="Rectangle 3845" width="73.262" height="0.424" transform="translate(643.127 566.693)" fill="#ebebeb"/>
    <rect id="Rectangle_3846" data-name="Rectangle 3846" width="10.737" height="0.424" transform="translate(731.503 566.693)" fill="#ebebeb"/>
    <rect id="Rectangle_3847" data-name="Rectangle 3847" width="91.412" height="0.424" transform="translate(537.721 577.261)" fill="#ebebeb"/>
    <path id="Path_18263" data-name="Path 18263" d="M375.413,534.708H47.879a9.686,9.686,0,0,1-9.669-9.686V64.6A9.686,9.686,0,0,1,47.879,55H375.413a9.686,9.686,0,0,1,9.686,9.686V525.022A9.686,9.686,0,0,1,375.413,534.708ZM47.879,55.339A9.262,9.262,0,0,0,38.634,64.6V525.022a9.262,9.262,0,0,0,9.245,9.262H375.413a9.279,9.279,0,0,0,9.262-9.262V64.6a9.279,9.279,0,0,0-9.262-9.262Z" transform="translate(26.605 -55)" fill="#ebebeb"/>
    <path id="Path_18264" data-name="Path 18264" d="M591.737,534.708H264.186a9.7,9.7,0,0,1-9.686-9.686V64.6a9.7,9.7,0,0,1,9.686-9.6H591.737a9.686,9.686,0,0,1,9.652,9.6V525.022A9.686,9.686,0,0,1,591.737,534.708ZM264.186,55.339a9.279,9.279,0,0,0-9.262,9.262V525.022a9.279,9.279,0,0,0,9.262,9.262H591.737A9.279,9.279,0,0,0,601,525.022V64.6a9.279,9.279,0,0,0-9.262-9.262Z" transform="translate(177.203 -55)" fill="#ebebeb"/>
    <rect id="Rectangle_3848" data-name="Rectangle 3848" width="11.263" height="141.792" transform="translate(661.057 413.57)" fill="#f5f6fa"/>
    <rect id="Rectangle_3849" data-name="Rectangle 3849" width="9.804" height="141.792" transform="translate(667.418 413.57)" fill="#e8eaf2"/>
    <rect id="Rectangle_3850" data-name="Rectangle 3850" width="11.263" height="141.792" transform="translate(398.337 413.57)" fill="#f5f6fa"/>
    <rect id="Rectangle_3851" data-name="Rectangle 3851" width="9.804" height="141.792" transform="translate(404.698 413.57)" fill="#e8eaf2"/>
    <rect id="Rectangle_3852" data-name="Rectangle 3852" width="11.263" height="141.792" transform="translate(703.752 413.57)" fill="#f5f6fa"/>
    <rect id="Rectangle_3853" data-name="Rectangle 3853" width="9.804" height="141.792" transform="translate(710.113 413.57)" fill="#e8eaf2"/>
    <rect id="Rectangle_3854" data-name="Rectangle 3854" width="11.263" height="141.792" transform="translate(441.033 413.57)" fill="#f5f6fa"/>
    <rect id="Rectangle_3855" data-name="Rectangle 3855" width="321.564" height="5.377" transform="translate(719.918 416.25) rotate(180)" fill="#e8eaf2"/>
    <rect id="Rectangle_3856" data-name="Rectangle 3856" width="49.056" height="5.377" transform="translate(447.394 416.25) rotate(180)" fill="#e8eaf2"/>
    <rect id="Rectangle_3857" data-name="Rectangle 3857" width="9.804" height="141.792" transform="translate(447.394 413.57)" fill="#e8eaf2"/>
    <rect id="Rectangle_3858" data-name="Rectangle 3858" width="30.414" height="103.269" transform="translate(528.747 307.603)" fill="#ebebeb"/>
    <path id="Path_18265" data-name="Path 18265" d="M425.962,346.83H325L309.75,225.97H410.712Z" transform="translate(215.673 64.043)" fill="#e0e0e0"/>
    <path id="Path_18266" data-name="Path 18266" d="M430.827,346.83H326.54L311.29,225.97H415.577Z" transform="translate(216.745 64.043)" fill="#f0f0f0"/>
    <path id="Path_18267" data-name="Path 18267" d="M355.577,346.83H335.34l5.7-120.86h20.237Z" transform="translate(233.49 64.043)" fill="#fafafa"/>
    <path id="Path_18268" data-name="Path 18268" d="M369.114,346.83H349.2l5.7-120.86h19.914Z" transform="translate(243.141 64.043)" fill="#fafafa"/>
    <rect id="Rectangle_3859" data-name="Rectangle 3859" width="262.296" height="205.233" transform="translate(468.716 29.702)" fill="#e8eaf2"/>
    <rect id="Rectangle_3860" data-name="Rectangle 3860" width="266.485" height="205.233" transform="translate(472.397 29.702)" fill="#f5f6fa"/>
    <rect id="Rectangle_3861" data-name="Rectangle 3861" width="262.296" height="6.87" transform="translate(468.716 234.935)" fill="#e8eaf2"/>
    <rect id="Rectangle_3862" data-name="Rectangle 3862" width="266.485" height="6.87" transform="translate(476.587 234.935)" fill="#f5f6fa"/>
    <rect id="Rectangle_3863" data-name="Rectangle 3863" width="183.198" height="244.451" transform="translate(727.873 40.711) rotate(90)" fill="#fafafa"/>
    <path id="Path_18269" data-name="Path 18269" d="M363.85,262.191,381.491,79.01h30.533L394.383,262.191Z" transform="translate(253.341 -38.282)" fill="#fff"/>
    <path id="Path_18270" data-name="Path 18270" d="M318.43,262.191,336.071,79.01H366.6L348.963,262.191Z" transform="translate(221.716 -38.282)" fill="#fff"/>
    <path id="Path_18271" data-name="Path 18271" d="M288.341,197.517a.848.848,0,0,1-.831-.848V83.578a.848.848,0,1,1,1.7,0V196.669a.848.848,0,0,1-.865.848Z" transform="translate(200.187 -35.692)" fill="#f0f0f0"/>
    <path id="Path_18272" data-name="Path 18272" d="M385.71,262.191,403.351,79.01h11.908L397.618,262.191Z" transform="translate(268.562 -38.282)" fill="#fff"/>
    <rect id="Rectangle_3864" data-name="Rectangle 3864" width="183.198" height="1.391" transform="translate(727.873 40.728) rotate(90)" fill="#e6e6e6"/>
    <path id="Path_18273" data-name="Path 18273" d="M545.213,97.221h-262.3L281.9,81.53H544.2Z" transform="translate(196.281 -36.528)" fill="#f5f6fa" opacity="0.5"/>
    <path id="Path_18274" data-name="Path 18274" d="M545.213,112.431h-262.3L281.9,96.74H544.2Z" transform="translate(196.281 -25.937)" fill="#f5f6fa" opacity="0.5"/>
    <path id="Path_18275" data-name="Path 18275" d="M545.213,127.641h-262.3L281.9,111.95H544.2Z" transform="translate(196.281 -15.347)" fill="#f5f6fa" opacity="0.5"/>
    <path id="Path_18276" data-name="Path 18276" d="M545.213,142.851h-262.3L281.9,127.16H544.2Z" transform="translate(196.281 -4.756)" fill="#f5f6fa" opacity="0.5"/>
    <path id="Path_18277" data-name="Path 18277" d="M545.213,158.051h-262.3L281.9,142.36H544.2Z" transform="translate(196.281 5.827)" fill="#f5f6fa" opacity="0.5"/>
    <path id="Path_18278" data-name="Path 18278" d="M545.213,173.261h-262.3L281.9,157.57H544.2Z" transform="translate(196.281 16.417)" fill="#f5f6fa" opacity="0.5"/>
    <path id="Path_18279" data-name="Path 18279" d="M545.213,104.831h-262.3L281.9,89.14H544.2Z" transform="translate(196.281 -31.229)" fill="#f5f6fa" opacity="0.5"/>
    <path id="Path_18280" data-name="Path 18280" d="M545.213,120.031h-262.3L281.9,104.34H544.2Z" transform="translate(196.281 -20.646)" fill="#f5f6fa" opacity="0.5"/>
    <path id="Path_18281" data-name="Path 18281" d="M545.213,135.241h-262.3L281.9,119.55H544.2Z" transform="translate(196.281 -10.055)" fill="#f5f6fa" opacity="0.5"/>
    <path id="Path_18282" data-name="Path 18282" d="M545.213,150.451h-262.3L281.9,134.76H544.2Z" transform="translate(196.281 0.535)" fill="#f5f6fa" opacity="0.5"/>
    <path id="Path_18283" data-name="Path 18283" d="M545.213,165.661h-262.3L281.9,149.97H544.2Z" transform="translate(196.281 11.126)" fill="#f5f6fa" opacity="0.5"/>
    <path id="Path_18284" data-name="Path 18284" d="M545.213,180.878h-262.3L281.9,165.17H544.2Z" transform="translate(196.281 21.709)" fill="#f5f6fa" opacity="0.5"/>
    <rect id="Rectangle_3865" data-name="Rectangle 3865" width="51.957" height="30.024" rx="4.82" transform="translate(212.052 131.563) rotate(180)" fill="#e8eaf2"/>
    <rect id="Rectangle_3866" data-name="Rectangle 3866" width="51.957" height="30.024" rx="4.82" transform="translate(212.052 101.522) rotate(180)" fill="#e8eaf2"/>
    <rect id="Rectangle_3867" data-name="Rectangle 3867" width="17.998" height="10.398" rx="1.67" transform="translate(195.072 71.498) rotate(180)" fill="#e8eaf2"/>
    <rect id="Rectangle_3868" data-name="Rectangle 3868" width="51.957" height="30.024" rx="4.82" transform="translate(212.052 161.571) rotate(180)" fill="#e8eaf2"/>
    <path id="Path_18285" data-name="Path 18285" d="M266.076,138s-1.7,20.864-67.665,20.864S130.73,138,130.73,138Z" transform="translate(91.025 2.791)" fill="#e8eaf2"/>
    <rect id="Rectangle_3869" data-name="Rectangle 3869" width="52.279" height="370.179" transform="translate(102.489 165.811)" fill="#f5f6fa"/>
    <rect id="Rectangle_3870" data-name="Rectangle 3870" width="257.801" height="19.372" transform="translate(112.514 535.99)" fill="#e8eaf2"/>
    <rect id="Rectangle_3871" data-name="Rectangle 3871" width="225.588" height="370.179" transform="translate(380.357 535.973) rotate(180)" fill="#f5f6fa"/>
    <rect id="Rectangle_3872" data-name="Rectangle 3872" width="184.487" height="87.358" transform="translate(359.798 384.699) rotate(180)" fill="#f0f0f0"/>
    <rect id="Rectangle_3873" data-name="Rectangle 3873" width="184.487" height="87.358" transform="translate(359.798 491.548) rotate(180)" fill="#f5f6fa"/>
    <rect id="Rectangle_3874" data-name="Rectangle 3874" width="184.487" height="13.316" transform="translate(359.798 523.048) rotate(180)" fill="#e8eaf2"/>
    <path id="Path_18286" data-name="Path 18286" d="M226.868,240.379H133.1a7.345,7.345,0,0,1-7.328-7.328h0a7.345,7.345,0,0,1,7.328-7.311h93.77a7.345,7.345,0,0,1,7.328,7.311h0A7.345,7.345,0,0,1,226.868,240.379Z" transform="translate(87.571 63.883)" fill="#f5f5f5"/>
    <rect id="Rectangle_3875" data-name="Rectangle 3875" width="184.487" height="87.358" transform="translate(359.798 277.867) rotate(180)" fill="#e8eaf2"/>
    <path id="Path_18287" data-name="Path 18287" d="M226.868,177.406H133.1a7.345,7.345,0,0,1-7.328-7.328h0a7.345,7.345,0,0,1,7.328-7.328h93.77a7.345,7.345,0,0,1,7.328,7.328h0A7.345,7.345,0,0,1,226.868,177.406Z" transform="translate(87.571 20.024)" fill="#f5f5f5"/>
    <path id="Path_18288" data-name="Path 18288" d="M226.868,303.376H133.1a7.345,7.345,0,0,1-7.328-7.328h0a7.345,7.345,0,0,1,7.328-7.328h93.77a7.345,7.345,0,0,1,7.328,7.328h0A7.345,7.345,0,0,1,226.868,303.376Z" transform="translate(87.571 107.734)" fill="#f5f5f5"/>
    <rect id="Rectangle_3876" data-name="Rectangle 3876" width="232.56" height="4.224" transform="translate(154.752 161.588)" fill="#f5f6fa"/>
    <rect id="Rectangle_3877" data-name="Rectangle 3877" width="59.573" height="4.224" transform="translate(154.769 165.811) rotate(180)" fill="#f5f6fa"/>
  </g>
  <g id="freepik--Shadow--inject-14" transform="translate(95.178 593.562)">
    <ellipse id="freepik--path--inject-14" cx="328.892" cy="19.202" rx="328.892" ry="19.202" fill="#f5f6fa"/>
  </g>
  <g id="freepik--Table--inject-14" transform="translate(86.273 433.247)">
    <path id="Path_18289" data-name="Path 18289" d="M714.444,321.775H62.87L50.86,310.41H726.454Z" transform="translate(-50.86 -310.41)" fill="url(#linear-gradient)"/>
    <path id="Path_18290" data-name="Path 18290" d="M714.444,321.775H62.87L50.86,310.41H726.454Z" transform="translate(-50.86 -310.41)" fill="#fff" opacity="0.5"/>
    <path id="Path_18291" data-name="Path 18291" d="M634.791,323.234H94.967L85.01,317.11H644.748Z" transform="translate(-27.082 -305.745)" fill="url(#linear-gradient)"/>
    <path id="Path_18292" data-name="Path 18292" d="M634.791,323.234H94.967L85.01,317.11H644.748Z" transform="translate(-27.082 -305.745)" opacity="0.5"/>
    <path id="Path_18293" data-name="Path 18293" d="M91.542,482.749H83.79L107.826,320.72h17.285Z" transform="translate(-27.932 -303.231)" fill="url(#linear-gradient)"/>
    <path id="Path_18294" data-name="Path 18294" d="M91.542,482.749H83.79L107.826,320.72h17.285Z" transform="translate(-27.932 -303.231)" opacity="0.5"/>
    <path id="Path_18295" data-name="Path 18295" d="M116.275,482.749H108.54L132.576,320.72h17.285Z" transform="translate(-10.699 -303.231)" fill="url(#linear-gradient)"/>
    <path id="Path_18296" data-name="Path 18296" d="M116.275,482.749H108.54L132.576,320.72h17.285Z" transform="translate(-10.699 -303.231)" opacity="0.5"/>
    <path id="Path_18297" data-name="Path 18297" d="M425.419,482.749h7.752L409.135,320.72H391.85Z" transform="translate(186.564 -303.231)" fill="url(#linear-gradient)"/>
    <path id="Path_18298" data-name="Path 18298" d="M425.419,482.749h7.752L409.135,320.72H391.85Z" transform="translate(186.564 -303.231)" opacity="0.5"/>
    <path id="Path_18299" data-name="Path 18299" d="M400.686,482.749h7.735L384.385,320.72H367.1Z" transform="translate(169.331 -303.231)" fill="url(#linear-gradient)"/>
    <path id="Path_18300" data-name="Path 18300" d="M400.686,482.749h7.735L384.385,320.72H367.1Z" transform="translate(169.331 -303.231)" opacity="0.5"/>
  </g>
  <g id="freepik--Gear--inject-14" transform="translate(315.429 68.08)">
    <path id="Path_18301" data-name="Path 18301" d="M250.966,95.144l21.9,1.476a4.665,4.665,0,0,1,3.969,2.748l2.307,5.089a4.682,4.682,0,0,0,2.527,2.409,63.351,63.351,0,0,1,7.973,3.952,4.716,4.716,0,0,0,3.393.543l5.5-1.289a4.716,4.716,0,0,1,4.6,1.476l14.452,16.522a4.7,4.7,0,0,1,.848,4.767l-2,5.258a4.7,4.7,0,0,0,.085,3.494,63.947,63.947,0,0,1,2.85,8.481,4.614,4.614,0,0,0,2.052,2.816l4.784,2.968a4.665,4.665,0,0,1,2.205,4.292l-1.459,21.916a4.648,4.648,0,0,1-2.765,3.952l-5.089,2.307a4.8,4.8,0,0,0-2.409,2.527,61.075,61.075,0,0,1-3.935,7.973,4.665,4.665,0,0,0-.543,3.393l1.272,5.479a4.665,4.665,0,0,1-1.476,4.6l-16.522,14.452a4.665,4.665,0,0,1-4.75.848l-5.275-2a4.733,4.733,0,0,0-3.477,0,65.682,65.682,0,0,1-8.481,2.85,4.682,4.682,0,0,0-2.816,2.053l-2.969,4.784a4.7,4.7,0,0,1-4.309,2.205l-21.9-1.459a4.7,4.7,0,0,1-3.969-2.748l-2.307-5.089a4.682,4.682,0,0,0-2.527-2.409,63.354,63.354,0,0,1-7.972-3.952,4.7,4.7,0,0,0-3.393-.543l-5.479,1.289a4.682,4.682,0,0,1-4.6-1.476L196.787,204.57a4.733,4.733,0,0,1-.848-4.767l2-5.258a4.648,4.648,0,0,0-.085-3.477,65.029,65.029,0,0,1-2.85-8.481,4.614,4.614,0,0,0-2.053-2.816L188.17,176.8a4.665,4.665,0,0,1-2.205-4.292l1.459-21.916a4.716,4.716,0,0,1,2.765-3.969l5.089-2.29a4.682,4.682,0,0,0,2.409-2.527,63.572,63.572,0,0,1,3.952-7.989,4.733,4.733,0,0,0,.56-3.393l-1.289-5.479a4.682,4.682,0,0,1,1.476-4.6L218.906,105.9a4.682,4.682,0,0,1,4.75-.865l5.275,2a4.648,4.648,0,0,0,3.477,0,63.15,63.15,0,0,1,8.481-2.85,4.766,4.766,0,0,0,2.816-2.036l2.969-4.784A4.716,4.716,0,0,1,250.966,95.144Zm-35.2,68.479a41.542,41.542,0,1,0,44.2-38.675A41.542,41.542,0,0,0,215.768,163.622Z" transform="translate(-185.953 -95.135)" fill="url(#linear-gradient)"/>
    <path id="Path_18302" data-name="Path 18302" d="M281.528,150.812l7.514-2.544a2.341,2.341,0,0,1,2.324.509l1.238,1.187a2.392,2.392,0,0,0,1.578.611,23.2,23.2,0,0,1,3.087.2,2.256,2.256,0,0,0,1.7-.407l1.391-1a2.341,2.341,0,0,1,2.375-.187l7.107,3.528a2.307,2.307,0,0,1,1.289,1.985v1.7a2.341,2.341,0,0,0,.678,1.561,22.161,22.161,0,0,1,2.036,2.324,2.358,2.358,0,0,0,1.442.882l1.7.271a2.29,2.29,0,0,1,1.8,1.544l2.544,7.515a2.29,2.29,0,0,1-.492,2.324l-1.187,1.238a2.357,2.357,0,0,0-.611,1.578,23.4,23.4,0,0,1-.2,3.087,2.273,2.273,0,0,0,.39,1.7l1,1.391a2.273,2.273,0,0,1,.2,2.358l-3.528,7.124a2.307,2.307,0,0,1-1.985,1.289h-1.7a2.256,2.256,0,0,0-1.544.678,29.775,29.775,0,0,1-2.324,2.036,2.358,2.358,0,0,0-.882,1.442l-.271,1.7a2.29,2.29,0,0,1-1.544,1.8l-7.514,2.544a2.29,2.29,0,0,1-2.324-.509l-1.255-1.17a2.239,2.239,0,0,0-1.578-.611,23.136,23.136,0,0,1-3.07-.2,2.256,2.256,0,0,0-1.7.39l-1.391,1a2.307,2.307,0,0,1-2.375.2l-7.107-3.528a2.307,2.307,0,0,1-1.289-2v-1.7a2.341,2.341,0,0,0-.678-1.544,24.05,24.05,0,0,1-2.036-2.324,2.2,2.2,0,0,0-1.442-.882l-1.7-.271a2.375,2.375,0,0,1-1.815-1.544l-2.544-7.531a2.307,2.307,0,0,1,.509-2.307L268.535,177a2.392,2.392,0,0,0,.611-1.595,23.4,23.4,0,0,1,.2-3.087,2.289,2.289,0,0,0-.407-1.7l-.984-1.391a2.273,2.273,0,0,1-.2-2.358l3.528-7.124a2.256,2.256,0,0,1,1.985-1.272h1.7a2.341,2.341,0,0,0,1.561-.678,24.057,24.057,0,0,1,2.324-2.036,2.358,2.358,0,0,0,.882-1.442l.271-1.7A2.29,2.29,0,0,1,281.528,150.812Zm4.5,27.446a8.481,8.481,0,1,0,.427-6.492A8.481,8.481,0,0,0,286.023,178.258Z" transform="translate(-129.717 -58.221)" fill="url(#linear-gradient)"/>
    <path id="Path_18303" data-name="Path 18303" d="M281.528,150.812l7.514-2.544a2.341,2.341,0,0,1,2.324.509l1.238,1.187a2.392,2.392,0,0,0,1.578.611,23.2,23.2,0,0,1,3.087.2,2.256,2.256,0,0,0,1.7-.407l1.391-1a2.341,2.341,0,0,1,2.375-.187l7.107,3.528a2.307,2.307,0,0,1,1.289,1.985v1.7a2.341,2.341,0,0,0,.678,1.561,22.161,22.161,0,0,1,2.036,2.324,2.358,2.358,0,0,0,1.442.882l1.7.271a2.29,2.29,0,0,1,1.8,1.544l2.544,7.515a2.29,2.29,0,0,1-.492,2.324l-1.187,1.238a2.357,2.357,0,0,0-.611,1.578,23.4,23.4,0,0,1-.2,3.087,2.273,2.273,0,0,0,.39,1.7l1,1.391a2.273,2.273,0,0,1,.2,2.358l-3.528,7.124a2.307,2.307,0,0,1-1.985,1.289h-1.7a2.256,2.256,0,0,0-1.544.678,29.775,29.775,0,0,1-2.324,2.036,2.358,2.358,0,0,0-.882,1.442l-.271,1.7a2.29,2.29,0,0,1-1.544,1.8l-7.514,2.544a2.29,2.29,0,0,1-2.324-.509l-1.255-1.17a2.239,2.239,0,0,0-1.578-.611,23.136,23.136,0,0,1-3.07-.2,2.256,2.256,0,0,0-1.7.39l-1.391,1a2.307,2.307,0,0,1-2.375.2l-7.107-3.528a2.307,2.307,0,0,1-1.289-2v-1.7a2.341,2.341,0,0,0-.678-1.544,24.05,24.05,0,0,1-2.036-2.324,2.2,2.2,0,0,0-1.442-.882l-1.7-.271a2.375,2.375,0,0,1-1.815-1.544l-2.544-7.531a2.307,2.307,0,0,1,.509-2.307L268.535,177a2.392,2.392,0,0,0,.611-1.595,23.4,23.4,0,0,1,.2-3.087,2.289,2.289,0,0,0-.407-1.7l-.984-1.391a2.273,2.273,0,0,1-.2-2.358l3.528-7.124a2.256,2.256,0,0,1,1.985-1.272h1.7a2.341,2.341,0,0,0,1.561-.678,24.057,24.057,0,0,1,2.324-2.036,2.358,2.358,0,0,0,.882-1.442l.271-1.7A2.29,2.29,0,0,1,281.528,150.812Zm4.5,27.446a8.481,8.481,0,1,0,.427-6.492A8.481,8.481,0,0,0,286.023,178.258Z" transform="translate(-129.717 -58.221)" fill="#fff" opacity="0.5"/>
    <path id="Path_18304" data-name="Path 18304" d="M256.737,206.826l9.33-16.166a3.986,3.986,0,0,0-3.393-5.971H244.015a3.969,3.969,0,0,0-3.393,5.971l9.33,16.166a3.986,3.986,0,0,0,6.785,0Z" transform="translate(-148.266 -32.78)" fill="url(#linear-gradient)"/>
  </g>
  <g id="freepik--character-1--inject-14" transform="translate(106.555 131.139)">
    <path id="Path_18305" data-name="Path 18305" d="M74.475,378.492H303.151A5.835,5.835,0,0,0,309,372.453l-5.411-163.487a6.344,6.344,0,0,0-6.259-6.056H68.674a5.818,5.818,0,0,0-5.852,6.056l5.394,163.487A6.293,6.293,0,0,0,74.475,378.492Z" transform="translate(-62.817 -83.153)" fill="url(#linear-gradient)"/>
    <path id="Path_18306" data-name="Path 18306" d="M75.575,378.492H304.251a5.835,5.835,0,0,0,5.852-6.039l-5.411-163.487a6.344,6.344,0,0,0-6.259-6.056H69.774a5.835,5.835,0,0,0-5.852,6.056l5.411,163.487a6.293,6.293,0,0,0,6.242,6.039Z" transform="translate(-62.051 -83.153)" fill="url(#linear-gradient)"/>
    <g id="Group_21856" data-name="Group 21856" transform="translate(1.867 119.757)" opacity="0.6">
      <path id="Path_18307" data-name="Path 18307" d="M75.575,378.492H304.251a5.835,5.835,0,0,0,5.852-6.039l-5.411-163.487a6.344,6.344,0,0,0-6.259-6.056H69.774a5.835,5.835,0,0,0-5.852,6.056l5.411,163.487a6.293,6.293,0,0,0,6.242,6.039Z" transform="translate(-63.918 -202.91)" fill="#263238"/>
    </g>
    <path id="Path_18308" data-name="Path 18308" d="M75.294,306.25H351.466a7.243,7.243,0,0,1,6.514,4.071,2.086,2.086,0,0,1-1.9,2.985H70.68a2.086,2.086,0,0,1-1.917-2.985A7.26,7.26,0,0,1,75.294,306.25Z" transform="translate(-58.819 -11.199)" fill="url(#linear-gradient)"/>
    <path id="Path_18309" data-name="Path 18309" d="M328.565,306.25H108.184a7.26,7.26,0,0,0-6.531,4.071,2.086,2.086,0,0,0,1.917,2.985H333.179a2.086,2.086,0,0,0,1.9-2.985,7.243,7.243,0,0,0-6.514-4.071Z" transform="translate(-35.918 -11.199)" fill="#263238" opacity="0.6"/>
    <path id="Path_18310" data-name="Path 18310" d="M158.738,308.89h57.334a2.578,2.578,0,0,1,2.561,2.578H156.16A2.578,2.578,0,0,1,158.738,308.89Z" transform="translate(2.176 -9.361)" fill="#fff" opacity="0.3"/>
    <path id="Path_18311" data-name="Path 18311" d="M302.4,362.585,297.31,210.938a2.477,2.477,0,0,0-2.443-2.358H69.415a2.256,2.256,0,0,0-2.273,2.409l5.089,151.647a2.443,2.443,0,0,0,2.426,2.358H300.262a2.273,2.273,0,0,0,2.137-2.409Z" transform="translate(-59.809 -79.205)" fill="#fff" opacity="0.9"/>
    <path id="Path_18312" data-name="Path 18312" d="M109.023,364.943H77.93L113.772,208.58h31.093Z" transform="translate(-52.294 -79.205)" fill="#fff"/>
    <path id="Path_18313" data-name="Path 18313" d="M112.535,364.943h-11.2L137.182,208.58h11.2Z" transform="translate(-35.994 -79.205)" fill="#fff"/>
    <path id="Path_18314" data-name="Path 18314" d="M179.965,364.943h-11.2L204.612,208.58h11.178Z" transform="translate(10.956 -79.205)" fill="#fff"/>
    <path id="Path_18315" data-name="Path 18315" d="M133.82,206.6a1.866,1.866,0,0,0,1.832,1.7,1.7,1.7,0,0,0,1.7-1.7,1.832,1.832,0,0,0-1.832-1.7A1.7,1.7,0,0,0,133.82,206.6Z" transform="translate(-13.379 -81.767)" fill="#fff" opacity="0.4"/>
    <path id="Path_18316" data-name="Path 18316" d="M185.2,196.06c3,4.817,6.242,9.923,9.482,14.842s6.565,9.838,9.957,14.656a308.087,308.087,0,0,0,21.322,27.531A107.919,107.919,0,0,0,237.581,264.5l1.459,1.153a10.9,10.9,0,0,0,1,.763A27.326,27.326,0,0,0,242.771,268a51.015,51.015,0,0,0,7.09,2.816,82.758,82.758,0,0,0,8.006,2.324c2.748.628,5.581,1.357,8.481,1.951,5.683,1.2,11.62,2.307,17.336,3.291v11.874c-3.257.475-6.31.712-9.482.933s-6.31.305-9.5.322a118.111,118.111,0,0,1-19.439-1.544A71.56,71.56,0,0,1,235,287.388a40.078,40.078,0,0,1-5.462-2.341,24.35,24.35,0,0,1-2.867-1.7l-2.188-1.527a117.753,117.753,0,0,1-15.1-13.214,270.169,270.169,0,0,1-24.24-29.142q-5.513-7.549-10.619-15.267c-3.393-5.225-6.785-10.347-9.94-15.911Z" transform="translate(8.045 -87.922)" fill="#ffc3bd"/>
    <path id="Path_18317" data-name="Path 18317" d="M159.934,204.054c-1.7,14.893,33.807,50.481,33.807,50.481l24.019-20.05A325.89,325.89,0,0,0,194.436,200.2C180.781,183.292,161.783,187.21,159.934,204.054Z" transform="translate(4.762 -92.626)" fill="url(#linear-gradient)"/>
    <path id="Path_18318" data-name="Path 18318" d="M179.343,208.57c-9.482-10.178-14.011-12.807-19.473-8.753C160.6,215.542,193.8,248.45,193.8,248.45,195.967,231.572,187.367,220.716,179.343,208.57Z" transform="translate(4.759 -86.574)" opacity="0.3"/>
    <path id="Path_18319" data-name="Path 18319" d="M205.021,211.89l2.527,7.328L180.679,241.27l-5.309-5.513Z" transform="translate(15.551 -76.9)" fill="url(#linear-gradient)"/>
    <path id="Path_18320" data-name="Path 18320" d="M205.021,211.89l2.527,7.328L180.679,241.27l-5.309-5.513Z" transform="translate(15.551 -76.9)" fill="#263238" opacity="0.3"/>
    <path id="Path_18321" data-name="Path 18321" d="M237.371,244.45l18.659,3.206-10.263,16.386c-2.443.39-12.179-4.885-16.488-11.433Z" transform="translate(53.088 -54.229)" fill="#ffc3bd"/>
    <path id="Path_18322" data-name="Path 18322" d="M260.719,257.4l-7.447,8.447-14.283-3.206,10.245-16.3Z" transform="translate(59.848 -52.913)" fill="#ffc3bd"/>
    <path id="Path_18323" data-name="Path 18323" d="M207.771,191.608s20.355,47.869,5.7,137.025H128.657c-1.035-13.01,4.936-76.5-9.737-137.84a217.028,217.028,0,0,1,28.277-3.579,311.419,311.419,0,0,1,36.046,0A161.373,161.373,0,0,1,207.771,191.608Z" transform="translate(-23.754 -94.445)" fill="url(#linear-gradient)"/>
    <path id="Path_18324" data-name="Path 18324" d="M137.3,201.834c1.7,10.178-.577,34.231-9.228,62.152a404.829,404.829,0,0,0-8.329-71.244v-.119C125.27,192.165,135.617,192.437,137.3,201.834Z" transform="translate(-23.183 -90.405)" opacity="0.3"/>
    <path id="Path_18325" data-name="Path 18325" d="M137.744,163.07c2.68,11.6,5.683,32.857-2.154,40.592,0,0,3.393,9.6,24.935,9.6,23.748,0,11.111-9.6,11.111-9.6-13.044-3.087-13.044-12.688-11.111-21.7Z" transform="translate(-12.147 -110.892)" fill="#ffc3bd"/>
    <path id="Path_18326" data-name="Path 18326" d="M153.921,193.339l5.089,5.377a1.086,1.086,0,0,1,.2,1.221l-2.544,5.309a1.069,1.069,0,0,1-.933.628l-3.851.187a1.069,1.069,0,0,1-.933-.475l-3.562-5.089a1.1,1.1,0,0,1,0-1.323l4.885-5.784a1.069,1.069,0,0,1,1.645-.051Z" transform="translate(-4.084 -90.069)" fill="#fff"/>
    <path id="Path_18327" data-name="Path 18327" d="M163.154,198.495a27.632,27.632,0,0,0-4.122,13.061s-27.531-9.414-26.275-23.188a54.533,54.533,0,0,0,7.04-4.088S140.7,192.982,163.154,198.495Z" transform="translate(-14.148 -96.124)" fill="#263238"/>
    <path id="Path_18328" data-name="Path 18328" d="M150.66,197.478a37.573,37.573,0,0,1,5.208,12.23s12.756-8.736,9.126-22.357l-7.5-1.611S159.074,194.527,150.66,197.478Z" transform="translate(-1.654 -95.108)" fill="#263238"/>
    <path id="Path_18329" data-name="Path 18329" d="M154.562,200.5c1.7,5.632,14.486,47.394,14.809,57.385a1.288,1.288,0,0,1,0,.254c-1.187,5.377-6.514,14.809-8.685,18.506a.9.9,0,0,1-1.612-.1c-1.493-3.647-5.089-12.383-7.464-17.489a1.034,1.034,0,0,1-.085-.305c-1.12-18.235-1.425-46.6-1.985-57.928a.9.9,0,0,1,.9-.95h3.274A.9.9,0,0,1,154.562,200.5Z" transform="translate(-2.434 -85.269)" fill="#fff"/>
    <path id="Path_18330" data-name="Path 18330" d="M142.471,167.61l13.485,11.178a36.487,36.487,0,0,0-.9,6.395c-4.97-.712-11.874-6.124-12.637-11.3A16.962,16.962,0,0,1,142.471,167.61Z" transform="translate(-7.578 -107.731)" opacity="0.2"/>
    <path id="Path_18331" data-name="Path 18331" d="M158.423,143.126c3.206,2.392,8.685,12.5,1.7,15.148S150.569,137.256,158.423,143.126Z" transform="translate(0.388 -125.433)" fill="#263238"/>
    <path id="Path_18332" data-name="Path 18332" d="M134.611,165.27c3.206,15.453,4.309,24.63,13.35,31.737a20.508,20.508,0,0,0,33.315-14.469c1.323-14.334-4.173-37.182-20.355-41.695a20.746,20.746,0,0,0-26.309,24.426Z" transform="translate(-13.187 -127.002)" fill="#ffc3bd"/>
    <path id="Path_18333" data-name="Path 18333" d="M145.107,182.215l6.48-4.326.424-3.766a28.056,28.056,0,0,0-2.935-15.86h0s31.5,1.17,35.4-8.685-7.192-17.268-7.192-17.268-11.145,6.395-18.659,6.9-30.533-8.888-30.533,10.568c-10.178,3.138-9.838,19.88,16.963,32.433" transform="translate(-21.664 -132.31)" fill="#263238"/>
    <path id="Path_18334" data-name="Path 18334" d="M128.073,148.568S123.9,145.26,127,135.15C123.188,137.05,121.356,147.38,128.073,148.568Z" transform="translate(-20.507 -130.333)" fill="#263238"/>
    <path id="Path_18335" data-name="Path 18335" d="M132.482,170.007a15.691,15.691,0,0,0,10.178,5.513c5.258.56,6.785-4.292,4.512-8.753-2.1-4-7.362-9.126-12.213-7.616S129.344,166.191,132.482,170.007Z" transform="translate(-15.621 -113.809)" fill="#ffc3bd"/>
    <path id="Path_18336" data-name="Path 18336" d="M204.733,321.92h-54.2c-4.868-29.414-8.787-51.55-8.787-51.55h55.825S200.713,292.133,204.733,321.92Z" transform="translate(-7.858 -36.182)" fill="#263238"/>
    <path id="Path_18337" data-name="Path 18337" d="M126.757,321.92c-1.221-29.414-2.137-51.55-2.137-51.55h54.722s.271,22.408.39,51.55Z" transform="translate(-19.785 -36.182)" fill="#263238"/>
    <path id="Path_18338" data-name="Path 18338" d="M148.745,156.912c.187,1.272,1,2.222,1.832,2.137s1.357-1.2,1.17-2.46-1-2.222-1.832-2.137S148.559,155.639,148.745,156.912Z" transform="translate(-3.013 -116.896)" fill="#263238"/>
    <path id="Path_18339" data-name="Path 18339" d="M157.215,156.012c.187,1.272,1,2.222,1.832,2.12s1.357-1.187,1.17-2.443-1-2.222-1.832-2.137S157.029,154.689,157.215,156.012Z" transform="translate(2.884 -117.523)" fill="#263238"/>
    <path id="Path_18340" data-name="Path 18340" d="M154.56,155.64a48.038,48.038,0,0,0,7.633,10.178c-1.934,2.341-5.9,1.8-5.9,1.8Z" transform="translate(1.062 -116.066)" fill="#ed847e"/>
    <path id="Path_18341" data-name="Path 18341" d="M154.976,166.6a12.438,12.438,0,0,0,2.629,0,.373.373,0,0,0,.339-.407.39.39,0,0,0-.424-.339,10.517,10.517,0,0,1-8.787-3.019.379.379,0,1,0-.577.492A10.924,10.924,0,0,0,154.976,166.6Z" transform="translate(-3.46 -111.149)" fill="#263238"/>
    <path id="Path_18342" data-name="Path 18342" d="M145.949,155.459a.729.729,0,0,0,.729-.373,5.683,5.683,0,0,1,4.41-2.985.763.763,0,0,0,.712-.8.746.746,0,0,0-.78-.712,7.243,7.243,0,0,0-5.649,3.749.746.746,0,0,0,.288,1.035A.577.577,0,0,0,145.949,155.459Z" transform="translate(-5.407 -119.582)" fill="#263238"/>
    <path id="Path_18343" data-name="Path 18343" d="M162.835,153.62a.8.8,0,0,0,.509-.136.763.763,0,0,0,.2-1.035,7.735,7.735,0,0,0-5.954-3.579.746.746,0,1,0-.017,1.493,6.242,6.242,0,0,1,4.715,2.918.8.8,0,0,0,.543.339Z" transform="translate(2.642 -120.78)" fill="#263238"/>
    <path id="Path_18344" data-name="Path 18344" d="M147.932,208.493l-3.766,6.514q-1.9,3.393-3.715,6.785-3.664,6.785-7.023,13.672c-2.205,4.6-4.309,9.211-6.191,13.859-.9,2.307-1.815,4.631-2.6,6.955l-1.2,3.477-1,3.393-.254.865-.136.441v.1a.573.573,0,0,1-.119.373,9.65,9.65,0,0,0,0,2,29.414,29.414,0,0,0,1.255,5.937,104.032,104.032,0,0,0,5.428,13.57c4.292,9.211,9.516,18.506,14.656,27.582l-9.38,7.328c-4-4.02-7.6-8.108-11.128-12.417s-6.785-8.787-9.991-13.57a102.12,102.12,0,0,1-8.481-15.419,50.275,50.275,0,0,1-3.121-9.533,29.38,29.38,0,0,1-.645-6.022,21.206,21.206,0,0,1,.271-3.63l.136-.882.119-.543.221-1.1a128.525,128.525,0,0,1,4.461-16.963c1.8-5.462,3.9-10.72,6.141-15.911s4.7-10.178,7.328-15.165c1.323-2.46,2.663-4.9,4.071-7.345s2.8-4.75,4.478-7.345Z" transform="translate(-36.566 -88.312)" fill="#ffc3bd"/>
    <path id="Path_18345" data-name="Path 18345" d="M131.372,189.229c-14.927,2.188-30.313,54.162-30.313,54.162l32.128,17.794s13.01-24.732,19.219-43.085C158.9,198.864,147.368,186.889,131.372,189.229Z" transform="translate(-36.189 -92.881)" fill="url(#linear-gradient)"/>
    <path id="Path_18346" data-name="Path 18346" d="M102.007,216.72l-1.357,7.633,33.01,18.167,4.393-6.293Z" transform="translate(-36.475 -73.537)" fill="url(#linear-gradient)"/>
    <path id="Path_18347" data-name="Path 18347" d="M102.007,216.72l-1.357,7.633,33.01,18.167,4.393-6.293Z" transform="translate(-36.475 -73.537)" fill="#263238" opacity="0.3"/>
    <path id="Path_18348" data-name="Path 18348" d="M125.7,264.418l15.775-2.748-8.091,18.269s-14.418-.085-13.757-7.514Z" transform="translate(-23.276 -42.239)" fill="#ffc3bd"/>
    <path id="Path_18349" data-name="Path 18349" d="M147.61,270.847l-7.43,14.758-12.451-5.666,8.091-18.269Z" transform="translate(-17.62 -42.239)" fill="#ffc3bd"/>
  </g>
  <g id="freepik--character-2--inject-14" transform="translate(406.632 133.599)">
    <path id="Path_18350" data-name="Path 18350" d="M526.579,378.492H297.9a5.835,5.835,0,0,1-5.852-6.039l5.411-163.487a6.344,6.344,0,0,1,6.259-6.056H532.38a5.818,5.818,0,0,1,5.852,6.056l-5.394,163.487A6.293,6.293,0,0,1,526.579,378.492Z" transform="translate(-203.285 -85.612)" fill="url(#linear-gradient)"/>
    <path id="Path_18351" data-name="Path 18351" d="M526.579,378.492H297.9a5.835,5.835,0,0,1-5.852-6.039l5.411-163.487a6.344,6.344,0,0,1,6.259-6.056H532.38a5.818,5.818,0,0,1,5.852,6.056l-5.394,163.487A6.293,6.293,0,0,1,526.579,378.492Z" transform="translate(-203.285 -85.612)" fill="#263238" opacity="0.6"/>
    <path id="Path_18352" data-name="Path 18352" d="M525.479,378.492H296.8a5.835,5.835,0,0,1-5.852-6.039l5.411-163.487a6.344,6.344,0,0,1,6.259-6.056H531.28a5.835,5.835,0,0,1,5.852,6.056l-5.411,163.487A6.293,6.293,0,0,1,525.479,378.492Z" transform="translate(-204.051 -85.612)" fill="url(#linear-gradient)"/>
    <path id="Path_18353" data-name="Path 18353" d="M543.589,306.25H267.417a7.243,7.243,0,0,0-6.514,4.071,2.086,2.086,0,0,0,1.9,2.985H548.2a2.086,2.086,0,0,0,1.917-2.985,7.26,7.26,0,0,0-6.531-4.071Z" transform="translate(-225.112 -13.658)" fill="url(#linear-gradient)"/>
    <path id="Path_18354" data-name="Path 18354" d="M447.641,306.25H405.234a7.26,7.26,0,0,0-6.531,4.071,2.086,2.086,0,0,0,1.917,2.985h51.55a2.086,2.086,0,0,0,1.917-2.985A7.26,7.26,0,0,0,447.641,306.25Z" transform="translate(-129.165 -13.658)" fill="#263238" opacity="0.6"/>
    <path id="Path_18355" data-name="Path 18355" d="M366.906,308.89H309.571a2.578,2.578,0,0,0-2.561,2.578h62.474a2.578,2.578,0,0,0-2.578-2.578Z" transform="translate(-192.867 -11.82)" opacity="0.2"/>
    <path id="Path_18356" data-name="Path 18356" d="M294.171,362.585l5.089-151.647a2.477,2.477,0,0,1,2.443-2.358H527.307a2.256,2.256,0,0,1,2.273,2.358l-5.089,151.647a2.442,2.442,0,0,1-2.425,2.358H296.461a2.273,2.273,0,0,1-2.29-2.358Z" transform="translate(-201.808 -81.664)" fill="#fff" opacity="0.9"/>
    <path id="Path_18357" data-name="Path 18357" d="M401.483,364.943H370.39L406.232,208.58h31.093Z" transform="translate(-148.737 -81.664)" fill="#fff"/>
    <path id="Path_18358" data-name="Path 18358" d="M313.725,364.943h-11.2L338.372,208.58h11.179Z" transform="translate(-195.987 -81.664)" fill="#fff"/>
    <path id="Path_18359" data-name="Path 18359" d="M408.345,364.943h-11.2L432.992,208.58h11.2Z" transform="translate(-130.105 -81.664)" fill="#fff"/>
    <path id="Path_18360" data-name="Path 18360" d="M367.628,206.6a1.866,1.866,0,0,1-1.832,1.7,1.7,1.7,0,0,1-1.7-1.7,1.832,1.832,0,0,1,1.832-1.7A1.7,1.7,0,0,1,367.628,206.6Z" transform="translate(-153.117 -84.226)" opacity="0.4"/>
    <path id="Path_18361" data-name="Path 18361" d="M371.743,163.07c-2.663,11.6-5.682,32.857,2.171,40.592,0,0-3.393,9.6-24.935,9.6-23.748,0-11.111-9.6-11.111-9.6,13.044-3.087,13.044-12.688,11.094-21.7Z" transform="translate(-173.72 -113.352)" fill="#b55b52"/>
    <path id="Path_18362" data-name="Path 18362" d="M385.1,195.56c1.7,2.6,3.087,4.868,4.478,7.345s2.765,4.885,4.088,7.345c2.612,4.953,5.089,9.991,7.328,15.165s4.342,10.449,6.124,15.911a128.539,128.539,0,0,1,4.478,16.963l.221,1.1.1.543.153.882a25.3,25.3,0,0,1,.271,3.63,31.959,31.959,0,0,1-.645,6.022A50.251,50.251,0,0,1,408.562,280a100.59,100.59,0,0,1-8.482,15.419c-3.155,4.733-6.48,9.211-10.008,13.57a165.927,165.927,0,0,1-11.128,12.417l-9.364-7.328c5.089-9.075,10.364-18.371,14.656-27.581a103.86,103.86,0,0,0,5.411-13.57,29.409,29.409,0,0,0,1.255-5.937,8.784,8.784,0,0,0,0-2c0-.187,0-.356-.136-.373v-.1l-.119-.441-.254-.865-1.018-3.393-1.187-3.477c-.8-2.324-1.7-4.648-2.612-6.955-1.883-4.648-3.986-9.262-6.174-13.859s-4.6-9.143-7.023-13.672q-1.8-3.393-3.715-6.785l-3.766-6.5Z" transform="translate(-152.56 -90.73)" fill="#b65b52"/>
    <path id="Path_18363" data-name="Path 18363" d="M383.792,189.229c14.927,2.188,30.3,54.162,30.3,54.162l-32.11,17.794s-13.028-24.647-19.219-43.085C356.244,198.864,367.847,186.889,383.792,189.229Z" transform="translate(-155.337 -95.34)" fill="#263238"/>
    <path id="Path_18364" data-name="Path 18364" d="M369.666,205.9l-2.426,22.221c2.426,5.343,4.8,10.178,6.649,13.994C374.585,233.21,374.568,218.724,369.666,205.9Z" transform="translate(-150.93 -83.53)" opacity="0.3"/>
    <path id="Path_18365" data-name="Path 18365" d="M406.659,216.72l1.374,7.633-33.01,18.167-4.393-6.293Z" transform="translate(-148.57 -75.996)" fill="url(#linear-gradient)"/>
    <path id="Path_18366" data-name="Path 18366" d="M406.659,216.72l1.374,7.633-33.01,18.167-4.393-6.293Z" transform="translate(-148.57 -75.996)" fill="#263238" opacity="0.3"/>
    <path id="Path_18367" data-name="Path 18367" d="M376.612,264.418,360.82,261.67l8.108,18.269s14.4-.085,13.74-7.514Z" transform="translate(-155.401 -44.698)" fill="#b55b52"/>
    <path id="Path_18368" data-name="Path 18368" d="M353.88,270.847l7.413,14.758,12.468-5.666-8.108-18.269Z" transform="translate(-160.233 -44.698)" fill="#b55b52"/>
    <path id="Path_18369" data-name="Path 18369" d="M326.515,191.608s-20.355,47.869-5.683,137.025h84.814c1.035-13.01-4.953-76.5,9.737-137.84a217.513,217.513,0,0,0-28.243-3.579,311.406,311.406,0,0,0-36.046,0,161.326,161.326,0,0,0-24.579,4.393Z" transform="translate(-186.945 -96.904)" fill="#263238"/>
    <path id="Path_18370" data-name="Path 18370" d="M317.423,215.749a288.108,288.108,0,0,0-1.883,32.314c11.535-7.515,15.64-24.749,17.268-37.233Z" transform="translate(-186.928 -80.097)" opacity="0.3"/>
    <path id="Path_18371" data-name="Path 18371" d="M377.673,208.3c-3.24,5.564-6.514,10.687-9.94,15.911s-6.938,10.3-10.619,15.266a270.347,270.347,0,0,1-24.257,29.142,118.725,118.725,0,0,1-15.08,13.214l-2.205,1.527c-.95.577-1.934,1.2-2.85,1.7a41.163,41.163,0,0,1-5.479,2.341,71.554,71.554,0,0,1-10.263,2.578,117.945,117.945,0,0,1-19.439,1.544,92.879,92.879,0,0,1-9.482-.322c-3.138-.322-6.242-.458-9.5-.933V278.39c5.716-.984,11.653-2.086,17.319-3.291q4.275-.891,8.481-1.951c2.8-.712,5.462-1.459,8.006-2.324a50.2,50.2,0,0,0,7.09-2.816,27.337,27.337,0,0,0,2.731-1.577c.424-.254.678-.526,1.018-.763l1.459-1.153a111.118,111.118,0,0,0,11.62-11.416,314.542,314.542,0,0,0,21.322-27.531c3.393-4.817,6.666-9.737,9.957-14.656s6.463-10.025,9.482-14.842Z" transform="translate(-226.602 -90.374)" fill="#b65b52"/>
    <path id="Path_18372" data-name="Path 18372" d="M357.132,204.052c1.7,14.893-31.517,51.024-31.517,51.024L299.34,234.517a324.352,324.352,0,0,1,23.307-34.282C336.285,183.29,355.249,187.208,357.132,204.052Z" transform="translate(-198.208 -95.083)" fill="#263238"/>
    <path id="Path_18373" data-name="Path 18373" d="M301.517,211.89l-2.528,7.328,26.852,22.052,5.326-5.513Z" transform="translate(-198.451 -79.359)" fill="url(#linear-gradient)"/>
    <path id="Path_18374" data-name="Path 18374" d="M301.517,211.89l-2.528,7.328,26.852,22.052,5.326-5.513Z" transform="translate(-198.451 -79.359)" fill="#263238" opacity="0.3"/>
    <path id="Path_18375" data-name="Path 18375" d="M266.323,244.63l-18.913.271,7.616,17.709c2.341.763,12.79-2.952,18.048-8.753Z" transform="translate(-234.366 -56.563)" fill="#b55b52"/>
    <path id="Path_18376" data-name="Path 18376" d="M239.72,253.967l10.33,12.96,10.33-4.444-7.616-17.692Z" transform="translate(-239.72 -56.452)" fill="#b55b52"/>
    <path id="Path_18377" data-name="Path 18377" d="M334.6,156.012c-.187,1.272-1,2.222-1.832,2.12s-1.357-1.187-1.187-2.443,1.018-2.222,1.849-2.137S334.789,154.689,334.6,156.012Z" transform="translate(-175.78 -119.982)" fill="#263238"/>
    <path id="Path_18378" data-name="Path 18378" d="M336.7,155.64a47.715,47.715,0,0,1-7.65,10.178c1.951,2.341,5.92,1.8,5.92,1.8Z" transform="translate(-177.521 -118.525)" fill="#a02724"/>
    <path id="Path_18379" data-name="Path 18379" d="M334.743,168.847c-2.833,0-5.394-4.088-5.852-9.313a11.4,11.4,0,0,1,1.968-8.261,3.189,3.189,0,0,1,2.375-1.153h0c2.833,0,5.394,4.071,5.852,9.3h0a11.365,11.365,0,0,1-1.934,8.278,3.257,3.257,0,0,1-2.375,1.153Zm-1.527-17.879h0a2.358,2.358,0,0,0-1.7.865,10.618,10.618,0,0,0-1.7,7.633c.407,4.631,2.7,8.481,5.089,8.481h0a2.375,2.375,0,0,0,1.7-.882,10.483,10.483,0,0,0,1.7-7.616C337.814,154.87,335.524,150.968,333.217,150.968Z" transform="translate(-177.719 -122.368)" fill="#263238"/>
    <path id="Path_18380" data-name="Path 18380" d="M338.465,153.62a.763.763,0,0,0,.712-1.17,7.735,7.735,0,0,0-5.954-3.579.746.746,0,1,0-.017,1.493,6.242,6.242,0,0,1,4.715,2.918A.8.8,0,0,0,338.465,153.62Z" transform="translate(-175.147 -123.239)" fill="#263238"/>
    <path id="Path_18381" data-name="Path 18381" d="M378.162,165.267C374.939,180.72,373.854,189.9,364.8,197a20.508,20.508,0,0,1-33.3-14.469c-1.323-14.334,4.156-37.182,20.355-41.695a20.763,20.763,0,0,1,26.309,24.426Z" transform="translate(-175.949 -129.458)" fill="#b55b52"/>
    <path id="Path_18382" data-name="Path 18382" d="M395.657,321.92a195.282,195.282,0,0,0-4.5-51.55H336.44a206.321,206.321,0,0,1,6.259,51.55Z" transform="translate(-172.376 -38.641)" fill="url(#linear-gradient)"/>
    <path id="Path_18383" data-name="Path 18383" d="M395.657,321.92a195.282,195.282,0,0,0-4.5-51.55H336.44a206.321,206.321,0,0,1,6.259,51.55Z" transform="translate(-172.376 -38.641)" fill="#fff" opacity="0.3"/>
    <path id="Path_18384" data-name="Path 18384" d="M341.6,170.489c-3.019-1.51-6.785-16.59-5.75-21.95s13.2-11.128,25.156-8.956,17.1,6.361,19.422,17.251c2.392,11.3-6.327,30.109-10.636,31.568a19.066,19.066,0,0,1-15.657-1.323C350.287,184.721,348.285,167.385,341.6,170.489Z" transform="translate(-172.907 -130.032)" fill="#263238"/>
    <path id="Path_18385" data-name="Path 18385" d="M340.668,157.678c-5.835.339-11.4-8.956-6.039-17.251a14.673,14.673,0,0,1,14.52-6.5s-2.443,4.767,5.7,3.766,23.307,1.272,28.6,6.972c6.548,7.023,2.6,20.83-7.26,17.438S340.668,157.678,340.668,157.678Z" transform="translate(-175.146 -133.76)" fill="#263238"/>
    <path id="Path_18386" data-name="Path 18386" d="M340.2,154.9a8.6,8.6,0,0,1-6.31-3.223,12.824,12.824,0,0,1-1.934-13.316.43.43,0,1,1,.8.322,11.874,11.874,0,0,0,1.781,12.434,7.158,7.158,0,0,0,6.9,2.782.428.428,0,0,1,.2.831,5.984,5.984,0,0,1-1.442.17Z" transform="translate(-176.234 -130.744)" fill="#263238"/>
    <path id="Path_18387" data-name="Path 18387" d="M350.377,159.268a15.741,15.741,0,0,1-3.613,11.043c-3.393,4.02-7.922,1.594-9.3-3.24-1.238-4.359-.95-11.687,3.613-13.943S350.021,154.366,350.377,159.268Z" transform="translate(-172.098 -120.762)" fill="#b55b52"/>
    <path id="Path_18388" data-name="Path 18388" d="M314.45,321.92h60.812a199.894,199.894,0,0,0,2.154-51.55H321.608S318.47,292.133,314.45,321.92Z" transform="translate(-187.687 -38.641)" fill="url(#linear-gradient)"/>
    <path id="Path_18389" data-name="Path 18389" d="M314.45,321.92h60.812a199.894,199.894,0,0,0,2.154-51.55H321.608S318.47,292.133,314.45,321.92Z" transform="translate(-187.687 -38.641)" fill="#fff" opacity="0.3"/>
  </g>
</svg>
