<svg xmlns="http://www.w3.org/2000/svg" xmlns:xlink="http://www.w3.org/1999/xlink" width="735.31" height="547.894" viewBox="0 0 735.31 547.894">
  <defs>
    <linearGradient id="linear-gradient" x1="0.5" x2="0.5" y2="1" gradientUnits="objectBoundingBox">
      <stop offset="0" stop-color="#03d481"/>
      <stop offset="1" stop-color="#0294c1"/>
    </linearGradient>
  </defs>
  <g id="Growth_analytics-rafiki" data-name="Growth analytics-rafiki" transform="translate(0 -55)">
    <g id="freepik--background-complete--inject-10" transform="translate(0 55)">
      <rect id="Rectangle_3630" data-name="Rectangle 3630" width="735.31" height="0.368" transform="translate(0 481.481)" fill="#ebebeb"/>
      <rect id="Rectangle_3631" data-name="Rectangle 3631" width="48.707" height="0.368" transform="translate(612.925 505.143)" fill="#ebebeb"/>
      <rect id="Rectangle_3632" data-name="Rectangle 3632" width="12.78" height="0.368" transform="translate(474.319 509.143)" fill="#ebebeb"/>
      <rect id="Rectangle_3633" data-name="Rectangle 3633" width="28.221" height="0.368" transform="translate(583.233 491.496)" fill="#ebebeb"/>
      <rect id="Rectangle_3634" data-name="Rectangle 3634" width="63.516" height="0.368" transform="translate(77.149 493.966)" fill="#ebebeb"/>
      <rect id="Rectangle_3635" data-name="Rectangle 3635" width="9.309" height="0.368" transform="translate(153.768 493.966)" fill="#ebebeb"/>
      <rect id="Rectangle_3636" data-name="Rectangle 3636" width="137.768" height="0.368" transform="translate(193.342 500.172)" fill="#ebebeb"/>
      <path id="Path_16796" data-name="Path 16796" d="M330.554,470.891H46.593a8.4,8.4,0,0,1-8.383-8.4V63.324A8.4,8.4,0,0,1,46.593,55H330.554a8.4,8.4,0,0,1,8.4,8.4v399.1A8.4,8.4,0,0,1,330.554,470.891ZM46.593,55.294a8.03,8.03,0,0,0-8.015,8.03v399.17a8.03,8.03,0,0,0,8.015,8.03H330.554a8.044,8.044,0,0,0,8.03-8.03V63.324a8.044,8.044,0,0,0-8.03-8.03Z" transform="translate(17.982 -55)" fill="#ebebeb"/>
      <path id="Path_16797" data-name="Path 16797" d="M546.874,470.891H262.9a8.412,8.412,0,0,1-8.4-8.4V63.324A8.412,8.412,0,0,1,262.9,55H546.874a8.4,8.4,0,0,1,8.368,8.324v399.17A8.4,8.4,0,0,1,546.874,470.891ZM262.9,55.294a8.044,8.044,0,0,0-8.03,8.03v399.17a8.044,8.044,0,0,0,8.03,8.029H546.874a8.045,8.045,0,0,0,8.03-8.03V63.324a8.044,8.044,0,0,0-8.03-8.03Z" transform="translate(119.773 -55)" fill="#ebebeb"/>
      <rect id="Rectangle_3637" data-name="Rectangle 3637" width="225.372" height="185.769" transform="translate(84.384 77.516)" fill="#ebebeb"/>
      <rect id="Rectangle_3638" data-name="Rectangle 3638" width="29.251" height="29.251" transform="translate(99.561 95.723)" fill="#f5f5f5"/>
      <rect id="Rectangle_3639" data-name="Rectangle 3639" width="29.251" height="29.251" transform="translate(268.006 170.974)" fill="#f5f5f5"/>
      <rect id="Rectangle_3640" data-name="Rectangle 3640" width="29.251" height="29.251" transform="translate(135.782 111.135)" fill="#f5f5f5"/>
      <rect id="Rectangle_3641" data-name="Rectangle 3641" width="29.251" height="29.251" transform="translate(235.02 180.18)" fill="#f5f5f5"/>
      <rect id="Rectangle_3642" data-name="Rectangle 3642" width="42.104" height="55.942" transform="translate(108.296 180.857)" fill="#f5f5f5"/>
      <rect id="Rectangle_3643" data-name="Rectangle 3643" width="42.104" height="55.942" transform="translate(156.371 181.283)" fill="#f5f5f5"/>
      <rect id="Rectangle_3644" data-name="Rectangle 3644" width="42.104" height="55.942" transform="translate(240.52 97.796)" fill="#f5f5f5"/>
      <rect id="Rectangle_3645" data-name="Rectangle 3645" width="149.591" height="313.639" transform="translate(510.849 37.442)" fill="#ebebeb"/>
      <rect id="Rectangle_3646" data-name="Rectangle 3646" width="156.503" height="14.765" transform="translate(507.393 33.354)" fill="#e0e0e0"/>
      <rect id="Rectangle_3647" data-name="Rectangle 3647" width="156.503" height="7.383" transform="translate(507.393 54.163)" fill="#e0e0e0"/>
      <rect id="Rectangle_3648" data-name="Rectangle 3648" width="156.503" height="7.383" transform="translate(507.393 65.119)" fill="#e0e0e0"/>
      <rect id="Rectangle_3649" data-name="Rectangle 3649" width="156.503" height="7.383" transform="translate(507.393 76.075)" fill="#e0e0e0"/>
      <rect id="Rectangle_3650" data-name="Rectangle 3650" width="156.503" height="7.383" transform="translate(507.393 87.031)" fill="#e0e0e0"/>
      <rect id="Rectangle_3651" data-name="Rectangle 3651" width="156.503" height="7.383" transform="translate(507.393 97.973)" fill="#e0e0e0"/>
      <rect id="Rectangle_3652" data-name="Rectangle 3652" width="156.503" height="7.383" transform="translate(507.393 108.929)" fill="#e0e0e0"/>
      <rect id="Rectangle_3653" data-name="Rectangle 3653" width="156.503" height="7.383" transform="translate(507.393 119.885)" fill="#e0e0e0"/>
      <rect id="Rectangle_3654" data-name="Rectangle 3654" width="156.503" height="7.383" transform="translate(507.393 130.841)" fill="#e0e0e0"/>
      <rect id="Rectangle_3655" data-name="Rectangle 3655" width="156.503" height="7.383" transform="translate(507.393 141.797)" fill="#e0e0e0"/>
      <rect id="Rectangle_3656" data-name="Rectangle 3656" width="156.503" height="7.383" transform="translate(507.393 152.739)" fill="#e0e0e0"/>
      <rect id="Rectangle_3657" data-name="Rectangle 3657" width="156.503" height="7.383" transform="translate(507.393 163.695)" fill="#e0e0e0"/>
      <rect id="Rectangle_3658" data-name="Rectangle 3658" width="156.503" height="7.383" transform="translate(507.393 174.651)" fill="#e0e0e0"/>
      <rect id="Rectangle_3659" data-name="Rectangle 3659" width="156.503" height="7.383" transform="translate(507.393 185.607)" fill="#e0e0e0"/>
      <rect id="Rectangle_3660" data-name="Rectangle 3660" width="156.503" height="7.383" transform="translate(507.393 196.563)" fill="#e0e0e0"/>
      <rect id="Rectangle_3661" data-name="Rectangle 3661" width="156.503" height="7.383" transform="translate(507.393 207.519)" fill="#e0e0e0"/>
      <rect id="Rectangle_3662" data-name="Rectangle 3662" width="156.503" height="7.383" transform="translate(507.393 218.461)" fill="#e0e0e0"/>
      <rect id="Rectangle_3663" data-name="Rectangle 3663" width="156.503" height="7.383" transform="translate(507.393 229.417)" fill="#e0e0e0"/>
      <rect id="Rectangle_3664" data-name="Rectangle 3664" width="156.503" height="7.383" transform="translate(507.393 240.373)" fill="#e0e0e0"/>
      <rect id="Rectangle_3665" data-name="Rectangle 3665" width="156.503" height="7.383" transform="translate(507.393 251.329)" fill="#e0e0e0"/>
      <rect id="Rectangle_3666" data-name="Rectangle 3666" width="156.503" height="7.383" transform="translate(507.393 262.285)" fill="#e0e0e0"/>
      <rect id="Rectangle_3667" data-name="Rectangle 3667" width="156.503" height="7.383" transform="translate(507.393 273.226)" fill="#e0e0e0"/>
      <rect id="Rectangle_3668" data-name="Rectangle 3668" width="156.503" height="7.383" transform="translate(507.393 284.183)" fill="#e0e0e0"/>
      <rect id="Rectangle_3669" data-name="Rectangle 3669" width="156.503" height="7.383" transform="translate(507.393 295.139)" fill="#e0e0e0"/>
      <rect id="Rectangle_3670" data-name="Rectangle 3670" width="156.503" height="7.383" transform="translate(507.393 306.095)" fill="#e0e0e0"/>
      <rect id="Rectangle_3671" data-name="Rectangle 3671" width="156.503" height="7.383" transform="translate(507.393 317.051)" fill="#e0e0e0"/>
      <rect id="Rectangle_3672" data-name="Rectangle 3672" width="156.503" height="7.383" transform="translate(507.393 328.007)" fill="#e0e0e0"/>
      <rect id="Rectangle_3673" data-name="Rectangle 3673" width="156.503" height="7.383" transform="translate(507.393 338.948)" fill="#e0e0e0"/>
      <path id="Path_16798" data-name="Path 16798" d="M73.243,367.4c-.221-1.471-5.368-37.015,4.941-49.28a11.147,11.147,0,0,1,8.633-4.206c20.809-.5,23.662,16.177,23.692,16.4l-2.456.382c-.1-.6-2.559-14.706-21.177-14.309a8.721,8.721,0,0,0-6.721,3.338c-9.588,11.412-4.412,46.957-4.412,47.31Z" transform="translate(33.774 66.845)" fill="#ebebeb"/>
      <path id="Path_16799" data-name="Path 16799" d="M85.61,363.19l-2.471-.074c0-.324.824-32.721-15.147-39.413-15.633-6.559-22.677,6.912-22.971,7.5L42.8,330.086c.088-.162,8.338-16.177,26.162-8.677C86.492,328.763,85.654,361.793,85.61,363.19Z" transform="translate(20.143 69.437)" fill="#ebebeb"/>
      <path id="Path_16800" data-name="Path 16800" d="M83.8,375.984c0-.515-.147-51.751-10.133-66.737-9.588-14.383-25-7.618-25.721-7.353l-1.029-2.265c.191-.088,18.045-7.971,28.809,8.206,10.412,15.6,10.559,65.972,10.559,68.1Z" transform="translate(22.081 59.187)" fill="#ebebeb"/>
      <path id="Path_16801" data-name="Path 16801" d="M86.216,317.1s-9.118,3.324-6.427,11.265,31.427,20.927,31.427,20.927,12.03-11.03.985-28.971S86.422,311.437,86.216,317.1Z" transform="translate(37.316 64.88)" fill="#e0e0e0"/>
      <path id="Path_16802" data-name="Path 16802" d="M75.523,307.33s6.456-.691,5.882-4.632-25.03-14.044-39.516,2.324c0,0,9.28,15.927,22.692,16.177S75.523,307.33,75.523,307.33Z" transform="translate(19.714 58.413)" fill="#e0e0e0"/>
      <path id="Path_16803" data-name="Path 16803" d="M69.536,323.46s4.412-3.6-.353-5.353S40.8,316.857,40.55,340.166c0,0,27.471,4.559,30.883-4.338S69.536,323.46,69.536,323.46Z" transform="translate(19.084 68.534)" fill="#e0e0e0"/>
      <path id="Path_16804" data-name="Path 16804" d="M102.412,397.573H59.793l-4.6-46.663H107Z" transform="translate(25.973 84.261)" fill="#ebebeb"/>
      <rect id="Rectangle_3674" data-name="Rectangle 3674" width="56.354" height="10.294" transform="translate(78.899 430.024)" fill="#e0e0e0"/>
      <path id="Path_16805" data-name="Path 16805" d="M446.147,394.565s-8.309-18.133,1.176-36,12.25-22.059,6.191-25.736-8.824,14.294-8.824,14.294-5.1-12.353-.882-25.28,6.853-33.986,1.088-36.236-1.088,26.265-6.088,35.986a83.823,83.823,0,0,1-4.882-21.206c-.676-10.383.4-26.971-4.147-31.221s-7.456-1.309-2.941,21.6a240.354,240.354,0,0,1,4.412,41.545s-9.853-30.059-16.471-30.883-6.618,8.824-.941,17.309,16.574,23.53,18.368,31.354c0,0-10.824-22.633-20.589-15.691s8.485,20.589,16.589,25.53,13.75,35.883,13.75,35.883Z" transform="translate(192.396 45.018)" fill="#e0e0e0"/>
      <path id="Path_16806" data-name="Path 16806" d="M433.348,399.743s8.088-18.25-1.618-35.971-12.515-21.9-6.5-25.648,9,14.162,9,14.162,4.941-12.427.574-25.28-7.25-33.824-1.471-36.236,1.471,26.251,6.515,35.9a84.145,84.145,0,0,0,4.632-21.28c.559-10.383-.706-26.942,3.78-31.265s7.427-1.471,3.25,21.559a240.127,240.127,0,0,0-3.941,41.6s9.5-30.207,16.1-31.177,6.721,8.75,1.162,17.28-16.309,23.809-18,31.618c0,0,10.544-22.78,20.353-15.986s-8.221,20.721-16.28,25.78S437.6,400.875,437.6,400.875Z" transform="translate(198.636 47.326)" fill="#ebebeb"/>
      <path id="Path_16807" data-name="Path 16807" d="M476.495,350.12H409.67l5.4,47.825h56.016Z" transform="translate(192.799 83.889)" fill="#ebebeb"/>
      <path id="Path_16808" data-name="Path 16808" d="M336.312,355.17l-4.412-.632c.794-5.5,5.382-15.9,17.147-15.9,13.941,0,20.868,8.044,21.574,16.015l-4.412.382c-.529-5.971-6.03-11.986-17.177-11.986C338.238,343.052,336.459,354.67,336.312,355.17Z" transform="translate(156.199 78.487)" fill="#e0e0e0"/>
      <rect id="Rectangle_3675" data-name="Rectangle 3675" width="85.869" height="51.266" rx="4.83" transform="translate(465.363 429.774)" fill="#ebebeb"/>
      <path id="Path_16809" data-name="Path 16809" d="M378.619,397.662c-60.678,0-63.619-41.633-63.619-42.119l2.471-4.824c.088,1.544,4.868,42.471,61.222,42.471,23.177,0,43.207,0,45.236-4.412,1.779-3.912-6.927-13.912-20.853-29.957v-6.147c17.75,20.442,27.824,31.442,24.868,37.927C424.782,397.383,411.37,397.662,378.619,397.662Z" transform="translate(148.245 84.172)" fill="#e0e0e0"/>
    </g>
    <g id="freepik--Shadow--inject-10" transform="translate(82.516 569.599)">
      <ellipse id="freepik--path--inject-10" cx="285.138" cy="16.647" rx="285.138" ry="16.647" fill="#f5f5f5"/>
    </g>
    <g id="freepik--Chart--inject-10" transform="translate(157.856 107.575)">
      <path id="Path_16810" data-name="Path 16810" d="M438.788,92.706a7.353,7.353,0,0,1,7.353,7.353V340.108a7.353,7.353,0,0,1-7.353,7.353H116.473a7.353,7.353,0,0,1-7.353-7.353V99.941a7.353,7.353,0,0,1,7.353-7.353H438.788m0-1.838H116.473a9.133,9.133,0,0,0-9.133,9.191V340.108a9.133,9.133,0,0,0,9.133,9.132H438.788a9.133,9.133,0,0,0,9.133-9.133V99.941a9.133,9.133,0,0,0-9.133-9.133Z" transform="translate(-107.34 -90.75)" fill="url(#linear-gradient)"/>
      <rect id="Rectangle_3676" data-name="Rectangle 3676" width="340.581" height="258.373" rx="6.21" transform="translate(0 0.118)" fill="#fff"/>
      <rect id="Rectangle_3677" data-name="Rectangle 3677" width="4.221" height="3.515" transform="translate(298.359 26.912)" fill="url(#linear-gradient)"/>
      <path id="Path_16811" data-name="Path 16811" d="M314.426,302.689H310.22v-6.912h4.206Zm0-13.824H310.22v-6.912h4.206Zm0-13.809H310.22v-6.912h4.206Zm0-13.824H310.22v-6.9h4.206Zm0-13.809H310.22v-6.912h4.206Zm0-13.824H310.22v-6.9h4.206Zm0-13.809H310.22v-6.912h4.206Zm0-13.809H310.22v-6.912h4.206Zm0-13.824H310.22v-6.912h4.206Zm0-13.809H310.22v-6.912h4.206Zm0-13.824H310.22v-6.9h4.206Zm0-13.809H310.22V143.8h4.206Zm0-13.824H310.22v-6.9h4.206Zm0-13.809H310.22V116.17h4.206Z" transform="translate(-11.86 -78.787)" fill="url(#linear-gradient)"/>
      <rect id="Rectangle_3678" data-name="Rectangle 3678" width="4.221" height="3.515" transform="translate(298.359 230.74)" fill="url(#linear-gradient)"/>
      <path id="Path_16812" data-name="Path 16812" d="M141.091,245.212H136.87V238.3h4.221Z" transform="translate(-93.442 -21.31)" fill="url(#linear-gradient)"/>
      <rect id="Rectangle_3679" data-name="Rectangle 3679" width="4.221" height="3.515" transform="translate(43.428 230.74)" fill="url(#linear-gradient)"/>
      <path id="Path_16813" data-name="Path 16813" d="M175.761,258.474H171.54v-6.912h4.221Zm0-13.824H171.54v-6.912h4.221Zm0-13.809H171.54v-6.912h4.221Zm0-13.824H171.54v-6.9h4.221Z" transform="translate(-77.126 -34.572)" fill="url(#linear-gradient)"/>
      <rect id="Rectangle_3680" data-name="Rectangle 3680" width="4.221" height="3.515" transform="translate(94.414 230.74)" fill="url(#linear-gradient)"/>
      <path id="Path_16814" data-name="Path 16814" d="M210.431,262.9H206.21v-6.912h4.221Zm0-13.824H206.21v-6.912h4.221Zm0-13.809H206.21v-6.912h4.221Zm0-13.824H206.21v-6.9h4.221Zm0-13.809H206.21V200.72h4.221Z" transform="translate(-60.81 -38.996)" fill="url(#linear-gradient)"/>
      <rect id="Rectangle_3681" data-name="Rectangle 3681" width="4.221" height="3.515" transform="translate(145.4 230.74)" fill="url(#linear-gradient)"/>
      <path id="Path_16815" data-name="Path 16815" d="M245.1,276.16H240.88v-6.912H245.1Zm0-13.824H240.88v-6.912H245.1Zm0-13.809H240.88v-6.912H245.1Zm0-13.824H240.88v-6.9H245.1Zm0-13.809H240.88v-6.912H245.1Zm0-13.824H240.88v-6.9H245.1Zm0-13.809H240.88v-6.912H245.1Zm0-13.809H240.88V172.54H245.1Z" transform="translate(-44.493 -52.258)" fill="url(#linear-gradient)"/>
      <rect id="Rectangle_3682" data-name="Rectangle 3682" width="4.221" height="3.515" transform="translate(196.387 230.74)" fill="url(#linear-gradient)"/>
      <path id="Path_16816" data-name="Path 16816" d="M279.771,285H275.55v-6.912h4.221Zm0-13.824H275.55v-6.912h4.221Zm0-13.809H275.55v-6.912h4.221Zm0-13.824H275.55v-6.9h4.221Zm0-13.809H275.55v-6.912h4.221Zm0-13.824H275.55v-6.9h4.221Zm0-13.809H275.55v-6.912h4.221Zm0-13.809H275.55v-6.912h4.221Zm0-13.824H275.55v-6.912h4.221Zm0-13.809H275.55V153.75h4.221Z" transform="translate(-28.177 -61.101)" fill="url(#linear-gradient)"/>
      <rect id="Rectangle_3683" data-name="Rectangle 3683" width="4.221" height="3.515" transform="translate(247.373 230.74)" fill="url(#linear-gradient)"/>
      <g id="Group_21769" data-name="Group 21769" transform="translate(43.428 26.912)" opacity="0.7">
        <rect id="Rectangle_3684" data-name="Rectangle 3684" width="4.221" height="3.515" transform="translate(254.932)" fill="#fff"/>
        <path id="Path_16817" data-name="Path 16817" d="M314.426,302.689H310.22v-6.912h4.206Zm0-13.824H310.22v-6.912h4.206Zm0-13.809H310.22v-6.912h4.206Zm0-13.824H310.22v-6.9h4.206Zm0-13.809H310.22v-6.912h4.206Zm0-13.824H310.22v-6.9h4.206Zm0-13.809H310.22v-6.912h4.206Zm0-13.809H310.22v-6.912h4.206Zm0-13.824H310.22v-6.912h4.206Zm0-13.809H310.22v-6.912h4.206Zm0-13.824H310.22v-6.9h4.206Zm0-13.809H310.22V143.8h4.206Zm0-13.824H310.22v-6.9h4.206Zm0-13.809H310.22V116.17h4.206Z" transform="translate(-55.288 -105.699)" fill="#fff"/>
        <rect id="Rectangle_3685" data-name="Rectangle 3685" width="4.221" height="3.515" transform="translate(254.932 203.828)" fill="#fff"/>
        <path id="Path_16818" data-name="Path 16818" d="M141.091,245.212H136.87V238.3h4.221Z" transform="translate(-136.87 -48.222)" fill="#fff"/>
        <rect id="Rectangle_3686" data-name="Rectangle 3686" width="4.221" height="3.515" transform="translate(0 203.828)" fill="#fff"/>
        <path id="Path_16819" data-name="Path 16819" d="M175.761,258.474H171.54v-6.912h4.221Zm0-13.824H171.54v-6.912h4.221Zm0-13.809H171.54v-6.912h4.221Zm0-13.824H171.54v-6.9h4.221Z" transform="translate(-120.554 -61.484)" fill="#fff"/>
        <rect id="Rectangle_3687" data-name="Rectangle 3687" width="4.221" height="3.515" transform="translate(50.986 203.828)" fill="#fff"/>
        <path id="Path_16820" data-name="Path 16820" d="M210.431,262.9H206.21v-6.912h4.221Zm0-13.824H206.21v-6.912h4.221Zm0-13.809H206.21v-6.912h4.221Zm0-13.824H206.21v-6.9h4.221Zm0-13.809H206.21V200.72h4.221Z" transform="translate(-104.237 -65.908)" fill="#fff"/>
        <rect id="Rectangle_3688" data-name="Rectangle 3688" width="4.221" height="3.515" transform="translate(101.973 203.828)" fill="#fff"/>
        <path id="Path_16821" data-name="Path 16821" d="M245.1,276.16H240.88v-6.912H245.1Zm0-13.824H240.88v-6.912H245.1Zm0-13.809H240.88v-6.912H245.1Zm0-13.824H240.88v-6.9H245.1Zm0-13.809H240.88v-6.912H245.1Zm0-13.824H240.88v-6.9H245.1Zm0-13.809H240.88v-6.912H245.1Zm0-13.809H240.88V172.54H245.1Z" transform="translate(-87.921 -79.17)" fill="#fff"/>
        <rect id="Rectangle_3689" data-name="Rectangle 3689" width="4.221" height="3.515" transform="translate(152.959 203.828)" fill="#fff"/>
        <path id="Path_16822" data-name="Path 16822" d="M279.771,285H275.55v-6.912h4.221Zm0-13.824H275.55v-6.912h4.221Zm0-13.809H275.55v-6.912h4.221Zm0-13.824H275.55v-6.9h4.221Zm0-13.809H275.55v-6.912h4.221Zm0-13.824H275.55v-6.9h4.221Zm0-13.809H275.55v-6.912h4.221Zm0-13.809H275.55v-6.912h4.221Zm0-13.824H275.55v-6.912h4.221Zm0-13.809H275.55V153.75h4.221Z" transform="translate(-71.604 -88.013)" fill="#fff"/>
        <rect id="Rectangle_3690" data-name="Rectangle 3690" width="4.221" height="3.515" transform="translate(203.945 203.828)" fill="#fff"/>
      </g>
      <path id="Path_16823" data-name="Path 16823" d="M395.561,104.25a7.044,7.044,0,0,0-6.412,9.956l-42.074,44.5a7.03,7.03,0,0,0-9.588,6.559,5.47,5.47,0,0,0,0,.706L297.9,187.178a6.956,6.956,0,0,0-4.412-1.632,7.059,7.059,0,0,0-7.044,7.044,7.249,7.249,0,0,0,.309,1.956l-40.869,32.56a6.926,6.926,0,0,0-3.412-.927,7.044,7.044,0,0,0-6.971,6.206l-38.516,10.559a7.015,7.015,0,0,0-12.589,4.294,6.719,6.719,0,0,0,.309,1.956l-40.869,32.633a6.883,6.883,0,0,0-3.412-.926,7.059,7.059,0,1,0,7.044,7.044,7.248,7.248,0,0,0-.309-1.956l40.883-32.559a6.883,6.883,0,0,0,3.412.926,7.044,7.044,0,0,0,6.956-6.191l38.516-10.574a7.015,7.015,0,0,0,12.6-4.294,7.249,7.249,0,0,0-.309-1.956l40.869-32.56a6.927,6.927,0,0,0,3.412.926,7.059,7.059,0,0,0,7.059-7.044,2.4,2.4,0,0,0-.074-.721l39.589-21.192a7.015,7.015,0,0,0,10.868-8.309l42.089-44.516a6.868,6.868,0,0,0,2.529.5,7.059,7.059,0,0,0,0-14.1Z" transform="translate(-95.099 -84.397)" fill="url(#linear-gradient)"/>
      <path id="Path_16824" data-name="Path 16824" d="M217.239,196.28a2.044,2.044,0,0,0-1.868,1.191H173.665a2.75,2.75,0,0,1-2.75-2.75V151H169.15v43.751a4.515,4.515,0,0,0,4.515,4.5h41.707a2.059,2.059,0,1,0,1.868-2.941Z" transform="translate(-78.251 -62.395)" fill="url(#linear-gradient)"/>
      <rect id="Rectangle_3691" data-name="Rectangle 3691" width="56.575" height="21.456" rx="2.59" transform="translate(63.487 76.413)" fill="url(#linear-gradient)"/>
      <g id="Group_21770" data-name="Group 21770" transform="translate(63.487 76.413)" opacity="0.4">
        <path id="Path_16825" data-name="Path 16825" d="M217.239,196.28a2.044,2.044,0,0,0-1.868,1.191H173.665a2.75,2.75,0,0,1-2.75-2.75V151H169.15v43.751a4.515,4.515,0,0,0,4.515,4.5h41.707a2.059,2.059,0,1,0,1.868-2.941Z" transform="translate(-141.738 -138.809)" fill="#fff"/>
        <rect id="Rectangle_3692" data-name="Rectangle 3692" width="56.575" height="21.456" rx="2.59" fill="#fff"/>
      </g>
      <path id="Path_16826" data-name="Path 16826" d="M243.794,171.745V108.7h-1.75v63.045a2.074,2.074,0,1,0,1.75,0Z" transform="translate(-44.51 -82.302)" fill="url(#linear-gradient)"/>
      <rect id="Rectangle_3693" data-name="Rectangle 3693" width="56.575" height="21.456" rx="2.59" transform="translate(170.121 15.662)" fill="url(#linear-gradient)"/>
      <g id="Group_21771" data-name="Group 21771" transform="translate(170.121 15.662)" opacity="0.4">
        <path id="Path_16827" data-name="Path 16827" d="M243.794,171.745V108.7h-1.75v63.045a2.074,2.074,0,1,0,1.75,0Z" transform="translate(-214.631 -97.964)" fill="#fff"/>
        <rect id="Rectangle_3694" data-name="Rectangle 3694" width="56.575" height="21.456" rx="2.59" fill="#fff"/>
      </g>
      <path id="Path_16828" data-name="Path 16828" d="M415.608,258.1H124.69a5.574,5.574,0,0,1,5.559-5.574H410.034A5.574,5.574,0,0,1,415.608,258.1Z" transform="translate(-99.175 -14.613)" fill="url(#linear-gradient)"/>
      <path id="Path_16829" data-name="Path 16829" d="M415.608,258.1H124.69a5.574,5.574,0,0,1,5.559-5.574H410.034A5.574,5.574,0,0,1,415.608,258.1Z" transform="translate(-99.175 -14.613)" fill="#fff" opacity="0.4"/>
      <circle id="Ellipse_154" data-name="Ellipse 154" cx="5.044" cy="5.044" r="5.044" transform="translate(91.311 157.797)" fill="#fff" opacity="0.2"/>
      <circle id="Ellipse_155" data-name="Ellipse 155" cx="5.044" cy="5.044" r="5.044" transform="translate(142.341 143.797)" fill="#fff" opacity="0.4"/>
      <circle id="Ellipse_156" data-name="Ellipse 156" cx="5.044" cy="5.044" r="5.044" transform="translate(193.357 103.149)" fill="#fff" opacity="0.6"/>
      <circle id="Ellipse_157" data-name="Ellipse 157" cx="5.044" cy="5.044" r="5.044" transform="translate(244.388 75.825)" fill="#fff" opacity="0.8"/>
      <circle id="Ellipse_158" data-name="Ellipse 158" cx="5.044" cy="5.044" r="5.044" transform="translate(295.418 21.868)" fill="#fff"/>
    </g>
    <g id="freepik--character-2--inject-10" transform="translate(462.185 97.838)">
      <g id="freepik--group--inject-10">
        <path id="Path_16830" data-name="Path 16830" d="M436.037,253l6.265,16.471s7.177,4.044,7.721,5.191,2.132,15.177,1,16.662-15.75-2.382-15.78-3.912-.721-14.059-.721-14.059l-8.412-18Z" transform="translate(-261.649 -4.655)" fill="#e4897b"/>
        <path id="Path_16831" data-name="Path 16831" d="M416.09,164.63c10.9,6.53,12.059,65.84,13.809,71.384s23.295,66.619,23.295,66.619l-15.147,5.883s-21.545-45.369-26.192-58.207S404.09,208.4,404.09,208.4Z" transform="translate(-272.012 -46.244)" fill="url(#linear-gradient)"/>
        <path id="Path_16832" data-name="Path 16832" d="M416.09,164.63c10.9,6.53,12.059,65.84,13.809,71.384s23.295,66.619,23.295,66.619l-15.147,5.883s-21.545-45.369-26.192-58.207S404.09,208.4,404.09,208.4Z" transform="translate(-272.012 -46.244)" opacity="0.2"/>
        <path id="Path_16833" data-name="Path 16833" d="M428.8,161.7c-16.412-9.015-37.618-7.118-37.618-7.118l-18.912,26.736L345.58,276.748l3.927,3.574,1.677-7.574,72.575,7.353,1.221,9.883,4.177-2.044,2.471-117.311Z" transform="translate(-299.548 -51.05)" fill="url(#linear-gradient)"/>
        <path id="Path_16834" data-name="Path 16834" d="M428.8,161.7c-16.412-9.015-37.618-7.118-37.618-7.118l-18.912,26.736L345.58,276.748l3.927,3.574,1.677-7.574,72.575,7.353,1.221,9.883,4.177-2.044,2.471-117.311Z" transform="translate(-299.548 -51.05)" opacity="0.4"/>
        <path id="Path_16835" data-name="Path 16835" d="M340.663,125.22l-5.235-17.75a72.07,72.07,0,0,0,.926-11.324c-.309-3.235-7.912-9.427-10.294-11.6s-12.236,4.882-11.765,6.412,6.221,13.515,8.044,14.9l2.941,1.662,4.544,22.353Z" transform="translate(-314.279 -84.129)" fill="#e4897b"/>
        <path id="Path_16836" data-name="Path 16836" d="M388.089,180.3c-16.647-8.53-29.339-21.706-34-29.412s-18.383-48.016-18.383-48.016l-14.486,2.206s8.721,49.516,13.383,60.3,47.457,49.9,47.457,49.9Z" transform="translate(-311.012 -75.309)" fill="url(#linear-gradient)"/>
        <path id="Path_16837" data-name="Path 16837" d="M388.089,180.3c-16.647-8.53-29.339-21.706-34-29.412s-18.383-48.016-18.383-48.016l-14.486,2.206s8.721,49.516,13.383,60.3,47.457,49.9,47.457,49.9Z" transform="translate(-311.012 -75.309)" opacity="0.2"/>
        <path id="Path_16838" data-name="Path 16838" d="M363.867,416.786l-11.927,1.265-2.25-25.736,11.941-1.265Z" transform="translate(-297.614 60.314)" fill="#e4897b"/>
        <path id="Path_16839" data-name="Path 16839" d="M403.815,416.53H392.256l-.956-26.78h11.574Z" transform="translate(-278.031 59.702)" fill="#e4897b"/>
        <path id="Path_16840" data-name="Path 16840" d="M397.73,407.051h14.044a1.015,1.015,0,0,1,.985.794l2.28,10.294a1.706,1.706,0,0,1-1.324,2.015,1.578,1.578,0,0,1-.368,0c-4.544-.073-7.853-.353-13.559-.353-3.515,0-14.118.368-18.971.368s-5.485-4.794-3.5-5.235c8.912-1.941,15.618-4.632,18.471-7.191a2.78,2.78,0,0,1,1.941-.691Z" transform="translate(-285.108 67.843)" fill="#263238"/>
        <path id="Path_16841" data-name="Path 16841" d="M389.159,409.372a3.471,3.471,0,0,1-2.221-.588,1.6,1.6,0,0,1-.573-1.471.809.809,0,0,1,.471-.765c1.279-.662,5.015,1.632,5.427,1.9a.265.265,0,0,1,.132.265.279.279,0,0,1-.206.235A14.2,14.2,0,0,1,389.159,409.372Zm-1.721-2.4a.573.573,0,0,0-.353.073c-.074,0-.162.1-.176.324a1.132,1.132,0,0,0,.368.985,5.618,5.618,0,0,0,4.118.206,11.029,11.029,0,0,0-3.956-1.588Z" transform="translate(-280.361 67.551)" fill="url(#linear-gradient)"/>
        <path id="Path_16842" data-name="Path 16842" d="M391.362,409.8h-.132c-1.191-.647-3.5-3.191-3.265-4.412a.9.9,0,0,1,.882-.721,1.471,1.471,0,0,1,1.162.353c1.338,1.088,1.618,4.412,1.632,4.574a.324.324,0,0,1-.132.25A.249.249,0,0,1,391.362,409.8Zm-2.324-4.632h-.132c-.353,0-.382.206-.4.279-.147.75,1.324,2.677,2.515,3.574a6.486,6.486,0,0,0-1.368-3.618.986.986,0,0,0-.618-.235Z" transform="translate(-279.609 66.715)" fill="url(#linear-gradient)"/>
        <path id="Path_16843" data-name="Path 16843" d="M357.23,406.8h14.044a1.015,1.015,0,0,1,.985.794l2.279,10.294a1.706,1.706,0,0,1-1.324,2.015,1.578,1.578,0,0,1-.368,0c-4.544-.073-7.853-.353-13.559-.353-3.515,0-14.118.368-18.971.368s-5.485-4.794-3.5-5.235c8.912-1.941,15.618-4.632,18.471-7.191A2.78,2.78,0,0,1,357.23,406.8Z" transform="translate(-304.168 67.725)" fill="#263238"/>
        <path id="Path_16844" data-name="Path 16844" d="M348.659,409.122a3.471,3.471,0,0,1-2.221-.588,1.6,1.6,0,0,1-.574-1.471.809.809,0,0,1,.471-.765c1.279-.662,5.015,1.632,5.427,1.9a.265.265,0,0,1,.132.265.28.28,0,0,1-.206.235,14.2,14.2,0,0,1-3.029.427Zm-1.721-2.4a.574.574,0,0,0-.353.074c-.074,0-.162.1-.176.323a1.132,1.132,0,0,0,.368.985,5.617,5.617,0,0,0,4.118.206,11.031,11.031,0,0,0-3.956-1.588Z" transform="translate(-299.422 67.434)" fill="url(#linear-gradient)"/>
        <path id="Path_16845" data-name="Path 16845" d="M350.862,409.546h-.132c-1.191-.647-3.5-3.191-3.265-4.412a.9.9,0,0,1,.882-.721,1.471,1.471,0,0,1,1.162.353c1.338,1.088,1.618,4.412,1.632,4.574a.324.324,0,0,1-.132.25A.249.249,0,0,1,350.862,409.546Zm-2.324-4.691h-.132c-.353,0-.382.206-.4.279-.147.75,1.324,2.676,2.515,3.574a6.486,6.486,0,0,0-1.368-3.618.985.985,0,0,0-.618-.235Z" transform="translate(-298.669 66.597)" fill="url(#linear-gradient)"/>
        <path id="Path_16846" data-name="Path 16846" d="M361.631,391.05l-11.941,1.265,1.177,13.28,11.927-1.265Z" transform="translate(-297.614 60.314)" opacity="0.2"/>
        <path id="Path_16847" data-name="Path 16847" d="M402.874,389.76H391.3l.5,13.809h11.574Z" transform="translate(-278.031 59.707)" opacity="0.2"/>
        <path id="Path_16848" data-name="Path 16848" d="M420.559,230H359.2c-5.882,31.868-24.1,144.606-11,245.049l20.78-2.574s-1.927-133.326,16.4-182.621c2.118,26.383,4.618,54.413,6.794,69.4,5.338,36.765,16.765,117.105,16.765,117.105h21.148s-4.324-76.9-6.324-113.032C421.588,324.12,420.676,238.088,420.559,230Z" transform="translate(-300.496 -15.479)" fill="#263238"/>
        <path id="Path_16849" data-name="Path 16849" d="M374.282,277.684a164.422,164.422,0,0,0-6.853,26.545c-1.721-23.53,5.147-48.369,5.147-48.369Z" transform="translate(-289.396 -3.309)" opacity="0.2"/>
        <path id="Path_16850" data-name="Path 16850" d="M345.694,403.441l25.706-3.824-.779-7.118-26.751,3.515Z" transform="translate(-300.353 60.996)" fill="url(#linear-gradient)"/>
        <path id="Path_16851" data-name="Path 16851" d="M345.694,403.441l25.706-3.824-.779-7.118-26.751,3.515Z" transform="translate(-300.353 60.996)" fill="#fff" opacity="0.6"/>
        <path id="Path_16852" data-name="Path 16852" d="M386.6,400.181h24.942v-7.456l-25.883-.485Z" transform="translate(-280.686 60.874)" fill="url(#linear-gradient)"/>
        <path id="Path_16853" data-name="Path 16853" d="M386.6,400.181h24.942v-7.456l-25.883-.485Z" transform="translate(-280.686 60.874)" fill="#fff" opacity="0.6"/>
        <path id="Path_16854" data-name="Path 16854" d="M354.1,230.52H415.87v7.353l-62.56-.75Z" transform="translate(-295.91 -15.235)" fill="#263238"/>
        <path id="Path_16855" data-name="Path 16855" d="M354.1,230.52H415.87v7.353l-62.56-.75Z" transform="translate(-295.91 -15.235)" fill="#fff" opacity="0.2"/>
        <rect id="Rectangle_3695" data-name="Rectangle 3695" width="2.206" height="13.059" transform="translate(97.901 211.976)" fill="#263238"/>
        <rect id="Rectangle_3696" data-name="Rectangle 3696" width="2.206" height="13.059" transform="translate(66.65 211.976)" fill="#263238"/>
        <path id="Path_16856" data-name="Path 16856" d="M372.719,155.52s38.971,2.721,67,13.4c0,0-20.28,62.693-24.074,99.267l-61.766-2.368S358.233,192.021,372.719,155.52Z" transform="translate(-295.642 -50.531)" fill="url(#linear-gradient)"/>
        <path id="Path_16857" data-name="Path 16857" d="M439.711,168.908s-4.044,12.5-8.824,29.574c-1.779,6.353-3.677,13.339-5.515,20.589-4.265,16.853-8.235,34.957-9.706,49.133L353.9,265.837s4.412-73.8,18.883-110.3C372.709,155.511,411.681,158.231,439.711,168.908Z" transform="translate(-295.632 -50.522)" fill="#fff" opacity="0.7"/>
        <path id="Path_16858" data-name="Path 16858" d="M405.973,169.545c-6.191,4.412-19.677.941-19.677.941s-8.28-3.338-6.177-5.809c5.132-.235,7.853-2.309,9.221-5.191a14.912,14.912,0,0,0,1.176-5.706,30.005,30.005,0,0,0,0-3.25L408.885,140C405.694,147.985,401.193,162.9,405.973,169.545Z" transform="translate(-283.454 -57.835)" fill="#e4897b"/>
        <path id="Path_16859" data-name="Path 16859" d="M400.976,145.09c-1.853,10.074-10.544,11.912-14.706,12a14.913,14.913,0,0,0,1.176-5.706Z" transform="translate(-280.398 -55.44)" opacity="0.2"/>
        <path id="Path_16860" data-name="Path 16860" d="M392.233,117.82s-10.6,12.133-6.765,21.839,19.78-15.294,19.78-15.294Z" transform="translate(-281.17 -68.273)" fill="#263238"/>
        <path id="Path_16861" data-name="Path 16861" d="M401.295,162.521a14.456,14.456,0,0,1-17.015-4.206,16.044,16.044,0,0,1-3.721-11.25,13.717,13.717,0,0,1,.176-1.706c1.721-10.441,9.75-25.515,21.868-25.368a15.677,15.677,0,0,1,13.912,22.824C411.4,153.094,408.912,159.374,401.295,162.521Z" transform="translate(-283.099 -67.253)" fill="#e4897b"/>
        <path id="Path_16862" data-name="Path 16862" d="M393.919,133.594c-.294.868-1.1,1.368-1.662,1.118s-.721-1.132-.368-1.985,1.118-1.353,1.677-1.118S394.287,132.712,393.919,133.594Z" transform="translate(-277.842 -61.812)" fill="#263238"/>
        <path id="Path_16863" data-name="Path 16863" d="M387.324,130.814c-.309.868-1.118,1.353-1.676,1.118s-.721-1.132-.368-1.985,1.118-1.353,1.676-1.118S387.662,129.99,387.324,130.814Z" transform="translate(-280.952 -63.12)" fill="#263238"/>
        <path id="Path_16864" data-name="Path 16864" d="M390.881,131.33a32.912,32.912,0,0,1-7.191,5.618,5.368,5.368,0,0,0,3.809,2.515Z" transform="translate(-281.613 -61.915)" fill="#de5753"/>
        <path id="Path_16865" data-name="Path 16865" d="M397.214,133.1a.544.544,0,0,1-.4-.4,4.412,4.412,0,0,0-2.53-3.059.544.544,0,0,1-.338-.691.559.559,0,0,1,.691-.338h0a5.4,5.4,0,0,1,3.221,3.809.53.53,0,0,1-.368.676Z" transform="translate(-276.798 -63.204)" fill="#263238"/>
        <path id="Path_16866" data-name="Path 16866" d="M386.034,140.474h0a8.427,8.427,0,0,0,7.736.529.294.294,0,0,0-.235-.529h0a8.074,8.074,0,0,1-7.177-.529.279.279,0,0,0-.382.074h0a.294.294,0,0,0,.074.4Z" transform="translate(-280.559 -57.883)" fill="#263238"/>
        <path id="Path_16867" data-name="Path 16867" d="M384.879,127.432a.706.706,0,0,1-.309-.1.559.559,0,0,1,0-.779h0a5.368,5.368,0,0,1,4.824-1.309.544.544,0,0,1,.382.662h0a.559.559,0,0,1-.677.368h0a4.412,4.412,0,0,0-3.809,1.1.618.618,0,0,1-.412.059Z" transform="translate(-281.273 -64.841)" fill="#263238"/>
        <path id="Path_16868" data-name="Path 16868" d="M407.013,124.34l-2.735,4.294a3.75,3.75,0,0,1-.338,5.088c-3.294,3.132-3.956,10.118-2.162,13.883,0,0,.9-1.618,2.1-.559s-3.309,9.53-8,12.339c0,0,5.883-1.75,12.574-9.706,6.162-7.353,9.78-14.221,9.6-18.294Z" transform="translate(-275.876 -65.205)" fill="#263238"/>
        <path id="Path_16869" data-name="Path 16869" d="M409.257,145.5a10.838,10.838,0,0,1-7.9,2.647c-3.809-.279-4.412-4-2.279-6.927,1.927-2.588,6.25-5.647,9.544-3.882S411.9,143.132,409.257,145.5Z" transform="translate(-274.944 -59.334)" fill="#e4897b"/>
        <path id="Path_16870" data-name="Path 16870" d="M404.622,128.081s1.824-1.706,1.971,2.132,2.456,6.441,7.691,9.147,6.9,2.941,6.9,2.941,8.515-8.044-.382-17.206c0,0,.412-4.721-5.191-7.794-9.633-5.294-22.853-3.1-27.5,2.25a7.75,7.75,0,0,0-1.677,8.015S401.637,119.493,404.622,128.081Z" transform="translate(-280.545 -69.947)" fill="#263238"/>
        <path id="Path_16871" data-name="Path 16871" d="M406.669,155.679l-17.044,5.412-.265-5.971-6.206,1.4a4.926,4.926,0,0,0-3.838,4.75l-.088,6.5,6.78-2.735s-10.1,23.706-11.427,57.354c0,0,3.853-36.265,14.324-56.442l2.485,4.574,20.589-7.088Z" transform="translate(-285.9 -50.719)" fill="url(#linear-gradient)"/>
        <path id="Path_16872" data-name="Path 16872" d="M406.669,155.679l-17.044,5.412-.265-5.971-6.206,1.4a4.926,4.926,0,0,0-3.838,4.75l-.088,6.5,6.78-2.735s-10.1,23.706-11.427,57.354c0,0,3.853-36.265,14.324-56.442l2.485,4.574,20.589-7.088Z" transform="translate(-285.9 -50.719)" fill="#fff" opacity="0.6"/>
        <rect id="Rectangle_3697" data-name="Rectangle 3697" width="11.427" height="8.235" transform="translate(74.915 214.006)" fill="url(#linear-gradient)"/>
        <rect id="Rectangle_3698" data-name="Rectangle 3698" width="11.427" height="8.235" transform="translate(74.915 214.006)" fill="#fff" opacity="0.4"/>
        <path id="Path_16873" data-name="Path 16873" d="M388.03,156.682s-30.471,80.531-37.457,118.973L346,273.17s17.559-88.119,30.5-117.65Z" transform="translate(-299.35 -50.531)" fill="url(#linear-gradient)"/>
        <path id="Path_16874" data-name="Path 16874" d="M406.159,161.78s-12.912,64.825-7.015,117.958l7.015-1.559s8.485-84.8,12.986-112.208Z" transform="translate(-275.066 -47.585)" fill="url(#linear-gradient)"/>
        <path id="Path_16875" data-name="Path 16875" d="M372,167.471l1.191-10.588,5.588-2.353A14.927,14.927,0,0,1,372,167.471Z" transform="translate(-287.114 -50.997)" fill="url(#linear-gradient)"/>
        <path id="Path_16876" data-name="Path 16876" d="M372,167.471l1.191-10.588,5.588-2.353A14.927,14.927,0,0,1,372,167.471Z" transform="translate(-287.114 -50.997)" opacity="0.2"/>
        <path id="Path_16877" data-name="Path 16877" d="M402.585,173.341a19.456,19.456,0,0,1,0-13.971L407.806,164Z" transform="translate(-273.331 -48.719)" fill="url(#linear-gradient)"/>
        <path id="Path_16878" data-name="Path 16878" d="M402.585,173.341a19.456,19.456,0,0,1,0-13.971L407.806,164Z" transform="translate(-273.331 -48.719)" opacity="0.2"/>
        <rect id="Rectangle_3699" data-name="Rectangle 3699" width="38.839" height="57.119" rx="1.19" transform="translate(204.816 267.359) rotate(77.41)" fill="#263238"/>
        <rect id="Rectangle_3700" data-name="Rectangle 3700" width="38.839" height="57.119" rx="1.19" transform="translate(204.816 267.359) rotate(77.41)" fill="#fff" opacity="0.2"/>
        <path id="Path_16879" data-name="Path 16879" d="M449.677,328.55,428,308.579c2.941-30.574,34.045-40.369,34.045-40.369l7.353,33.03S444.044,303.534,449.677,328.55Z" transform="translate(-260.76 2.503)" fill="url(#linear-gradient)"/>
        <path id="Path_16880" data-name="Path 16880" d="M449.677,328.55,428,308.579c2.941-30.574,34.045-40.369,34.045-40.369l7.353,33.03S444.044,303.534,449.677,328.55Z" transform="translate(-260.76 2.503)" fill="#fff" opacity="0.7"/>
        <path id="Path_16881" data-name="Path 16881" d="M453.008,288.627l-2.6-11.662a1.868,1.868,0,0,1,1.471-2.25l3.221-.721a1.882,1.882,0,0,1,2.25,1.471l2.6,11.662a1.882,1.882,0,0,1-1.471,2.25l-3.221.721a1.882,1.882,0,0,1-2.25-1.471Zm2.941-12.912a.529.529,0,0,0-.632-.4l-3.221.721a.529.529,0,0,0-.412.632l2.6,11.662a.544.544,0,0,0,.632.4l3.235-.721a.529.529,0,0,0,.4-.632Z" transform="translate(-250.237 5.204)" fill="url(#linear-gradient)"/>
        <g id="Group_21772" data-name="Group 21772" transform="translate(200.121 279.155)" opacity="0.4">
          <path id="Path_16882" data-name="Path 16882" d="M453.008,288.627l-2.6-11.662a1.868,1.868,0,0,1,1.471-2.25l3.221-.721a1.882,1.882,0,0,1,2.25,1.471l2.6,11.662a1.882,1.882,0,0,1-1.471,2.25l-3.221.721a1.882,1.882,0,0,1-2.25-1.471Zm2.941-12.912a.529.529,0,0,0-.632-.4l-3.221.721a.529.529,0,0,0-.412.632l2.6,11.662a.544.544,0,0,0,.632.4l3.235-.721a.529.529,0,0,0,.4-.632Z" transform="translate(-450.358 -273.95)" fill="#fff"/>
        </g>
      </g>
    </g>
    <g id="freepik--character-1--inject-10" transform="translate(93.352 206.016)">
      <path id="Path_16883" data-name="Path 16883" d="M119.955,235.768h7.353s4.309,1.941,6.53,1.471,16.177-8.662,15.4-10.059-30.545,1.574-30.545,1.574Z" transform="translate(-37.494 -125.161)" fill="#ebb376"/>
      <path id="Path_16884" data-name="Path 16884" d="M134.83,288.839s-.735,10.956-2.25,27.942c-.544,6.206-1.191,13.236-1.956,20.795-3.294,32.824-8.588,76.34-16.074,111.5l-7.353-.118s-5.456-53.089,3.677-88.517l-.926-25.162-.647-17.339-1.074-29.162Z" transform="translate(-43.663 -95.995)" fill="#ebb376"/>
      <path id="Path_16885" data-name="Path 16885" d="M120.571,293.77s-2.324,9.6-6.309,24.692c-1.176,4.412-2.485,9.353-3.927,14.633-8.824,32.457-22.5,78.913-37.015,115.194l-7.25-1.368s3.662-53.251,18.692-86.6L88.747,330.7l1.471-11.044,4.1-30.412Z" transform="translate(-62.258 -95.778)" fill="#ebb376"/>
      <path id="Path_16886" data-name="Path 16886" d="M82.975,310.3l24.03-1.191c-1.176,4.412-2.485,9.353-3.927,14.633l-21.589-2.4Z" transform="translate(-55.001 -86.427)" opacity="0.2"/>
      <path id="Path_16887" data-name="Path 16887" d="M131.395,307.86c-.544,6.206-1.191,13.236-1.956,20.795l-20.692-2.294-.647-17.339Z" transform="translate(-42.478 -87.015)" opacity="0.2"/>
      <path id="Path_16888" data-name="Path 16888" d="M80.707,200.09c-4.794,1.882-3.1,46.457,5.294,58.516s57.589-6.412,57.589-6.412L142.414,241.4l-43.854.132Z" transform="translate(-56.615 -137.734)" fill="#263238"/>
      <path id="Path_16889" data-name="Path 16889" d="M174.086,236.866,121.82,240l6.221-38.236a1.824,1.824,0,0,1,1.691-1.471l49.545-2.941a1.015,1.015,0,0,1,1.059,1.177Z" transform="translate(-36.021 -139.024)" fill="#263238"/>
      <path id="Path_16890" data-name="Path 16890" d="M174.086,236.866,121.82,240l6.221-38.236a1.824,1.824,0,0,1,1.691-1.471l49.545-2.941a1.015,1.015,0,0,1,1.059,1.177Z" transform="translate(-36.021 -139.024)" fill="#fff" opacity="0.2"/>
      <path id="Path_16891" data-name="Path 16891" d="M173.626,236.9l-52.266,3.132,6.221-38.236a1.809,1.809,0,0,1,1.691-1.471l49.545-2.941a1,1,0,0,1,1.059,1.162Z" transform="translate(-36.237 -139.01)" fill="#263238"/>
      <path id="Path_16892" data-name="Path 16892" d="M171.577,235.367l-48.957,2.941,6.044-37.207,48.957-2.941Z" transform="translate(-35.644 -138.642)" fill="url(#linear-gradient)"/>
      <path id="Path_16893" data-name="Path 16893" d="M171.577,235.367l-48.957,2.941,6.044-37.207,48.957-2.941Z" transform="translate(-35.644 -138.642)" fill="#fff" opacity="0.4"/>
      <path id="Path_16894" data-name="Path 16894" d="M182.271,224.25l.1,1.882a1.912,1.912,0,0,1-1.779,2.015l-75.472,4.559a1.9,1.9,0,0,1-2.015-1.779l-.118-1.868Z" transform="translate(-44.883 -126.364)" fill="#263238"/>
      <path id="Path_16895" data-name="Path 16895" d="M182.271,224.25l.1,1.882a1.912,1.912,0,0,1-1.779,2.015l-75.472,4.559a1.9,1.9,0,0,1-2.015-1.779l-.118-1.868Z" transform="translate(-44.883 -126.364)" fill="#fff" opacity="0.2"/>
      <path id="Path_16896" data-name="Path 16896" d="M168.185,224.25l.1,1.882a1.912,1.912,0,0,1-1.779,2.015l-31.442,1.882a1.9,1.9,0,0,1-2.029-1.735l-.118-1.882Z" transform="translate(-30.797 -126.364)" fill="#fff" opacity="0.2"/>
      <g id="Group_21773" data-name="Group 21773" transform="translate(93.27 68.724)" opacity="0.4">
        <path id="Path_16897" data-name="Path 16897" d="M128.9,221.774l-2,.118.838-4.794,2-.118Z" transform="translate(-126.9 -198.509)" fill="#fff"/>
        <path id="Path_16898" data-name="Path 16898" d="M131.495,222.565l-2.015.118,1.353-7.765,2.015-.118Z" transform="translate(-125.686 -199.535)" fill="#fff"/>
        <path id="Path_16899" data-name="Path 16899" d="M134.07,223.356l-2,.118,1.868-10.736,2-.118Z" transform="translate(-124.467 -200.561)" fill="#fff"/>
        <path id="Path_16900" data-name="Path 16900" d="M136.665,223.671l-2.015.118,2.132-12.221,2.015-.118Z" transform="translate(-123.253 -201.112)" fill="#fff"/>
        <path id="Path_16901" data-name="Path 16901" d="M139.24,223.986l-2,.118,2.382-13.706,2.015-.118Z" transform="translate(-122.034 -201.662)" fill="#fff"/>
        <path id="Path_16902" data-name="Path 16902" d="M141.835,224.782l-2.015.118,2.912-16.677,2-.132Z" transform="translate(-120.82 -202.693)" fill="#fff"/>
        <path id="Path_16903" data-name="Path 16903" d="M144.41,224.146l-2,.118,2.647-15.191,2-.132Z" transform="translate(-119.601 -202.293)" fill="#fff"/>
        <path id="Path_16904" data-name="Path 16904" d="M147,223.511l-2.015.118,2.4-13.706,2-.132Z" transform="translate(-118.386 -201.893)" fill="#fff"/>
        <path id="Path_16905" data-name="Path 16905" d="M149.585,224.3l-2.015.118,2.912-16.677,2.015-.132Z" transform="translate(-117.172 -202.919)" fill="#fff"/>
        <path id="Path_16906" data-name="Path 16906" d="M152.175,225.568l-2.015.118,3.677-21.147,2.015-.118Z" transform="translate(-115.953 -204.42)" fill="#fff"/>
      </g>
      <path id="Path_16907" data-name="Path 16907" d="M148.557,353.829c8.941-81.1-6.515-108.693-6.515-108.693L98.424,237.68a197.645,197.645,0,0,0-3.662,24.412s-4.191,15-5.53,19.118A216.638,216.638,0,0,0,79.6,353.785Z" transform="translate(-55.963 -120.043)" fill="url(#linear-gradient)"/>
      <g id="Group_21774" data-name="Group 21774" transform="translate(23.444 117.74)" opacity="0.2">
        <path id="Path_16908" data-name="Path 16908" d="M148.569,353.8H79.612s-.353-5.191-.1-13.706a216.46,216.46,0,0,1,9.736-58.825c1.338-4.162,5.53-19.118,5.53-19.118q.162-1.471.309-2.941a176.6,176.6,0,0,1,3.353-21.456l43.6,7.353S157.51,272.692,148.569,353.8Z" transform="translate(-79.419 -237.75)"/>
      </g>
      <path id="Path_16909" data-name="Path 16909" d="M121.113,303.766s-17.647,22.412-41.633,30.559A216.46,216.46,0,0,1,89.216,275.5c1.338-4.162,5.53-19.118,5.53-19.118q.162-1.471.309-2.941L140.025,250s-16.294,16.339-33.824,20.589C106.275,270.589,107,294.839,121.113,303.766Z" transform="translate(-55.947 -114.245)" opacity="0.2"/>
      <path id="Path_16910" data-name="Path 16910" d="M108.13,174.546c0,.926.485,1.676,1.1,1.676s1.1-.765,1.1-1.706-.515-1.677-1.118-1.677S108.13,173.634,108.13,174.546Z" transform="translate(-42.464 -150.558)" fill="#263238"/>
      <path id="Path_16911" data-name="Path 16911" d="M106.961,173.512a.559.559,0,0,0,.529-.221,4.412,4.412,0,0,1,3.485-1.853.559.559,0,0,0,.588-.515.544.544,0,0,0-.515-.574h0a5.427,5.427,0,0,0-4.412,2.279.544.544,0,0,0,.088.765h0Z" transform="translate(-43.221 -151.73)" fill="#263238"/>
      <path id="Path_16912" data-name="Path 16912" d="M108.752,175.58a23.382,23.382,0,0,0,2.721,5.706,3.721,3.721,0,0,1-3.132.382Z" transform="translate(-42.365 -149.269)" fill="#de726f"/>
      <path id="Path_16913" data-name="Path 16913" d="M96.057,198.624a2.014,2.014,0,0,0,.353.265,15.986,15.986,0,0,0,5.632,2.75c5.956,1.382,10.03.559,12.691-2.132h0c3.721-4.044,4.647-11.206,4.118-19.853a32.354,32.354,0,0,0-1.882-10.088V169.4a2.3,2.3,0,0,0-.147-.368,11.765,11.765,0,0,0-8.677-7.191,23.807,23.807,0,0,0-5.1-.574C86.174,161.094,83.145,189.006,96.057,198.624Z" transform="translate(-51.905 -156.004)" fill="#ebb376"/>
      <path id="Path_16914" data-name="Path 16914" d="M93.91,187.78a15.647,15.647,0,0,0,5.691,2.368c5.985,1.221,10.03.1,12.618-2.706a16.721,16.721,0,0,1-10.706-.588A8.721,8.721,0,0,0,93.91,187.78Z" transform="translate(-49.156 -144.189)" opacity="0.2"/>
      <path id="Path_16915" data-name="Path 16915" d="M93.422,203.577c-1.044,4.794,5.177,6.75,5.177,6.75,10.162-4.338,12.044-9.75,12.044-9.75-8.485-4.412-6.03-16.927-6.03-16.927l-1.721.853-12.1,2.368s3.353,6.441,3.794,7.912h0C96.878,202.5,93.422,203.577,93.422,203.577Z" transform="translate(-50.624 -145.471)" fill="#ebb376"/>
      <path id="Path_16916" data-name="Path 16916" d="M119.807,170.848s.926,11.765-10.294,16.9c0,0-4.809,12.28-11.883,12.441-9.662.235-18.162-13.486-14.824-27.471C87.174,154.569,114.66,153.1,119.807,170.848Z" transform="translate(-54.729 -157.405)" fill="#263238"/>
      <path id="Path_16917" data-name="Path 16917" d="M106.825,177.458c0-1.838-1.471-4.941-4.412-4.515s-4.618,7.75,2.677,9.383C106.193,182.575,106.825,181.325,106.825,177.458Z" transform="translate(-46.335 -150.529)" fill="#ebb376"/>
      <path id="Path_16918" data-name="Path 16918" d="M99.229,158.573s11.28-2.853,17.5,1.691c7.353,5.294,10.044,10.765,1.471,19.265,0,0-18.927-6.132-25.221-4.838a67.453,67.453,0,0,0-10.794,3.132C80.816,165.323,92.934,156.014,99.229,158.573Z" transform="translate(-54.724 -157.689)" fill="#263238"/>
      <path id="Path_16919" data-name="Path 16919" d="M111.213,163.43s5.221,3.559,2.824,9.044-9.427,5.618-9.427,5.618" transform="translate(-44.12 -154.987)" fill="none" stroke="#263238" stroke-linecap="round" stroke-linejoin="round" stroke-width="0.5"/>
      <path id="Path_16920" data-name="Path 16920" d="M117,181.659s-2.941,13.618,1.677,25.236c0,0-26.765,9.28-36.074,4.235s-.779-21.971-.382-31.736,4.632-24.192,18.795-20.956S117,181.659,117,181.659Z" transform="translate(-56.514 -157.554)" fill="#263238"/>
      <path id="Path_16921" data-name="Path 16921" d="M129.753,422.146a14.443,14.443,0,0,0-4.6-2.5h0s-5.015-4.985-7.353-19.956l-6.574-1.721a5.618,5.618,0,0,0-5.971,2.338,3.132,3.132,0,0,0-.412.868,38.43,38.43,0,0,0-.706,4.868,134.544,134.544,0,0,0-.088,16.441h1.177l.471-10.294c.176-3.515,2.941.6,3.632,4.412s2.4,7.794,10.088,7.971C128.3,424.69,132.018,424.337,129.753,422.146Z" transform="translate(-44.484 -44.68)" fill="#263238"/>
      <path id="Path_16922" data-name="Path 16922" d="M104.769,402.658c-.426-3.5-.559-9.588-.559-9.588l14.589,1.618s-1.765,6.927-.309,12.133C111.137,404.879,104.769,402.658,104.769,402.658Z" transform="translate(-44.308 -46.914)" fill="#263238"/>
      <path id="Path_16923" data-name="Path 16923" d="M89.393,422.146a14.443,14.443,0,0,0-4.6-2.5h0s-5.015-4.985-7.353-19.956l-6.574-1.721a5.618,5.618,0,0,0-5.971,2.338,3.133,3.133,0,0,0-.412.868,38.425,38.425,0,0,0-.706,4.868,134.541,134.541,0,0,0-.088,16.441h1.177l.471-10.294c.176-3.515,2.941.6,3.632,4.412s2.4,7.794,10.088,7.971C87.937,424.69,91.658,424.337,89.393,422.146Z" transform="translate(-63.478 -44.68)" fill="#263238"/>
      <path id="Path_16924" data-name="Path 16924" d="M64.424,402.658c-.441-3.5-.574-9.588-.574-9.588l14.589,1.618s-1.765,6.927-.309,12.133C70.777,404.879,64.424,402.658,64.424,402.658Z" transform="translate(-63.303 -46.914)" fill="#263238"/>
      <path id="Path_16925" data-name="Path 16925" d="M80.008,203.336s9.309-3.647,17.647-5.882a141.07,141.07,0,0,1,19.795-3.441,131.8,131.8,0,0,1,18.971-.75c-.176,3.059-.309,5.882-.427,8.647-.162,3.574-.279,6.882-.353,9.956-.147,5.765-.132,10.706,0,15.089a147.237,147.237,0,0,0,3.456,28.412l9.412,22.839L92.082,285.4l3.191-22.486h0c-9.353-27.251-13.368-41.6-14.883-49.751C78.744,204.057,80.008,203.336,80.008,203.336Z" transform="translate(-55.916 -140.98)" fill="#263238"/>
      <path id="Path_16926" data-name="Path 16926" d="M80.008,203.336s9.309-3.647,17.647-5.882a141.07,141.07,0,0,1,19.795-3.441,131.8,131.8,0,0,1,18.971-.75c-.176,3.059-.309,5.882-.427,8.647-.162,3.574-.279,6.882-.353,9.956-.147,5.765-.132,10.706,0,15.089a147.237,147.237,0,0,0,3.456,28.412l9.412,22.839L92.082,285.4l3.191-22.486h0c-9.353-27.251-13.368-41.6-14.883-49.751C78.744,204.057,80.008,203.336,80.008,203.336Z" transform="translate(-55.916 -140.98)" fill="#fff" opacity="0.1"/>
      <path id="Path_16927" data-name="Path 16927" d="M157.242,234l12.794,3.809a25.971,25.971,0,0,1,4.662-.971c1.353,0,12.986,4.412,14.544,5.883s-7.353,9.309-7.838,9.691-12.53-4.412-13.1-4.647-.779-2.044-.779-2.044l-14.162-3.588Z" transform="translate(-21.177 -121.775)" fill="#ebb376"/>
      <path id="Path_16928" data-name="Path 16928" d="M119.5,193.2c7.044,4.647,24.751,48.707,27.074,49.869s36.765,11.044,36.765,11.044l-4.294,10.736s-37.707-6.721-41.486-9.353-18.839-30-18.839-30a69.811,69.811,0,0,1-3.177-18.339A24.339,24.339,0,0,1,119.5,193.2Z" transform="translate(-38.979 -140.977)" fill="#263238"/>
    </g>
    <g id="freepik--Device--inject-10" transform="translate(229.379 371.183)">
      <rect id="Rectangle_3701" data-name="Rectangle 3701" width="10.471" height="55.795" transform="translate(155.1 158.915)" fill="url(#linear-gradient)"/>
      <rect id="Rectangle_3702" data-name="Rectangle 3702" width="6.059" height="55.795" transform="translate(159.512 158.915)" fill="url(#linear-gradient)"/>
      <rect id="Rectangle_3703" data-name="Rectangle 3703" width="6.059" height="55.795" transform="translate(159.512 158.915)" opacity="0.2"/>
      <path id="Path_16929" data-name="Path 16929" d="M271.911,378.06v22.986l-6.059-2.059-4.412-1.5V378.06Z" transform="translate(-106.34 -219.145)" opacity="0.2"/>
      <rect id="Rectangle_3704" data-name="Rectangle 3704" width="10.471" height="55.795" transform="translate(199.218 158.915)" fill="url(#linear-gradient)"/>
      <rect id="Rectangle_3705" data-name="Rectangle 3705" width="10.471" height="55.795" transform="translate(63.921 158.915)" fill="url(#linear-gradient)"/>
      <rect id="Rectangle_3706" data-name="Rectangle 3706" width="10.471" height="55.795" transform="translate(63.921 158.915)" opacity="0.2"/>
      <path id="Path_16930" data-name="Path 16930" d="M346.884,360.08v82.237h-7.824V391.566H242.1v50.751H227.749V391.566H204.087v50.751H199.44V360.08Z" transform="translate(-135.519 -227.607)" fill="url(#linear-gradient)"/>
      <path id="Path_16931" data-name="Path 16931" d="M222.083,364.217h-2.6V351.29h5.206Z" transform="translate(-126.087 -231.743)" fill="#263238"/>
      <path id="Path_16932" data-name="Path 16932" d="M335.787,360.08v82.237h-7.824V391.566H231.005v50.751H223.02V360.08Z" transform="translate(-124.421 -227.607)" opacity="0.2"/>
      <path id="Path_16933" data-name="Path 16933" d="M308.359,345.462h.088l-25.353-6.132a6.218,6.218,0,0,0-1.75-.279h-57.1a6.309,6.309,0,0,0-6.294,5.735L216.8,356.962a6.294,6.294,0,0,0,4.309,6.559h0l.4.1.485.118,24.751,6.044h0a6.175,6.175,0,0,0,1.588.221h57.016a6.324,6.324,0,0,0,6.294-5.735l1.147-12.177A6.324,6.324,0,0,0,308.359,345.462Z" transform="translate(-127.362 -237.504)" fill="#263238"/>
      <path id="Path_16934" data-name="Path 16934" d="M308.359,345.462h.088l-25.353-6.132a6.218,6.218,0,0,0-1.75-.279h-57.1a6.309,6.309,0,0,0-6.294,5.735L216.8,356.962a6.294,6.294,0,0,0,4.309,6.559h0l.4.1.485.118,24.751,6.044h0a6.175,6.175,0,0,0,1.588.221h57.016a6.324,6.324,0,0,0,6.294-5.735l1.147-12.177A6.324,6.324,0,0,0,308.359,345.462Z" transform="translate(-127.362 -237.504)" fill="#fff" opacity="0.2"/>
      <path id="Path_16935" data-name="Path 16935" d="M297.292,368.024H240.217a6.338,6.338,0,0,1-6.309-6.912l1.147-12.177a6.324,6.324,0,0,1,6.294-5.735h57.1a6.338,6.338,0,0,1,6.309,6.912l-1.147,12.177A6.324,6.324,0,0,1,297.292,368.024Z" transform="translate(-119.309 -235.551)" fill="#fff" opacity="0.1"/>
      <g id="Group_21775" data-name="Group 21775" transform="translate(125.584 114.822)" opacity="0.1">
        <path id="Path_16936" data-name="Path 16936" d="M270.457,354.317a7.191,7.191,0,0,1-7.074,6.25,5.588,5.588,0,0,1-5.75-6.25,7.206,7.206,0,0,1,7.074-6.235,5.574,5.574,0,0,1,5.75,6.235Z" transform="translate(-233.735 -348.077)" fill="#fff"/>
        <path id="Path_16937" data-name="Path 16937" d="M280.879,355.3H271.57a.838.838,0,0,1-.868-.941l.279-2.647a1.088,1.088,0,0,1,1.074-.941h9.382a.838.838,0,0,1,.868.941l-.279,2.647A1.088,1.088,0,0,1,280.879,355.3Z" transform="translate(-227.569 -346.81)" fill="#fff"/>
        <path id="Path_16938" data-name="Path 16938" d="M244.679,358.466H241.37l.338-3.206h3.309Z" transform="translate(-241.37 -344.697)" fill="#fff"/>
        <path id="Path_16939" data-name="Path 16939" d="M247.764,358.466H244.47l.338-3.206H248.1Z" transform="translate(-239.911 -344.697)" fill="#fff"/>
      </g>
      <path id="Path_16940" data-name="Path 16940" d="M161.056,296.143a1.544,1.544,0,0,1-.956-.338l-3.6-3.044a1.472,1.472,0,1,1,1.9-2.25l3.6,3.044a1.471,1.471,0,0,1-.941,2.588Z" transform="translate(-155.974 -260.51)" fill="url(#linear-gradient)"/>
      <path id="Path_16941" data-name="Path 16941" d="M176.266,308.888a1.544,1.544,0,0,1-.956-.338q-5.882-4.956-11.765-9.868a1.471,1.471,0,1,1,1.882-2.25q5.883,4.912,11.765,9.868a1.471,1.471,0,0,1-.941,2.588Z" transform="translate(-152.699 -257.755)" fill="url(#linear-gradient)"/>
      <path id="Path_16942" data-name="Path 16942" d="M184.708,316.088a1.471,1.471,0,0,1-.956-.353l-6.985-5.882a1.476,1.476,0,1,1,1.912-2.25l6.971,5.882a1.477,1.477,0,0,1-.941,2.6Z" transform="translate(-146.434 -252.469)" fill="url(#linear-gradient)"/>
      <path id="Path_16943" data-name="Path 16943" d="M212,339.291a1.47,1.47,0,0,1-.941-.338q-12.28-10.294-24.471-20.765l-.353-.309a1.466,1.466,0,1,1,1.9-2.235l.368.309q12.191,10.383,24.456,20.75a1.471,1.471,0,0,1-.956,2.588Z" transform="translate(-141.978 -248.686)" fill="url(#linear-gradient)"/>
      <path id="Path_16944" data-name="Path 16944" d="M216.4,342.819a1.47,1.47,0,0,1-.941-.338l-7.044-5.883a1.467,1.467,0,0,1,1.882-2.25l7.044,5.882a1.458,1.458,0,0,1-.941,2.588Z" transform="translate(-131.54 -239.876)" fill="url(#linear-gradient)"/>
      <path id="Path_16945" data-name="Path 16945" d="M201.9,280.5a1.471,1.471,0,0,1-1.338-.853l-1.985-4.412a1.471,1.471,0,0,1,2.677-1.221l1.985,4.412a1.471,1.471,0,0,1-.721,1.941,1.339,1.339,0,0,1-.618.132Z" transform="translate(-135.989 -268.514)" fill="url(#linear-gradient)"/>
      <path id="Path_16946" data-name="Path 16946" d="M212.946,304.012a1.471,1.471,0,0,1-1.338-.853c-3.118-6.853-5.882-12.794-8.588-18.147a1.476,1.476,0,0,1,2.647-1.309c2.677,5.4,5.485,11.353,8.618,18.236a1.474,1.474,0,0,1-1.338,2.074Z" transform="translate(-133.906 -263.938)" fill="url(#linear-gradient)"/>
      <path id="Path_16947" data-name="Path 16947" d="M216.638,312.707a1.471,1.471,0,0,1-1.353-.868c-1.074-2.456-2.147-4.9-3.235-7.353a1.471,1.471,0,0,1,2.691-1.176q1.632,3.662,3.235,7.353a1.426,1.426,0,0,1-1.338,2.044Z" transform="translate(-129.628 -254.706)" fill="url(#linear-gradient)"/>
      <path id="Path_16948" data-name="Path 16948" d="M231.51,345.162a1.471,1.471,0,0,1-1.324-.824c-4.824-9.75-9.324-19.795-13.456-29.206a1.472,1.472,0,1,1,2.691-1.191c4.118,9.383,8.6,19.4,13.4,29.089a1.471,1.471,0,0,1-1.309,2.132Z" transform="translate(-127.441 -249.733)" fill="url(#linear-gradient)"/>
      <path id="Path_16949" data-name="Path 16949" d="M239.291,288.353a1.471,1.471,0,0,1-1.471-1.471V271.471a1.471,1.471,0,1,1,2.941,0V286.9A1.471,1.471,0,0,1,239.291,288.353Z" transform="translate(-117.456 -270)" fill="url(#linear-gradient)"/>
      <path id="Path_16950" data-name="Path 16950" d="M239.379,297.9a1.471,1.471,0,0,1-1.471-1.471l-.088-7.721a1.471,1.471,0,0,1,2.941,0l.088,7.735a1.471,1.471,0,0,1-1.471,1.471Z" transform="translate(-117.456 -261.887)" fill="url(#linear-gradient)"/>
      <path id="Path_16951" data-name="Path 16951" d="M239.4,332.79h0a1.471,1.471,0,0,1-1.471-1.471V299.951a1.471,1.471,0,0,1,1.471-1.471h0a1.471,1.471,0,0,1,1.471,1.471c0,10.588.074,21.148,0,31.4A1.471,1.471,0,0,1,239.4,332.79Z" transform="translate(-117.404 -256.597)" fill="url(#linear-gradient)"/>
      <path id="Path_16952" data-name="Path 16952" d="M239.291,338.749h0a1.471,1.471,0,0,1-1.471-1.471c0-3.044.074-6.074.1-9.118a1.471,1.471,0,0,1,2.941,0c0,3.044,0,6.074-.1,9.118A1.471,1.471,0,0,1,239.291,338.749Z" transform="translate(-117.456 -243.321)" fill="url(#linear-gradient)"/>
      <path id="Path_16953" data-name="Path 16953" d="M276.053,296.486a1.617,1.617,0,0,1-.824-.221,1.471,1.471,0,0,1-.5-2.029l4.412-7.265a1.471,1.471,0,1,1,2.515,1.471l-4.412,7.28a1.471,1.471,0,0,1-1.191.765Z" transform="translate(-100.188 -262.441)" fill="url(#linear-gradient)"/>
      <path id="Path_16954" data-name="Path 16954" d="M262.271,324.775a1.471,1.471,0,0,1-1.265-2.221c4.206-7.147,9.809-16.53,15.765-25.662a1.47,1.47,0,1,1,2.456,1.618c-5.883,9.074-11.5,18.412-15.692,25.545A1.471,1.471,0,0,1,262.271,324.775Z" transform="translate(-106.641 -257.656)" fill="url(#linear-gradient)"/>
      <path id="Path_16955" data-name="Path 16955" d="M255.831,330.033a1.559,1.559,0,0,1-.75-.206,1.471,1.471,0,0,1-.515-2.015l4.529-7.721a1.467,1.467,0,1,1,2.529,1.485l-4.529,7.735A1.471,1.471,0,0,1,255.831,330.033Z" transform="translate(-109.672 -246.767)" fill="url(#linear-gradient)"/>
      <path id="Path_16956" data-name="Path 16956" d="M249.9,339.266a1.476,1.476,0,0,1-1.25-2.25q1.824-2.941,3.618-5.883A1.471,1.471,0,0,1,254.8,332.6c-1.206,1.985-2.412,3.971-3.647,5.956A1.471,1.471,0,0,1,249.9,339.266Z" transform="translate(-112.463 -241.514)" fill="url(#linear-gradient)"/>
      <g id="Group_21776" data-name="Group 21776" opacity="0.7">
        <path id="Path_16957" data-name="Path 16957" d="M161.056,296.143a1.544,1.544,0,0,1-.956-.338l-3.6-3.044a1.472,1.472,0,1,1,1.9-2.25l3.6,3.044a1.471,1.471,0,0,1-.941,2.588Z" transform="translate(-155.974 -260.51)" fill="#fff"/>
        <path id="Path_16958" data-name="Path 16958" d="M176.266,308.888a1.544,1.544,0,0,1-.956-.338q-5.882-4.956-11.765-9.868a1.471,1.471,0,1,1,1.882-2.25q5.883,4.912,11.765,9.868a1.471,1.471,0,0,1-.941,2.588Z" transform="translate(-152.699 -257.755)" fill="#fff"/>
        <path id="Path_16959" data-name="Path 16959" d="M184.708,316.088a1.471,1.471,0,0,1-.956-.353l-6.985-5.882a1.476,1.476,0,1,1,1.912-2.25l6.971,5.882a1.477,1.477,0,0,1-.941,2.6Z" transform="translate(-146.434 -252.469)" fill="#fff"/>
        <path id="Path_16960" data-name="Path 16960" d="M212,339.291a1.47,1.47,0,0,1-.941-.338q-12.28-10.294-24.471-20.765l-.353-.309a1.466,1.466,0,1,1,1.9-2.235l.368.309q12.191,10.383,24.456,20.75a1.471,1.471,0,0,1-.956,2.588Z" transform="translate(-141.978 -248.686)" fill="#fff"/>
        <path id="Path_16961" data-name="Path 16961" d="M216.4,342.819a1.47,1.47,0,0,1-.941-.338l-7.044-5.883a1.467,1.467,0,0,1,1.882-2.25l7.044,5.882a1.458,1.458,0,0,1-.941,2.588Z" transform="translate(-131.54 -239.876)" fill="#fff"/>
        <path id="Path_16962" data-name="Path 16962" d="M201.9,280.5a1.471,1.471,0,0,1-1.338-.853l-1.985-4.412a1.471,1.471,0,0,1,2.677-1.221l1.985,4.412a1.471,1.471,0,0,1-.721,1.941,1.339,1.339,0,0,1-.618.132Z" transform="translate(-135.989 -268.514)" fill="#fff"/>
        <path id="Path_16963" data-name="Path 16963" d="M212.946,304.012a1.471,1.471,0,0,1-1.338-.853c-3.118-6.853-5.882-12.794-8.588-18.147a1.476,1.476,0,0,1,2.647-1.309c2.677,5.4,5.485,11.353,8.618,18.236a1.474,1.474,0,0,1-1.338,2.074Z" transform="translate(-133.906 -263.938)" fill="#fff"/>
        <path id="Path_16964" data-name="Path 16964" d="M216.638,312.707a1.471,1.471,0,0,1-1.353-.868c-1.074-2.456-2.147-4.9-3.235-7.353a1.471,1.471,0,0,1,2.691-1.176q1.632,3.662,3.235,7.353a1.426,1.426,0,0,1-1.338,2.044Z" transform="translate(-129.628 -254.706)" fill="#fff"/>
        <path id="Path_16965" data-name="Path 16965" d="M231.51,345.162a1.471,1.471,0,0,1-1.324-.824c-4.824-9.75-9.324-19.795-13.456-29.206a1.472,1.472,0,1,1,2.691-1.191c4.118,9.383,8.6,19.4,13.4,29.089a1.471,1.471,0,0,1-1.309,2.132Z" transform="translate(-127.441 -249.733)" fill="#fff"/>
        <path id="Path_16966" data-name="Path 16966" d="M239.291,288.353a1.471,1.471,0,0,1-1.471-1.471V271.471a1.471,1.471,0,1,1,2.941,0V286.9A1.471,1.471,0,0,1,239.291,288.353Z" transform="translate(-117.456 -270)" fill="#fff"/>
        <path id="Path_16967" data-name="Path 16967" d="M239.379,297.9a1.471,1.471,0,0,1-1.471-1.471l-.088-7.721a1.471,1.471,0,0,1,2.941,0l.088,7.735a1.471,1.471,0,0,1-1.471,1.471Z" transform="translate(-117.456 -261.887)" fill="#fff"/>
        <path id="Path_16968" data-name="Path 16968" d="M239.4,332.79h0a1.471,1.471,0,0,1-1.471-1.471V299.951a1.471,1.471,0,0,1,1.471-1.471h0a1.471,1.471,0,0,1,1.471,1.471c0,10.588.074,21.148,0,31.4A1.471,1.471,0,0,1,239.4,332.79Z" transform="translate(-117.404 -256.597)" fill="#fff"/>
        <path id="Path_16969" data-name="Path 16969" d="M239.291,338.749h0a1.471,1.471,0,0,1-1.471-1.471c0-3.044.074-6.074.1-9.118a1.471,1.471,0,0,1,2.941,0c0,3.044,0,6.074-.1,9.118A1.471,1.471,0,0,1,239.291,338.749Z" transform="translate(-117.456 -243.321)" fill="#fff"/>
        <path id="Path_16970" data-name="Path 16970" d="M276.053,296.486a1.617,1.617,0,0,1-.824-.221,1.471,1.471,0,0,1-.5-2.029l4.412-7.265a1.471,1.471,0,1,1,2.515,1.471l-4.412,7.28a1.471,1.471,0,0,1-1.191.765Z" transform="translate(-100.188 -262.441)" fill="#fff"/>
        <path id="Path_16971" data-name="Path 16971" d="M262.271,324.775a1.471,1.471,0,0,1-1.265-2.221c4.206-7.147,9.809-16.53,15.765-25.662a1.47,1.47,0,1,1,2.456,1.618c-5.883,9.074-11.5,18.412-15.692,25.545A1.471,1.471,0,0,1,262.271,324.775Z" transform="translate(-106.641 -257.656)" fill="#fff"/>
        <path id="Path_16972" data-name="Path 16972" d="M255.831,330.033a1.559,1.559,0,0,1-.75-.206,1.471,1.471,0,0,1-.515-2.015l4.529-7.721a1.467,1.467,0,1,1,2.529,1.485l-4.529,7.735A1.471,1.471,0,0,1,255.831,330.033Z" transform="translate(-109.672 -246.767)" fill="#fff"/>
        <path id="Path_16973" data-name="Path 16973" d="M249.9,339.266a1.476,1.476,0,0,1-1.25-2.25q1.824-2.941,3.618-5.883A1.471,1.471,0,0,1,254.8,332.6c-1.206,1.985-2.412,3.971-3.647,5.956A1.471,1.471,0,0,1,249.9,339.266Z" transform="translate(-112.463 -241.514)" fill="#fff"/>
      </g>
    </g>
  </g>
</svg>
