<svg xmlns="http://www.w3.org/2000/svg" xmlns:xlink="http://www.w3.org/1999/xlink" width="680.154" height="651.75" viewBox="0 0 680.154 651.75">
  <defs>
    <linearGradient id="linear-gradient" x1="0.5" x2="0.5" y2="1" gradientUnits="objectBoundingBox">
      <stop offset="0" stop-color="#5ba9ae"/>
      <stop offset="1" stop-color="#5b86ae"/>
    </linearGradient>
  </defs>
  <g id="Business_analytics-amico" data-name="Business analytics-amico" transform="translate(-11.15 -33.409)">
    <g id="freepik--Floor--inject-19" transform="translate(11.15 265.221)">
      <ellipse id="freepik--floor--inject-19-2" data-name="freepik--floor--inject-19" cx="340.077" cy="209.969" rx="340.077" ry="209.969" fill="#f5f5f5"/>
    </g>
    <g id="freepik--Shadows--inject-19" transform="translate(379.247 393.278)">
      <ellipse id="freepik--Shadow--inject-19" cx="73.454" cy="42.415" rx="73.454" ry="42.415" transform="translate(130.435)" fill="#e6e6e6"/>
      <ellipse id="freepik--shadow--inject-19-2" data-name="freepik--shadow--inject-19" cx="85.471" cy="49.349" rx="85.471" ry="49.349" transform="translate(0 136.985)" fill="#e6e6e6"/>
    </g>
    <g id="freepik--Gears--inject-19" transform="translate(84.389 37.917)">
      <g id="freepik--gears--inject-19-2" data-name="freepik--gears--inject-19">
        <path id="Path_16976" data-name="Path 16976" d="M80.26,124.87a2.2,2.2,0,0,1-.441,0l-4.4-.683a2.42,2.42,0,0,1-1.993-3.147l2.406-8.13a1.851,1.851,0,0,0-.627-1.737,15.493,15.493,0,0,1-1.31-1.424.712.712,0,0,0-1-.2l-5.453,4.186A2.008,2.008,0,0,1,64.1,112.6l-1.424-6.222a4.442,4.442,0,0,1,1.011-3.8l5.41-5.7a4.271,4.271,0,0,0,.954-2.321q.122-2.146.456-4.271a1.139,1.139,0,0,0-.669-1.182l-3.474-1.224a2.62,2.62,0,0,1-1.523-1.424,2.577,2.577,0,0,1-.085-2.05l3.346-9.07a3.631,3.631,0,0,1,3.2-2.278H75.49a2.392,2.392,0,0,0,1.737-1.039,42.818,42.818,0,0,1,2.848-4.271,3.83,3.83,0,0,0,.626-2.364l-.783-6.151a4.556,4.556,0,0,1,1.424-3.7l6.037-5.581a2.05,2.05,0,0,1,3.431.84l1.794,4.77a.47.47,0,0,0,.271.313.626.626,0,0,0,.5,0,22.954,22.954,0,0,1,2.734-1.111,3.3,3.3,0,0,0,1.751-1.424l3.574-8.045a3.317,3.317,0,0,1,3.417-1.865l4.414.669a2.435,2.435,0,0,1,1.936,3l-2.463,8.116a1.879,1.879,0,0,0,.584,1.694,11.206,11.206,0,0,1,1.31,1.424.712.712,0,0,0,1,.2l5.51-4.172a2.008,2.008,0,0,1,3.3,1.182l1.424,6.208a4.471,4.471,0,0,1-1.025,3.816l-5.41,5.7a4.4,4.4,0,0,0-.954,2.321,35.6,35.6,0,0,1-.456,4.357,1.139,1.139,0,0,0,.683,1.182l3.46,1.21a2.648,2.648,0,0,1,1.623,3.431l-3.346,9.07a3.645,3.645,0,0,1-3.2,2.278h-4.271a2.392,2.392,0,0,0-1.723,1.039c-.883,1.424-1.822,2.848-2.848,4.271a4.029,4.029,0,0,0-.626,2.364l.8,6.151a4.656,4.656,0,0,1-1.424,3.7l-6.165,5.539a2.065,2.065,0,0,1-3.446-.84L92.035,112.6a.484.484,0,0,0-.285-.313.626.626,0,0,0-.5,0,22.029,22.029,0,0,1-2.734,1.111,3.3,3.3,0,0,0-1.751,1.424l-3.56,8.045A3.389,3.389,0,0,1,80.26,124.87Zm-6.977-17.4a2.748,2.748,0,0,1,2.136,1.068,10.038,10.038,0,0,0,1.125,1.2,3.816,3.816,0,0,1,1.125,3.688l-2.406,8.144a.484.484,0,0,0,0,.427.541.541,0,0,0,.384.228l4.4.683a1.424,1.424,0,0,0,1.338-.74l3.574-8.045a5.2,5.2,0,0,1,2.933-2.549,17.94,17.94,0,0,0,2.492-1.011,2.606,2.606,0,0,1,2.065-.1,2.406,2.406,0,0,1,1.424,1.424l1.794,4.77a.193.193,0,0,0,.114.185.484.484,0,0,0,.185-.114l6.151-5.553a2.72,2.72,0,0,0,.74-1.993l-.8-6.165a5.781,5.781,0,0,1,1-3.759c.94-1.3,1.851-2.677,2.691-4.115a4.357,4.357,0,0,1,3.389-1.993l4.186-.071a1.723,1.723,0,0,0,1.424-1l3.346-9.07a.7.7,0,0,0-.427-.911l-3.474-1.21a3.09,3.09,0,0,1-1.951-3.332,38.214,38.214,0,0,0,.427-4.143,6.165,6.165,0,0,1,1.424-3.574l5.41-5.7a2.463,2.463,0,0,0,.527-1.993h0L118.6,55.929v-.171a1.01,1.01,0,0,0-.157.1l-5.581,4.214a2.634,2.634,0,0,1-3.7-.527,9.867,9.867,0,0,0-1.111-1.2,3.8,3.8,0,0,1-1.125-3.688l2.406-8.144a.541.541,0,0,0,0-.427.484.484,0,0,0-.384-.228l-4.485-.683a1.424,1.424,0,0,0-1.338.74l-3.56,8.03a5.268,5.268,0,0,1-2.933,2.563,18.182,18.182,0,0,0-2.492,1,2.534,2.534,0,0,1-2.079.114A2.449,2.449,0,0,1,90.64,56.2l-1.694-4.827a.2.2,0,0,0-.128-.185.47.47,0,0,0-.185.114L82.467,56.84a2.705,2.705,0,0,0-.726,1.993l.8,6.165a5.966,5.966,0,0,1-1,3.759c-.954,1.3-1.851,2.677-2.705,4.115a4.271,4.271,0,0,1-3.389,1.993H71.262a1.709,1.709,0,0,0-1.424,1l-3.36,9.07a.712.712,0,0,0,0,.541.755.755,0,0,0,.413.37l3.46,1.21a3.1,3.1,0,0,1,1.965,3.332,39.071,39.071,0,0,0-.441,4.143A6.251,6.251,0,0,1,70.45,98.1l-5.41,5.7a2.52,2.52,0,0,0-.541,1.993l1.523,6.307a.741.741,0,0,0,0,.171,1.012,1.012,0,0,0,.157-.1L71.717,108a2.549,2.549,0,0,1,1.566-.527Zm13.811-5.311a7.888,7.888,0,0,1-2.321-.342c-2.734-.854-4.684-3.218-5.524-6.678-1.837-7.617,2.292-18.865,9.2-25.073,3.844-3.46,7.988-4.855,11.39-3.8a8.543,8.543,0,0,1,5.524,6.678c1.808,7.617-2.321,18.865-9.226,25.073h0a14.1,14.1,0,0,1-9.041,4.143ZM97.488,67.875a12.216,12.216,0,0,0-7.731,3.645C83.321,77.3,79.463,87.694,81.214,94.685c.683,2.848,2.136,4.627,4.271,5.268,2.705.826,6.151-.4,9.483-3.389,6.421-5.781,10.28-16.174,8.543-23.165-.669-2.848-2.136-4.627-4.271-5.268a5.894,5.894,0,0,0-1.751-.256Z" transform="translate(-62.589 -33.682)" fill="#e0e0e0"/>
        <path id="Path_16977" data-name="Path 16977" d="M121.531,90.786h-.313l-2.919-.456a1.822,1.822,0,0,1-1.253-.812,1.851,1.851,0,0,1-.2-1.424l1.609-5.4a1.153,1.153,0,0,0-.342-.968,11.392,11.392,0,0,1-.9-.954c0-.1-.271-.242-.441-.114l-3.659,2.848a1.552,1.552,0,0,1-1.424.271,1.523,1.523,0,0,1-.968-1.139l-1-4.129a3.118,3.118,0,0,1,.726-2.677l3.588-3.759a2.748,2.748,0,0,0,.584-1.424,26.2,26.2,0,0,1,.313-2.848.6.6,0,0,0-.356-.612l-2.307-.812a1.922,1.922,0,0,1-1.168-2.477l2.235-6.023a2.563,2.563,0,0,1,2.264-1.609h2.848a1.424,1.424,0,0,0,1.025-.612,32.749,32.749,0,0,1,1.879-2.848,2.477,2.477,0,0,0,.384-1.424l-.527-4.086a3.261,3.261,0,0,1,.954-2.591l4.1-3.673a1.552,1.552,0,0,1,1.424-.413,1.609,1.609,0,0,1,1.1,1.025l1.182,3.175c.157.142.228.128.3.085a15.988,15.988,0,0,1,1.837-.74,2.036,2.036,0,0,0,1.068-.9l2.378-5.339A2.335,2.335,0,0,1,137.99,36.6l2.933.456a1.766,1.766,0,0,1,1.424,2.278l-1.595,5.41a1.082,1.082,0,0,0,.342.968,7.12,7.12,0,0,1,.883.954.328.328,0,0,0,.456.1L146.078,44a1.451,1.451,0,0,1,2.392.869L149.452,49a3.09,3.09,0,0,1-.712,2.663l-3.588,3.773a2.847,2.847,0,0,0-.6,1.424,26.716,26.716,0,0,1-.3,2.848.6.6,0,0,0,.342.612l2.307.8a1.965,1.965,0,0,1,1.111,1,1.908,1.908,0,0,1,0,1.424l-2.221,6.023a2.549,2.549,0,0,1-2.264,1.609h-2.848a1.424,1.424,0,0,0-1.025.612c-.57.982-1.21,1.936-1.865,2.848a2.477,2.477,0,0,0-.4,1.424l.527,4.1a3.218,3.218,0,0,1-.954,2.577l-4.044,3.6a1.509,1.509,0,0,1-2.534-.626l-1.2-3.161c-.157-.142-.228-.128-.3-.1a14.237,14.237,0,0,1-1.837.755,1.979,1.979,0,0,0-1.068.9l-2.321,5.339A2.378,2.378,0,0,1,121.531,90.786Zm-4.6-11.86a1.979,1.979,0,0,1,1.538.769,7.616,7.616,0,0,0,.726.783,2.691,2.691,0,0,1,.8,2.606L118.4,88.437l.157.242,2.848.456a.74.74,0,0,0,.726-.4l2.378-5.339a3.631,3.631,0,0,1,2.036-1.78,11.888,11.888,0,0,0,1.637-.655,1.794,1.794,0,0,1,2.506.968l1.182,3.175,4.058-3.688a1.751,1.751,0,0,0,.441-1.2l-.541-4.086a4.058,4.058,0,0,1,.7-2.606c.626-.869,1.224-1.78,1.78-2.719a3.047,3.047,0,0,1,2.378-1.424h2.848a1.025,1.025,0,0,0,.783-.555l2.235-6.023a.342.342,0,0,0,0-.242.356.356,0,0,0-.185-.157l-2.307-.812a2.178,2.178,0,0,1-1.424-2.378,26.6,26.6,0,0,0,.285-2.734,4.4,4.4,0,0,1,1.025-2.477l3.588-3.773a1.424,1.424,0,0,0,.327-1.182h0l-1-4.129-3.56,2.848a1.908,1.908,0,0,1-2.677-.384,9.279,9.279,0,0,0-.712-.769,2.663,2.663,0,0,1-.8-2.606l1.595-5.41v-.2h-.2l-2.848-.456a.74.74,0,0,0-.726.4l-2.364,5.339a3.659,3.659,0,0,1-2.05,1.78,15.276,15.276,0,0,0-1.637.669,1.894,1.894,0,0,1-1.424.071,1.709,1.709,0,0,1-1-1.054l-1.239-3.246-4.044,3.688a1.652,1.652,0,0,0-.441,1.182l.527,4.1a4.072,4.072,0,0,1-.683,2.606,32.039,32.039,0,0,0-1.794,2.719,3.075,3.075,0,0,1-2.378,1.424h-2.848a1.025,1.025,0,0,0-.8.555l-2.178,6.051a.271.271,0,0,0,0,.242.313.313,0,0,0,.185.171l2.307.812a2.207,2.207,0,0,1,1.424,2.378,23.151,23.151,0,0,0-.285,2.734,4.271,4.271,0,0,1-1.039,2.463L111.564,76.8a1.538,1.538,0,0,0-.313,1.182l.982,4.129,3.574-2.848a1.851,1.851,0,0,1,1.139-.342Zm9.169-3.218a5.311,5.311,0,0,1-1.58-.228,5.852,5.852,0,0,1-3.773-4.542c-1.239-5.111,1.523-12.658,6.151-16.815,2.591-2.335,5.4-3.261,7.689-2.549a5.838,5.838,0,0,1,3.787,4.542c1.224,5.111-1.538,12.643-6.165,16.8h0a9.5,9.5,0,0,1-6.094,2.791Zm6.905-22.781a7.945,7.945,0,0,0-5.026,2.378c-4.271,3.8-6.792,10.65-5.7,15.235a4.271,4.271,0,0,0,2.691,3.389c1.737.541,3.987-.271,6.151-2.221h0c4.271-3.8,6.777-10.636,5.7-15.235a4.271,4.271,0,0,0-2.691-3.374,3.616,3.616,0,0,0-1.111-.157Z" transform="translate(-42.636 -36.575)" fill="#e0e0e0"/>
      </g>
      <g id="freepik--gears--inject-19-3" data-name="freepik--gears--inject-19" transform="translate(208.93 383.399)">
        <path id="Path_16978" data-name="Path 16978" d="M261.837,387.419h-.427l-4.4-.683a2.42,2.42,0,0,1-1.993-3.147l2.406-8.13a1.951,1.951,0,0,0-.584-1.709,12.146,12.146,0,0,1-1.31-1.424.726.726,0,0,0-1-.214l-5.51,4.172a2.008,2.008,0,0,1-3.3-1.182l-1.495-6.208a4.457,4.457,0,0,1,1.025-3.8l5.41-5.7a4.4,4.4,0,0,0,.954-2.321,36.218,36.218,0,0,1,.456-4.357,1.153,1.153,0,0,0-.683-1.182l-3.46-1.21A2.648,2.648,0,0,1,246.3,346.9l3.346-9.07a3.673,3.673,0,0,1,3.2-2.278l4.271-.071a2.378,2.378,0,0,0,1.723-1.025,45.427,45.427,0,0,1,2.848-4.271,3.987,3.987,0,0,0,.626-2.349l-.8-6.165a4.627,4.627,0,0,1,1.424-3.688l6.165-5.539a2.178,2.178,0,0,1,1.965-.569A2.15,2.15,0,0,1,272.5,313.3l1.78,4.77a.57.57,0,0,0,.285.313.584.584,0,0,0,.5,0,19.934,19.934,0,0,1,2.734-1.1,3.389,3.389,0,0,0,1.751-1.5l3.56-8.03a3.346,3.346,0,0,1,3.431-1.88l4.4.684a2.42,2.42,0,0,1,1.993,3.147l-2.406,8.13a1.908,1.908,0,0,0,.57,1.709,13.672,13.672,0,0,1,1.324,1.424.7.7,0,0,0,1,.214l5.5-4.172a2.008,2.008,0,0,1,3.3,1.182l1.495,6.208a4.4,4.4,0,0,1-1.011,3.8l-5.41,5.7a4.271,4.271,0,0,0-.954,2.321,42.278,42.278,0,0,1-.456,4.357,1.153,1.153,0,0,0,.669,1.182l3.474,1.21a2.606,2.606,0,0,1,1.523,1.424,2.563,2.563,0,0,1,.085,2.05l-3.346,9.07a3.659,3.659,0,0,1-3.2,2.278H290.9a2.378,2.378,0,0,0-1.737,1.025,50.509,50.509,0,0,1-2.848,4.271,3.787,3.787,0,0,0-.627,2.349l.8,6.165a4.584,4.584,0,0,1-1.424,3.688l-6.151,5.539a2.136,2.136,0,0,1-1.965.57,2.179,2.179,0,0,1-1.424-1.424l-1.794-4.77a.5.5,0,0,0-.271-.313.57.57,0,0,0-.5,0,20.643,20.643,0,0,1-2.734,1.1,3.332,3.332,0,0,0-1.751,1.495l-3.574,8.03a3.346,3.346,0,0,1-3.061,1.908Zm-6.92-17.385a2.734,2.734,0,0,1,2.136,1.068,11,11,0,0,0,1.111,1.182,3.858,3.858,0,0,1,1.125,3.7l-2.406,8.13a.584.584,0,0,0,0,.441.47.47,0,0,0,.37.214l4.414.683a1.424,1.424,0,0,0,1.338-.726l3.56-8.045a5.239,5.239,0,0,1,2.933-2.549,20.305,20.305,0,0,0,2.492-1.011,2.535,2.535,0,0,1,2.079-.1,2.463,2.463,0,0,1,1.424,1.424l1.78,4.77a.625.625,0,0,0,.128.2.741.741,0,0,0,.185-.128l6.165-5.539a2.691,2.691,0,0,0,.726-1.993l-.8-6.151a5.937,5.937,0,0,1,1-3.759c.954-1.31,1.865-2.691,2.705-4.115a4.357,4.357,0,0,1,3.389-2.008l4.186-.071a1.723,1.723,0,0,0,1.424-1l3.346-9.07a.712.712,0,0,0,0-.541.783.783,0,0,0-.4-.37l-3.474-1.21a3.09,3.09,0,0,1-1.965-3.332,38.322,38.322,0,0,0,.441-4.143,6.165,6.165,0,0,1,1.5-3.574l5.4-5.7a2.563,2.563,0,0,0,.541-2.008h0l-1.495-6.208a.992.992,0,0,0,0-.185l-.157.1-5.51,4.172a2.62,2.62,0,0,1-3.688-.541,10.99,10.99,0,0,0-1.111-1.182,3.83,3.83,0,0,1-1.139-3.7l2.406-8.13a.456.456,0,0,0-.413-.655l-4.4-.683a1.424,1.424,0,0,0-1.338.726l-3.574,8.044a5.2,5.2,0,0,1-2.933,2.549,22.317,22.317,0,0,0-2.492,1.011,2.491,2.491,0,0,1-2.065.1,2.464,2.464,0,0,1-1.424-1.424l-1.794-4.77a.484.484,0,0,0-.114-.2.428.428,0,0,0-.185.128l-6.165,5.539a2.691,2.691,0,0,0-.74,1.979l.8,6.165a5.7,5.7,0,0,1-1,3.759,47.912,47.912,0,0,0-2.691,4.129,4.4,4.4,0,0,1-3.389,1.993l-4.186.071a1.709,1.709,0,0,0-1.424.982l-3.332,9.112a.712.712,0,0,0,0,.541.754.754,0,0,0,.413.37l3.474,1.21a3.061,3.061,0,0,1,1.951,3.317,36.132,36.132,0,0,0-.427,4.158,6.165,6.165,0,0,1-1.424,3.574l-5.41,5.7a2.506,2.506,0,0,0-.527,2.008l1.495,6.208a.484.484,0,0,0,0,.185l.157-.1,5.5-4.172a2.591,2.591,0,0,1,1.509-.555Zm13.8-5.325a7.788,7.788,0,0,1-2.307-.328,8.543,8.543,0,0,1-5.524-6.678c-1.837-7.617,2.278-18.865,9.2-25.073,3.844-3.474,7.988-4.855,11.391-3.816,2.734.854,4.684,3.218,5.524,6.678,1.837,7.617-2.292,18.865-9.2,25.088h0a14.082,14.082,0,0,1-9.084,4.129Zm10.394-34.271a12.244,12.244,0,0,0-7.731,3.645c-6.421,5.781-10.28,16.174-8.543,23.165a6.606,6.606,0,0,0,4.271,5.254c2.691.84,6.151-.4,9.468-3.374,6.436-5.795,10.294-16.189,8.614-23.18-.683-2.848-2.136-4.613-4.271-5.254a5.5,5.5,0,0,0-1.808-.256Z" transform="translate(-194.575 -305.852)" fill="#e0e0e0"/>
        <path id="Path_16979" data-name="Path 16979" d="M221.191,385.157h-.313l-2.919-.456a1.78,1.78,0,0,1-1.253-.812,1.737,1.737,0,0,1-.2-1.424l1.609-5.4a1.153,1.153,0,0,0-.342-.968,11.4,11.4,0,0,1-.9-.954c-.085-.1-.271-.242-.441-.114l-3.659,2.776a1.552,1.552,0,0,1-1.424.271,1.523,1.523,0,0,1-.968-1.139l-1-4.129a3.161,3.161,0,0,1,.712-2.677l3.6-3.759a2.848,2.848,0,0,0,.584-1.424,23.179,23.179,0,0,1,.313-2.848.6.6,0,0,0-.356-.612l-2.307-.812a1.908,1.908,0,0,1-1.1-.982,1.951,1.951,0,0,1-.071-1.5L213,352.182a2.563,2.563,0,0,1,2.264-1.609h2.776a1.424,1.424,0,0,0,1.025-.612,32.746,32.746,0,0,1,1.879-2.848,2.477,2.477,0,0,0,.384-1.424l-.527-4.086a3.26,3.26,0,0,1,.954-2.591l4.1-3.673a1.509,1.509,0,0,1,2.52.612l1.182,3.175c.157.142.228.128.3.085a16,16,0,0,1,1.837-.74,2.036,2.036,0,0,0,1.068-.9l2.378-5.339a2.349,2.349,0,0,1,2.435-1.338l2.933.456a1.809,1.809,0,0,1,1.253.812,1.766,1.766,0,0,1,.185,1.424L240.356,339a1.082,1.082,0,0,0,.342.968,9.449,9.449,0,0,1,.883.954.327.327,0,0,0,.456.1l3.645-2.762a1.6,1.6,0,0,1,1.424-.285,1.566,1.566,0,0,1,.954,1.153l1,4.129a3.118,3.118,0,0,1-.712,2.663l-3.56,3.645a2.662,2.662,0,0,0-.6,1.424,26.356,26.356,0,0,1-.3,2.919.6.6,0,0,0,.342.612l2.307.8a1.965,1.965,0,0,1,1.111,1,1.908,1.908,0,0,1,0,1.424l-2.164,6.065a2.606,2.606,0,0,1-2.278,1.609h-2.848a1.424,1.424,0,0,0-1.025.612c-.584.982-1.21,1.936-1.865,2.848a2.477,2.477,0,0,0-.4,1.424l.527,4.1a3.2,3.2,0,0,1-.954,2.577l-4.086,3.688a1.609,1.609,0,0,1-1.424.413,1.58,1.58,0,0,1-1.082-1.039l-1.2-3.161c-.157-.142-.228-.128-.3-.1a14.232,14.232,0,0,1-1.837.755,1.979,1.979,0,0,0-1.068.9l-2.378,5.339a2.349,2.349,0,0,1-2.079,1.4Zm-4.6-11.846a1.965,1.965,0,0,1,1.538.755,7.614,7.614,0,0,0,.726.783,2.734,2.734,0,0,1,.8,2.606l-1.609,5.4.157.242,2.919.456a.755.755,0,0,0,.726-.384l2.378-5.354a3.631,3.631,0,0,1,2.036-1.78,11.891,11.891,0,0,0,1.637-.655,1.794,1.794,0,0,1,2.506.968l1.182,3.175,4.058-3.688a1.68,1.68,0,0,0,.427-1.2l-.527-4.086a4.058,4.058,0,0,1,.7-2.606c.626-.868,1.224-1.78,1.78-2.719A3.018,3.018,0,0,1,240.4,363.8h2.848a1.025,1.025,0,0,0,.783-.555l2.221-6.037a.342.342,0,0,0,0-.242.427.427,0,0,0-.185-.157L243.758,356a2.178,2.178,0,0,1-1.424-2.378,26.6,26.6,0,0,0,.285-2.734,4.271,4.271,0,0,1,1.025-2.477l3.588-3.773a1.537,1.537,0,0,0,.328-1.182h0l-1-4.129L243,342.173a1.908,1.908,0,0,1-2.677-.37,6.392,6.392,0,0,0-.726-.783,2.691,2.691,0,0,1-.783-2.606l1.595-5.41v-.2h-.2l-2.919-.456a.74.74,0,0,0-.726.4l-2.378,5.339a3.588,3.588,0,0,1-2.036,1.78,15.28,15.28,0,0,0-1.637.669,1.894,1.894,0,0,1-1.495.071,1.708,1.708,0,0,1-1-1.054l-1.2-3.161-4.044,3.688a1.652,1.652,0,0,0-.441,1.182l.527,4.1a4.158,4.158,0,0,1-.683,2.606,32.034,32.034,0,0,0-1.794,2.719,3.032,3.032,0,0,1-2.378,1.424h-2.776a1.025,1.025,0,0,0-.8.555l-2.221,6.023a.271.271,0,0,0,0,.242.313.313,0,0,0,.185.171l2.307.812a2.207,2.207,0,0,1,1.424,2.378,23.158,23.158,0,0,0-.285,2.734,4.271,4.271,0,0,1-1.039,2.463l-3.588,3.773a1.609,1.609,0,0,0-.327,1.182l1,4.129,3.574-2.848a1.836,1.836,0,0,1,1.125-.356Zm9.169-3.232a5.239,5.239,0,0,1-1.58-.228,5.823,5.823,0,0,1-3.773-4.542c-1.239-5.111,1.523-12.658,6.151-16.8,2.591-2.335,5.4-3.275,7.689-2.563a5.838,5.838,0,0,1,3.787,4.542c1.224,5.112-1.538,12.643-6.165,16.8h0a9.5,9.5,0,0,1-6.108,2.848Zm6.891-22.781a8,8,0,0,0-5.026,2.378c-4.271,3.816-6.777,10.65-5.7,15.235a4.271,4.271,0,0,0,2.691,3.389c1.737.541,3.987-.271,6.151-2.221h0c4.271-3.8,6.777-10.636,5.7-15.235a4.272,4.272,0,0,0-2.691-3.374,3.647,3.647,0,0,0-1.125-.1Z" transform="translate(-209.329 -295.247)" fill="#e0e0e0"/>
      </g>
    </g>
    <g id="freepik--chart-3--inject-19" transform="translate(62.829 53.082)">
      <g id="freepik--screen-3--inject-19">
        <path id="Path_16980" data-name="Path 16980" d="M270.776,52.87a3.346,3.346,0,0,0-1.424-3.147h0l-3.787-2.15h0a3.346,3.346,0,0,0-3.46.3L52.293,168.982a10.65,10.65,0,0,0-4.827,8.358v187.2a3.374,3.374,0,0,0,1.424,3.132h0l3.873,2.207h0a3.389,3.389,0,0,0,3.417-.342L265.949,248.43a10.678,10.678,0,0,0,4.827-8.358Z" transform="translate(-47.446 -47.226)" opacity="0.4" fill="url(#linear-gradient)"/>
        <path id="Path_16981" data-name="Path 16981" d="M269.584,52.229v187.2a10.664,10.664,0,0,1-4.812,8.358L54.987,368.913c-2.364,1.424-4.271.527-4.727-1.837a4.055,4.055,0,0,0,.84-.4l209.77-121.1a10.65,10.65,0,0,0,4.827-8.358V49.994a4.272,4.272,0,0,0-.085-.968C267.875,48.185,269.584,49.481,269.584,52.229Z" transform="translate(-46.253 -46.571)" opacity="0.4" fill="url(#linear-gradient)"/>
        <path id="Path_16982" data-name="Path 16982" d="M265.007,49.24l-16.146,9.967L206.147,84.195l-52.581,30.47L93.125,149.547,66.784,164.7l-6.578,3.8-3.289,1.894c-.527.313-1.168.641-1.595.94a8.543,8.543,0,0,0-1.3,1.1,9.967,9.967,0,0,0-2.762,6.236v84.261l-.171,38.842c-.1,40.507-.384,23.649-.626,64.171-.256-40.522-.527-23.664-.626-64.171l-.171-38.842V178.65a11.575,11.575,0,0,1,3.2-7.39,9.652,9.652,0,0,1,1.538-1.338c.626-.413,1.125-.669,1.68-1l3.289-1.908,6.578-3.816,26.284-15.221,60.412-34.912,52.681-30.284,43.013-24.5Z" transform="translate(-46.504 -46.373)" fill="#fff"/>
        <g id="Group_21781" data-name="Group 21781" transform="translate(25.962 49.611)" opacity="0.5">
          <path id="Path_16983" data-name="Path 16983" d="M76.957,278.868,65.68,285.374V153.131l11.277-6.521Z" transform="translate(-65.68 -54.717)" fill="#fff"/>
          <path id="Path_16984" data-name="Path 16984" d="M90.922,270.8,79.66,277.3V145.061l11.262-6.521Z" transform="translate(-59.755 -58.138)" fill="#fff"/>
          <path id="Path_16985" data-name="Path 16985" d="M104.907,262.723,93.63,269.244V136.987l11.277-6.507Z" transform="translate(-53.835 -61.553)" fill="#fff"/>
          <path id="Path_16986" data-name="Path 16986" d="M118.877,254.653,107.6,261.174V128.917l11.277-6.507Z" transform="translate(-47.914 -64.974)" fill="#fff"/>
          <path id="Path_16987" data-name="Path 16987" d="M132.857,246.6,121.58,253.1V120.847l11.277-6.507Z" transform="translate(-41.989 -68.394)" fill="#fff"/>
          <path id="Path_16988" data-name="Path 16988" d="M146.827,238.528l-11.277,6.507V112.777l11.277-6.507Z" transform="translate(-36.068 -71.814)" fill="#fff"/>
          <path id="Path_16989" data-name="Path 16989" d="M160.792,230.458l-11.262,6.507V104.721L160.792,98.2Z" transform="translate(-30.144 -75.234)" fill="#fff"/>
          <path id="Path_16990" data-name="Path 16990" d="M174.777,222.383,163.5,228.89V96.647l11.277-6.507Z" transform="translate(-24.223 -78.65)" fill="#fff"/>
          <path id="Path_16991" data-name="Path 16991" d="M188.742,214.313l-11.262,6.521V88.577l11.262-6.507Z" transform="translate(-18.298 -82.07)" fill="#fff"/>
        </g>
        <path id="Path_16992" data-name="Path 16992" d="M76.129,250.106l-9.169,5.3A2.506,2.506,0,0,0,65.92,257.4v.214c0,.769.47,1.125,1.039.8l9.169-5.3a2.506,2.506,0,0,0,1.054-2.008v-.2C77.182,250.135,76.712,249.779,76.129,250.106Z" transform="translate(-39.617 38.704)" fill="#455a64"/>
        <path id="Path_16993" data-name="Path 16993" d="M90.109,242.037l-9.169,5.3a2.506,2.506,0,0,0-1.039,1.993v.214c0,.769.47,1.125,1.039.783l9.169-5.282a2.52,2.52,0,0,0,1.054-2.008v-.2C91.162,242.037,90.692,241.71,90.109,242.037Z" transform="translate(-33.692 35.283)" fill="#455a64"/>
        <path id="Path_16994" data-name="Path 16994" d="M104.089,233.969l-9.169,5.3a2.506,2.506,0,0,0-1.039,1.993v.214c0,.769.47,1.125,1.039.783l9.169-5.3a2.477,2.477,0,0,0,1.054-1.993v-.214C105.142,233.983,104.672,233.627,104.089,233.969Z" transform="translate(-27.767 31.862)" fill="#455a64"/>
        <path id="Path_16995" data-name="Path 16995" d="M118.039,225.9l-9.169,5.282a2.549,2.549,0,0,0-1.039,2.008v.2c0,.769.47,1.125,1.039.8l9.169-5.24a2.463,2.463,0,0,0,1.039-1.993v-.214C119.121,225.913,118.665,225.557,118.039,225.9Z" transform="translate(-21.855 28.442)" fill="#455a64"/>
        <path id="Path_16996" data-name="Path 16996" d="M132.039,217.816l-9.169,5.3a2.534,2.534,0,0,0-1.039,2.008v.2c0,.769.47,1.125,1.039.8l9.169-5.3a2.506,2.506,0,0,0,1.039-1.993v-.214C133.092,217.845,132.622,217.489,132.039,217.816Z" transform="translate(-15.921 25.02)" fill="#455a64"/>
        <path id="Path_16997" data-name="Path 16997" d="M146.039,209.746l-9.169,5.3a2.463,2.463,0,0,0-1.039,1.993v.242c0,.769.456,1.125,1.039.8l9.169-5.3a2.534,2.534,0,0,0,1.039-2.008v-.2C147.064,209.775,146.594,209.419,146.039,209.746Z" transform="translate(-9.988 21.6)" fill="#455a64"/>
        <path id="Path_16998" data-name="Path 16998" d="M160.043,201.677l-9.169,5.3a2.477,2.477,0,0,0-1.054,1.993v.214c0,.769.47,1.125,1.054.783l9.169-5.282a2.549,2.549,0,0,0,1.039-2.008v-.2C161.04,201.691,160.57,201.349,160.043,201.677Z" transform="translate(-4.059 18.179)" fill="#455a64"/>
        <path id="Path_16999" data-name="Path 16999" d="M174.043,193.609l-9.169,5.3a2.477,2.477,0,0,0-1.054,1.993v.214c0,.769.47,1.125,1.054.783l9.169-5.3a2.506,2.506,0,0,0,1.039-1.993v-.214C175.011,193.623,174.541,193.267,174.043,193.609Z" transform="translate(1.874 14.757)" fill="#455a64"/>
        <path id="Path_17000" data-name="Path 17000" d="M187.973,185.539l-9.169,5.282a2.52,2.52,0,0,0-1.054,2.008v.2c0,.769.47,1.125,1.054.8l9.169-5.3a2.506,2.506,0,0,0,1.039-1.993v-.214C189.012,185.553,188.542,185.2,187.973,185.539Z" transform="translate(7.778 11.337)" fill="#455a64"/>
        <path id="Path_17001" data-name="Path 17001" d="M65.68,225.271l11.277-6.521v29.544L65.68,254.8Z" transform="translate(-39.718 25.467)" fill="url(#linear-gradient)"/>
        <path id="Path_17002" data-name="Path 17002" d="M79.66,195.8l11.262-6.507v60L79.66,255.8Z" transform="translate(-33.793 12.982)" fill="url(#linear-gradient)"/>
        <path id="Path_17003" data-name="Path 17003" d="M93.63,161.061l11.277-6.521v97.987L93.63,259.048Z" transform="translate(-27.873 -1.746)" fill="url(#linear-gradient)"/>
        <path id="Path_17004" data-name="Path 17004" d="M107.6,190.247l11.277-6.507v44.921L107.6,235.182Z" transform="translate(-21.952 10.629)" fill="url(#linear-gradient)"/>
        <path id="Path_17005" data-name="Path 17005" d="M121.58,175.171l11.277-6.521v54.931l-11.277,6.507Z" transform="translate(-16.027 4.234)" fill="url(#linear-gradient)"/>
        <path id="Path_17006" data-name="Path 17006" d="M135.55,155.177l11.277-6.507v71.888l-11.277,6.507Z" transform="translate(-10.107 -4.234)" fill="url(#linear-gradient)"/>
        <path id="Path_17007" data-name="Path 17007" d="M149.53,174.257l11.262-6.507v33.232l-11.262,6.507Z" transform="translate(-4.182 3.853)" fill="url(#linear-gradient)"/>
        <path id="Path_17008" data-name="Path 17008" d="M163.5,158.747l11.277-6.507v43.825L163.5,202.572Z" transform="translate(1.739 -2.721)" fill="url(#linear-gradient)"/>
        <path id="Path_17009" data-name="Path 17009" d="M177.48,145.737l11.262-6.507v50.858L177.48,196.61Z" transform="translate(7.664 -8.234)" fill="url(#linear-gradient)"/>
        <path id="Path_17010" data-name="Path 17010" d="M65.68,173.411l11.277-6.521v73.839L65.68,247.25Z" transform="translate(-39.718 3.488)" fill="url(#linear-gradient)"/>
        <path id="Path_17011" data-name="Path 17011" d="M79.66,177.131l11.262-6.521v26.6L79.66,203.714Z" transform="translate(-33.793 5.065)" fill="url(#linear-gradient)"/>
        <path id="Path_17012" data-name="Path 17012" d="M93.63,144.757l11.277-6.507v23.194L93.63,167.965Z" transform="translate(-27.873 -8.65)" fill="url(#linear-gradient)"/>
        <path id="Path_17013" data-name="Path 17013" d="M107.6,149.2l11.277-6.507v58.447L107.6,207.644Z" transform="translate(-21.952 -6.768)" fill="url(#linear-gradient)"/>
        <path id="Path_17014" data-name="Path 17014" d="M121.58,157.807l11.277-6.507V176l-11.277,6.521Z" transform="translate(-16.027 -3.119)" fill="url(#linear-gradient)"/>
        <path id="Path_17015" data-name="Path 17015" d="M135.55,112.777l11.277-6.507v60.37l-11.277,6.507Z" transform="translate(-10.107 -22.203)" fill="url(#linear-gradient)"/>
        <path id="Path_17016" data-name="Path 17016" d="M149.53,153.837l11.262-6.507V176.4l-11.262,6.507Z" transform="translate(-4.182 -4.801)" fill="url(#linear-gradient)"/>
        <path id="Path_17017" data-name="Path 17017" d="M163.5,112.567l11.277-6.507v65.752L163.5,178.318Z" transform="translate(1.739 -22.292)" fill="url(#linear-gradient)"/>
        <path id="Path_17018" data-name="Path 17018" d="M177.48,129.657l11.262-6.507v22.895l-11.262,6.507Z" transform="translate(7.664 -15.049)" fill="url(#linear-gradient)"/>
        <g id="Group_21782" data-name="Group 21782" transform="translate(25.962 83.768)" opacity="0.4">
          <path id="Path_17019" data-name="Path 17019" d="M65.68,173.411l11.277-6.521v73.839L65.68,247.25Z" transform="translate(-65.68 -80.28)" fill="#fff"/>
          <path id="Path_17020" data-name="Path 17020" d="M79.66,177.131l11.262-6.521v26.6L79.66,203.714Z" transform="translate(-59.755 -78.703)" fill="#fff"/>
          <path id="Path_17021" data-name="Path 17021" d="M93.63,144.757l11.277-6.507v23.194L93.63,167.965Z" transform="translate(-53.835 -92.418)" fill="#fff"/>
          <path id="Path_17022" data-name="Path 17022" d="M107.6,149.2l11.277-6.507v58.447L107.6,207.644Z" transform="translate(-47.914 -90.536)" fill="#fff"/>
          <path id="Path_17023" data-name="Path 17023" d="M121.58,157.807l11.277-6.507V176l-11.277,6.521Z" transform="translate(-41.989 -86.887)" fill="#fff"/>
          <path id="Path_17024" data-name="Path 17024" d="M135.55,112.777l11.277-6.507v60.37l-11.277,6.507Z" transform="translate(-36.068 -105.971)" fill="#fff"/>
          <path id="Path_17025" data-name="Path 17025" d="M149.53,153.837l11.262-6.507V176.4l-11.262,6.507Z" transform="translate(-30.144 -88.569)" fill="#fff"/>
          <path id="Path_17026" data-name="Path 17026" d="M163.5,112.567l11.277-6.507v65.752L163.5,178.318Z" transform="translate(-24.223 -106.06)" fill="#fff"/>
          <path id="Path_17027" data-name="Path 17027" d="M177.48,129.657l11.262-6.507v22.895l-11.262,6.507Z" transform="translate(-18.298 -98.817)" fill="#fff"/>
        </g>
      </g>
    </g>
    <g id="freepik--chart-2--inject-19" transform="translate(62.841 334.004)">
      <g id="freepik--screen-2--inject-19">
        <path id="Path_17028" data-name="Path 17028" d="M136.5,246.261l.285-.071Z" transform="translate(-9.717 -243.826)" fill="#455a64"/>
        <path id="Path_17029" data-name="Path 17029" d="M137.11,246.1Z" transform="translate(-9.458 -243.864)" fill="#455a64"/>
        <path id="Path_17030" data-name="Path 17030" d="M137.66,246.11h0Z" transform="translate(-9.225 -243.86)" fill="#455a64"/>
        <path id="Path_17031" data-name="Path 17031" d="M50.564,387.068a1.14,1.14,0,0,1-.114-.228,1.694,1.694,0,0,0,.114.228Z" transform="translate(-46.185 -184.217)" fill="#455a64"/>
        <path id="Path_17032" data-name="Path 17032" d="M51.348,387.818l-.228-.128Z" transform="translate(-45.902 -183.857)" fill="#455a64"/>
        <path id="Path_17033" data-name="Path 17033" d="M53.037,387.8l-.327.085Z" transform="translate(-45.228 -183.81)" fill="#455a64"/>
        <path id="Path_17034" data-name="Path 17034" d="M52.33,388Z" transform="translate(-45.389 -183.726)" fill="#455a64"/>
        <path id="Path_17035" data-name="Path 17035" d="M138.15,246.26l.256.142Z" transform="translate(-9.017 -243.796)" fill="#455a64"/>
        <path id="Path_17036" data-name="Path 17036" d="M50.915,387.525l-.185-.185Z" transform="translate(-46.067 -184.005)" fill="#455a64"/>
        <path id="Path_17037" data-name="Path 17037" d="M51.851,387.961l-.271-.071Z" transform="translate(-45.707 -183.772)" fill="#455a64"/>
        <path id="Path_17038" data-name="Path 17038" d="M50.3,386.489v-.214A.75.75,0,0,0,50.3,386.489Z" transform="translate(-46.251 -184.464)" fill="#455a64"/>
        <path id="Path_17039" data-name="Path 17039" d="M138.89,247a1.821,1.821,0,0,1,.157.285A2.844,2.844,0,0,0,138.89,247Z" transform="translate(-8.704 -243.483)" fill="#455a64"/>
        <path id="Path_17040" data-name="Path 17040" d="M139.867,370.534a10.352,10.352,0,0,1-2.107,5.838,10.38,10.38,0,0,0,2.122-5.838V248.528a.4.4,0,0,0,0-.128.4.4,0,0,1,0,.128Z" transform="translate(-9.183 -242.889)" fill="#455a64"/>
        <path id="Path_17041" data-name="Path 17041" d="M139.12,247.56l.085.327Z" transform="translate(-8.606 -243.245)" fill="#455a64"/>
        <path id="Path_17042" data-name="Path 17042" d="M138.56,246.56l.214.214Z" transform="translate(-8.844 -243.669)" fill="#455a64"/>
        <path id="Path_17043" data-name="Path 17043" d="M51.23,387.783a1.964,1.964,0,0,1-.37-.313A1.964,1.964,0,0,0,51.23,387.783Z" transform="translate(-46.012 -183.95)" fill="#37474f" opacity="0.9"/>
        <path id="Path_17044" data-name="Path 17044" d="M139.18,247.79a5.494,5.494,0,0,1,0,.869,5.5,5.5,0,0,0,0-.869Z" transform="translate(-8.581 -243.148)" fill="#37474f" opacity="0.9"/>
        <path id="Path_17045" data-name="Path 17045" d="M171,340.8,53.851,408.374a5.694,5.694,0,0,1-.911.413,6.405,6.405,0,0,0,.925-.413L171,340.814a9.269,9.269,0,0,0,2.705-2.534A9.027,9.027,0,0,1,171,340.8Z" transform="translate(-45.13 -204.797)" fill="#37474f" opacity="0.9"/>
        <path id="Path_17046" data-name="Path 17046" d="M52.871,387.86a3.723,3.723,0,0,1-.541.128,3.722,3.722,0,0,0,.541-.128Z" transform="translate(-45.389 -183.785)" fill="#37474f" opacity="0.9"/>
        <path id="Path_17047" data-name="Path 17047" d="M50.815,387.471a3.359,3.359,0,0,1-.285-.441A3.359,3.359,0,0,0,50.815,387.471Z" transform="translate(-46.152 -184.137)" fill="#37474f" opacity="0.9"/>
        <path id="Path_17048" data-name="Path 17048" d="M51.707,387.937a1.892,1.892,0,0,1-.427-.157,1.9,1.9,0,0,0,.427.157Z" transform="translate(-45.834 -183.819)" fill="#37474f" opacity="0.9"/>
        <path id="Path_17049" data-name="Path 17049" d="M52.24,388h-.47A2.593,2.593,0,0,0,52.24,388Z" transform="translate(-45.626 -183.726)" fill="#37474f" opacity="0.9"/>
        <path id="Path_17050" data-name="Path 17050" d="M139,247.19a4.59,4.59,0,0,1,.171.527A4.59,4.59,0,0,0,139,247.19Z" transform="translate(-8.657 -243.402)" fill="#37474f" opacity="0.9"/>
        <path id="Path_17051" data-name="Path 17051" d="M136.7,246.228a3.088,3.088,0,0,1,.584-.128A3.088,3.088,0,0,0,136.7,246.228Z" transform="translate(-9.632 -243.864)" fill="#37474f" opacity="0.9"/>
        <path id="Path_17052" data-name="Path 17052" d="M138.71,246.71a2.736,2.736,0,0,1,.256.4,3.818,3.818,0,0,0-.256-.4Z" transform="translate(-8.78 -243.606)" fill="#37474f" opacity="0.9"/>
        <path id="Path_17053" data-name="Path 17053" d="M50.514,387.061a4.274,4.274,0,0,1-.214-.641A4.271,4.271,0,0,0,50.514,387.061Z" transform="translate(-46.249 -184.395)" fill="#37474f" opacity="0.9"/>
        <path id="Path_17054" data-name="Path 17054" d="M137.86,246.15l.413.157Z" transform="translate(-9.14 -243.843)" fill="#37474f" opacity="0.9"/>
        <path id="Path_17055" data-name="Path 17055" d="M137.32,246.093a2.677,2.677,0,0,1,.484,0A2.677,2.677,0,0,0,137.32,246.093Z" transform="translate(-9.369 -243.872)" fill="#37474f" opacity="0.9"/>
        <path id="Path_17056" data-name="Path 17056" d="M138.33,246.36l.327.285Z" transform="translate(-8.941 -243.754)" fill="#37474f" opacity="0.9"/>
        <path id="Path_17057" data-name="Path 17057" d="M50.25,386.23Z" transform="translate(-46.27 -184.476)" fill="#37474f" opacity="0.9"/>
        <path id="Path_17058" data-name="Path 17058" d="M136.45,246.25Z" transform="translate(-9.738 -243.801)" fill="#37474f" opacity="0.9"/>
        <path id="Path_17059" data-name="Path 17059" d="M176.966,249.357a5.491,5.491,0,0,0,0-.869l-.085-.327a4.59,4.59,0,0,0-.171-.527,1.824,1.824,0,0,0-.157-.285,2.731,2.731,0,0,0-.256-.4l-.214-.214-.327-.285-.256-.142-.413-.157H174.8a2.68,2.68,0,0,0-.484,0h-.3a3.085,3.085,0,0,0-.584.128l-.285.071h-.071a5.694,5.694,0,0,0-.854.4L55.017,314.283a10.679,10.679,0,0,0-4.827,8.358V444.647a5.182,5.182,0,0,0,.1.968h0v.214a4.27,4.27,0,0,0,.214.641,1.14,1.14,0,0,0,.114.228,3.36,3.36,0,0,0,.285.441l.185.185a1.964,1.964,0,0,0,.37.313l.228.128a1.889,1.889,0,0,0,.427.157l.271.071h.8a3.731,3.731,0,0,0,.541-.128l.327-.085a5.694,5.694,0,0,0,.911-.413l117.151-67.574a9.027,9.027,0,0,0,2.705-2.52,10.351,10.351,0,0,0,2.107-5.838V249.485a.4.4,0,0,0,.043-.128Z" transform="translate(-46.296 -243.846)" fill="#455a64" opacity="0.8"/>
        <path id="Path_17060" data-name="Path 17060" d="M176.26,247.036h0l-3.787-2.164a2.548,2.548,0,0,0-1.324-.342,4.271,4.271,0,0,0-2.136.641L51.861,312.731a9.968,9.968,0,0,0-3.431,3.659l3.9,2.25a9.682,9.682,0,0,1,3.446-3.673L172.9,247.392a5.7,5.7,0,0,1,.854-.4,4.9,4.9,0,0,1,.085.968V369.953a10.721,10.721,0,0,1-4.812,8.372l-113.25,65.31v4.471L172.9,380.532a10.622,10.622,0,0,0,4.827-8.358V250.183A3.3,3.3,0,0,0,176.26,247.036Z" transform="translate(-47.042 -244.53)" fill="#37474f" opacity="0.5"/>
        <path id="Path_17061" data-name="Path 17061" d="M56.19,422.254v4.471a4.47,4.47,0,0,1-2.164.655,2.506,2.506,0,0,1-1.267-.327L48.9,424.846a3.346,3.346,0,0,1-1.424-3.132V299.707A9.967,9.967,0,0,1,48.9,294.98l3.9,2.25a9.81,9.81,0,0,0-1.424,4.713V423.934a6.663,6.663,0,0,0,0,.954,4.4,4.4,0,0,0,.84-.384Z" transform="translate(-47.455 -223.148)" fill="#37474f" opacity="0.9"/>
        <path id="Path_17062" data-name="Path 17062" d="M172.387,246.54l-97.1,57.066L62.611,310.9l-6.336,3.645A9.525,9.525,0,0,0,52,319.5a8.187,8.187,0,0,0-.641,3.232v10.963l-.869,110.772L49.64,333.691V322.728a9.8,9.8,0,0,1,.755-3.887,12.387,12.387,0,0,1,1.922-3.3,9.8,9.8,0,0,1,3.061-2.477l6.336-3.673L74.358,302Z" transform="translate(-46.529 -243.678)" fill="#fff" opacity="0.4"/>
        <ellipse id="Ellipse_159" data-name="Ellipse 159" cx="56.71" cy="32.078" rx="56.71" ry="32.078" transform="matrix(0.392, -0.92, 0.92, 0.392, 15.1, 144.613)" fill="url(#linear-gradient)"/>
        <ellipse id="Ellipse_160" data-name="Ellipse 160" cx="56.71" cy="32.078" rx="56.71" ry="32.078" transform="matrix(0.392, -0.92, 0.92, 0.392, 15.1, 144.613)" fill="#fafafa"/>
        <path id="Path_17063" data-name="Path 17063" d="M116.1,361.561c9.241-14.238,15.235-32.249,15.235-48.637,0-27.209-16.545-39.71-36.948-27.935v49.264Z" transform="translate(-27.563 -229.261)" fill="url(#linear-gradient)"/>
        <path id="Path_17064" data-name="Path 17064" d="M116.1,361.561c9.241-14.238,15.235-32.249,15.235-48.637,0-27.209-16.545-39.71-36.948-27.935v49.264Z" transform="translate(-27.563 -229.261)" fill="#fff" opacity="0.4"/>
        <path id="Path_17065" data-name="Path 17065" d="M70.459,314.647c-.228-2.093-.925-8.244-1.324-11.86-.185-1.595-1.267-2.221-2.549-1.424h0l-.683.4-6.763,3.9-.683.4h0a6.094,6.094,0,0,0-2.549,4.414l-1.324,13.384c-.085.826.271,1.424.826,1.239a2.435,2.435,0,0,0,1.424-2.022l1.139-12.23a.826.826,0,0,1,.342-.612h0c.214-.114.37,0,.342.327l-1.637,18.2,2.121-1.224v11.39c0,1.011.626,1.424,1.424,1.039h0a3.317,3.317,0,0,0,1.424-2.648V325.924l1.21-.712V336.6c0,1.025.626,1.495,1.424,1.039h0a3.331,3.331,0,0,0,1.424-2.648V323.6L68,322.35,66.43,306a.8.8,0,0,1,.342-.726h0c.171-.114.327,0,.356.2l1.125,10.906c.1.812.726,1.039,1.424.456A2.848,2.848,0,0,0,70.459,314.647Z" transform="translate(-44.439 -220.59)" fill="#37474f"/>
        <path id="Path_17066" data-name="Path 17066" d="M58.22,301.994a6.592,6.592,0,0,1,2.762-5.282c1.523-.883,2.748,0,2.748,2.093a6.607,6.607,0,0,1-2.748,5.268C59.444,304.955,58.22,304.015,58.22,301.994Z" transform="translate(-42.892 -222.559)" fill="#37474f"/>
        <path id="Path_17067" data-name="Path 17067" d="M126.74,312.034a6.635,6.635,0,0,1,2.762-5.282c1.523-.883,2.762,0,2.762,2.093a6.621,6.621,0,0,1-2.762,5.268C127.979,315,126.74,314.055,126.74,312.034Z" transform="translate(-13.853 -218.304)" fill="#37474f"/>
        <path id="Path_17068" data-name="Path 17068" d="M134.625,311.37l-.683.4-6.763,3.9-.7.4-.228.128a4.77,4.77,0,0,0-1.993,3.816h0v13.128c0,.826.5,1.2,1.111.84h0a2.677,2.677,0,0,0,1.111-2.121V320.6a.811.811,0,0,1,.356-.655h0c.185-.114.342,0,.342.256v28.846c0,1.011.612,1.424,1.424,1.039h0a3.3,3.3,0,0,0,1.424-2.648V332.827a1.424,1.424,0,0,1,.612-1.168h0c.342-.2.612,0,.612.456v14.623c0,1.025.626,1.424,1.424,1.054h0a3.36,3.36,0,0,0,1.424-2.662V316.3a.8.8,0,0,1,.342-.655h0c.185-.114.342,0,.342.256v11.262c0,.826.5,1.2,1.111.84h0a2.691,2.691,0,0,0,1.125-2.136V312.737h0c0-1.424-.9-2.136-1.993-1.509Z" transform="translate(-14.904 -216.359)" fill="#37474f"/>
        <path id="Path_17069" data-name="Path 17069" d="M99.261,346.295a1.523,1.523,0,0,0-1.338.826L60.548,336.827v-5.838a.3.3,0,0,0-.6,0v6.065a.3.3,0,0,0,.214.285l37.6,10.437a.342.342,0,0,0,0,.114,1.523,1.523,0,1,0,1.523-1.523Z" transform="translate(-42.159 -208.014)" fill="url(#linear-gradient)"/>
        <path id="Path_17070" data-name="Path 17070" d="M99.261,346.295a1.523,1.523,0,0,0-1.338.826L60.548,336.827v-5.838a.3.3,0,0,0-.6,0v6.065a.3.3,0,0,0,.214.285l37.6,10.437a.342.342,0,0,0,0,.114,1.523,1.523,0,1,0,1.523-1.523Z" transform="translate(-42.159 -208.014)" fill="#fff" opacity="0.25"/>
        <path id="Path_17071" data-name="Path 17071" d="M139.395,303.017l-32.748-9.084a.2.2,0,0,0,0-.1,1.588,1.588,0,1,0-.185.683l32.506,9.027v5.7a.313.313,0,0,0,.3.3.3.3,0,0,0,.3-.3v-5.98a.313.313,0,0,0-.171-.242Z" transform="translate(-23.66 -224.28)" fill="#37474f"/>
      </g>
    </g>
    <g id="freepik--chart-1--inject-19" transform="translate(212.329 117.596)">
      <g id="freepik--screen-1--inject-19">
        <path id="Path_17072" data-name="Path 17072" d="M419.686,98.222a3.346,3.346,0,0,0-1.424-3.147h0l-3.787-2.164h0a3.346,3.346,0,0,0-3.531.285L157.293,239.678a10.679,10.679,0,0,0-4.827,8.358V454.488a3.374,3.374,0,0,0,1.424,3.132h0l3.873,2.207h0a3.374,3.374,0,0,0,3.417-.327L414.874,313.032a10.678,10.678,0,0,0,4.827-8.358Z" transform="translate(-152.446 -92.537)" opacity="0.1" fill="url(#linear-gradient)"/>
        <path id="Path_17073" data-name="Path 17073" d="M413.693,94.778,160.012,241.246A10.636,10.636,0,0,0,155.2,249.6V456.056c0,3.075,2.15,4.271,4.827,2.848l253.68-146.538a10.678,10.678,0,0,0,4.827-8.358V97.555C418.519,94.479,416.369,93.226,413.693,94.778Z" transform="translate(-151.279 -91.87)" opacity="0.1" fill="url(#linear-gradient)"/>
        <path id="Path_17074" data-name="Path 17074" d="M418.5,97.548V304a10.664,10.664,0,0,1-4.812,8.358L160.006,458.826c-2.378,1.424-4.343.541-4.756-1.822a7.476,7.476,0,0,0,.854-.4L409.756,310.137a10.679,10.679,0,0,0,4.827-8.358V95.37a5.093,5.093,0,0,0-.085-.968C416.79,93.519,418.5,94.815,418.5,97.548Z" transform="translate(-151.258 -91.864)" opacity="0.15" fill="url(#linear-gradient)"/>
        <path id="Path_17075" data-name="Path 17075" d="M413.934,94.58,306.693,157.057l-50.446,29.5-50.6,29.33-25.3,14.651-12.672,7.3-6.336,3.645a9.426,9.426,0,0,0-4.271,4.955,8.187,8.187,0,0,0-.641,3.232v54.859l-.171,58.49L156,369.233l-.384,86.653-.4-86.653-.256-6.208-.327-58.547V249.619a9.867,9.867,0,0,1,.755-3.9,12.431,12.431,0,0,1,2.022-3.36,11.974,11.974,0,0,1,1.424-1.424,12.287,12.287,0,0,1,1.637-1.068l6.336-3.673,12.558-7.176,25.358-14.58,50.688-29.16,50.8-29Z" transform="translate(-151.521 -91.672)" fill="#fff"/>
        <path id="Path_17076" data-name="Path 17076" d="M388.7,117.484,376.024,124.8l-.94.541-12.672,7.318-.94.541-12.686,7.318-.925.541-12.686,7.261-.94.541-12.672,7.318-.94.541-12.672,7.318-.94.541L294.325,171.9l-.94.541-12,6.948-.669.384-.94.541-12.672,7.3-.94.555-12.686,7.318-.925.541L238.925,203.9l-12.672,7.318-.94.541-11.39,6.55-1.324.769-.94.541-12.686,7.318-.94.541-12.672,7.333-.94.527-12.672,7.318-.94.541V383.779L388.923,257.957l.7-.413V117ZM184.464,374.709l-12.672,7.318V363.376l12.672-7.318Zm0-19.933-12.672,7.318V343.443l12.672-7.318Zm0-19.933-12.672,7.3V323.5l12.672-7.3Zm0-19.933-12.672,7.333V303.59l12.672-7.333Zm0-19.933-12.672,7.318V283.643l12.672-7.318Zm0-19.933-12.672,7.3V263.7l12.672-7.3Zm0-19.933-12.672,7.333V243.79l12.672-7.333Zm13.669,111.755-12.672,7.318V355.531l12.672-7.318Zm0-19.933-12.672,7.318V335.6l12.672-7.318Zm0-19.933-12.672,7.318V315.664l12.672-7.318Zm0-19.933-12.672,7.318V295.731l12.672-7.318Zm0-19.933-12.672,7.318V275.8l12.672-7.318Zm0-19.933-12.672,7.318V255.864l12.672-7.318Zm0-19.933-12.672,7.3V235.917l12.672-7.3ZM211.7,359.048l-12.686,7.3V347.657l12.686-7.318Zm0-19.933-12.686,7.318V327.724l12.686-7.318Zm0-19.933L199.016,326.5V307.847l12.686-7.318Zm0-19.933-12.686,7.318V287.914L211.7,280.6Zm0-19.933-12.686,7.318V267.981l12.686-7.318Zm0-19.933L199.016,266.7V248.047l12.686-7.318Zm0-19.933-12.686,7.318V228.114L211.7,220.8ZM225.313,351l-12.672,7.333V339.684l12.672-7.333Zm0-19.933-12.672,7.318V319.736l12.672-7.318Zm0-19.933-12.672,7.318V299.8l12.672-7.318Zm0-19.933-12.672,7.318V279.87l12.672-7.318Zm0-19.933-12.672,7.318V259.936l12.672-7.318Zm0-19.933-12.672,7.318V240l12.672-7.318Zm0-19.933-12.672,7.318V220.07l12.672-7.318Zm13.612,111.57-12.672,7.3V332l12.672-7.3Zm0-19.933-12.672,7.318v-18.3l12.672-7.318Zm0-19.933-12.672,7.333v-18.31l12.672-7.333Zm0-19.933-12.672,7.3V272.2l12.672-7.3Zm0-19.933-12.672,7.318V251.906l12.672-7.318Zm0-19.933-12.672,7.318V231.973l12.672-7.318Zm0-19.933-12.672,7.318V212.039l12.672-7.318Zm13.626,111.555-12.686,7.333V323.609l12.686-7.333Zm0-19.933-12.686,7.318V304.188l12.686-7.318Zm0-19.933-12.686,7.3V284.283l12.686-7.318Zm0-19.933-12.686,7.318V263.795l12.686-7.333Zm0-19.933-12.686,7.318V244.459l12.686-7.3Zm0-19.933-12.686,7.318V223.928l12.686-7.318Zm0-19.933-12.686,7.318V203.995l12.686-7.333Zm13.612,111.555-12.686,7.959V316.191l12.686-7.3Zm0-19.933-12.686,7.318V296.4l12.686-7.318Zm0-19.933-12.686,7.333V276.467l12.686-7.333Zm0-19.933-12.686,7.3V256.533l12.686-7.3Zm0-19.933-12.686,7.318V236.6l12.686-7.318Zm0-19.933-12.686,7.333V216.667l12.686-7.333Zm0-19.933-12.686,7.3V196.733l12.686-7.3Zm13.612,111.555L267.1,326.172V307.52l12.672-7.333Zm0-19.933L267.1,306.224V287.572l12.672-7.318Zm0-19.933-12.672,7.3V267.625l12.672-7.3Zm0-19.933L267.1,266.372V247.72l12.672-7.333Zm0-19.933L267.1,246.424V227.772l12.672-7.318Zm0-19.933-12.672,7.3V208.85l12.672-7.318Zm0-19.933L267.1,206.572V187.92l12.672-7.333Zm13.612,111.57-12.672,8.372V300.529l12.672-7.318Zm0-19.933-12.672,8.372V280.6l12.672-7.318Zm0-19.933-12.672,8.372V260.662l12.672-7.333Zm0-19.933-12.672,8.372V240.729l12.672-7.3Zm0-19.933-12.672,7.318V220.938l12.672-7.333Zm0-19.933-12.672,7.333V201l12.672-7.333Zm0-19.933-12.672,8.514V181.071l12.672-7.3Zm13.626,111.555-12.686,7.318V291.431l12.686-7.318Zm0-19.933-12.686,7.318V271.5l12.686-7.318Zm0-19.933-12.686,7.318V252.831l12.686-7.3Zm0-19.933L294.325,250.3V231.645l12.686-7.333Zm0-19.933-12.686,7.318V211.7l12.686-7.318Zm0-19.933-12.686,7.3V191.75l12.686-7.3Zm0-19.933L294.325,190.5V171.845l12.686-7.333Zm13.569,112.951-12.672,7.318V284.782l12.672-7.318Zm0-19.933L307.909,283.5V264.848l12.672-7.318Zm0-19.933-12.672,7.318V244.915l12.672-7.318Zm0-19.933-12.672,7.318V225.067l12.672-7.318Zm0-19.933L307.909,223.7V205.048l12.672-7.318Zm0-19.933-12.672,7.318V185.115l12.672-7.318Zm0-19.933-12.672,7.318V165.41l12.672-7.318Zm13.612,111.57-12.672,7.3V276.737l12.672-7.3Zm0-19.933L321.52,275.47V256.818l12.672-7.318Zm0-19.933-12.672,7.318V236.885l12.672-7.318Zm0-19.933L321.52,235.6V216.951l12.672-7.318Zm0-19.933L321.52,215.67V197.3l12.672-7.318Zm0-19.933-12.672,7.318V177.085l12.672-7.318Zm0-19.933-12.672,7.333V157.493l12.672-7.318ZM347.818,280.04l-12.686,7.333v-18.31l12.686-7.318Zm0-19.933-12.686,7.318V248.774l12.686-7.318Zm0-19.933-12.686,7.318V228.84l12.686-7.318Zm0-19.933-12.643,7.817V209.405l12.686-7.318Zm0-19.933-12.643,7.817V189.472l12.686-7.318Zm0-19.933-12.643,7.817V169.539l12.686-7.318Zm0-19.933-12.643,7.817V149.605l12.686-7.318ZM361.43,272.01l-12.686,7.3V260.662l12.686-7.3Zm0-19.933L348.743,259.4V241.3l12.686-7.318Zm0-19.933-12.686,7.333V220.824l12.686-7.333Zm0-19.933-12.686,7.3V200.862l12.686-7.3Zm0-19.933L348.743,199.6V180.943l12.686-7.318Zm0-19.933-12.686,7.318V161.01l12.686-7.318Zm0-19.933-12.686,7.318V141.774l12.686-7.318Zm13.612,111.555L362.369,271.3V252.646l12.672-7.333Zm0-19.933-12.672,7.333V232.713l12.672-7.333Zm0-19.933-12.672,7.3V212.751l12.672-7.3Zm0-19.933-12.672,7.318V192.832l12.672-7.333Zm0-19.933-12.672,7.318V172.9l12.672-7.318Zm0-19.933-12.672,7.318V152.965l12.672-7.318Zm0-19.933L362.369,151.7V133.046l12.672-7.333Zm13.612,111.57-12.672,7.318V244.6l12.672-7.318Zm0-19.933-12.672,7.3V225.58l12.672-7.318Zm0-19.933L375.981,223.4V204.749l12.672-7.333Zm0-19.933-12.672,7.3V184.788l12.672-7.3Zm0-19.933-12.672,7.318V164.868l12.672-7.318Zm0-19.933L375.981,163.6V144.949l12.672-7.333Zm0-19.933-12.672,7.3V124.988l12.672-7.3Z" transform="translate(-144.663 -82.17)" fill="#fff" opacity="0.3"/>
        <path id="Path_17077" data-name="Path 17077" d="M389.623,255.138V122.61l-21.87,51.271-21.884,15.135-21.884,26.1-21.87,8.643-21.884,26.255-21.884-4.485-21.87,21.613-21.884,32.05L192.71,311.82l-21.87,40.351v29.288Z" transform="translate(-144.651 -79.792)" fill="url(#linear-gradient)"/>
        <path id="Path_17078" data-name="Path 17078" d="M389.623,255.138V122.61l-21.87,51.271-21.884,15.135-21.884,26.1-21.87,8.643-21.884,26.255-21.884-4.485-21.87,21.613-21.884,32.05L192.71,311.82l-21.87,40.351v29.288Z" transform="translate(-144.651 -79.792)" fill="#fff" opacity="0.7"/>
        <path id="Path_17079" data-name="Path 17079" d="M171.019,354.125a.592.592,0,0,1-.3-1.111L389.5,226.694a.6.6,0,1,1,.6,1.039L171.318,354.054A.767.767,0,0,1,171.019,354.125Z" transform="translate(-144.83 -35.714)" fill="#455a64"/>
        <path id="Path_17080" data-name="Path 17080" d="M171.018,322.8a.6.6,0,0,1-.6-.612v-9.653a.6.6,0,1,1,1.2,0v9.653a.6.6,0,0,1-.6.612Z" transform="translate(-144.829 0.448)" fill="#455a64"/>
        <path id="Path_17081" data-name="Path 17081" d="M186.38,313.951a.6.6,0,0,1-.6-.6V303.7a.612.612,0,1,1,1.21,0v9.653a.6.6,0,0,1-.612.6Z" transform="translate(-138.321 -3.343)" fill="#455a64"/>
        <path id="Path_17082" data-name="Path 17082" d="M201.748,305.054a.6.6,0,0,1-.6-.6v-9.668a.6.6,0,1,1,1.2,0v9.668a.6.6,0,0,1-.6.6Z" transform="translate(-131.805 -7.075)" fill="#455a64"/>
        <path id="Path_17083" data-name="Path 17083" d="M217.118,296.234a.6.6,0,0,1-.6-.6v-9.668a.6.6,0,1,1,1.2,0v9.668a.6.6,0,0,1-.6.6Z" transform="translate(-125.291 -10.813)" fill="#455a64"/>
        <path id="Path_17084" data-name="Path 17084" d="M232.478,287.29a.6.6,0,0,1-.6-.6v-9.668a.612.612,0,0,1,1.21,0v9.668a.6.6,0,0,1-.612.6Z" transform="translate(-118.781 -14.57)" fill="#455a64"/>
        <path id="Path_17085" data-name="Path 17085" d="M247.848,278.444a.6.6,0,0,1-.6-.612v-9.653a.6.6,0,1,1,1.2,0v9.653a.6.6,0,0,1-.6.612Z" transform="translate(-112.267 -18.353)" fill="#455a64"/>
        <path id="Path_17086" data-name="Path 17086" d="M263.178,269.559a.6.6,0,0,1-.6-.6v-9.653a.584.584,0,0,1,.6-.6.6.6,0,0,1,.6.6v9.653a.6.6,0,0,1-.6.6Z" transform="translate(-105.77 -22.112)" fill="#455a64"/>
        <path id="Path_17087" data-name="Path 17087" d="M278.572,260.738a.6.6,0,0,1-.569-.655V250.43a.612.612,0,1,1,1.21,0v9.653a.6.6,0,0,1-.641.655Z" transform="translate(-99.237 -25.92)" fill="#455a64"/>
        <path id="Path_17088" data-name="Path 17088" d="M293.948,251.824a.6.6,0,0,1-.6-.6v-9.668a.6.6,0,0,1,1.2,0v9.668A.6.6,0,0,1,293.948,251.824Z" transform="translate(-92.73 -29.634)" fill="#455a64"/>
        <path id="Path_17089" data-name="Path 17089" d="M309.322,242.93a.6.6,0,0,1-.612-.6v-9.668a.612.612,0,0,1,1.21,0v9.668A.6.6,0,0,1,309.322,242.93Z" transform="translate(-86.22 -33.37)" fill="#455a64"/>
        <path id="Path_17090" data-name="Path 17090" d="M324.678,234.06a.6.6,0,0,1-.6-.612v-9.653a.612.612,0,0,1,1.21,0v9.653A.612.612,0,0,1,324.678,234.06Z" transform="translate(-79.706 -37.129)" fill="#455a64"/>
        <path id="Path_17091" data-name="Path 17091" d="M389.623,244.568V147.55l-21.87,43.64-21.884,5.5L323.985,219.3l-21.87,7.247L280.231,247.3,258.347,244l-21.87,21.186-21.884,34.8L192.71,316.058l-21.87,33.8v21.03Z" transform="translate(-144.651 -69.222)" fill="url(#linear-gradient)"/>
        <path id="Path_17092" data-name="Path 17092" d="M389.623,244.568V147.55l-21.87,43.64-21.884,5.5L323.985,219.3l-21.87,7.247L280.231,247.3,258.347,244l-21.87,21.186-21.884,34.8L192.71,316.058l-21.87,33.8v21.03Z" transform="translate(-144.651 -69.222)" fill="#fff" opacity="0.4"/>
        <path id="Path_17093" data-name="Path 17093" d="M170.84,362.336l218.783-126.32V167.73L367.141,206.1,345.869,211,324.6,245.456l-22.482,1.908-21.158,18.125-22.61-10.679L236.478,271.9l-21.884,36.478L192.71,320.149l-21.87,28.163Z" transform="translate(-144.651 -60.67)" fill="url(#linear-gradient)"/>
        <path id="Path_17094" data-name="Path 17094" d="M186.19,368.844l21.9-12.643V299.248L186.2,311.82Zm43.782-25.273,21.87-12.643V245.5l-21.87,21.613ZM273.726,318.3l21.827-12.629V223.757l-21.884,26.255Zm43.754-25.258,21.884-12.629V189.016l-21.884,26.1Zm43.768-119.159v93.886l21.87-12.629V122.61Z" transform="translate(-138.145 -79.792)" opacity="0.2" fill="url(#linear-gradient)"/>
        <path id="Path_17095" data-name="Path 17095" d="M273.722,265.143v34.029l8.643-4.983,13.241-7.646V247.359l-21.158,18.125ZM186.2,320.159v29.558l21.9-12.643v-28.69l-21.884,11.761Zm43.768,4.271,7.29-4.271,14.58-8.429V254.777l-21.87,17.086Zm131.275-119.3v43.583l21.87-12.629V167.74Zm-43.768,40.436v28.476l21.884-12.629V211l-21.272,34.456Z" transform="translate(-138.141 -60.666)" opacity="0.15"/>
        <path id="Path_17096" data-name="Path 17096" d="M192.454,316.357l-9.141,5.24a2.477,2.477,0,0,0-1.054,1.993v.214c0,.769.47,1.125,1.054.783l9.155-5.282a2.52,2.52,0,0,0,1.054-2.008v-.2C193.508,316.385,193.038,316.029,192.454,316.357Z" transform="translate(-139.811 2.267)" fill="#37474f"/>
        <path id="Path_17097" data-name="Path 17097" d="M207.829,307.487l-9.169,5.3a2.506,2.506,0,0,0-1.039,1.993v.214c0,.769.47,1.125,1.039.783l9.169-5.282a2.52,2.52,0,0,0,1.039-2.008v-.214C208.868,307.5,208.412,307.159,207.829,307.487Z" transform="translate(-133.301 -1.492)" fill="#37474f"/>
        <path id="Path_17098" data-name="Path 17098" d="M223.2,298.619l-9.169,5.3a2.477,2.477,0,0,0-1.054,1.993v.214c0,.769.47,1.125,1.054.783l9.169-5.3a2.506,2.506,0,0,0,1.039-1.993V299.4C224.242,298.633,223.772,298.277,223.2,298.619Z" transform="translate(-126.791 -5.253)" fill="#37474f"/>
        <path id="Path_17099" data-name="Path 17099" d="M238.559,289.749l-9.155,5.282a2.52,2.52,0,0,0-1.054,2.008v.242c0,.769.47,1.125,1.054.8l9.155-5.3a2.477,2.477,0,0,0,1.054-1.993v-.214C239.612,289.763,239.142,289.407,238.559,289.749Z" transform="translate(-120.277 -9.012)" fill="#37474f"/>
        <path id="Path_17100" data-name="Path 17100" d="M253.929,280.866l-9.169,5.3a2.534,2.534,0,0,0-1.039,2.008v.2c0,.769.47,1.125,1.039.8l9.169-5.3a2.463,2.463,0,0,0,1.039-1.993v-.214C254.968,280.895,254.512,280.539,253.929,280.866Z" transform="translate(-113.763 -12.773)" fill="#37474f"/>
        <path id="Path_17101" data-name="Path 17101" d="M269.3,272.045l-9.169,5.3a2.477,2.477,0,0,0-1.054,1.993v.214c0,.769.47,1.125,1.054.8l9.169-5.3a2.535,2.535,0,0,0,1.039-2.008v-.2C270.357,272.045,269.872,271.66,269.3,272.045Z" transform="translate(-107.254 -16.524)" fill="#37474f"/>
        <path id="Path_17102" data-name="Path 17102" d="M284.659,263.127l-9.169,5.3a2.506,2.506,0,0,0-1.039,1.993v.214c0,.769.47,1.125,1.039.783l9.169-5.282a2.52,2.52,0,0,0,1.054-2.008v-.2C285.712,263.141,285.2,262.8,284.659,263.127Z" transform="translate(-100.74 -20.292)" fill="#37474f"/>
        <path id="Path_17103" data-name="Path 17103" d="M300.039,254.255l-9.169,5.3a2.506,2.506,0,0,0-1.039,1.993v.214c0,.769.47,1.125,1.039.783l9.169-5.3a2.463,2.463,0,0,0,1.039-1.993v-.214C301.064,254.269,300.608,253.942,300.039,254.255Z" transform="translate(-94.222 -24.05)" fill="#37474f"/>
        <path id="Path_17104" data-name="Path 17104" d="M315.4,245.389l-9.169,5.282a2.52,2.52,0,0,0-1.054,2.008v.2c0,.783.47,1.125,1.054.8l9.169-5.3a2.506,2.506,0,0,0,1.039-1.993v-.214C316.442,245.4,315.973,245.047,315.4,245.389Z" transform="translate(-87.716 -27.813)" fill="#37474f"/>
        <path id="Path_17105" data-name="Path 17105" d="M186.378,257.218a.6.6,0,0,1-.6-.6V221.495a.612.612,0,0,1,1.21,0v35.111a.6.6,0,0,1-.612.612Z" transform="translate(-138.319 -38.104)" fill="url(#linear-gradient)"/>
        <path id="Path_17106" data-name="Path 17106" d="M185.654,226.36a2.962,2.962,0,0,1-1.566-.413,3.987,3.987,0,0,1-1.723-3.673,11.291,11.291,0,0,1,5.168-8.97h0a3.559,3.559,0,0,1,5.781,3.332,11.291,11.291,0,0,1-5.168,8.97A5.054,5.054,0,0,1,185.654,226.36Zm4.357-12.6a3.858,3.858,0,0,0-1.865.584h0a10.123,10.123,0,0,0-4.585,7.931,2.392,2.392,0,0,0,3.987,2.335,10.1,10.1,0,0,0,4.585-7.931,2.848,2.848,0,0,0-1.125-2.634,2.008,2.008,0,0,0-1-.285Zm-2.178.071Z" transform="translate(-139.774 -41.702)" fill="url(#linear-gradient)"/>
        <path id="Path_17107" data-name="Path 17107" d="M232.478,204.534a.6.6,0,0,1-.6-.6V189.385a.612.612,0,0,1,1.21,0v14.551a.6.6,0,0,1-.612.6Z" transform="translate(-118.781 -51.712)" fill="url(#linear-gradient)"/>
        <path id="Path_17108" data-name="Path 17108" d="M231.754,194.25a3.1,3.1,0,0,1-1.566-.413,3.987,3.987,0,0,1-1.723-3.673,11.277,11.277,0,0,1,5.168-8.97h0a3.56,3.56,0,0,1,5.781,3.332,11.391,11.391,0,0,1-5.168,8.97,5.054,5.054,0,0,1-2.492.755Zm4.357-12.6a3.858,3.858,0,0,0-1.865.584h0a10.1,10.1,0,0,0-4.585,7.931,2.392,2.392,0,0,0,3.972,2.292,10.1,10.1,0,0,0,4.585-7.931,2.848,2.848,0,0,0-1.125-2.634A1.865,1.865,0,0,0,236.111,181.649Zm-2.178,0Z" transform="translate(-120.236 -55.311)" fill="url(#linear-gradient)"/>
        <path id="Path_17109" data-name="Path 17109" d="M278.578,185.734a.6.6,0,0,1-.6-.6V161.985a.612.612,0,0,1,1.21,0v23.151a.6.6,0,0,1-.612.6Z" transform="translate(-99.244 -63.325)" fill="url(#linear-gradient)"/>
        <path id="Path_17110" data-name="Path 17110" d="M277.854,166.86a3.1,3.1,0,0,1-1.566-.413,3.987,3.987,0,0,1-1.723-3.673,11.248,11.248,0,0,1,5.168-8.97,3.56,3.56,0,0,1,5.781,3.332,11.291,11.291,0,0,1-5.183,8.97A4.969,4.969,0,0,1,277.854,166.86Zm4.357-12.6a3.8,3.8,0,0,0-1.879.584,10.123,10.123,0,0,0-4.57,7.931,2.392,2.392,0,0,0,3.972,2.292,10.1,10.1,0,0,0,4.585-7.931,2.848,2.848,0,0,0-1.125-2.634,1.865,1.865,0,0,0-.982-.242Z" transform="translate(-100.698 -66.919)" fill="url(#linear-gradient)"/>
        <path id="Path_17111" data-name="Path 17111" d="M171.218,337.831a1.139,1.139,0,0,1-.57-.157,1.182,1.182,0,0,1-.484-1.623l17.556-32.406a1.424,1.424,0,0,1,.456-.47l25.956-14.964,21.727-31.822.142-.171,21.884-21.613a1.182,1.182,0,0,1,1.082-.327l21.186,4.271,21.357-25.629a1.2,1.2,0,0,1,.484-.356l21.585-8.543,21.685-25.871a1.14,1.14,0,0,1,.242-.214l17-11.746,21.77-50.972a1.21,1.21,0,0,1,1.58-.641,1.2,1.2,0,0,1,.627,1.58l-21.87,51.257a1.2,1.2,0,0,1-.427.527L347.03,179.789l-21.77,25.984a1.153,1.153,0,0,1-.484.342l-21.585,8.543-21.685,26.013a1.21,1.21,0,0,1-1.168.413L259.1,236.727l-21.357,21.087-21.813,31.95a1.1,1.1,0,0,1-.4.37L189.657,305.07l-17.385,32.121A1.182,1.182,0,0,1,171.218,337.831Z" transform="translate(-145 -83.236)" fill="#fff"/>
        <path id="Path_17112" data-name="Path 17112" d="M325.5,126.2a1.21,1.21,0,0,1-1.21-1.21v-8.543l-7.247,4.271a1.21,1.21,0,0,1-1.637-.441,1.2,1.2,0,0,1,.427-1.637l9.055-5.268a1.224,1.224,0,0,1,1.21,0,1.2,1.2,0,0,1,.6,1.039V125.1a1.21,1.21,0,0,1-1.2,1.1Z" transform="translate(-83.451 -83.777)" fill="#fff"/>
      </g>
    </g>
    <g id="freepik--Icon--inject-19" transform="translate(308.47 78.46)">
      <g id="freepik--money-sign--inject-19">
        <path id="Path_17113" data-name="Path 17113" d="M247.629,88.842l-6.849-3.972L254.05,73.55l6.863,3.958Z" transform="translate(-211.151 -61.448)" fill="url(#linear-gradient)"/>
        <path id="Path_17114" data-name="Path 17114" d="M254.112,86.477C250.6,84,244.5,85.879,239.347,87.5c-1.239.413-2.364.783-3.389,1.1a6.322,6.322,0,0,0-.5,2.392c0,4,3.389,2.848,10.75.484a53.619,53.619,0,0,1,7.617-2.008c.228,2.036,1.637,3.887,7.119.982Z" transform="translate(-213.405 -56.477)" fill="url(#linear-gradient)"/>
        <path id="Path_17115" data-name="Path 17115" d="M238.663,126.26,231.8,122.3v-8.1l6.863,3.972Z" transform="translate(-214.956 -44.22)" fill="url(#linear-gradient)"/>
        <path id="Path_17116" data-name="Path 17116" d="M249.438,101.891c0,3.218-2.42,6.094-6.008,8.173-5.7,3.332-7.945.626-8.429-2.022l-1.21-.7a12.9,12.9,0,0,0,2.848-1.239,12.2,12.2,0,0,0,5.6-5.909C246.391,98.8,249.438,98.26,249.438,101.891Z" transform="translate(-214.113 -50.605)" fill="url(#linear-gradient)"/>
        <path id="Path_17117" data-name="Path 17117" d="M229.767,116.738a4.556,4.556,0,0,0-2.506-.612c-.142-.413-.256-.826-.37-1.281L220,110.9a8.543,8.543,0,0,0,3.844,5.866h0l6.849,3.958A3.218,3.218,0,0,0,229.767,116.738Z" transform="translate(-219.957 -45.618)" fill="url(#linear-gradient)"/>
        <path id="Path_17118" data-name="Path 17118" d="M252.76,100.047c-7.361,2.42-10.75,3.517-10.75-.484a6.321,6.321,0,0,1,.5-2.392c-5.026,1.552-7.361,1.751-7.361-1.566,0-2.449,1.652-5.453,6.194-8.1,4.855-2.848,7.56-2.15,8.244.968l13.27-11.39c0-.171-.128-.327-.185-.5a8.685,8.685,0,0,0,2.349-.9l-5.467-3.261-.527-.313h-.085a9.311,9.311,0,0,0-5.211-.854,22.9,22.9,0,0,0-6.863,1.894v-.142l6.863-4-6.863-3.958h0l-4.642,2.776-6.293,3.659h0v8.1c-9.3,6.763-15.107,15.662-15.107,25.173,0,4.357,1.182,6.834,3.075,8.087h.1l.5.285,5.7,3.232a4.271,4.271,0,0,0-.342-2.591,32.465,32.465,0,0,0,5.382-1.168c6.977-2.107,13.17-5.425,13.17-.256a6.52,6.52,0,0,1-.413,2.278c4.271-1.424,7.276-1.936,7.276,1.694,0,3.218-2.42,6.094-6.008,8.173-5.7,3.332-7.945.626-8.429-2.022h0l-1.21-.7-5.7-3.275L219.97,130.317l6.863,3.972a12.527,12.527,0,0,0,1.054,2.848,22.169,22.169,0,0,0,8.856-2.178v3.275l10.849-1.424v-8.087c9.4-6.934,15.875-16.26,15.875-26.013a13.314,13.314,0,0,0-.769-4.9,38.286,38.286,0,0,0-9.938,2.235Z" transform="translate(-219.97 -65.05)" fill="url(#linear-gradient)"/>
        <path id="Path_17119" data-name="Path 17119" d="M252.76,100.047c-7.361,2.42-10.75,3.517-10.75-.484a6.321,6.321,0,0,1,.5-2.392c-5.026,1.552-7.361,1.751-7.361-1.566,0-2.449,1.652-5.453,6.194-8.1,4.855-2.848,7.56-2.15,8.244.968l13.27-11.39c0-.171-.128-.327-.185-.5a8.685,8.685,0,0,0,2.349-.9l-5.467-3.261-.527-.313h-.085a9.311,9.311,0,0,0-5.211-.854,22.9,22.9,0,0,0-6.863,1.894v-.142l6.863-4-6.863-3.958h0l-4.642,2.776-6.293,3.659h0v8.1c-9.3,6.763-15.107,15.662-15.107,25.173,0,4.357,1.182,6.834,3.075,8.087h.1l.5.285,5.7,3.232a4.271,4.271,0,0,0-.342-2.591,32.465,32.465,0,0,0,5.382-1.168c6.977-2.107,13.17-5.425,13.17-.256a6.52,6.52,0,0,1-.413,2.278c4.271-1.424,7.276-1.936,7.276,1.694,0,3.218-2.42,6.094-6.008,8.173-5.7,3.332-7.945.626-8.429-2.022h0l-1.21-.7-5.7-3.275L219.97,130.317l6.863,3.972a12.527,12.527,0,0,0,1.054,2.848,22.169,22.169,0,0,0,8.856-2.178v3.275l10.849-1.424v-8.087c9.4-6.934,15.875-16.26,15.875-26.013a13.314,13.314,0,0,0-.769-4.9,38.286,38.286,0,0,0-9.938,2.235Z" transform="translate(-219.97 -65.05)" fill="#fff" opacity="0.4"/>
        <path id="Path_17120" data-name="Path 17120" d="M260.663,96.625a38.286,38.286,0,0,0-9.967,2.235c-7.361,2.42-10.75,3.517-10.75-.484a6.321,6.321,0,0,1,.5-2.392,12.914,12.914,0,0,1,5.7-5.7c4.855-2.848,7.56-2.136,8.244.982l13.27-11.39a7.774,7.774,0,0,0-7.7-5.909,20.66,20.66,0,0,0-8.287,1.936V67.85l-6.863,4-4.072,2.364V82.3c-9.3,6.777-15.107,15.662-15.107,25.173a14.1,14.1,0,0,0,.826,5.211c2.05,5.14,7.674,4.428,13.6,2.691,2.079-.626,4.1-1.353,5.909-1.936,4.271-1.424,7.276-1.936,7.276,1.694,0,3.218-2.42,6.094-6.008,8.173-5.7,3.332-7.945.626-8.429-2.022L224.84,133.1a12.531,12.531,0,0,0,1.054,2.848c1.822,3.417,5.069,4.271,8.856,3.844a26.284,26.284,0,0,0,6.863-2.05v8.087l10.849-6.265v-8.144c9.4-6.92,15.875-16.246,15.875-26.013C268.337,98.462,265.006,96.54,260.663,96.625Z" transform="translate(-217.906 -63.863)" fill="url(#linear-gradient)"/>
        <g id="Group_21783" data-name="Group 21783" transform="translate(6.934 3.987)" opacity="0.2">
          <path id="Path_17121" data-name="Path 17121" d="M260.663,96.625a38.286,38.286,0,0,0-9.967,2.235c-7.361,2.42-10.75,3.517-10.75-.484a6.321,6.321,0,0,1,.5-2.392,12.914,12.914,0,0,1,5.7-5.7c4.855-2.848,7.56-2.136,8.244.982l13.27-11.39a7.774,7.774,0,0,0-7.7-5.909,20.66,20.66,0,0,0-8.287,1.936V67.85l-6.863,4-4.072,2.364V82.3c-9.3,6.777-15.107,15.662-15.107,25.173a14.1,14.1,0,0,0,.826,5.211c2.05,5.14,7.674,4.428,13.6,2.691,2.079-.626,4.1-1.353,5.909-1.936,4.271-1.424,7.276-1.936,7.276,1.694,0,3.218-2.42,6.094-6.008,8.173-5.7,3.332-7.945.626-8.429-2.022L224.84,133.1a12.531,12.531,0,0,0,1.054,2.848c1.822,3.417,5.069,4.271,8.856,3.844a26.284,26.284,0,0,0,6.863-2.05v8.087l10.849-6.265v-8.144c9.4-6.92,15.875-16.246,15.875-26.013C268.337,98.462,265.006,96.54,260.663,96.625Z" transform="translate(-224.84 -67.85)" fill="#fff"/>
        </g>
        <path id="Path_17122" data-name="Path 17122" d="M238.043,81.6l-6.863-3.972V69.54l6.863,3.958Z" transform="translate(-215.219 -63.147)" fill="url(#linear-gradient)"/>
        <path id="Path_17123" data-name="Path 17123" d="M244.24,120.3l1.082-.783c.342-.271.755-.6,1.2-1s.982-.826,1.523-1.338,1.139-1.025,1.723-1.637l.911-.94.911-1c.327-.342.626-.7.925-1.068s.612-.726.911-1.111c.584-.783,1.182-1.552,1.709-2.392s1.039-1.666,1.538-2.492a19.18,19.18,0,0,0,1.253-2.549c.356-.854.655-1.694.968-2.477l.342-1.182a2.832,2.832,0,0,1,.157-.57l.128-.541a18.125,18.125,0,0,0,.37-1.979,15.531,15.531,0,0,0,.185-1.552v0a11.39,11.39,0,0,1-.128,1.566,17.244,17.244,0,0,1-.313,1.993l-.1.555a2.6,2.6,0,0,1-.157.57c-.114.4-.214.8-.327,1.21-.3.8-.541,1.666-.94,2.506s-.8,1.709-1.239,2.577a21.08,21.08,0,0,1-1.538,2.534c-.57.812-1.153,1.609-1.737,2.392-.3.384-.626.74-.925,1.111s-.612.726-.925,1.068l-.94,1-.94.911c-.6.612-1.21,1.125-1.766,1.623s-1.082.911-1.552,1.3-.883.7-1.239.954Z" transform="translate(-209.684 -52.666)" fill="#fff"/>
      </g>
    </g>
    <g id="freepik--speech-bubble--inject-19" transform="translate(366.819 33.409)">
      <g id="freepik--speech-bubble--inject-19-2" data-name="freepik--speech-bubble--inject-19">
        <g id="freepik--speech-bubble--inject-19-3" data-name="freepik--speech-bubble--inject-19">
          <path id="Path_17124" data-name="Path 17124" d="M339.749,37.554c-.1-.669-.655-.911-1.31-.527L275.706,73.163a2.72,2.72,0,0,0-.94.982L269,70.8a2.634,2.634,0,0,1,.911-.94l62.733-36.136a2.976,2.976,0,0,1,2.663,0l3.147,1.794a2.99,2.99,0,0,1,1.3,2.036Z" transform="translate(-257.539 -33.409)" fill="#f0f0f0"/>
          <path id="Path_17125" data-name="Path 17125" d="M275.838,121.236a2.933,2.933,0,0,1-2.663,0l-3.161-1.808a2.848,2.848,0,0,1-1.324-2.278V61.023a2.719,2.719,0,0,1,.413-1.353l5.795,3.317a2.691,2.691,0,0,0-.4,1.31v56.141C274.5,121.25,275.054,121.691,275.838,121.236Z" transform="translate(-257.671 -22.28)" fill="#e0e0e0"/>
          <path id="Path_17126" data-name="Path 17126" d="M271.97,73.44,261.291,84.289a1.182,1.182,0,0,0,.2,1.822c.214.142,5.781,3.389,5.781,3.389l10.508-12.658Z" transform="translate(-260.951 -16.444)" fill="#f0f0f0"/>
          <path id="Path_17127" data-name="Path 17127" d="M276.684,131.079c-.342,0-.384-.413-.384-.584V103.742L266.2,105.166a.84.84,0,0,1-.854-.5.811.811,0,0,1,.171-.9L276.3,92.807V74.3a2.591,2.591,0,0,1,1.153-1.993l62.733-36.122a.8.8,0,0,1,.413-.142c.356,0,.384.413.384.6V92.822a2.591,2.591,0,0,1-1.139,1.993L277.1,130.951a.854.854,0,0,1-.413.128Z" transform="translate(-259.115 -32.294)" fill="#fafafa"/>
          <path id="Path_17128" data-name="Path 17128" d="M340.7,36.532a.6.6,0,0,1,0,.242V92.915a2.207,2.207,0,0,1-.982,1.694l-62.733,36.136c-.142.071-.228.085-.228.1a.513.513,0,0,1,0-.256V103.422l-.812.114-9.668,1.424h-.085a.456.456,0,0,1-.413-.3.441.441,0,0,1,.1-.513L276.559,93.3l.2-.214V74.434a2.221,2.221,0,0,1,.968-1.68l62.719-36.136a.484.484,0,0,1,.228-.085m0-.712a1.31,1.31,0,0,0-.6.185l-62.69,36.136a2.848,2.848,0,0,0-1.338,2.292V92.787L265.382,103.65a1.168,1.168,0,0,0,.812,1.993h.214l9.668-1.424v26.355c0,.6.3.94.74.94a1.2,1.2,0,0,0,.6-.185l62.733-36.122A2.962,2.962,0,0,0,341.47,92.9V36.774c0-.6-.3-.954-.726-.954Z" transform="translate(-259.218 -32.387)" fill="#e0e0e0"/>
        </g>
        <path id="Path_17129" data-name="Path 17129" d="M280.457,78.152a1.751,1.751,0,0,1-.883-3.275l45.7-26.4a1.757,1.757,0,1,1,1.751,3.047l-45.69,26.4a1.809,1.809,0,0,1-.883.228Z" transform="translate(-253.434 -27.121)" fill="#e0e0e0"/>
        <path id="Path_17130" data-name="Path 17130" d="M280.457,85.1a1.751,1.751,0,0,1-.883-3.275l45.7-26.4a1.757,1.757,0,1,1,1.751,3.047l-45.69,26.34A1.808,1.808,0,0,1,280.457,85.1Z" transform="translate(-253.434 -24.176)" fill="#e0e0e0"/>
        <path id="Path_17131" data-name="Path 17131" d="M280.457,92.052a1.751,1.751,0,0,1-.883-3.275l45.7-26.4a1.757,1.757,0,1,1,1.751,3.047L281.34,91.838a1.694,1.694,0,0,1-.883.214Z" transform="translate(-253.434 -21.23)" fill="#e0e0e0"/>
        <path id="Path_17132" data-name="Path 17132" d="M280.457,99a1.751,1.751,0,0,1-.883-3.275l45.7-26.4a1.757,1.757,0,1,1,1.751,3.047L281.34,98.76a1.7,1.7,0,0,1-.883.242Z" transform="translate(-253.434 -18.285)" fill="#e0e0e0"/>
      </g>
    </g>
    <g id="freepik--Plants--inject-19" transform="translate(92.961 500.497)">
      <g id="freepik--plants--inject-19-2" data-name="freepik--plants--inject-19" transform="translate(134.166)">
        <path id="Path_17133" data-name="Path 17133" d="M168.051,431.453c-4.371-8.842-6.606-25.13-4.271-40.593,1.979-13,10.636-25.016,20.218-28.476,3.972-1.424,7.119-1.3,9.682,1.111,4.414,4.271,1.424,10.921-2.42,15.391-1.723,1.965-16.5,15.733-15.662,36.877l1.1,10.693Z" transform="translate(-162.84 -361.465)" fill="#e0e0e0"/>
        <path id="Path_17134" data-name="Path 17134" d="M168.074,424.741a.47.47,0,0,0,.228-.5c-3.545-25.842.342-43.44,14.409-55.173a.441.441,0,0,0,0-.641.47.47,0,0,0-.655,0c-14.324,11.5-18.51,29.971-14.651,56.027a.441.441,0,0,0,.555.328A.157.157,0,0,0,168.074,424.741Z" transform="translate(-161.482 -358.569)" fill="#fff"/>
        <path id="Path_17135" data-name="Path 17135" d="M175.969,417.811c.185-3.659,2.848-11.305,8.087-16.644,6.564-6.663,14.238-8.771,16.7-13.711s-2.506-10.422-10.166-8.215c-9.212,2.663-22.938,13.74-20.261,41.832Z" transform="translate(-159.809 -354.144)" fill="#ebebeb"/>
        <path id="Path_17136" data-name="Path 17136" d="M171.919,414.243a.441.441,0,0,0,.313-.384c2.235-19.35,12.814-28.263,18.965-30.555a.456.456,0,0,0,.271-.584.441.441,0,0,0-.584-.271c-6.777,2.534-17.285,11.547-19.563,31.324a.47.47,0,0,0,.413.513A.413.413,0,0,0,171.919,414.243Z" transform="translate(-159.246 -352.585)" fill="#fff"/>
      </g>
      <g id="freepik--plants--inject-19-3" data-name="freepik--plants--inject-19" transform="translate(0 48.951)">
        <path id="Path_17137" data-name="Path 17137" d="M112.622,458.5l-8.771,5.069c-.5-25.714-17.185-44.551-25.23-54.5s3.132-16.217,12.658-11.761,17.271,15.847,20.46,30.683C114.5,440.66,113.077,454.7,112.622,458.5Z" transform="translate(-65.536 -395.845)" fill="#e0e0e0"/>
        <path id="Path_17138" data-name="Path 17138" d="M106.289,456.406h.114a.555.555,0,0,0,.541-.584c-.883-32.363-11.661-48.58-24.119-56.824a.57.57,0,0,0-.626.94c12.287,8.13,22.781,24.005,23.635,55.927A.541.541,0,0,0,106.289,456.406Z" transform="translate(-62.933 -394.533)" fill="#fff"/>
        <path id="Path_17139" data-name="Path 17139" d="M68.61,421.014a7.119,7.119,0,0,0,3.018,4.271,8.33,8.33,0,0,1,3.232,4.214c.755,3.545-3.46,6.82-2.549,10.337a5.7,5.7,0,0,0,2.976,3.317,37.406,37.406,0,0,0,3.474,1.424,13.076,13.076,0,0,0,1.751.427,8.158,8.158,0,0,1,4.784,2.136c1.936,2.107,1.694,5.354,2.378,8.13.826,3.332,2.848,5.282,7.347,6.877l15.562-8.756c3.873-3.944,5.225-10.679,1.666-15.263-2.136-2.762-6.151-3.1-8.158-5.852-1.822-2.477-.769-6.037-1.879-8.885s-4.072-3.844-6.849-4.271-5.7.669-8.543-.328-5.24-2.591-8.059-3.3a9.412,9.412,0,0,0-8.13,1.424A5,5,0,0,0,68.61,421.014Z" transform="translate(-68.609 -387.675)" fill="#ebebeb"/>
        <path id="Path_17140" data-name="Path 17140" d="M95.843,433.952a.285.285,0,0,0-.114-.171c-7.3-10.337-18.737-15.263-22.582-16.118a.4.4,0,1,0-.171.783A43.013,43.013,0,0,1,94.334,433.3a22.268,22.268,0,0,0-17.8,1.552.4.4,0,0,0,.2.74.47.47,0,0,0,.242,0,21.485,21.485,0,0,1,18.182-1.1,33.844,33.844,0,0,1,6.08,20.873.4.4,0,0,0,.356.413h0a.384.384,0,0,0,.413-.384,34.542,34.542,0,0,0-6.165-21.443Z" transform="translate(-66.896 -386.602)" fill="#fff"/>
      </g>
    </g>
    <g id="freepik--Arrows--inject-19" transform="translate(122.819 447.71)">
      <g id="freepik--Arrow--inject-19" transform="translate(61.765)">
        <path id="Path_17141" data-name="Path 17141" d="M198.413,368.5l-27.679-38.3-10.095-5.809L132.96,394.655l10.081,5.809,5.738-3.3v56.81l.014-.014,10.066,5.809v.014h.014l23.721-13.7V377.641Z" transform="translate(-132.96 -324.39)" fill="url(#linear-gradient)"/>
        <path id="Path_17142" data-name="Path 17142" d="M140.04,398.735l27.693-70.265,27.679,38.3-15.819,9.141v68.442l-23.721,13.7h-.014V389.608Z" transform="translate(-129.959 -322.661)" fill="url(#linear-gradient)"/>
        <path id="Path_17143" data-name="Path 17143" d="M140.04,398.735l27.693-70.265,27.679,38.3-15.819,9.141v68.442l-23.721,13.7h-.014V389.608Z" transform="translate(-129.959 -322.661)" opacity="0.3"/>
        <path id="Path_17144" data-name="Path 17144" d="M170.734,330.2l-10.095-5.809L132.96,394.655l10.081,5.809Z" transform="translate(-132.96 -324.39)" opacity="0.15"/>
        <path id="Path_17145" data-name="Path 17145" d="M140.04,380.537l15.819-9.127v68.443l-10.081-5.809v-56.81Z" transform="translate(-129.959 -304.463)" opacity="0.45"/>
      </g>
      <g id="freepik--arrow--inject-19-2" data-name="freepik--arrow--inject-19" transform="translate(0 63.089)">
        <path id="Path_17146" data-name="Path 17146" d="M155.033,412.824l-27.679-38.3L117.273,368.7,89.58,438.979l10.095,5.809,5.724-3.318v29.373h.014l10.081,5.795v.029l.014-.014,23.706-13.7V421.951Z" transform="translate(-89.58 -368.7)" fill="url(#linear-gradient)"/>
        <path id="Path_17147" data-name="Path 17147" d="M96.67,443.055l27.679-70.265,27.679,38.3-15.819,9.127v41.006L112.5,474.92l-.014.014V433.928Z" transform="translate(-86.575 -366.967)" fill="url(#linear-gradient)"/>
        <path id="Path_17148" data-name="Path 17148" d="M96.67,443.055l27.679-70.265,27.679,38.3-15.819,9.127v41.006L112.5,474.92l-.014.014V433.928Z" transform="translate(-86.575 -366.967)" fill="#fff" opacity="0.3"/>
        <path id="Path_17149" data-name="Path 17149" d="M127.354,374.523,117.273,368.7,89.58,438.979l10.095,5.809Z" transform="translate(-89.58 -368.7)" fill="#fff" opacity="0.55"/>
        <path id="Path_17150" data-name="Path 17150" d="M96.67,424.857l15.819-9.127v41.006l-10.095-5.823V421.539Z" transform="translate(-86.575 -348.768)" fill="#fff" opacity="0.1"/>
      </g>
    </g>
    <g id="freepik--character-2--inject-19" transform="translate(487.466 59.342)">
      <g id="freepik--Character--inject-19">
        <g id="freepik--Bottom--inject-19" transform="translate(36.743 136.354)">
          <path id="Path_17151" data-name="Path 17151" d="M447.686,294.82c.456,2.719,1.324,5.88,1.993,11.39s-.527,5.766,2.848,19.734c2.008,8.386,1.3,10.764-2.99,18.239-4.627,8.059-12.6,6.151-16.16-2.278-3.033-7.2-2.15-10.522-2.022-17.911s.114-9.554-.1-15.42c-.2-5.183.313-8.7.071-12.672Z" transform="translate(-346.214 -84.908)" fill="#37474f"/>
          <path id="Path_17152" data-name="Path 17152" d="M451.958,330.333c-.883-7.19-.968-14.608-1.239-19.464-.612-10.864,2.036-32.264.812-48.623L424.08,258.9c.8,6.379,7.817,35.31,10.223,52.681,0,0,.6,23.593,1.894,34a2.008,2.008,0,0,0,2.762,1.609,18.1,18.1,0,0,1,12.473-.555,1.979,1.979,0,0,0,2.691-1.837C454.137,341.011,452.613,335.729,451.958,330.333Z" transform="translate(-349.205 -100.131)" fill="#c8856a"/>
          <path id="Path_17153" data-name="Path 17153" d="M394.894,260.11c-1.125,23.165-1.153,41.177-2.292,47.128a67.588,67.588,0,0,1-4.642,14.594c-1.766,4.115-4.627,9.568-7.119,12.159,0,0-6.991,6.706-5.553,7.518s15.206,3,21.514,1.424,7.247-6.763,9.867-16.274,6.065-22.567,6.065-22.567a10.2,10.2,0,0,1-.9-3.061c-.2-3.289,2.848-13.555,3.859-20.5Z" transform="translate(-369.966 -99.618)" fill="#c8856a"/>
          <path id="Path_17154" data-name="Path 17154" d="M406.618,300.564c-.313,3.132-2.364,4.77-3.246,8.272A62.022,62.022,0,0,0,401.492,321l-.342,5.7-1.566-.1s.441-7.247.641-10.422,0-5.524-1.424-5.952C398.744,310.246,399.086,300.109,406.618,300.564Z" transform="translate(-359.92 -82.48)" fill="#263238"/>
          <path id="Path_17155" data-name="Path 17155" d="M414,289.9a63.744,63.744,0,0,0,3.2,8.628,12.088,12.088,0,0,1,1.21,4.969,5.04,5.04,0,0,1-1.794,4.044,28.306,28.306,0,0,0-3.759,3.887c-2.036,2.435-5.909,8.187-7.119,12.33s-1.965,7.817-5.7,9.71c-2.848,1.424-14.551,3.132-20.4,3.189-7.988.085-9.853-3.859-6.706-6.749s8.543-7.874,9.426-8.543a14.593,14.593,0,0,1,7.347,1.424c4.357,2.164,5.7,4.827,10.451,2.734,4.357-1.894,5.895-9.668,6.692-20.944C408.109,287.255,414,289.9,414,289.9Z" transform="translate(-371.492 -87.053)" fill="#37474f"/>
          <path id="Path_17156" data-name="Path 17156" d="M451.363,147.39c1.609,3.474,4.713,7.318,7.9,14.039s7.119,14.01,7.119,31.139c.128,39-1.21,76.53-1.21,76.53.271,3.446,2.848,11.775,3.232,31.324.3,15.662-1.281,52.809-1.281,52.809a22.1,22.1,0,0,1-18.211,1.509c-2.591-16.16-12.387-63.516-16.146-80.588-3.972-18.011-8.016-39.468-8.016-39.468l-6.735,31.409a91.122,91.122,0,0,1-.256,20.3c-1.253,10.437-9.212,60.355-9.212,60.355s-10.849,3.887-21.357-1.68c0,0,0-65.623-.726-77.085-.669-11.163.627-89.7,8.714-118.5C408.093,156.659,440.328,154.708,451.363,147.39Z" transform="translate(-365.211 -147.39)" fill="#263238"/>
          <path id="Path_17157" data-name="Path 17157" d="M421.009,221.341l-3.6-32.862s-13.54-.9-22.2-9.44c0,0,3.915,10.138,18.2,13.683l4.613,30.284-3.745,29.743Z" transform="translate(-361.441 -133.976)"/>
        </g>
        <g id="freepik--Top--inject-19">
          <g id="freepik--Arm--inject-19" transform="translate(0 38.052)">
            <path id="Path_17158" data-name="Path 17158" d="M423.987,103.809c-8.144,0-15.591,6.763-25.016,19.777-6.379,8.785-11.391,15.178-11.391,15.178s-16.36-21.357-17.427-25c-1.281-4.271,0-7.4-.5-12.216s-1.566-7.874-.968-10.109-3.36-1.666-4.271,1.153-.2,6.265-1.424,5.937-3.93-9.54-4.414-15.035-3.787-6.08-4.414-4.115a11.687,11.687,0,0,0-.384,2.705,2.62,2.62,0,0,0-3.417,1.694c-.228.641-.5,1.894-.5,1.894a3.745,3.745,0,0,0-2.719,3,6.736,6.736,0,0,1-.684,2.036c-1,1.737-.783,4.556-.683,6.008A68.534,68.534,0,0,0,347.2,105.1a26.88,26.88,0,0,0,2.15,5.966c1.524,2.449,4.983,6.991,8.03,11.163.8,1.1,2.05,3.645,5.7,11.8,4.271,9.326,8.159,18.994,15.206,27.608,5.909,7.219,14.594,0,19.791-4.784,7.418-6.763,20.8-19.506,20.8-19.506C425.339,123.044,423.987,103.809,423.987,103.809Z" transform="translate(-345.687 -78.348)" fill="#c8856a"/>
            <path id="Path_17159" data-name="Path 17159" d="M417.541,95.9c-8.543-.911-13.455,4.271-18.424,10.081s-18.51,24.4-18.51,24.4l-3.759-4.143a13.184,13.184,0,0,1-5.069,9.639c-5.225,4.485-9.81,3.232-9.81,3.232a79.926,79.926,0,0,0,5.937,11.39c3.645,5.7,6.849,7.8,11.39,7.4s7.731-3.189,17.015-12.074,16.644-16.815,16.644-16.815Z" transform="translate(-338.785 -70.953)" fill="#37474f"/>
            <path id="Path_17160" data-name="Path 17160" d="M358.279,93.94a11.7,11.7,0,0,0-1.552,13.526s-3.346-4.143-2.364-8.415a6.578,6.578,0,0,1,3.915-5.111Z" transform="translate(-342.086 -71.74)" fill="#af6152"/>
            <path id="Path_17161" data-name="Path 17161" d="M375,120.683s4.186,4.271,5.838,13.583a19.691,19.691,0,0,0-4.271-15.576Z" transform="translate(-333.263 -61.251)" fill="#263238"/>
          </g>
          <path id="Path_17162" data-name="Path 17162" d="M458.407,139.4c-11.689-7.034-8.628-27.992-6.493-38.685,0,0-4.784-2.207-21.357-3.659-14.978-1.31-21.357-.584-21.357-.584-2.463,2.121-8.044,7.119-17.983,21.742-4.9,7.219-6.863,16.075,1.253,27.052l1.495,11.234c.712,8.9-3.246,15.534-.171,19.093,1.794,2.107,11.974,7.589,31.452,7.4,19.15-.185,26.953-6.151,29.16-8.1,3.4-3.3.5-11.59.883-16.246a82.138,82.138,0,0,1,3.118-19.25Z" transform="translate(-328.194 -32.701)" fill="#455a64"/>
          <path id="Path_17163" data-name="Path 17163" d="M432.87,99c10.437,1.538,16.73,4.271,20.019,12.9s12.985,37.973,14.964,44.138,1.424,8.842-1.21,14.893q-2.477,5.7-4.9,11.39c-2.15,5.055-5.838,13.469-6.564,15.477a17.412,17.412,0,0,0-1.424,6.407,40.314,40.314,0,0,1-.242,6.806,28.475,28.475,0,0,1-2.164,7.774c-.755,1.723-1.253,3.6-2.107,5.254a20.091,20.091,0,0,1-2.591,3.118c-.954,1.153-1.324,2.634-2.477,3.645-2.008,1.766-4.072,1.951-5.966,2.748-.84,1.139-2.278,3.545-3.218,4.613-2.392,2.705-2.776-1.879-2.634-3.417a22.113,22.113,0,0,1,1.1-4.869,111.234,111.234,0,0,0,3.232-12.088c.157-.726,1.139-3.716-.085-3.745a1.424,1.424,0,0,0-1.011.541,34.166,34.166,0,0,0-2.25,3.033,20.419,20.419,0,0,1-2.036,2.121,6.593,6.593,0,0,1-2.036,1.424c-.8.3-3.7.427-3.787-.911a1.425,1.425,0,0,1,.171-.626c.641-1.424,1.424-2.648,2.05-4.015a36.75,36.75,0,0,0,1.822-4.129,34,34,0,0,1,5.567-11.718c5.126-6.493,11.974-38.756,11.974-38.756L438.209,137.1a44.665,44.665,0,0,1-7.959-22.154C429.652,102.56,432.87,99,432.87,99Z" transform="translate(-311.869 -31.544)" fill="#c8856a"/>
          <path id="Path_17164" data-name="Path 17164" d="M431.607,98.78c5.168.6,12.3,1.424,16.3,6.08s5.154,5.909,10.636,22.041,9.326,28.006,9.8,30.27,1.281,3.616-3.289,14.594c0,0-2.178-2.776-8.756-4.67a26.241,26.241,0,0,0-11.675-.8l.626-3.816-9.767-25.629a44.352,44.352,0,0,1-7.019-23.835C428.46,101.941,431.607,98.78,431.607,98.78Z" transform="translate(-310.606 -31.637)" fill="#37474f"/>
          <path id="Path_17165" data-name="Path 17165" d="M440.505,146.351l-2.335,9.682c6.307-.085,13.355,1.68,18.4,5.909l4.371-10.18s-.854-2.321-8.315-4.642S440.505,146.351,440.505,146.351Z" transform="translate(-306.491 -11.691)" fill="#455a64"/>
          <g id="freepik--Head--inject-19" transform="translate(69.581)">
            <path id="Path_17166" data-name="Path 17166" d="M414.766,98.22a22.867,22.867,0,0,0-3.6-6.094A32.648,32.648,0,0,0,405.4,88.31c-2.05-1.424-4.129-2.677-6.151-4.072-5.951-4.072-5.254-13.284-3.26-18.367,3.346-8.543,13.868-14.053,23.009-14.238,14.594-.256,20.859,4.271,22.112,11.832,3.488.313,5.24,2.008,7.119,4.271,3.773,4.741,3.132,12.814,1.58,18.652-2.178,8.287-5.7,10.109-8.643,13.284a27.138,27.138,0,0,0-5.425,8.9S416.887,102.463,414.766,98.22Z" transform="translate(-394.556 -51.623)" fill="#455a64"/>
            <path id="Path_17167" data-name="Path 17167" d="M438.409,95.029a6.72,6.72,0,0,0,6.293-2.591c3.5-3.915,3.816-7.874,2.15-10.508-1.424-2.15-4.713-3.517-7.048-2.036s-2.563,2.848-3.488,4.642-4.6,1.637-5.51-5.5c-.854-6.663-.484-12.814-3.773-15.762-4.9-4.457-10.138-2.25-13.654.413-2.008-3.1-4.8-4.8-8.116-2.99s-7.276,6.507-7.646,18.51c-.413,12.942.456,20.446,5.126,24.2,2.178,1.723,5.111,1.965,9.967,2.15l-.4,6.179s-5.268,10.209,3.033,11.519c11.291,1.794,18.51-9.8,18.51-9.8l1.424-20.36A4.115,4.115,0,0,0,438.409,95.029Z" transform="translate(-393.297 -48.09)" fill="#c8856a"/>
            <path id="Path_17168" data-name="Path 17168" d="M429.467,82.739a1.694,1.694,0,1,1-.5-1.212A1.709,1.709,0,0,1,429.467,82.739Z" transform="translate(-381.208 -39.16)" fill="#fafafa"/>
            <path id="Path_17169" data-name="Path 17169" d="M408.66,64.239s1.993-4.585,8.913-5.425a10.308,10.308,0,0,1,11.59,7.119c1.125,3.488,0,13.1.94,15.52a3.987,3.987,0,0,0,5.026,2.463c-3.389,3.374-6.962,3.346-9.554.925s-2.606-7.29-3.175-13.341C421.8,65.122,415.85,60.708,408.66,64.239Z" transform="translate(-388.578 -48.638)" fill="#e0e0e0"/>
            <path id="Path_17170" data-name="Path 17170" d="M418.193,72.3a.484.484,0,0,0-.37,0h-.327l-.655.171-.641.2-.327.1h-.142a.37.37,0,0,0-.128.128s-.085.157,0,.2.071,0,.128,0h.47l.641-.071h1.168a.328.328,0,0,0,.2-.128C418.335,72.785,418.378,72.4,418.193,72.3Z" transform="translate(-385.653 -42.875)" fill="#af6152"/>
            <path id="Path_17171" data-name="Path 17171" d="M418.3,73.811c-.114-.214-.384-.157-.6-.171H415.67l1.3.271.6.242.342.071a.271.271,0,0,0,.313-.071A.313.313,0,0,0,418.3,73.811Z" transform="translate(-385.608 -42.292)" fill="#af6152"/>
            <path id="Path_17172" data-name="Path 17172" d="M398.877,71.459a.541.541,0,0,1,.356,0,2.693,2.693,0,0,1,.3.128l.612.313.584.327.285.171.142.085a.556.556,0,0,1,.085.157s0,.185,0,.214-.085,0-.142,0h-.142l-.3-.114-.612-.214-.655-.214-.327-.114h-.142a.413.413,0,0,1-.157-.157C398.635,71.9,398.663,71.516,398.877,71.459Z" transform="translate(-392.806 -43.229)" fill="#af6152"/>
            <path id="Path_17173" data-name="Path 17173" d="M398.4,72.883c.157-.171.413,0,.626,0l.683.128,1.3.327h-2.335a.285.285,0,0,1-.285-.142A.3.3,0,0,1,398.4,72.883Z" transform="translate(-392.951 -42.645)" fill="#af6152"/>
            <path id="Path_17174" data-name="Path 17174" d="M411.812,74.4a2.278,2.278,0,0,0,2.677,1.111,1.68,1.68,0,0,0,1.424-2.164,2.278,2.278,0,0,0-2.677-1.111,1.68,1.68,0,0,0-1.424,2.164Z" transform="translate(-387.274 -42.927)" fill="#263238"/>
            <path id="Path_17175" data-name="Path 17175" d="M400.349,70.352,405.19,68.8a2.449,2.449,0,0,0-3.118-1.694,2.677,2.677,0,0,0-1.723,3.246Z" transform="translate(-392.142 -45.111)" fill="#263238"/>
            <path id="Path_17176" data-name="Path 17176" d="M405.123,74.021a2.221,2.221,0,0,1-2.705.982,1.694,1.694,0,0,1-1.31-2.221,2.278,2.278,0,0,1,2.719-1.025,1.694,1.694,0,0,1,1.3,2.264Z" transform="translate(-391.819 -43.142)" fill="#263238"/>
            <path id="Path_17177" data-name="Path 17177" d="M412.88,69.193l5.055,2.036a2.62,2.62,0,0,0-1.424-3.531A2.848,2.848,0,0,0,412.88,69.193Z" transform="translate(-386.79 -44.892)" fill="#263238"/>
            <path id="Path_17178" data-name="Path 17178" d="M415.119,81.64,408,83.676a3.688,3.688,0,0,0,4.9,2.406,3.446,3.446,0,0,0,2.221-4.442Z" transform="translate(-388.858 -38.901)" fill="#af6152"/>
            <path id="Path_17179" data-name="Path 17179" d="M410,85.848a3.873,3.873,0,0,1,3.987-3.317h.356a3.246,3.246,0,0,1-2.321,3.118A4.129,4.129,0,0,1,410,85.848Z" transform="translate(-388.011 -38.525)" fill="#f28f8f"/>
            <path id="Path_17180" data-name="Path 17180" d="M411.215,71l-1.965,12.074L403,80.967A21.058,21.058,0,0,1,411.215,71Z" transform="translate(-390.977 -43.41)" fill="#af6152"/>
            <path id="Path_17181" data-name="Path 17181" d="M408.2,94.7a45.561,45.561,0,0,0,13.754-2.634c1.609-.641,3.816-3.488,5.7-6.663,0,0-1.424,6.322-4.869,8.429-5.3,3.189-14.694,3.645-14.694,3.645Z" transform="translate(-388.82 -37.308)" fill="#af6152"/>
          </g>
          <path id="Path_17182" data-name="Path 17182" d="M447.341,100.7c-1.751,6.094,0,65.41,0,65.41a40.407,40.407,0,0,1-18,5.4c-10.351.513-16.274-1.837-16.274-1.837s.142-28.889,2.335-40.223c4.613-23.835,17.855-31.908,17.855-31.908a93.672,93.672,0,0,0,14.081,3.161Z" transform="translate(-317.129 -32.163)" fill="url(#linear-gradient)"/>
          <path id="Path_17183" data-name="Path 17183" d="M447.341,100.7c-1.751,6.094,0,65.41,0,65.41a40.407,40.407,0,0,1-18,5.4c-10.351.513-16.274-1.837-16.274-1.837s.142-28.889,2.335-40.223c4.613-23.835,17.855-31.908,17.855-31.908a93.672,93.672,0,0,0,14.081,3.161Z" transform="translate(-317.129 -32.163)" fill="#fff" opacity="0.45"/>
          <path id="Path_17184" data-name="Path 17184" d="M415.113,129.5a110.324,110.324,0,0,0-1.353,12.017c8.543-1.253,16.061-7.361,20.588-13.968,5.083-7.39,8.856-19.777,9.44-27.309-3.545-.641-7.119-1.609-10.821-2.648C432.967,97.519,419.8,105.592,415.113,129.5Z" transform="translate(-316.836 -32.142)" opacity="0.4" fill="url(#linear-gradient)"/>
          <path id="Path_17185" data-name="Path 17185" d="M414.6,94.6l-.157,2.378s-1.267,5.311,3,6.82,13.341-.313,18.623-6.122l.2-3.075a4.129,4.129,0,0,1,3.2,1.566c1.011,1.566,13.327,5.254,13.327,5.254s-9.44,39.582-41.29,37.816-16.317-32.434-6.877-42.828a16.374,16.374,0,0,0,4.884-.128C411.952,95.924,412.707,94.628,414.6,94.6Z" transform="translate(-325.878 -33.409)" fill="url(#linear-gradient)"/>
          <path id="Path_17186" data-name="Path 17186" d="M414.6,94.6l-.157,2.378s-1.267,5.311,3,6.82,13.341-.313,18.623-6.122l.2-3.075a4.129,4.129,0,0,1,3.2,1.566c1.011,1.566,13.327,5.254,13.327,5.254s-9.44,39.582-41.29,37.816-16.317-32.434-6.877-42.828a16.374,16.374,0,0,0,4.884-.128C411.952,95.924,412.707,94.628,414.6,94.6Z" transform="translate(-325.878 -33.409)" fill="#fff" opacity="0.55"/>
          <path id="Path_17187" data-name="Path 17187" d="M407.163,133.159a18.666,18.666,0,0,1-5.795-2.719,9.711,9.711,0,0,1-3.745-4.869,15.819,15.819,0,0,1-.513-6.307,38.3,38.3,0,0,1,1.182-6.421,51.946,51.946,0,0,1,2.093-6.251,44.137,44.137,0,0,1,2.848-5.994,42.715,42.715,0,0,0-5.866,11.96,33.433,33.433,0,0,0-1.424,6.592,16.887,16.887,0,0,0,.5,6.834,10.992,10.992,0,0,0,4.271,5.467,18.509,18.509,0,0,0,6.265,2.677,21.357,21.357,0,0,0,13.213-.911,19.834,19.834,0,0,1-6.507.868A24.519,24.519,0,0,1,407.163,133.159Zm-.3-22.083.441.8a7.12,7.12,0,0,0,1.082,1.424,9.611,9.611,0,0,0,1.424,1.082,7.119,7.119,0,0,0,1.637.683,12.273,12.273,0,0,0,6.735-.228,15.918,15.918,0,0,1-6.407-.74,6.379,6.379,0,0,1-3.987-4.271,13.271,13.271,0,0,1-.171-6.265,38.8,38.8,0,0,1,1.837-6.35,21.543,21.543,0,0,0-2.848,6.122,12.4,12.4,0,0,0-.071,6.877Zm33.83,4.129a73.8,73.8,0,0,1-9.326,11.7A38.23,38.23,0,0,0,441.79,115.9a42.172,42.172,0,0,0,5.482-14.153,89.907,89.907,0,0,1-6.578,13.455Zm-2.62-18.695a24.846,24.846,0,0,1-1.894,5.524,50.708,50.708,0,0,1-2.62,5.2,41.815,41.815,0,0,1-6.962,9.212,21.157,21.157,0,0,1-9.71,5.7,17.456,17.456,0,0,1-5.7.413,25.53,25.53,0,0,1-5.7-1.253,22.268,22.268,0,0,0,5.61,1.894,17.941,17.941,0,0,0,5.98-.071,20.432,20.432,0,0,0,10.422-5.795,36.65,36.65,0,0,0,6.92-9.668,31.893,31.893,0,0,0,3.645-11.148ZM414.6,107.658a16.175,16.175,0,0,0,8.344.6,19.293,19.293,0,0,0,7.7-3.2,25.946,25.946,0,0,0,3.161-2.677,23.074,23.074,0,0,0,2.577-3.2,31.935,31.935,0,0,1-3,2.734,26.244,26.244,0,0,1-3.289,2.307,21.656,21.656,0,0,1-7.361,2.748,20.23,20.23,0,0,1-3.93.313,13.284,13.284,0,0,1-3.844-.555,4.827,4.827,0,0,1-2.848-2.25,6.35,6.35,0,0,1-.513-3.873,6.037,6.037,0,0,0,0,4.129,5.539,5.539,0,0,0,3,2.933Z" transform="translate(-324.449 -32.599)" opacity="0.4" fill="url(#linear-gradient)"/>
        </g>
      </g>
    </g>
    <g id="freepik--character-1--inject-19" transform="translate(357.165 211.918)">
      <g id="freepik--character--inject-19-2" data-name="freepik--character--inject-19">
        <path id="Path_17188" data-name="Path 17188" d="M378.816,418.171c0,1.965.37,2.719-2.036,4.5s-7.632,2.591-11.6,1.509a10.65,10.65,0,0,1-6.407-3.859,54.642,54.642,0,0,1-3.716-5.61c-.7-.9-3.93-2.591-7.048-3.972s-9.554-4.357-11.8-9.682a12.558,12.558,0,0,1-.7-9.127Z" transform="translate(-219.934 -59.973)" fill="#263238"/>
        <path id="Path_17189" data-name="Path 17189" d="M357.691,392.974c6.35,4.143,11.69,14.566,20.375,11.391.441,5.111,1.794,10.607.584,15.662-3.7,4.57-11.8,5.453-16.473,2.15-2.349-1.993-3.673-4.343-5.937-6.464a23.007,23.007,0,0,0-6.251-3.8,66.775,66.775,0,0,1-7.56-4.186C328.46,397.331,335.423,378.38,357.691,392.974Z" transform="translate(-219.824 -61.786)" fill="#37474f"/>
        <path id="Path_17190" data-name="Path 17190" d="M353.818,431.229c0,2.136-.142,3.73-1.424,4.627s-11.035,2.506-13.626,2.848-2.962-1.424-4.77-.8-6.051,3.7-12.4,5.111-11.547,2.848-20.36,0-9.668-6.322-9.554-9.3S353.818,431.229,353.818,431.229Z" transform="translate(-238.277 -43.331)" fill="#263238"/>
        <path id="Path_17191" data-name="Path 17191" d="M352.609,417.944c1.424,6.094,2.933,15.235,1.281,19.933-1.78,1.766-7.731,2.848-12.914,3.5a40,40,0,0,0-13.74,4.271c-10.066,4.2-27.779,5.7-34.841-3.745-7.034-12.658,29.629-9.554,34.171-24.2C328.162,412.319,345.96,419.382,352.609,417.944Z" transform="translate(-238.349 -49.922)" fill="#37474f"/>
        <path id="Path_17192" data-name="Path 17192" d="M391.655,403.515c-4.912-52.1-3.9-94.811-5.539-136.387,0,0-71.732-7.617-73.54,17.2s-1.31,95.167-.74,106.1c.256,11.077,4.271,86,4.271,93.815,18.154,9,29.416,2.193,29.416,2.193-.114-10.081,7.76-55.087,3.488-79.662l2.848-47.925s12.458,80.929,14.566,101.09c5.354,7.945,20.574,6.094,23.108,1.3C389.562,461.222,393.363,418.835,391.655,403.515Z" transform="translate(-229.954 -113.333)" fill="#455a64"/>
        <path id="Path_17193" data-name="Path 17193" d="M339.81,345.3l4.086-34.883A38.628,38.628,0,0,0,364,298c-2.178,7.959-9.739,13.626-15.206,15.562l-5.795,30,2.264,37.731Z" transform="translate(-217.876 -99.782)" fill="#37474f"/>
        <path id="Path_17194" data-name="Path 17194" d="M347.572,333.241c.854,13.782,1.751,28.035,2.947,34.755,1.879,10.493,7.19,65.723,8.429,78.794a12.568,12.568,0,0,1-1.224-.441c-1.338-14-6.507-67.83-8.358-78.139-1.224-6.792-2.107-21.087-2.976-34.9-.655-10.394-1.267-20.218-1.951-25.315l1.168-.157C346.305,312.98,346.917,322.818,347.572,333.241Z" transform="translate(-215.914 -95.612)" fill="#37474f"/>
        <path id="Path_17195" data-name="Path 17195" d="M322.642,482.492c-1.566-23.564-5.339-82.908-5.026-106.786.356-28.476,1.31-78.95,3.616-97.346l1.168.142c-2.292,18.339-3.246,68.784-3.616,97.218-.3,23.934,3.5,83.734,5.055,107.028Z" transform="translate(-227.29 -108.105)" fill="#37474f"/>
        <path id="Path_17196" data-name="Path 17196" d="M321.05,318.817l.6-1.011c-9.013-5.311-7.945-21.015-7.318-30.4,0-.7.1-1.424.128-2.008H313.29a16.905,16.905,0,0,1-.128,2.008C312.507,296.99,311.41,313.136,321.05,318.817Z" transform="translate(-229.343 -105.122)" fill="#37474f"/>
        <g id="freepik--top--inject-19-2" data-name="freepik--top--inject-19">
          <path id="Path_17197" data-name="Path 17197" d="M367.58,212.82c7.261,3.417,9.967,8.244,12.43,21.186s5.7,39.354,5.51,45.647-4.4,9.967-11.191,8.913-19.079-1.908-19.079-1.908Z" transform="translate(-211.332 -135.882)" fill="#263238"/>
          <path id="Path_17198" data-name="Path 17198" d="M386.47,215.818a227.586,227.586,0,0,0-23.906-9.668c-.8,3.745-13.512,8.842-23.322,6.848-2.919.869-16.958,6.977-17.769,7.518-8.2,5.567-8.984,14.907-9.653,40.308s-.128,66.492-.128,66.492c12.515,6.094,35.282,7.119,48.78,5.482,11.718-1.424,21.357-5.838,26.369-11.148,0,0-1.153-21.471-.669-35.923.328-9.4,1.011-13.868,2.193-30.74C389.83,234.057,391.1,221.6,386.47,215.818Z" transform="translate(-229.88 -138.709)" fill="#37474f"/>
          <path id="Path_17199" data-name="Path 17199" d="M332.65,206.944l.641,11.348,23.35-1.908-.755-21.514Z" transform="translate(-220.91 -143.489)" fill="#ffa8a7"/>
          <path id="Path_17200" data-name="Path 17200" d="M335.611,208.617s8.272,3.2,15.505,2.606c8.23-.683,7.888-4.271,7.888-4.271V205.3s1.3,0,2.107,1.808c1.2,2.606,1.979,4.884,1.979,4.884s1.424,4.727-7.034,6.92c-12.131,3.161-26.625-4.158-26.625-4.158l-2.591.94s4.684-6.421,6.749-7.959a3.574,3.574,0,0,1,1.936-.911Z" transform="translate(-223.373 -139.069)" fill="#263238"/>
          <path id="Path_17201" data-name="Path 17201" d="M323.556,183.06s-5.781,8.045-5.183,8.885,4.556,1.723,4.556,1.723Z" transform="translate(-226.98 -148.494)" fill="#f28f8f"/>
          <path id="Path_17202" data-name="Path 17202" d="M325.545,190.724a6.493,6.493,0,1,1,6.749-6.222,6.493,6.493,0,0,1-6.749,6.222ZM326,179.191a4.612,4.612,0,1,1-.014,0Z" transform="translate(-226.562 -150.748)" fill="#263238"/>
          <path id="Path_17203" data-name="Path 17203" d="M339.294,167.655c-11.106,1.879-15.662,6.777-17.442,24.2-1.822,18.239,1.025,23.877,3.332,26.426,1.552,1.737,10.55,2.392,15.149,1.324,5.7-1.338,18.794-5.382,25.187-14.338,7.532-10.536,9.967-25.13,2.634-31.452C357.818,164.964,343.822,166.886,339.294,167.655Z" transform="translate(-225.732 -155.33)" fill="#ffa8a7"/>
          <path id="Path_17204" data-name="Path 17204" d="M336.221,205.263l-.37-3.4a21.741,21.741,0,0,1-11.39,2.107C326.51,205.092,331.978,205.6,336.221,205.263Z" transform="translate(-224.381 -140.527)" fill="#f28f8f"/>
          <path id="Path_17205" data-name="Path 17205" d="M319.887,181.19l19.492,3.317-.854,1.353-18.695-3.2Z" transform="translate(-226.344 -149.287)" fill="#263238"/>
          <path id="Path_17206" data-name="Path 17206" d="M320.457,176.049a5.766,5.766,0,0,0-1,3.09,5.168,5.168,0,0,0,2.62,4.627,4.485,4.485,0,0,0,5.168-.74,5.766,5.766,0,0,0,1.652,5.2,4.086,4.086,0,0,0,5.211.2c-.413,1-.726,2.364.157,2.976a1.808,1.808,0,0,0,.755.285,3.844,3.844,0,0,0,2.292-.285,3.7,3.7,0,0,0-.8,3.289c.128.37,2.122,2.606,2.207,2.321,0,0,2.008-6.692,7.674-5.61s6.179,8.429,2.392,12.729-7.048,2.477-7.119,2.449c.1,1.182.3,7.532,5.7,10.906,3.332,2.05,9.3,4.015,14.366,2.178,3.389-1.424,5.7-5.3,9.027-10.565a66.533,66.533,0,0,0,6.194-14.238c1.609-5.7,1.794-8.429.612-12.572a10.394,10.394,0,0,0-7.689-7.489c-.4-4.015-1.153-7.119-5.7-10.536-7.119-5.439-14.95-5.5-21-4.884a34.413,34.413,0,0,1-6.251.527c-1.808-.157-3.545-.8-5.339-1.011a5.7,5.7,0,0,0-5,1.424,5.824,5.824,0,0,0-.513,5.467,8.956,8.956,0,0,0-4.115,1.424,5.012,5.012,0,0,0-2.178,3.645,3.445,3.445,0,0,0,2.178,3.46,6.277,6.277,0,0,0-1.509,1.737Z" transform="translate(-226.501 -158.783)" fill="#263238"/>
          <path id="Path_17207" data-name="Path 17207" d="M333.864,190.618l.513-7.646a3.832,3.832,0,0,0-.513,7.646Z" transform="translate(-221.911 -148.535)" fill="#263238"/>
          <path id="Path_17208" data-name="Path 17208" d="M292.989,191.6l-35.695,18.623a4.5,4.5,0,0,0-2.093,5.382l18.51,50.531a3.147,3.147,0,0,0,4.656,1.737l32.975-18.51a4.912,4.912,0,0,0,2.193-5.539l-15.989-50.346a3.1,3.1,0,0,0-4.556-1.879Z" transform="translate(-253.835 -145.051)" fill="#455a64"/>
          <path id="Path_17209" data-name="Path 17209" d="M290.835,195.075l-31.124,16.246a2.962,2.962,0,0,0-1.424,3.574l16.886,44.85a2.136,2.136,0,0,0,3.132,1.153l28.818-16.146a3.232,3.232,0,0,0,1.424-3.673l-14.708-44.75a2.093,2.093,0,0,0-3-1.253Z" transform="translate(-252.493 -143.509)" fill="#fff"/>
          <path id="Path_17210" data-name="Path 17210" d="M261.478,214.3a.527.527,0,0,1-.242-1l28.932-15.092a.513.513,0,0,1,.712.228.527.527,0,0,1-.214.712L261.72,214.241A.469.469,0,0,1,261.478,214.3Z" transform="translate(-251.299 -142.102)" fill="#e0e0e0"/>
          <path id="Path_17211" data-name="Path 17211" d="M262.418,216.948a.5.5,0,0,1-.47-.285.527.527,0,0,1,.214-.712l28.946-15.092a.527.527,0,0,1,.712.214.541.541,0,0,1-.228.712l-28.932,15.107a.541.541,0,0,1-.242.057Z" transform="translate(-250.901 -140.978)" fill="#e0e0e0"/>
          <path id="Path_17212" data-name="Path 17212" d="M263.346,219.6a.57.57,0,0,1-.47-.285.541.541,0,0,1,.228-.712L292.036,203.5a.541.541,0,0,1,.712.228.527.527,0,0,1-.214.712l-28.946,15.092a.484.484,0,0,1-.242.071Z" transform="translate(-250.504 -139.857)" fill="#e0e0e0"/>
          <path id="Path_17213" data-name="Path 17213" d="M264.288,222.238a.5.5,0,0,1-.47-.285.527.527,0,0,1,.214-.712l28.946-15.092a.522.522,0,1,1,.484.925L264.53,222.181a.542.542,0,0,1-.242.057Z" transform="translate(-250.108 -138.736)" fill="#e0e0e0"/>
          <path id="Path_17214" data-name="Path 17214" d="M265.218,224.89a.527.527,0,0,1-.242-1l28.932-15.107a.541.541,0,0,1,.712.228.513.513,0,0,1-.228.712l-28.932,15.05a.669.669,0,0,1-.242.114Z" transform="translate(-249.714 -137.615)" fill="#e0e0e0"/>
          <path id="Path_17215" data-name="Path 17215" d="M266.158,227.528a.5.5,0,0,1-.47-.285.527.527,0,0,1,.214-.712l28.946-15.092a.513.513,0,0,1,.712.228.541.541,0,0,1-.228.712L266.4,227.471a.542.542,0,0,1-.242.057Z" transform="translate(-249.316 -136.495)" fill="#e0e0e0"/>
          <path id="Path_17216" data-name="Path 17216" d="M267.088,230.179a.527.527,0,0,1-.242-1l28.932-15.092a.522.522,0,1,1,.484.926L267.33,230.122a.469.469,0,0,1-.242.057Z" transform="translate(-248.921 -135.372)" fill="#e0e0e0"/>
          <path id="Path_17217" data-name="Path 17217" d="M268.016,232.8a.527.527,0,0,1-.456-.285.512.512,0,0,1,.214-.712l28.918-15.078a.532.532,0,0,1,.5.94L268.215,232.8a.584.584,0,0,1-.2,0Z" transform="translate(-248.525 -134.251)" fill="#e0e0e0"/>
          <path id="Path_17218" data-name="Path 17218" d="M268.959,235.478a.541.541,0,0,1-.47-.285.513.513,0,0,1,.228-.712l29-15.092a.527.527,0,1,1,.484.925l-28.96,15.107a.469.469,0,0,1-.285.057Z" transform="translate(-248.13 -133.139)" fill="#e0e0e0"/>
          <path id="Path_17219" data-name="Path 17219" d="M269.888,238.121a.527.527,0,0,1-.242-1l28.932-15.107a.527.527,0,0,1,.712.228.512.512,0,0,1-.214.712l-28.932,15.107a.825.825,0,0,1-.256.057Z" transform="translate(-247.734 -132.009)" fill="#e0e0e0"/>
          <path id="Path_17220" data-name="Path 17220" d="M270.828,240.808a.527.527,0,0,1-.242-1l28.932-15.092a.513.513,0,0,1,.712.228.541.541,0,0,1-.228.712L271.07,240.751a.469.469,0,0,1-.242.057Z" transform="translate(-247.336 -130.866)" fill="#e0e0e0"/>
          <path id="Path_17221" data-name="Path 17221" d="M271.758,243.411a.527.527,0,0,1-.242-1l28.932-15.107a.527.527,0,0,1,.712.228.513.513,0,0,1-.214.712L272,243.354a.469.469,0,0,1-.242.057Z" transform="translate(-246.942 -129.767)" fill="#e0e0e0"/>
          <path id="Path_17222" data-name="Path 17222" d="M332.018,217.43c-9.824.854-17.726,8-22.781,17.755-7.532,14.665-19.748,33.73-21.7,37.019-2.719,4.585-3.232,11.561-.883,15.762,2.178,3.944,9.112,5.7,16.986-3.147,9.34-10.565,26.739-36.35,26.739-36.35S342.967,233.9,332.018,217.43Z" transform="translate(-241.037 -133.928)" fill="#ffa8a7"/>
          <path id="Path_17223" data-name="Path 17223" d="M266.9,230.1v-.185a23.377,23.377,0,0,1,.114-5.183,4.571,4.571,0,0,1,1.951-3.289,1.709,1.709,0,0,1,2.221.2,3.544,3.544,0,0,1,.4,1.766,13.4,13.4,0,0,0,.569,3.175,20.258,20.258,0,0,0,1.253,2.634,12.6,12.6,0,0,1,.94,3.588c.142,1.153.242,2.292.427,3.417.342,2.164.47,4.513,1.766,6.379,1.951,2.848,25.956,23.792,25.956,23.792l1.424,26.326c-7.518-.911-24.888-22.083-30.754-29.245-6.421-7.845-9.839-11.675-13.626-16.046s-5.026-10.864-5.3-14.95c-.327-4.855.541-7.333,1.58-12.088,0-3.389,0-5.553,2.364-6.991l3.83,10.451,2.477,6.806c.47.427.755.826,1.424.869a1.281,1.281,0,0,0,.527-.085C266.87,231.2,266.927,230.628,266.9,230.1Z" transform="translate(-254.171 -135.636)" fill="#ffa8a7"/>
          <path id="Path_17224" data-name="Path 17224" d="M340.513,216.24c-15.363,4.086-15.334,6.037-20.873,13.227s-22.368,33.417-22.368,33.417l-19.179-14.808s-10.081,2.065-11.533,12.572c0,0,12.814,17.641,19.848,24.433,5.61,5.41,11.7,9.07,16.516,7.3s7.945-4.67,19.706-17.94c8.059-9.1,13.284-15.021,18.324-21.443S353.754,222.79,340.513,216.24Z" transform="translate(-248.92 -134.433)" fill="#263238"/>
        </g>
      </g>
    </g>
  </g>
</svg>
